<svg version="1.2" xmlns="http://www.w3.org/2000/svg" xmlns:xlink="http://www.w3.org/1999/xlink" overflow="visible" preserveAspectRatio="none" viewBox="0 0 26 26" width="16" height="16"><g transform="translate(1, 1)"><g><path d="M0 0h24v24H0z" fill="none" vector-effect="non-scaling-stroke"></path><path d="M21 6.757l-2 2V4h-9v5H5v11h14v-2.757l2-2v5.765a.993.993 0 0 1-.993.992H3.993A1 1 0 0 1 3 20.993V8l6.003-6h10.995C20.55 2 21 2.455 21 2.992v3.765zm.778 2.05l1.414 1.415L15.414 18l-1.416-.002.002-1.412 7.778-7.778z" vector-effect="non-scaling-stroke" style="fill: rgb(20, 46, 123);"></path></g></g></svg>