<svg version="1.2" xmlns="http://www.w3.org/2000/svg" xmlns:xlink="http://www.w3.org/1999/xlink" overflow="visible" preserveAspectRatio="none" viewBox="0 0 26 26" width="16" height="16"><g transform="translate(1, 1)"><g><path d="M0 0h24v24H0z" fill="none" vector-effect="non-scaling-stroke"/><path d="M11.29 20c.215.722.543 1.396.965 2H3.993A1 1 0 0 1 3 21.008V2.992C3 2.444 3.447 2 3.999 2H16l5 5v4.674a6.95 6.95 0 0 0-2-.603V8h-4V4H5v16h6.29zM18 23a5 5 0 1 1 0-10 5 5 0 0 1 0 10zm-1.293-2.292a3 3 0 0 0 4.001-4.001l-4.001 4zm-1.415-1.415l4.001-4a3 3 0 0 0-4.001 4.001z" vector-effect="non-scaling-stroke" style="fill: rgb(20, 46, 123);"/></g></g></svg>
