<svg xmlns="http://www.w3.org/2000/svg" width="19" height="19" viewBox="0 0 19 19"><path d="M16.045 7.046v-4.982h-3.273v1.708l-3.273-3.272-9 8.999h1.637v9.001h14.728v-9.001h1.636l-2.455-2.453zm-6.607 1.916c0 .57-.231 1.078-.65 1.429-.187.155-.404.276-.633.355v6.271c0 .346-.281.625-.625.625s-.623-.279-.623-.625v-6.27c-.7-.238-1.283-.867-1.283-1.786v-2.694c0-.198.158-.357.356-.357.196 0 .356.16.356.357v2.695c0 .628.418.99.837 1.119v-3.814c0-.198.161-.357.356-.357.198 0 .356.16.356.357v3.814c.42-.129.837-.491.837-1.119v-2.695c0-.198.16-.357.357-.357s.357.16.357.357v2.695zm3.937 8.056c0 .346-.277.625-.623.625-.344 0-.621-.279-.621-.625v-4.854c-.934-.811-1.445-1.826-1.445-2.862 0-.97.391-2.431 1.492-3.357l.078-.053c.111-.152.295-.249.496-.249.346 0 .623.278.623.624v10.751z" fill="#1C3660"/></svg>