<svg xmlns="http://www.w3.org/2000/svg" width="19" height="19" viewBox="0 0 19 19"><g fill="#036"><path d="M17.646.628l-2.577 1.969L10.216.71l-.946.723 3.899 2.67-1.913 1.462-1.269-.325-.748.572 1.368.971.576 1.574.748-.571.015-1.318 1.913-1.462L15.41 9.47l.946-.723-.584-5.229 2.56-1.955c.627-.481-.076-1.4-.686-.935zM6.695 7.875h.477v1.108h-.477z"/><path d="M6.457 12.875v-2.291c.013-.01.03-.018.042-.029.39-.389.673-1.352.673-1.606V6.266H5.381v-2.61H4.236v2.609H2.445v2.683c0 .254.283 1.217.673 1.606.011.012.029.02.042.029v2.291H.5v5.576h18v-5.576H6.457z"/></g></svg>