<svg xmlns="http://www.w3.org/2000/svg" width="19" height="19" viewBox="0 0 19 19"><path d="M9.5.5c-4.971 0-9 4.029-9 9s4.029 9 9 9 9-4.029 9-9-4.029-9-9-9zM4.68 4.086a.501.501 0 0 1 .667-.233l2.552 1.231a.5.5 0 1 1-.434.901L4.913 4.753a.499.499 0 0 1-.233-.667zm3.264 3.326a1 1 0 1 1-2 0 1 1 0 0 1 2 0zm5.155 7.053a.502.502 0 0 1-.571-.417c-.143-.914-1.176-2.2-3.027-2.2-1.744 0-2.896 1.121-3.134 2.228a.503.503 0 0 1-.593.385.5.5 0 0 1-.384-.594c.321-1.5 1.836-3.019 4.111-3.019 2.216 0 3.782 1.549 4.016 3.046a.503.503 0 0 1-.418.571zm-2.043-7.053a1 1 0 1 1 2 0 1 1 0 0 1-2 0zm3.044-2.66l-2.553 1.232a.5.5 0 1 1-.436-.9l2.553-1.232a.5.5 0 1 1 .436.9z" fill="#036"/></svg>