<svg version="1" xmlns="http://www.w3.org/2000/svg" width="19" height="19" viewBox="0 0 19 19"><g fill="#036"><path d="M10.2 3.9c-.4 0-.7 0-1.1.1-.5.1-.7.5-.6 1 .1.5.5.8 1 .7.2 0 .5-.1.7-.1 1.8 0 3.3 1.5 3.3 3.4 0 .2 0 .4-.1.6-.1.5.2.9.7 1h.2c.4 0 .8-.3.8-.7.1-.3.1-.6.1-.9 0-2.9-2.3-5.1-5-5.1z"/><path d="M10.2.5h-.9c-.5.1-.8.5-.7 1 0 .5.4.8.9.7h.7c3.7 0 6.6 3 6.6 6.7v.7c0 .5.3.9.8.9h.1c.4 0 .8-.3.8-.8v-.8c0-4.6-3.7-8.4-8.3-8.4zm2.9 17.9c-1.5-2-2.3-4.5-2.7-6.3-.4-1.5-.5-2.8-.6-3.5h.4V6.4h-.3V8h-.8V6.4h-.4v2.2h.4c-.1.7-.2 2-.6 3.5-.4 1.8-1.2 4.3-2.7 6.3h.9c.3-.5.7-1 .9-1.5l1.9-1.7 1.9 1.7.9 1.5h.8c.1.1.1.1 0 0zm-3.1-5l-.3-.3.2-.2c0 .2 0 .3.1.5zm-.7-1.1c.1-.4.2-.7.2-1 .1.3.1.7.2 1 0 .1.1.2.1.3l-.3.3-.3-.3c0-.1.1-.2.1-.3zm-.2.6l.2.2-.3.3c.1-.2.1-.3.1-.5zm-1 3.1l.6-1.5.5.5-1.1 1zm.7-2c0-.1 0-.1.1-.2l.6-.6.6.6c0 .1 0 .1.1.2l-.7.6-.7-.6zm1 1l.5-.5.6 1.5-1.1-1z"/></g></svg>