<svg xmlns="http://www.w3.org/2000/svg" width="19" height="19" viewBox="0 0 19 19"><path d="M17.133 3.469c-.032-.196-.125-.404-.293-.656-.129-.193-.155-.22-.398-.4-.335-.248-.728-.45-.977-.502a2.336 2.336 0 0 0-.495-.06 2.77 2.77 0 0 0-.464.046c-.141.023-.503.129-.575.193a.031.031 0 0 1-.006.004c-.026.004-.079.027-.301.181l-.12.083c.007-.138.033-.339.054-.38.008-.006.042-.023.197-.038.156-.015.246-.066.31-.177.015-.026.12-.188.25-.382.37-.555.37-.555.33-.63-.043-.081-.117-.093-.503-.142a27.354 27.354 0 0 1-.375-.049c-.199-.029-.665-.043-1.658-.053C11.596.503 10.675.5 9.646.5c-.224 0-2.189 0-2.291.011-.033.004-.294.011-.615.017-.883.016-1.889.073-2.11.12-.045.01-.114.025-.14.09-.03.074.016.143.086.248.043.066.114.194.153.28.211.459.261.523.278.544.078.1.276.156.437.167a.647.647 0 0 1 .101.013c.016.036.049.148.062.382l.001.026a5.96 5.96 0 0 0-.468-.332c-.217-.107-.56-.19-.897-.216a1.692 1.692 0 0 0-.108-.004c-.282 0-.691.063-.912.142-.245.087-.349.15-.393.193-.109.027-.351.23-.472.359-.177.191-.354.466-.393.613-.015.055-.047.162-.07.239-.07.221-.069.886.001 1.271.042.236.094.498.118.595.003.016.018.109.033.226a3.658 3.658 0 0 0 .075.409c-.007.034.001.101.032.267.11.578.122 1.066.082 1.162-.085.203-.124.642-.085.959.014.109.034.287.047.397.029.257.135.732.21.942l.11.308a5.76 5.76 0 0 0 .319.732c.029.062.078.158.108.217l.154.29c.057.107.12.222.145.263.019.03.03.052.033.056l-.004-.012c.008.031.044.101.23.393.015.023.024.042.029.05.009.031.049.097.223.348.217.313.241.333.251.341.001.002.002.002.003.002.01.026.038.069.112.162l.148.189.127.158.13.164a5.767 5.767 0 0 0 .237.288c.014.027.05.071.143.182.061.071.146.17.186.211.036.034.087.087.114.115.265.276.621.596 1.001.9.179.144.323.271.424.369-1.069.325-1.767.819-1.767 1.384 0 .978 2.075 1.771 4.634 1.771 1.084 0 2.067-.148 2.856-.386.25-.061.489-.128.686-.197.578-.207.993-.545 1.082-.885a.78.78 0 0 0-.002-.353c-.036-.506-.626-.954-1.546-1.27.072-.067.163-.152.214-.202.055-.055.126-.112.155-.132.053-.03.155-.119.224-.188l.246-.239c.269-.259 1.057-1.1 1.156-1.232.063-.085.293-.387.35-.458.128-.165.62-.882.74-1.08.217-.361.245-.41.249-.446a.798.798 0 0 1 .05-.093c.153-.267.256-.462.329-.636.021-.051.059-.13.082-.176a6.623 6.623 0 0 0 .459-1.488c.056-.158.078-.417.077-.896 0-.515-.002-.533-.104-.948-.066-.268-.051-.947.029-1.253a3.85 3.85 0 0 0 .045-.228c.04-.233.066-.368.087-.437a.974.974 0 0 0 .032-.159l.033-.188c.123-.637.161-1.142.106-1.462zm-11.915.895c-.358.393-.527.527-1.064.844l-.235.139a7.744 7.744 0 0 1-.192.11 3.654 3.654 0 0 0-.244.15.96.96 0 0 1-.123.075.136.136 0 0 1-.02.006.992.992 0 0 1-.088-.24 6.173 6.173 0 0 0-.098-.417 3.98 3.98 0 0 1-.05-.237 14.734 14.734 0 0 0-.064-.317c-.119-.54-.109-1.102.024-1.398.074-.164.309-.348.512-.403a.755.755 0 0 1 .246-.035l.15.003c.246.007.248.008.392.062.282.105.462.221.621.399.117.131.266.358.287.412a.21.21 0 0 0 .039.106c.024.034.071.219.071.394 0 .167 0 .167-.164.347zm10.823 0a9.587 9.587 0 0 0-.066.278 8.21 8.21 0 0 1-.07.287 17.7 17.7 0 0 0-.078.309c-.05.211-.132.412-.167.462a9.217 9.217 0 0 0-.767-.513 6.996 6.996 0 0 1-.657-.477c-.323-.285-.478-.668-.384-.954.186-.564.75-1.065 1.234-1.093l.057-.002c.192 0 .389.055.5.141.13.1.312.359.382.541.051.136.053.142.053.51-.002.293-.009.402-.037.511z" fill="#036"/></svg>