<svg xmlns="http://www.w3.org/2000/svg" width="19" height="19" viewBox="0 0 19 19"><path d="M6.143 16.259c-.011-1.235-.042-2.268-.069-2.295-.052-.052-2.281.262-3.612.509-.764.142-1.041.103-1.041-.148 0-.071.631-.911 1.402-1.868l1.403-1.74-.469-.276c-.258-.152-.497-.276-.53-.276-.034 0-.378-.204-.766-.453-.387-.25-.995-.618-1.351-.819-.502-.283-.637-.43-.605-.655.034-.235.167-.308.714-.39 1.41-.212 3.565-.69 3.565-.791 0-.058-.308-.989-.685-2.07-.672-1.925-.733-2.357-.337-2.357.109 0 .98.454 1.937 1.009.957.555 1.797 1.009 1.868 1.009.071 0 .301-.494.511-1.098C8.921 1.13 9.189.547 9.481.502c.155-.024.308.037.339.134.06.181.854 2.397 1.234 3.44.114.314.258.571.318.571.062 0 .858-.443 1.771-.985 1.904-1.129 2.023-1.183 2.273-1.028.148.092.048.51-.525 2.173a81.008 81.008 0 0 0-.734 2.183c-.023.116 2.308.629 3.708.817.543.073.638.129.634.38-.004.233-.38.517-1.816 1.367-.996.59-1.811 1.124-1.811 1.187s.605.859 1.345 1.771c.74.911 1.346 1.724 1.346 1.807 0 .213-.522.188-2.557-.119-.979-.147-1.864-.269-1.966-.269-.151 0-.186.432-.186 2.287 0 2.906-.003 2.906-1.884.672-.747-.888-1.414-1.614-1.48-1.614s-.712.727-1.434 1.614c-.943 1.161-1.394 1.614-1.603 1.614-.285-.001-.29-.04-.31-2.245zm2.281-2.061c.475-.592.955-1.075 1.066-1.074.112 0 .596.483 1.078 1.072l.874 1.072.034-1.174c.046-1.62.095-1.779.54-1.778.202 0 .579.055.839.121.717.185 1.613.269 1.613.151 0-.058-.369-.567-.82-1.133s-.789-1.11-.751-1.21c.039-.101.562-.473 1.163-.829.602-.355 1.12-.688 1.152-.74.032-.052-.259-.142-.646-.2s-.733-.114-.771-.125-.355-.065-.706-.121c-.788-.126-.806-.258-.235-1.836.223-.615.378-1.145.346-1.177s-.583.25-1.224.627c-.642.377-1.219.686-1.283.686-.167 0-.322-.329-.746-1.584-.204-.608-.41-1.106-.456-1.106s-.292.582-.546 1.292c-.254.71-.533 1.32-.619 1.355-.147.06-.634-.178-2.029-.993-.315-.183-.571-.272-.571-.197s.181.651.403 1.28.404 1.236.404 1.35c0 .216-.321.304-2.055.562-.353.053-.671.142-.706.199s.135.215.378.352c1.368.768 1.844 1.072 1.9 1.215.035.087-.112.39-.325.672L4.85 12.09l-.487.648.647-.089c.356-.049.859-.144 1.118-.211a4.19 4.19 0 0 1 .841-.122l.37-.001.001 1.177c.002.999.086 1.782.192 1.782.016 0 .417-.483.892-1.076z" fill="#036"/></svg>