<svg xmlns="http://www.w3.org/2000/svg" width="19" height="19" viewBox="0 0 19 19"><path d="M14.671 9.365c.777-.673 1.511-1.31 2.059-1.859.479-.481.678-.763.761-.912A8.505 8.505 0 0 0 3.972 3.043c-.147.365-.153.918-.017 1.655.195 1.05.637 2.271 1.065 3.453.629 1.734 1.171 3.232.937 4.204-.361 1.499-1.098 2.554-2.33 3.291A8.477 8.477 0 0 0 9.5 18c.419 0 .83-.031 1.232-.089-.401-.633-.745-1.509-.745-2.706.001-1.78 2.381-3.844 4.684-5.84zM4.41 10.785c-.172-.629-.44-1.368-.724-2.151-.449-1.236-.912-2.513-1.126-3.679a7.12 7.12 0 0 1-.049-.292A8.454 8.454 0 0 0 1 9.5c0 1.895.62 3.644 1.667 5.056 1.045-.549 1.62-1.328 1.91-2.533.031-.125.048-.452-.167-1.238zm13.508-2.464c-.557.582-1.332 1.263-2.317 2.117-1.043.903-2.121 1.839-2.943 2.728-1.033 1.118-1.25 1.726-1.25 2.04.001 1.157.419 1.878.823 2.347a8.508 8.508 0 0 0 5.687-9.232z" fill="#036"/></svg>