<svg xmlns="http://www.w3.org/2000/svg" width="19" height="19" viewBox="0 0 19 19"><g fill="#036"><circle cx="9.639" cy="5.221" r="1.511"/><path d="M14.657 3.586a.636.636 0 0 0-.843.32l-.632 1.98s-1.938.747-2.232.846c-.577.186-1.266.13-2.32.407l-2.004.497-1.33-1.198c-.236-.214-.479-.34-.763-.318a.585.585 0 0 0-.439.56.59.59 0 0 0 .096.307.5.5 0 0 0 .124.203l1.747 1.673c.126.12.302.183.485.155l.081-.014 1.733-.267.488 3.589-1.265 5.294a.744.744 0 0 0 1.431.394l1.63-5.135.862 2.228-.504 2.538c-.076.411.25.749.645.812.418.066.78-.217.875-.636l.721-2.777a.757.757 0 0 0-.035-.364l-.025-.067-.71-1.898-.64-4.665 1.901-.85.052-.025c.156-.07.285-.2.345-.376l.86-2.408a.642.642 0 0 0-.334-.805zm-9.41-.292c.173-.149.337-.292.46-.414.106-.107.151-.17.169-.203a1.897 1.897 0 0 0-3.015-.792c-.033.081-.034.205-.004.369.043.234.142.507.237.771.141.387.262.721.209.938-.081.334-.245.569-.52.733a1.89 1.89 0 0 0 1.585.505 1.104 1.104 0 0 1-.165-.603c0-.398.531-.858 1.044-1.304zm-2.289.318c-.038-.141-.098-.305-.161-.48-.1-.276-.203-.561-.251-.821-.004-.022-.008-.043-.01-.065a1.882 1.882 0 0 0-.337 1.08c0 .422.138.812.372 1.126.232-.122.361-.296.426-.564.006-.028.01-.101-.039-.276zm3.013-.55c-.124.13-.297.281-.516.472-.233.201-.474.41-.657.608-.23.25-.278.385-.278.456 0 .257.093.418.183.523a1.896 1.896 0 0 0 1.268-2.059z"/></g></svg>