<svg xmlns="http://www.w3.org/2000/svg" width="19" height="19" viewBox="0 0 19 19"><path d="M4.3 6.461c.012 0 .026 0 .038-.002l3.146-.322a.376.376 0 0 0 .018-.745l-3.148-.461a.363.363 0 0 0-.298.088.374.374 0 0 0-.132.284v.783a.375.375 0 0 0 .376.375zM15.152 8.42c-.279 0-.547.045-.806.109l-1.089-2.917V3.886h-1.711v.751h.961V5.68l.477 1.293H5.632l-.103-.044-.019.044h-.385l.244.327-.554 1.279a3.28 3.28 0 0 0-.966-.159A3.352 3.352 0 0 0 .5 11.767a3.352 3.352 0 0 0 3.349 3.348 3.351 3.351 0 0 0 3.347-3.348 3.338 3.338 0 0 0-1.689-2.89l.381-.884 2.701 3.621c-.207.258-.336.58-.336.936 0 .828.674 1.502 1.502 1.502a1.498 1.498 0 1 0 1.07-2.554l2.374-3.945.456 1.237a3.34 3.34 0 0 0-1.848 2.977c0 1.846 1.5 3.348 3.346 3.348s3.348-1.502 3.348-3.348a3.353 3.353 0 0 0-3.349-3.347zm-8.709 3.347a2.6 2.6 0 0 1-2.595 2.598 2.602 2.602 0 0 1-2.598-2.598 2.6 2.6 0 0 1 2.598-2.596c.232 0 .454.041.669.099l-1.015 2.348.69.299 1.015-2.351a2.589 2.589 0 0 1 1.236 2.201zm3.736-.651a1.494 1.494 0 0 0-.425-.068c-.201 0-.393.041-.567.113L6.621 7.724h5.599l-2.041 3.392zm4.973 3.248a2.6 2.6 0 0 1-2.596-2.598c0-.98.554-1.826 1.359-2.268l.885 2.399.705-.263-.897-2.404c.176-.038.357-.06.544-.06a2.6 2.6 0 0 1 2.597 2.596 2.6 2.6 0 0 1-2.597 2.598z" fill="#036"/></svg>