<svg xmlns="http://www.w3.org/2000/svg" width="19" height="19" viewBox="0 0 19 19"><path d="M14.978 6.805c.79-1.705-.812-4.881-2.709-5.487 1.453 2.429 2.064 4.837-.013 6.216-.688.455-1.774.817-2.486 1.115.377.077.72.308.927.667.229.397.239.863.069 1.254l.004.002c.708-.513 1.649-1.348 2.546-1.735 2.127-.918 3.748 1.066 5.15 3.082.324-2.127-1.706-4.569-3.488-5.114zm-9.03 2.082c.738.367 1.596 1.127 2.209 1.595A1.39 1.39 0 0 1 9.323 8.66l-.001-.005c-.798-.358-1.991-.755-2.774-1.338-1.858-1.383-.95-3.779.093-6.001-2.004.783-3.104 3.762-2.684 5.578-1.872.168-3.822 3.143-3.398 5.089C1.937 9.51 3.715 7.777 5.948 8.887zm1.017-1.824a3.886 3.886 0 0 1 5.041-.013c.259-.195.518-.442.694-.715a4.876 4.876 0 0 0-3.208-1.201 4.88 4.88 0 0 0-3.22 1.212c.176.274.435.521.693.717zm3.852 6.637c.04.322.125.67.273.959a4.905 4.905 0 0 0 3.206-5.575 2.937 2.937 0 0 0-.968.241 3.903 3.903 0 0 1-2.511 4.375zM4.686 9.101a4.905 4.905 0 0 0 3.224 5.563c.149-.288.234-.636.275-.958a3.905 3.905 0 0 1-2.532-4.363 2.952 2.952 0 0 0-.967-.242zm5.588 4.572c-.052-.822.179-1.945.276-2.71a1.388 1.388 0 0 1-2.161-.098l-.004.003c.09.869.343 2.102.229 3.071-.27 2.302-2.799 2.713-5.243 2.92 1.68 1.345 4.809.807 6.172-.464 1.081 1.537 4.633 1.738 6.106.397-2.829.044-5.219-.63-5.375-3.119z" fill="#036"/></svg>