<svg xmlns="http://www.w3.org/2000/svg" width="19" height="19" viewBox="0 0 19 19"><g fill="#036"><path d="M12.237 10.139c.396-.853-.404-2.44-1.354-2.744.728 1.214 1.032 2.418-.008 3.108-.344.227-.886.407-1.242.556a.693.693 0 0 1 .499.958l.004.002c.352-.258.823-.674 1.271-.866 1.062-.457 1.875.532 2.574 1.538.164-1.062-.852-2.281-1.744-2.552zm-4.513 1.04c.369.183.798.561 1.105.794a.69.69 0 0 1 .581-.908v-.004c-.398-.177-.994-.376-1.386-.668-.93-.69-.475-1.889.045-2.999-1.002.392-1.551 1.881-1.34 2.788-.936.084-1.912 1.57-1.7 2.544.689-1.238 1.578-2.103 2.695-1.547zm.508-.912a1.943 1.943 0 0 1 2.52-.006c.132-.098.26-.222.349-.357a2.442 2.442 0 0 0-3.215.005c.088.137.218.26.346.358zm1.926 3.315c.022.163.063.335.137.479a2.454 2.454 0 0 0 1.65-2.313c0-.162-.016-.32-.048-.473a1.487 1.487 0 0 0-.484.122 1.947 1.947 0 0 1-1.255 2.185zm-3.064-2.298a2.446 2.446 0 0 0 1.612 2.779c.075-.143.116-.318.137-.477a1.956 1.956 0 0 1-1.265-2.181 1.51 1.51 0 0 0-.484-.121zm2.794 2.285c-.026-.413.09-.975.136-1.354a.688.688 0 0 1-.517.232.689.689 0 0 1-.562-.284v.002c.044.437.171 1.053.114 1.536-.136 1.151-1.4 1.355-2.623 1.46.84.673 2.404.404 3.086-.23.541.767 2.317.868 3.052.196-1.415.025-2.61-.315-2.686-1.558z"/><path d="M18.368 15.956L10.543 1.977a1.152 1.152 0 0 0-.985-.615h-.031c-.403 0-.779.211-.986.56L.664 15.901a1.147 1.147 0 0 0 .986 1.736h15.703c.402 0 .775-.21.983-.553a1.15 1.15 0 0 0 .032-1.128zm-16.719.534L9.526 2.511l7.825 13.979H1.649z"/></g></svg>