<svg xmlns="http://www.w3.org/2000/svg" width="19" height="19" viewBox="0 0 19 19"><path d="M.5 9.003c0-.393.143-.739.428-1.04l.865-.865a1.433 1.433 0 0 1 1.053-.439c.416 0 .762.145 1.039.439l3.396 3.385V2.348c0-.398.145-.725.434-.977A1.556 1.556 0 0 1 8.76.996h1.48c.408 0 .756.127 1.045.375.289.252.434.578.434.977v8.135l3.396-3.385a1.366 1.366 0 0 1 1.039-.439c.418 0 .764.145 1.041.439l.865.865c.293.293.439.639.439 1.04 0 .408-.146.758-.439 1.052l-7.52 7.521c-.27.284-.617.428-1.04.428-.416 0-.766-.144-1.051-.428L.928 10.055A1.483 1.483 0 0 1 .5 9.003z" fill="#036"/></svg>