<svg xmlns="http://www.w3.org/2000/svg" width="19" height="19" viewBox="0 0 19 19"><path d="M3.144 3.135a1.468 1.468 0 0 1 1.038-.433h1.224c.417 0 .766.145 1.055.434.294.294.437.641.423 1.045l.009 4.795 5.753-5.752c.281-.282.613-.41.996-.384.38.029.717.187 1.004.474l1.047 1.047c.289.289.445.624.475 1.004a1.24 1.24 0 0 1-.385.997l-5.752 5.752 4.795.008a1.37 1.37 0 0 1 1.045.424c.297.297.438.643.426 1.047v1.225c0 .414-.141.762-.424 1.045a1.437 1.437 0 0 1-1.055.434l-10.637.001c-.393.008-.738-.135-1.037-.434a1.433 1.433 0 0 1-.441-1.046V4.181a1.48 1.48 0 0 1 .441-1.046z" fill="#036"/></svg>