<svg xmlns="http://www.w3.org/2000/svg" width="19" height="19" viewBox="0 0 19 19"><path d="M9.428.5l.071.001L9.57.5h-.142zm.071.001c-1.659.013-3.907.48-4.845.871-.952.397-1.587.794-1.785 1.785l-.714 5.496v7.573h1.23v1.188c0 1.447 2.118 1.447 2.118 0v-1.188h7.991v1.188c0 1.447 2.119 1.447 2.119 0v-1.188h1.23V8.653l-.714-5.497c-.198-.991-.833-1.388-1.785-1.785-.937-.39-3.185-.857-4.845-.87zm-3.02 1.387h6.043c.595 0 .595.892 0 .892H6.479c-.595 0-.595-.892 0-.892zM4.874 3.682h9.251c.628 0 .793.319.869.803l.556 3.986c.052.382-.06.761-.587.761H4.036c-.527 0-.638-.379-.586-.761l.556-3.986c.076-.485.24-.803.868-.803zm-.429 8.136a1.018 1.018 0 1 1-.002 2.036 1.018 1.018 0 0 1 .002-2.036zm10.11 0a1.017 1.017 0 1 1-.002 2.034 1.017 1.017 0 0 1 .002-2.034zM2.155.5" fill="#036"/></svg>