<svg xmlns="http://www.w3.org/2000/svg" width="19" height="19" viewBox="0 0 19 19"><path d="M14.757.5h-1.08v2.609h1.08V.5zM5.153.5H4.118v2.609h1.035V.5zM.748 17.737c0 .421.34.763.76.763h15.984c.418 0 .76-.342.76-.763V4.775H.748v12.962zM13.686 6.301h3.044V9.35h-3.044V6.301zm0 3.811h3.044v3.049h-3.044v-3.049zm0 3.813h3.044v3.05h-3.044v-3.05zM9.882 6.301h3.043V9.35H9.882V6.301zm0 3.811h3.043v3.049H9.882v-3.049zm0 3.813h3.043v3.05H9.882v-3.05zM6.074 6.301h3.044V9.35H6.074V6.301zm0 3.811h3.044v3.049H6.074v-3.049zm0 3.813h3.044v3.05H6.074v-3.05zM2.27 6.301h3.045V9.35H2.27V6.301zm0 3.811h3.045v3.049H2.27v-3.049zm0 3.813h3.045v3.05H2.27v-3.05zM17.492 2.076h-2.395v1.529h-1.766V2.076H5.497v1.529H3.794V2.076H1.508c-.42 0-.76.342-.76.764v1.53h17.504V2.84a.763.763 0 0 0-.76-.764z" fill="#036"/></svg>