<svg xmlns="http://www.w3.org/2000/svg" width="19" height="19" viewBox="0 0 19 19"><path d="M6.663 4.945a1.67 1.67 0 1 0 0-3.34 1.67 1.67 0 0 0 0 3.34zm-5.055 8.887c.346-.16.737-.254 1.141-.254s.795.094 1.139.254c.339.15.716.238 1.112.238.394 0 .771-.088 1.108-.238.343-.16.734-.254 1.141-.254s.793.094 1.141.254c.335.15.715.238 1.108.238s.773-.088 1.107-.238c.348-.16.737-.254 1.144-.254s.793.094 1.139.254c.339.15.717.238 1.11.238.396 0 .771-.088 1.11-.238a2.707 2.707 0 0 1 2.128-.068 3.027 3.027 0 0 0 .803-2.052 3.041 3.041 0 0 0-3.042-3.044l-.342.037c-.373 1.516-1.89 1.583-1.89 1.583l-6.946-.002-.581-.342 1.401-2.35 1.531.885c.918.594 1.396-.238 1.396-.238l1.537-2.504c.668-1.088-.75-1.96-1.412-.868L8.617 6.626 6.06 5.212c-1.772-.988-2.522.649-2.522.649l-2.009 3.44c-.341.714-.037 1.023-.037 1.023L.5 10.322v3.75h.004c.392 0 .767-.09 1.104-.24zm15.787 1.66a2.76 2.76 0 0 0-1.144-.252c-.404 0-.795.094-1.139.252a2.711 2.711 0 0 1-1.11.242c-.394 0-.771-.09-1.11-.242a2.733 2.733 0 0 0-1.139-.252c-.406 0-.795.094-1.143.252-.335.152-.715.242-1.108.242s-.773-.09-1.107-.242a2.76 2.76 0 0 0-1.142-.252c-.406 0-.797.094-1.141.252a2.697 2.697 0 0 1-1.107.242c-.396 0-.774-.09-1.113-.242-.343-.158-.734-.252-1.139-.252s-.795.094-1.141.252a2.695 2.695 0 0 1-1.108.242v1.66c.394 0 .771-.088 1.108-.238.346-.16.736-.254 1.141-.254s.796.094 1.139.254c.339.15.717.238 1.113.238.393 0 .771-.088 1.107-.238.344-.16.732-.254 1.141-.254.404 0 .794.094 1.142.254.334.15.714.238 1.107.238s.773-.088 1.108-.238c.348-.16.734-.254 1.143-.254.404 0 .794.094 1.139.254.339.15.717.238 1.11.238.396 0 .771-.088 1.11-.238.344-.16.732-.254 1.139-.254s.796.094 1.144.254c.334.15.712.238 1.105.238v-1.66c-.394 0-.771-.089-1.105-.242z" fill="#036"/></svg>