<svg xmlns="http://www.w3.org/2000/svg" width="19" height="19" viewBox="0 0 19 19"><path d="M14.187 12.369l-.917-2.364c-.172-.45-.546-.835-1.251-.835H7.21c-.704 0-1.078.385-1.25.835l-.917 2.364c-.362.047-1.006.473-1.006 1.279v3.008h.892v.962c0 1.183 1.674 1.168 1.674 0v-.962h6.024v.962c0 1.168 1.675 1.183 1.675 0v-.962h.892v-3.008c-.001-.806-.645-1.232-1.007-1.279zm-8.395 2.475c-.427 0-.772-.356-.772-.797s.346-.797.772-.797.773.356.773.797-.346.797-.773.797zm.2-2.499l.691-1.86c.086-.262.215-.45.517-.453h4.831c.302.003.431.191.517.453l.691 1.86H5.992zm7.446 2.499c-.427 0-.774-.356-.774-.797s.348-.797.774-.797.773.356.773.797-.347.797-.773.797zM4.102 8.772c0 .007.003.014.008.018.006.005.012.008.019.007l1.67-.047 1.673.048h.001a.026.026 0 0 0 .018-.007.023.023 0 0 0 .008-.018v-.462c.418-.197.676-.62.659-1.081l-.025-2.622a1.15 1.15 0 0 0-1.078-1.151.891.891 0 0 0-.211-.024H4.757a.89.89 0 0 0-.22.026 1.15 1.15 0 0 0-1.247 1.17l.023 2.621c-.01.501.314.957.789 1.113v.409zM5.76 3.189l.027-.001h.024l.028.001c.359 0 .677-.132.942-.391.266-.259.401-.58.401-.954 0-.372-.136-.693-.401-.952A1.308 1.308 0 0 0 5.839.5H5.76c-.358 0-.676.132-.942.392-.268.259-.401.58-.401.952 0 .374.134.695.401.954.265.259.583.391.942.391zm7.554 0l.025-.001h.025l.027.001c.36 0 .678-.132.943-.391.267-.259.401-.58.401-.954 0-.372-.135-.693-.401-.952A1.307 1.307 0 0 0 13.392.5h-.077c-.359 0-.678.132-.944.392-.266.26-.401.581-.401.952 0 .374.136.695.401.954.266.259.582.391.943.391zm2.373 1.419a1.152 1.152 0 0 0-1.079-1.151.891.891 0 0 0-.211-.024H12.31a.89.89 0 0 0-.22.026 1.153 1.153 0 0 0-1.249 1.171l.024 2.621c-.01.501.314.957.79 1.113v.409c0 .007.002.014.007.018.005.005.014.008.019.007l1.671-.048 1.672.048h.001a.025.025 0 0 0 .019-.007.023.023 0 0 0 .008-.018v-.462c.418-.197.675-.62.658-1.081l-.023-2.622z" fill="#036"/></svg>