<svg xmlns="http://www.w3.org/2000/svg" width="19" height="19" viewBox="0 0 19 19"><path d="M11.514 11.786l-.955-2.459c-.18-.469-.568-.869-1.302-.869H4.255c-.733 0-1.122.4-1.302.869L2 11.786c-.377.049-1.047.493-1.047 1.332v3.128h.928v1.001c0 1.23 1.742 1.217 1.742 0v-1.001h6.268v1.001c0 1.217 1.742 1.23 1.742 0v-1.001h.926v-3.128c0-.839-.668-1.283-1.045-1.332zm-8.736 2.575a.817.817 0 0 1-.803-.83c0-.458.36-.828.803-.828.445 0 .806.37.806.828 0 .459-.36.83-.806.83zm.209-2.599l.718-1.936c.09-.272.224-.469.537-.472H9.27c.314.003.448.2.537.472l.719 1.936H2.987zm7.745 2.599a.818.818 0 0 1-.805-.83c0-.458.361-.828.805-.828.445 0 .807.37.807.828 0 .459-.361.83-.807.83zm7.11-2.987l-6.479-6.48A2.993 2.993 0 0 0 7.5 1.031l1.942 1.942a.701.701 0 0 1 0 .989l-.744.745a.698.698 0 0 1-.988 0L5.767 2.764a2.997 2.997 0 0 0 .68 3.184 2.995 2.995 0 0 0 3.184.68l6.479 6.479a.7.7 0 0 0 .989 0l.743-.744a.7.7 0 0 0 0-.989zm-.949.783a.647.647 0 1 1-.914-.916.647.647 0 0 1 .914.916z" fill="#036"/></svg>