<svg xmlns="http://www.w3.org/2000/svg" width="19" height="19" viewBox="0 0 19 19"><path d="M17.133 3.5H1.867a1 1 0 0 0-1 1v10a1 1 0 0 0 1 1h15.266a1 1 0 0 0 1-1v-10a1 1 0 0 0-1-1zm-4.853 8.266h-1.996v.432h1.996v.502c0 .773-.628 1.4-1.402 1.4H9.14a1.401 1.401 0 0 1-1.402-1.4v-1.486c0-.773.628-1.401 1.402-1.401h1.738c.774 0 1.402.628 1.402 1.401v.552zm3.301 2.327h-1.896c-.011 0-.021-.003-.031-.003h-.916v-1.893h2.842a.947.947 0 0 1 .001 1.896zm0-2.323h-.21v-.004h-2.633V9.872h1.314v.003h1.528a.947.947 0 0 1 .001 1.895z" fill="#036"/></svg>