<svg xmlns="http://www.w3.org/2000/svg" width="19" height="19" viewBox="0 0 19 19"><g fill="#036"><path d="M10.223.53C5.27.13.931 3.822.529 8.777c-.398 4.954 3.293 9.294 8.247 9.693a9 9 0 0 0 9.694-8.248A8.997 8.997 0 0 0 10.223.53zm4.1 2.378a8.17 8.17 0 0 1 2.11 2.275l-1.413.881a6.46 6.46 0 0 0-1.681-1.813l.984-1.343zM7.108 1.689l.006-.002.005-.001v-.001l.007-.001h.001l.004-.003h.002l.004-.002h.002l.005-.001.006-.001h.002l.003-.001h.003l.005-.002.004-.002h.002l.005-.001h.002l.004-.002v.001l.006-.002h.001c.001-.003.003-.003.005-.004.01-.003.019-.005.028-.009l.006-.002.007-.001.005-.001h.002l.005-.001h.001l.005-.002h.001l.005-.001h.002l.004-.001.002-.001h.004l.001-.004.005-.001h.001l.006-.001h.002l.003-.001h.001l.004-.003h.002l.005-.001.007-.001h.001l.004-.004h.003l.003-.001h.001l.005-.002a.568.568 0 0 0 .03-.009h.001l.005-.001h.007l.006-.002h.001c.002 0 .003 0 .004-.002h.001l.005-.001h.001l.005-.001h.002l.005-.001h.002l.004-.001h.001c.002 0 .004 0 .005-.002h.001l.005-.001h.001c0-.004.003-.005.003-.005h.004l.002-.001h.003l.005-.001c.002 0 .004 0 .006-.002h.001l.006-.001a.02.02 0 0 0 .005-.001h.002c.007-.003.016-.004.023-.006l.006-.001h.002l.003-.002h.004l.002-.001h.002c.002-.004.003-.004.005-.004l.002-.001h.003l.002-.001.004-.001h.003l.004-.001h.001c.001 0 .003 0 .004-.002h.002l.004-.001.002-.001.005-.001h.005l.003-.001h.006s.001-.003.003-.003l.003-.001.004-.001h.001l.006-.001c0 .001 0 0 0 0h.005l.002-.001.004-.001h.001l.006-.003.012-.003a.03.03 0 0 0 .008-.002l.005-.001h.006l.002-.001.002-.002h.003l.004-.001.002-.001h.007l.003-.001h.002l.004-.001h.002l.005-.001.002-.001.004-.001h.001l.004-.001h.003l.003-.001h.002l.005-.001.002-.001h.011l.003-.001.003-.001h.002l.004-.001h.006v-.007h.007l.004-.001h.001l.007-.001h.007l.002-.002.003-.001h.002l.005-.001h.002l.003-.001.004-.001c.001.001.002 0 .002-.001h.014l.002-.001h.011l.004-.003h.012l.003-.001h.004l.002-.001.004-.001.003-.001h.005l.005-.001h.001l.005-.001.002-.001h.006l.005-.001h.002l.005-.001c.007 0 .014-.002.019-.003h.002l.004-.001h.009l.005-.001h.002l.004-.001h.003L7.9 1.5h.007l.002-.001h.009l.004-.001h.005a.004.004 0 0 0 .003-.001h.011l.002-.001h.009l.003-.001h.002l.005-.001h.007l.001-.001.005-.001h.002l.005-.001h.002l.012-.002.006-.001h.019l.003-.001.003-.001h.002l.005-.001h.006l.001-.001.006-.001h.006l.003-.001h.003l.003-.001h.015-.007.007l.002-.001.005-.001.002-.001h.003l.004-.001h.006l.002-.001h.003l.002-.026.005-.001h.002l.009-.001h.007l.004-.001h.008l.003-.001c.001 0 .003 0 .003-.002h.011l.002-.001h.006l.003-.003h.002l.003-.001h.004l.004-.001h.007l.001-.001h.009a.004.004 0 0 0 .003-.001h.011l.002-.001h.005l.005-.001h.003l.003-.001h.009l.006-.001.007-.001h.001l.006-.001.001-.001h.02l.003-.001h.007l-.001-.007h.01l.004-.001h.006l.003-.001h.002l.005-.001h.031l.002-.001h.024l.013-.002h.009l.005-.001h.008l.004-.001h.013l.001-.001h.014l.004-.001h.014l.004-.001h.003l.001-.014h.009l.002-.001h.003l.003-.001h.004l.003-.001h.005l.002-.001h.006l.001-.001.008-.001h.006l.005-.001h.015l.001-.001h.007l.003-.001h.007a.01.01 0 0 0 .003-.001h.006c-.001-.002-.001-.002.001-.002h.003l.004-.001h.009l.005-.001h.018l.001-.003h.007l.004-.001h.018l.001-.002.014-.001h.003l.004-.001h.013l.003-.001h.007l.002-.001h.007l.003-.001h.01c-.001-.001.001-.001.001-.001h.013l.004-.001h.051l.014-.002h.006l.003-.001.004.001.001-.001.004-.001h.014l.002-.001h.012l.004-.001h.007l.003-.001h.025l.005-.001H8.9v-.007h.009l.013-.001h.042l.002-.001h.014l.003-.001h.013L9 1.35h.019l.002-.001h.007l.005-.001h.02l.004-.001h.01l.005-.001h.026l.004-.001h.03l.005-.001h.027-.004.02l.012-.001h.021l.004-.001.003.001.003-.001h.019l.003-.001h.115l.005-.001h.001l.005.001.002-.001h.021l.004-.001h.005l.002.001h.013l.003-.001h.149l.003.001h.004l.001-.001a.006.006 0 0 0 .006 0l.001.001h.013v-.001l.014.001.007.001.001-.001h.008l.003.001h.114l.007.001h.019l.002.001a.005.005 0 0 1 .004 0h.021l.003.001h.003l.001-.001c-.007-.004-.005-.004-.004-.004h.075l.013.001.002-.001.006.001h.017l.004.001h.014l.004.001h.038l.004.001h.008l.004.001h.019l.001.001h.012l-.002.005h.05l.004.001h.016l.003.001h.016l.005.001h.027l.003.001h.007l.002.001h.014a.003.003 0 0 0 .002.001h.013l.003.001h.004l.005.001h.007l.005.001h.022a.01.01 0 0 1 .005.001h.037l.004.001h.011l.004.001h.006l.005.001h.01l.004.001h.001l.005.001h.011l.004.001h.02l.006.001h.015l.004.001h.003l.004.001h.001l.007.001h.015l.003.001h.007l.002.001h.006a.008.008 0 0 0 .004.001h.002l.002.001h.018l.002.001h.015l.003.001h.007l.003.001.006.001h.003a.01.01 0 0 1 .004.001h.004l.003.001h.009l.002.001h.003l.007.001h.007l.002.001.003.001h.015l.007.001h.014l.003.001h.01l.012.001h.002l.003.001h.013l.002.001a.02.02 0 0 1 .008.001h.024l.009.002h.018l.005.001.011.001.004.001h.019l.011.001.004.001h.013l.015.002h.005V1.4l.004.001h.002l.005.001h.002l.019.003h.002l.005.001h.007l.014.003h.006l.005.001h.002l.003.001h.001l.017.003h.004c.003 0 .004.001.005.002h.002l.005.001h.001l.015.002.005.001h.005l.002.001h.006l.014.003h.007l.003.002h.002l.004.001h.002l.015.002.004.001h.002l.004.001h.002a.01.01 0 0 1 .003.001h.002l.015.002h.002l.003.001h.002l.004.001H11a.008.008 0 0 0 .004.001l.015.002h.002l.004.001h.005l.002.001h.007l.012.002h.002l.004.001h.001l.006.001h.008l.005.001h.006l.003.001.003.001h.005l.003.001h.007l.006.001h.001l.004.001h.009l.003.001h.004l.002.001h.007l.006.002h.005l.001.001h.004a.01.01 0 0 0 .004.001l.003.001h.002l.006.001.006.001h.007l.001.001.004.001h.004l.003.001.002.001.012.001.006.002h.001a.008.008 0 0 0 .004.001h.002a.01.01 0 0 0 .005.001h.002c.004 0 .009.001.012.004l.006.001h.001l.006.001h.001a.008.008 0 0 0 .004.001h.002l.012.003.006.001h.007v.001l.025.006.006.001c.077.017.153.035.231.055l-.439 1.656a6.417 6.417 0 0 0-1.088-.18 6.45 6.45 0 0 0-2.454.27L7.072 1.7l.036-.011zm2.848 2.16a5.676 5.676 0 0 1 5.196 6.108 5.676 5.676 0 0 1-6.106 5.196 5.679 5.679 0 0 1-5.197-6.109 5.675 5.675 0 0 1 6.107-5.195zm-5.895-.441c.003-.002.004-.006.008-.008.002 0 .004-.002.005-.004l.004-.003.005-.005.004-.004c0-.001.003-.001.005-.004v-.001l.004-.003h.001l.005-.003.003-.005h.001l.003-.004h.001l.003-.002.003-.001.004-.003.003-.004h.001a.022.022 0 0 1 .005-.004h.001l.004-.003v-.004l.003-.002.002-.003.004-.002h.001l.004-.003v-.002c.001 0 .004-.001.004-.003h.001a.012.012 0 0 0 .003-.002l.001-.001.005-.004c.002 0 .004-.002.005-.003v-.003l.003-.003.002-.002.003-.002.001-.001.004-.003.001-.001.003-.003.002-.001.003-.003.001-.001.003-.003.001-.001.004-.003.001-.001.004-.002.001-.001.003-.002.001-.002c.002-.002.003-.003.005-.003l.001-.001.003-.003.002-.001c.001-.001.001-.003.003-.003l.001-.002.003-.002.002-.002.002-.002.003-.001.003-.003.001-.001.002-.003.001-.001.004-.003.001-.001.004-.002.002-.002.001-.003.003-.001.003-.003.002-.001.003-.002.002-.001.002-.003.004-.002.002-.002.001-.001.002-.002.003-.001.003-.004.001-.003.003-.001.002-.002.003-.002c.002 0 .002-.001.002-.002l.003-.002.002-.002.001-.002.004-.001.002-.002.002-.002a.008.008 0 0 0 .004-.002l.002-.002.002-.002.002-.002.002-.002c.002 0 .002-.001.003-.002l.001-.002.004-.002.002-.001.003-.002.003-.002.001-.003.003-.001c0-.001.001-.002.003-.002l1.051 1.29a6.476 6.476 0 0 0-1.586 1.894L2.35 5.549a8.16 8.16 0 0 1 1.711-2.141zm-2.587 7.613a1.748 1.748 0 0 0-.006-.031v-.007a.258.258 0 0 1-.005-.024v-.001l-.002-.005v-.003l-.001-.003.001-.001c-.002-.007-.004-.014-.004-.02v-.001l-.001-.005v-.001c0-.002 0-.004-.002-.004v-.001l-.001-.005v-.001l-.004-.02v-.006l-.002-.002v-.004l-.002-.021v-.001s-.002-.001-.002-.004v-.007l-.001-.004v-.001a.044.044 0 0 1-.003-.014v-.002l-.001-.004v-.008c-.002-.001-.002-.003-.002-.003v-.002l-.001-.003V10.8l-.002-.009v-.001l-.001-.004v-.012l-.001-.002c-.001.003-.001.002-.001.001v-.004l-.001-.002v-.008l-.001-.004v-.005l-.002-.004v-.009l-.001-.003v-.006l-.002-.005v-.006l-.001-.003v-.009l-.001-.003v-.006c-.002 0-.002-.003-.002-.004l-.001-.003v-.008l-.002-.002v-.003l-.001-.004v-.012l-.001-.002v-.008l-.002-.003v-.003l-.001-.004v-.009c-.002 0-.002-.002-.002-.003v-.002l-.001-.006v-.001l-.001-.006v-.007l-.002-.005v-.006l-.001-.002v-.011l-.001-.001-.001-.006v-.002l-.001-.004v-.006l-.001.003v-.006l-.002-.006c.002 0 0-.001 0-.001v-.012l-.001-.002v-.006l-.002-.003v-.009l-.001-.005-.001-.003v-.012l-.001-.004v-.002l-.001-.004v-.003l-.001-.006v-.007l-.002-.004v-.014l-.002-.005c.002-.001 0-.001 0-.001v-.008l-.001-.006v-.006l-.001-.005v-.003c0-.001 0-.003-.002-.004v-.015c0-.002 0-.003-.002-.005v-.006l-.001-.002v-.007c-.002-.004-.002-.008-.002-.013v-.006l-.001-.006-.001-.001v-.02l-.001-.006v-.007l-.001-.005v-.006l-.001-.007-.001-.006.001-.001-.001-.006H1.37v-.005l-.001-.002v-.006c0-.005 0-.008-.002-.013v-.007l-.001-.005.001-.002-.001-.005v.001l-.002-.019v-.013c-.002-.002-.001-.005-.002-.006h.001l-.001-.02v-.001l-.001-.005-.002-.001v-.006l-.001-.02-.001-.006v-.007l-.001-.006v-.001l-.001-.012v-.014l-.001-.005V10.1l-.001-.013v-.003l-.002-.005v-.007l-.001-.02h.001l-.001-.007-.001-.001v-.031l-.001-.007h.002L1.349 10v-.001c-.002-.004-.002-.01-.002-.017v-.007l-.001-.005v-.02l-.001-.005V9.93c-.002-.006-.002-.012-.002-.018v-.014l-.001-.005v-.027l-.001-.006v-.001L1.34 9.84v-.006l-.001-.005v-.028l-.001-.005v-.007c0-.005 0-.012-.002-.018l.002-.001c-.002-.002-.002-.004-.002-.005V9.75l-.001-.013v-.056l-.001-.014.001-.001-.001-.004v-.035l-.001-.005.001-.001-.001-.005v-.001l.001-.005-.001-.014v-.17l.001-.012-.001-.001v-.007l.001-.004v-.054l.001-.006v-.051l.001-.006v-.031l.002-.011v-.019l.001-.004v-.034l.001-.002v-.005l.001-.006v-.019l.001-.006V9.12l.001-.003v-.022c0-.001 0-.003.002-.004v-.015l.001-.002a.003.003 0 0 1 0-.004v-.023l.001-.003v-.015c0-.002 0-.004.002-.006V9.01l.001-.002v-.033l.001-.003v-.006l.001-.002v-.029l.002-.004v-.014l.001-.005V8.91l.001-.004v-.013l.001-.005v-.011l.001-.005v-.009l.001-.003v-.01l.001-.005v-.013l.002-.002.001-.004v-.022l.001-.004v-.002l.001-.005v-.014c0-.002 0-.004.002-.007v-.007c.001-.009.001-.017.003-.025.006-.081.015-.16.024-.24l1.653.203a6.447 6.447 0 0 0 .166 2.465l-1.608.427a7.45 7.45 0 0 1-.131-.574zm3.776 5.455a8.105 8.105 0 0 1-1.798-1.488 8.591 8.591 0 0 1-.497-.6l1.335-.998a6.54 6.54 0 0 0 1.827 1.666l-.867 1.42zm6.009 1.003h-.005c-.004.002-.008.002-.013.003h-.004l-.001.001-.008.002-.004.001h-.001c-.002 0-.004 0-.005.002-.001-.002-.002-.002-.002 0-.002 0-.004 0-.005.002h-.007c-.002 0-.003 0-.004.002 0 0-.001-.002-.002 0l-.007.001c0-.001 0 0 0 0h-.004c-.001.002-.002.002-.004.002h-.003l-.007.002h-.007c-.001.002-.001.002-.003.002l-.008.002h-.003l-.003.001h-.002l-.006.001h-.003l-.001.001h-.004s-.002.001-.002.003c-.001-.002-.001-.002-.003 0h-.005s-.002 0-.003.002h-.004l-.004.001h-.003l-.004.001-.003.001h-.004l-.003.001h-.004c-.001.001-.005.001-.006.003h-.011l-.003.002h-.005c-.002 0-.002.002-.002.002h-.009l-.004.002-.005.001h.004-.003l-.003.001h-.003l-.004.001h-.004l-.001.002h-.008l-.006.002-.003.001h-.005l-.006.001-.004.001-.004.001h-.002l-.004.001-.003.001h-.008l-.001.001-.005.001h-.001l-.006.002h-.005c-.002 0-.003.002-.003.002h-.011l-.002.001-.004.001h-.001l-.006.001h-.001l-.005.001-.001.001h-.007l-.004.002h-.001l-.006.001h-.002l-.003.001h-.007c0 .002-.002.002-.002.002h-.01l-.002.001-.005.002h-.009l-.004.001-.002.001h-.005.002c-.001.002-.002.002-.004.002h-.004l-.003.001h-.005c-.002 0-.003 0-.004.002h-.012l-.004.001h-.003l-.004.001h-.001l-.004.002h-.007l-.002.001h-.004l-.003.002h-.011l-.002.002h-.004.001l-.008.001-.003.002-.003-.001-.004.001h-.001l-.006.001h-.007v.001h-.006l-.006.001h-.001l-.004.001-.002.002h-.006l-.007.001h-.001l-.004.001h-.008l-.005.001-.001.001h-.005l-.002.001c-.003 0-.007 0-.012.002h-.006l-.013.002h-.001c-.003 0-.005 0-.006.002l-.001-.002c-.001.002-.003.002-.005.002h-.002l-.005.001h-.001l-.006.001-.005.001h-.007l-.002.001h-.005l-.006.001h.003-.003l-.002.001-.006.001h-.002l-.005.001-.002.001h-.005l-.012.001-.001.001h-.005l-.002.001h-.005c-.002 0-.004 0-.006.002l-.002-.001-.005.001-.007.001h-.007l-.004.002h-.008l-.007.001h-.006l-.001.001h-.011l-.003.002h-.004l-.007.001h-.007l-.011.002-.002.001h-.005l-.014.001h-.006c-.003.002-.005.002-.007.002l-.006.001h-.001l-.005.001h-.009.001-.001c-.002 0-.004 0-.006.002h-.007l-.005.001h-.001l-.012.002h-.007l-.014.001-.005.001h-.001c-.004 0-.007 0-.012.003h-.007l-.011.001h-.001l-.004.001h-.009l-.005.001v-.001l-.008.001-.007.001h-.006l-.012.002h-.007l-.013.001h.001l-.004.001h-.002l-.012.001h-.002l-.007.001-.01.001h-.007l-.008.001-.007.001h-.001l-.01.001h-.007l-.013.002h-.02l-.006.001h-.015l-.004.001h-.002l-.012.001h-.002l-.005.001h-.007l-.006.001h-.013l-.004.002h-.002l-.014.001h-.006l-.013.001h-.02l-.006.002H9.97l-.005.001-.009.001v-.001l-.006.001h.006-.019l-.013.002-.002.001h-.025l-.005.001-.002-.001-.005.001h-.014l-.007.001v-.001c0-.004-.001-.004-.004-.004l-.006.001h-.039v.001H9.79l-.009.001h-.007l-.011.001h-.006l-.012.001-.002-.001-.004.001H9.7l-.014.001H9.64l-.007.001-.005-.001-.001.001h-.052.001-.013l-.001.001h-.005l-.009-.001-.005.001h-.006l-.013-.001-.001.001h-.044l-.007-.001-.006.001-.001-.001H9.46v.001h-.009l-.005-.001h-.052l-.006-.001a.029.029 0 0 1-.013 0h-.052l-.002-.001h-.043l-.002-.001a.024.024 0 0 1-.012 0h-.007l-.006-.001h-.028a.02.02 0 0 1-.005-.001h-.013l-.007-.001h-.03l-.003-.001h-.013l-.005-.001h-.013l-.002-.001h-.039l-.005-.002-.007-.001h-.028l-.006-.001-.006-.001h-.033l-.005-.002h-.018l-.004-.001-.004.001v-.001h-.014v-.001h-.019l-.002-.002h-.013l-.005-.001h-.008l-.005-.001h-.007l-.002-.001h-.006a.004.004 0 0 1-.003-.001h-.009l-.006-.001h-.022l-.006-.002h-.014l-.004-.001h-.009l-.004-.001h-.001l-.008-.001h-.013l-.005-.001h-.006l-.001-.001h-.009l-.004-.001h-.001l-.005-.001h-.007l-.014-.001h-.007l-.006-.002h-.006l-.013-.001-.006-.001h-.009c-.006-.002-.012-.002-.018-.002l-.007-.001-.006-.002-.02-.001h-.001l-.007-.001h-.005l-.019-.003h-.001l-.006-.002-.026-.001a9.425 9.425 0 0 0-.155-.02h-.002c-.008 0-.016-.003-.024-.004a.437.437 0 0 1-.025-.003l-.007-.001h-.002l-.007-.001c-.006-.002-.012-.002-.019-.003a.035.035 0 0 1-.006-.001H8.33l-.014-.003H8.31v.001l-.004-.001h-.003l-.006-.001-.007-.001h-.007c-.004 0-.004-.002-.004-.002l-.004-.001h-.006l-.003-.001h-.002l-.004-.001h-.006l-.003-.001h-.004l-.005-.001h-.004l-.081-.014.271-1.643a6.526 6.526 0 0 0 2.473-.062l.358 1.628zm5.029-3.435l-.003.006c-.002.001-.002.003-.004.006l-.004.004-.003.005v.002a.008.008 0 0 0-.004.004c-.001.001-.003.003-.003.005l-.003.005-.001.001-.004.003v.001c0 .002-.002.003-.003.004l-.001.002c0 .001 0 .003-.002.004l-.001.001-.002.005h-.002l-.002.004-.001.001-.001.004-.002.002-.002.002-.001.003-.004.003-.001.003s-.002.001-.002.003l-.002.002-.001.002-.002.003-.001.002-.003.003c0 .002-.002.002-.002.003l-.001.003-.001.002-.002.002-.001.003-.003.002-.002.003-.002.004-.004.004v.002l-.005.003v.001l-.002.004c0 .002-.002.004-.004.006-.23.329-.484.64-.759.931h-.001c-.001.004-.006.006-.007.008v.002l-.003.004h-.001c-.002.001-.004.001-.004.003l-.002.001-.004.005a.022.022 0 0 0-.004.005l-.003.004h-.001l-.003.003-.001.001c-.002.002-.003.003-.005.003v.001l-.003.005h-.002c0 .002-.002.002-.003.004l-.001.001c-.002 0-.002.003-.002.004h-.001l-.004.003-.002.001-.002.005-.002.001-.004.003v.001l-.004.003-.001.002-.003.004h-.001l-.002.004h-.002l-.003.004-.001.001-.004.003-.001.001c0 .002-.002.003-.003.003l-.001.002-.003.002-.002.002-.003.003-.001.002-.003.002-.002.002-.002.003-.002.002-.003.002-.002.002-.003.003s0 .002-.002.002l-.001.002-.002.002c0 .001 0 .002-.002.002l-.003.003-.002.001-.002.004-.002.002-.004.001-.001.002-.002.004-.002.001c0 .002-.001.002-.003.003l-.002.002-.001.003-.003.002-.002.001s-.001.002-.003.002a.01.01 0 0 1-.001.003l-.002.002-.004.003-.001.002-.003.002-.002.002-.002.003-.001.001-.003.003-.002.001c-.002.001-.002.003-.002.004h-.002c0 .002-.002.002-.003.003s-.002.001-.002.003c-.002 0-.002.001-.003.003h-.001c-.001.001-.003.002-.003.004l-.001.001-.003.003-.002.002-.003.002-.001.002-.004.003-.002.001a.008.008 0 0 0-.002.004l.006-.008-.004.002-.002.002-.002.003-.001.001-.004.003v.002l-.004.003-.002.001-.003.003-.001.002-.004.002v.001l-.003.005v.001c-.003 0-.003.001-.005.003h-.001l-.003.004-.001.001c0 .002-.003.002-.004.003v.002c-.002 0-.003.002-.003.003l-.002.001c-.001.001-.002.001-.002.004l-.002.001s-.002.002-.005.002v.002l-.003.003v.001l-.004.003h-.002a.018.018 0 0 1-.004.005h-.001c0 .002-.002.002-.003.004l-.004.004-.002.001-.002.003v.002l-.005.003v.001l-.004.002-.001.002-.004.004h-.001l-.003.004h-.002l-.003.004h-.002c0 .003-.002.003-.003.004v.001c-.002.001-.004.001-.004.004l-.001.001a.004.004 0 0 0-.004.004h-.001l-.003.004h-.001l-.004.004H15.1l-.004.003v.002l-.005.003-.005.004v.001l-.002.004h-.001l-.005.005h.002l-.005.004-.008.008h-.001a8.384 8.384 0 0 1-.695.581h-.001c-.002 0-.003.002-.005.004l-.004.003c-.002.002-.005.002-.005.004-.003 0-.003.001-.005.002v.001l-.005.004-.005.003h-.001l-.004.004-.005.004v.001l-.006.002-.006.005-.004.004-.005.003h-.001l-.003.004h-.002l-.004.003c-.001.002-.004.002-.004.002v.002c-.003.001-.003.002-.004.004h-.002c-.001.001-.003.001-.005.004-.002 0-.003.001-.005.003l-.005.003-.001.001-.003.003h-.002l-.004.004a.016.016 0 0 1-.006.003l-.004.004h-.001l-.004.003-.002.001-.002.002-.002.002-.004.003h-.003l-.002.003v.001l-.005.003h-.002l-.003.004h-.002l-.002.003-.003.001c-.001.002-.002.003-.004.003l-.005.003-.002.001-.002.003-.003.002-.002.001-.002.001-.003.003-.002.002-.003.001-.003.003-.003.001-.001.001-.004.003-.003.001-.001.002-.003.001-.002.001c0 .002-.002.002-.004.004h.004l-.003.003-.001.001-.006.003c-.001 0-.003.002-.003.004l-.011.006v.001c-.014.008-.027.019-.04.027l-.939-1.375a6.504 6.504 0 0 0 1.74-1.756l1.384.928c-.001-.007-.003-.006-.003-.005zm1.379-4.503v.136l-.002.012v.038l-.001.005v.018l-.001.001v.037l-.002.013v.018l-.001.007v.039l-.002.001V9.9l-.001.005v.009l-.001.012v.007l-.001.004v.014l-.001.006.001.001-.001.005v.008l-.001.005v.001l-.001.005v.013l-.001.006v.013l-.001.007v.013l-.001.001v.013l-.001.006v.001l-.001.006v.008l-.001.007v.013l-.002.006v.021l-.002.006v.021l-.002.005v.008l-.001.006v.008c0 .002 0 .004-.002.005v.01l-.001.011v.021l-.001.006v.007l-.001.006v.007l-.001.007v.007c0 .002 0 .004-.002.006v.001l-.001.006v.001l-.001.012v.007l-.001.007v.008c-.002.004-.002.007-.002.012v.001l-.001.006-.002.013v.001c0 .011-.002.021-.004.032-.029.276-.07.549-.126.815l-1.63-.341a6.577 6.577 0 0 0 .04-2.472l1.643-.289c.027.167.052.337.07.508l.002.02.001.011.002.012c0 .003 0 .006.002.008l-.001.001.001.01v.001l.001.011.001.001.001.007v.004c.002.002.002.005.002.006v.002l.001.01v.009l.001.003v.018a.003.003 0 0 1 .001.002l.002.004v.008l.001.003v.006l.001.003v.013l.001.003v.02l.001.003v.011l.002.005v.007l.001.003v.008a.008.008 0 0 1 .001.004l.001.001v.017l.001.002-.001.004.002.002v.024c.002.002.002.003.002.005 0 0-.002 0 0 0v.014h.001v.018l.001.001.001.005v.007l.001.006v.007l.001.006v.017a.01.01 0 0 1 .001.005v.013l.001.018v.005h.001v.019l.001.006v.012h.001v.017l.001.006v.01l.001.006h-.001l.001.006V9.1c0 .001 0 .004.002.006h-.002c0 .002 0 .004.002.006v.039l.001.007v.006l.001.012-.001.001.001.005.001.006v.032a.017.017 0 0 1 .001.007h-.001l.001.006v.007l.001.012-.001.001a.045.045 0 0 1 .001.012v.019l.002.012v.22h.001l-.001.012v.013z"/><path d="M7.2 12.842l2.345-1.195 2.314 1.253-.412-2.598 1.907-1.813-2.601-.41L9.62 5.704 8.427 8.049l-2.611.346 1.863 1.859z"/></g></svg>