<svg xmlns="http://www.w3.org/2000/svg" width="19" height="19" viewBox="0 0 19 19"><path d="M18.488 3.58a.111.111 0 0 0-.111-.11h-1.182a.11.11 0 0 0-.111.111v1.073h-.961V3.581a.11.11 0 0 0-.11-.111H14.83a.11.11 0 0 0-.11.111v1.073h-.961V3.581a.11.11 0 0 0-.111-.111h-1.182a.11.11 0 0 0-.111.111v3.551c0 .062.05.111.111.111h1.071V9.39h-.961V8.316a.11.11 0 0 0-.11-.11h-1.183a.11.11 0 0 0-.11.11V9.39h-.962V8.316a.11.11 0 0 0-.11-.11H8.912a.111.111 0 0 0-.111.11V9.39h-.963V8.316a.11.11 0 0 0-.11-.11H6.543a.11.11 0 0 0-.11.11V9.39H5.47V7.243h1.073a.11.11 0 0 0 .111-.111V3.581a.11.11 0 0 0-.111-.111H5.36a.11.11 0 0 0-.11.111v1.073h-.964V3.581a.11.11 0 0 0-.11-.111H2.992a.11.11 0 0 0-.11.111v1.073h-.964V3.581a.11.11 0 0 0-.11-.111H.624a.111.111 0 0 0-.111.11L.5 7.141c0 .029.011.058.032.079a.106.106 0 0 0 .08.033l1.085-.01v8.176c0 .061.049.11.11.11h5.92a.11.11 0 0 0 .11-.11v-2.994h3.335v2.994c0 .061.05.11.11.11h5.912a.11.11 0 0 0 .11-.11V7.244l1.083.01c.031 0 .06-.014.081-.036a.107.107 0 0 0 .032-.078l-.012-3.56z" fill="#036"/></svg>