<svg xmlns="http://www.w3.org/2000/svg" width="19" height="19" viewBox="0 0 19 19"><path d="M6.964 15.609h5.89c0-.837-.061-1.003-1.447-1.003.222-.665 1.122-2.273 1.623-2.273.442 0 .971.024.971 1.035 0 1.146 1.93 2.996 2.397 2.241.697-1.124-1.198-.781-1.198-3.492 0-3.709 2.164-3.182 2.164-5.265 0-1.043-.288-1.184-.288-1.929 0-.985.868-.928.699-1.745a14.668 14.668 0 0 1-.275-1.699c-.049-.484-.064-1-.567-.979-.59.024-.814 1.064-1.732 1.139-.917.074-1.698-.78-2.053-.658-.352.121-.241 1.075-.032 1.753.327 1.065 1.042 2.45-.261 2.658-1.304.209-3.545.417-5.161 2.554-1.616 2.138-1.556 4.646-2.189 5.422-2.124 2.604-4.302 1.534-4.302 3.701 0 .97 1.644 1.668 1.904 1.355.261-.313-2.215-1.245.555-2.346 2.366-.94 2.577-1.132 3.302-.469z" fill="#036"/></svg>