<svg xmlns="http://www.w3.org/2000/svg" width="19" height="19" viewBox="0 0 19 19"><path d="M17.506 4.221a1.542 1.542 0 0 1 .469 0L9.777.682a.757.757 0 0 0-.761.094L.877 6.966c.05-.015 16.629-2.745 16.629-2.745zm-.474 8.434a2.26 2.26 0 0 1 1.468.545V5.64a.761.761 0 0 0-.888-.751L1.414 7.552l-.274.045a.764.764 0 0 0-.64.751v4.7a1.75 1.75 0 0 1 1.104-.393c1.019 0 1.841.887 1.841 1.98 0 1.096-.822 1.981-1.841 1.981A1.76 1.76 0 0 1 .5 16.222v1.395a.763.763 0 0 0 .888.75l13.407-2.204a2.81 2.81 0 0 1-.16-.931c-.003-1.42 1.07-2.577 2.397-2.577zm-7.628 1.06c-.817 0-1.479-.714-1.479-1.596s.66-1.596 1.479-1.596c.825 0 1.488.714 1.488 1.596s-.663 1.596-1.488 1.596zm4.764-3.666c-.255 0-.494-.069-.704-.193-.465-.27-.775-.797-.775-1.402 0-.882.661-1.595 1.479-1.595.562 0 1.043.328 1.3.815.118.231.188.496.188.779-.001.881-.663 1.596-1.488 1.596z" fill="#036"/></svg>