<svg xmlns="http://www.w3.org/2000/svg" width="19" height="19" viewBox="0 0 19 19"><path d="M16.479 1.218c.129.035.24.112.364.111-.003-.31-.19-.543-.435-.588-.17-.031-.199.017-.321-.028-.119-.042-.151-.122-.268-.168a.604.604 0 0 0-.645.126c-.075.07-.12.192-.225.267-.058.042-.141.056-.195.098-.147.112-.317.454-.126.659.434-.323 1.144-.673 1.851-.477zm.864 2.443c-.357.245-.784.66-.91 1.149.643.222 1.218-.271 1.163-.869-.015-.155-.11-.379-.253-.28zm.397-.992c-.145-.086-.268-.142-.361-.244-.139-.155-.193-.348-.321-.477-.197-.198-.586-.415-1.017-.373-.645.062-1.144.513-1.531.901a8.611 8.611 0 0 0-.824.991c-.066.09-.307.391-.444.603-.238.313-.471.628-.704.919-1.018 1.272-2.036 2.294-4.136 2.293-2.045-.003-3.757-.542-4.983-1.545C2.9 5.314 2.28 4.152 1.575 4.292 1.169 4.373.94 5.32.927 5.887c-.066 2.821 1.313 4.86 3.04 6.028a4.458 4.458 0 0 0 1.644 2.044c.76.517 1.721.654 2.642 1.046.118.222-.112.472-.051.796.435.446.596 1.168.848 1.795-.276.205-.945.23-.797.697.374.407.909-.14 1.295-.198.463.113 1.881.789 1.844.1-.028-.521-1.27-.396-1.695-.698-.181-.767-1.003-1.783-.448-2.441.332-.395 1.801-.428 2.442-.698 2.042-.858 3.537-3.105 3.737-5.729.111-1.459.17-2.915.596-4.009.32-.776.821-1.293 1.613-1.525.118-.035.429-.056.438-.167.007-.095-.263-.216-.335-.259zm-3.774 5.223c-.726 2.493-2.167 3.965-4.535 4.632a.399.399 0 0 1-.216-.767c2.106-.592 3.335-1.853 3.986-4.087a.399.399 0 0 1 .765.222zm2.324-5.044a.267.267 0 0 1 0-.534.267.267 0 1 1 0 .534z" fill="#036"/></svg>