<svg xmlns="http://www.w3.org/2000/svg" width="19" height="19" viewBox="0 0 19 19"><path d="M3.364 7.9l4.024-.761-1.632-1.631zm4.642-.879l1.955-.371 1.513-1.511-2.677-2.671-2.676 2.671zm4.294-.852l-.601-.601-.879.883zm.75.33l-.349.066-1.484.284-1.059.198-1.955.371-.619.119-4.022.762-.825.158 10.13 10.125L19 12.449zm-9.552-3.25c-.162.365-.403.615-.698.638-.345.029-.675-.245-.902-.684L0 5.099l2.674 2.676 2.674-2.676-1.85-1.85zM8.391 2.06L6.746.417v.005c-.139.387-.471.654-.876.772.238.848-.096 1.723-.829 2.039-.232.101-.481.13-.726.102l1.398 1.396L8.391 2.06z" fill="#036"/></svg>