<svg xmlns="http://www.w3.org/2000/svg" width="19" height="19" viewBox="0 0 19 19"><path d="M8.21 1.059l.666.668-1.239 1.24-.668-.667-4.721 4.719.669.668-1.241 1.241-.667-.668-.526.525 9.731 9.731.526-.525-.86-.86 1.24-1.24.86.859 4.719-4.719-.86-.86L17.08 9.93l.859.861.576-.575L8.785.483l-.575.576zm2.472 14.392l-1.24 1.24-1.425-1.424 1.239-1.241 1.426 1.425zm-1.966-1.966l-1.239 1.24-1.426-1.424 1.24-1.24 1.425 1.424zm-1.983-1.982l-1.241 1.241-1.424-1.426 1.24-1.24 1.425 1.425zM4.84 9.61L3.6 10.849 2.175 9.426l1.24-1.239L4.84 9.61zm11.802-.12L15.4 10.731l-1.426-1.424 1.243-1.241 1.425 1.424zm-1.966-1.963l-1.24 1.24-1.424-1.426 1.24-1.239 1.424 1.425zm-1.984-1.984l-1.239 1.24-1.426-1.425 1.24-1.24 1.425 1.425zM10.8 3.65L9.56 4.89 8.136 3.466l1.239-1.24L10.8 3.65z" fill="#036"/></svg>