<svg xmlns="http://www.w3.org/2000/svg" width="19" height="19" viewBox="0 0 19 19"><path d="M13.089.979l-4.5 4.5.465.466 4.015-4.017 4.192 4.263.485-.486L13.089.979zM9.943 5.718l-.002 3.837H1.986l-.732 3.195h1.248v5.001h13.632V5.641l-3.058-3.056-3.133 3.133zm4.937 1.005a1.88 1.88 0 0 1-3.759 0 1.88 1.88 0 0 1 3.759 0zm-2.084-1.272v-.159a1.441 1.441 0 0 0-1.226 1.227h.132a.204.204 0 1 1 0 .409h-.132a1.44 1.44 0 0 0 1.226 1.226V8.01c0-.113.092-.205.205-.205.112 0 .204.092.204.205v.144a1.44 1.44 0 0 0 1.226-1.226h-.133a.202.202 0 0 1-.137-.053.202.202 0 0 1-.137.053h-.836a.277.277 0 0 1-.465-.174l-.593-.594a.207.207 0 0 1 0-.29c.071-.074.213-.077.29 0l.571.572a.309.309 0 0 1 .197.075h.836c.053 0 .101.021.137.053a.207.207 0 0 1 .137-.053h.133a1.44 1.44 0 0 0-1.226-1.227v.159a.206.206 0 0 1-.204.206.203.203 0 0 1-.205-.204z" fill="#036"/></svg>