<svg xmlns="http://www.w3.org/2000/svg" width="19" height="19" viewBox="0 0 19 19"><path d="M9.537 11.6c2.512 0 4.547-.658 4.547-1.47a.514.514 0 0 0-.074-.26V7.739S12.4 5.412 9.493 5.412c-2.908 0-4.429 2.327-4.429 2.327v2.128c.001-.004.006-.007.008-.01a.53.53 0 0 0-.081.273c0 .811 2.036 1.47 4.546 1.47zm0-2.411c2.594 0 3.942.687 4.016.929-.074.262-1.424.948-4.016.948s-3.94-.687-4.016-.931c.075-.26 1.422-.946 4.016-.946zM9.5 4.962c1.948 0 3.668.953 4.735 2.417l3.729-2.666L9.5.5 1.036 4.713l3.729 2.666A5.842 5.842 0 0 1 9.5 4.962zm4.645 9.318a.734.734 0 0 1 .521-.216h2.888a3.148 3.148 0 0 0-2.873-1.859 3.132 3.132 0 0 0-2.219.922 3.11 3.11 0 0 0-.649.937H9.738v.003H8.013v-.002H2.182a.732.732 0 0 0-.734.735v1.107c0 .404.329.734.734.732h4.7v.012l3.751-.012h1.178A3.147 3.147 0 0 0 14.68 18.5c.869 0 1.655-.352 2.223-.922.271-.268.49-.586.648-.938l-2.886-.002a.733.733 0 0 1-.735-.734v-1.105c0-.201.082-.386.215-.519zm-10.68 1.552a.677.677 0 0 1-1.158-.481.668.668 0 0 1 .198-.481.678.678 0 0 1 .481-.196.677.677 0 0 1 .479 1.158z" fill="#036"/></svg>