<svg xmlns="http://www.w3.org/2000/svg" width="19" height="19" viewBox="0 0 19 19"><path d="M10.163.5c-.288 0-.571.015-.852.043a.856.856 0 0 0-.757.939.85.85 0 0 0 .928.765c.225-.024.451-.035.681-.035 3.669.007 6.637 3.008 6.644 6.718 0 .228-.011.45-.032.671a.853.853 0 0 0 .843.941.851.851 0 0 0 .843-.771c.026-.276.04-.558.04-.841C18.499 4.274 14.768.5 10.163.5zm0 3.359c-.36 0-.715.04-1.057.113a.855.855 0 0 0-.648 1.018.845.845 0 0 0 1.006.656c.226-.048.458-.075.7-.075 1.833.004 3.318 1.504 3.321 3.36 0 .212-.019.417-.056.617a.856.856 0 0 0 .834 1.013.85.85 0 0 0 .831-.698c.056-.303.085-.615.084-.932 0-2.802-2.244-5.072-5.015-5.072zM6.564 5.611H1.927C1.139 5.611.5 6.25.5 7.038v2.585c0 .031.007.06.009.09h7.472c.003-.03.009-.059.009-.09V7.038a1.425 1.425 0 0 0-1.426-1.427zm.55 3.63h-.437V7.106h.437v2.135zm-6.599.906c-.006.05-.015.098-.015.149v6.777c0 .787.639 1.427 1.427 1.427h4.637c.789 0 1.427-.64 1.427-1.427v-6.777c0-.051-.009-.099-.015-.148H.515zm6.599 4.645h-.437v-3.63h.437v3.63z" fill="#036"/></svg>