<svg xmlns="http://www.w3.org/2000/svg" width="19" height="19" viewBox="0 0 19 19"><path d="M10.163.5c-.288 0-.571.015-.852.043a.856.856 0 0 0-.757.939.85.85 0 0 0 .928.765c.225-.024.451-.035.681-.035 3.669.007 6.637 3.008 6.644 6.718 0 .228-.011.45-.032.671a.853.853 0 0 0 .843.941.851.851 0 0 0 .843-.771c.026-.276.04-.558.04-.841C18.499 4.274 14.768.5 10.163.5zm0 3.359c-.36 0-.715.04-1.057.113a.855.855 0 0 0-.648 1.018.845.845 0 0 0 1.006.656c.226-.048.458-.075.7-.075 1.833.004 3.318 1.504 3.321 3.36 0 .212-.019.417-.056.617a.856.856 0 0 0 .834 1.013.85.85 0 0 0 .831-.698c.056-.303.085-.615.084-.932 0-2.802-2.244-5.072-5.015-5.072zm-5.684 6.814h4.019a.057.057 0 0 0 .05-.031.058.058 0 0 0-.002-.061l-.54-.868a.063.063 0 0 0-.049-.029H5.075a.06.06 0 0 0-.048.027l-.596.869a.058.058 0 0 0-.003.061c.01.02.03.032.051.032zm1.487-.766h1.088v.562H5.966v-.562zm-3.899.756h1.068a.055.055 0 0 0 .046-.023c.011-.013.017-.031.011-.048l-.072-.322a.063.063 0 0 0-.059-.047h-.89a.06.06 0 0 0-.057.041l-.103.322a.054.054 0 0 0 .009.053.06.06 0 0 0 .047.024zm7.627.004h1.586c.02 0 .04-.011.05-.026s.016-.037.005-.055l-.189-.496a.064.064 0 0 0-.057-.037H9.905a.063.063 0 0 0-.057.035l-.21.496a.062.062 0 0 0 .007.056.056.056 0 0 0 .049.027zm1.77.226H1.536C.96 10.893.5 11.356.5 11.929v5.534c0 .574.46 1.037 1.036 1.037h9.928c.574 0 1.037-.463 1.037-1.037v-5.534a1.035 1.035 0 0 0-1.037-1.036zm-3.871 6.5a2.75 2.75 0 1 1 0-5.498 2.75 2.75 0 0 1 0 5.498zm0-4.395c-.908 0-1.643.738-1.642 1.645v.001a1.644 1.644 0 0 0 3.286-.001v-.002c0-.905-.737-1.643-1.644-1.643z" fill="#036"/></svg>