<svg xmlns="http://www.w3.org/2000/svg" width="19" height="19" viewBox="0 0 19 19"><path d="M10.163.5c-.288 0-.571.015-.852.043a.856.856 0 0 0-.757.939.85.85 0 0 0 .928.765c.225-.024.451-.035.681-.035 3.669.007 6.637 3.008 6.644 6.718 0 .228-.011.45-.032.671a.853.853 0 0 0 .843.941.851.851 0 0 0 .843-.771c.026-.276.04-.558.04-.841C18.499 4.274 14.768.5 10.163.5zm0 3.359c-.36 0-.715.04-1.057.113a.855.855 0 0 0-.648 1.018.845.845 0 0 0 1.006.656c.226-.048.458-.075.7-.075 1.833.004 3.318 1.504 3.321 3.36 0 .212-.019.417-.056.617a.856.856 0 0 0 .834 1.013.85.85 0 0 0 .831-.698c.056-.303.085-.615.084-.932 0-2.802-2.244-5.072-5.015-5.072zM3.791 12.09a1.646 1.646 0 1 0-3.292 0 1.646 1.646 0 0 0 3.292 0zm-1.646.712a.712.712 0 1 1 0-1.423.712.712 0 0 1 0 1.423zm5.977 3.831l.022-.021-3.76-3.872a2.334 2.334 0 0 1-2.028 1.672l-.015.016 2.142 2.205h-.979V18.5h6.779v-1.867H8.122zm-3.684-4.967L6.463 9.7l.366.366.607-.608-.295-.295.773-.353a.362.362 0 0 0 .195-.216L8.6 7.131a.366.366 0 0 0-.694-.233l-.44 1.312-.877.4-1.021-1.02.4-.878 1.312-.44a.365.365 0 1 0-.232-.694l-1.464.491a.368.368 0 0 0-.216.195l-.352.773-.223-.222-.607.608.409.41-2.023 1.964a2.334 2.334 0 0 1 1.866 1.869z" fill="#036"/></svg>