<svg xmlns="http://www.w3.org/2000/svg" width="19" height="19" viewBox="0 0 19 19"><path d="M10.163.5c-.288 0-.571.015-.852.043a.856.856 0 0 0-.757.939.85.85 0 0 0 .928.765c.225-.024.451-.035.681-.035 3.669.007 6.637 3.008 6.644 6.718 0 .228-.011.45-.032.671a.853.853 0 0 0 .843.941.851.851 0 0 0 .843-.771c.026-.276.04-.558.04-.841C18.499 4.274 14.768.5 10.163.5zm0 3.359c-.36 0-.715.04-1.057.113a.855.855 0 0 0-.648 1.018.845.845 0 0 0 1.006.656c.226-.048.458-.075.7-.075 1.833.004 3.318 1.504 3.321 3.36 0 .212-.019.417-.056.617a.856.856 0 0 0 .834 1.013.85.85 0 0 0 .831-.698c.056-.303.085-.615.084-.932 0-2.802-2.244-5.072-5.015-5.072zM5.6 4.461h-.683v-.149a1.225 1.225 0 1 0-.888 0v.149h-.716c-.864 0-1.563.701-1.563 1.564l.094 2.877v2.058c0 .425.337.77.76.78v.002a.236.236 0 0 1 .232.223v5.753c0 .433.35.782.782.782h1.781c.432 0 .782-.35.782-.782v-5.751a.237.237 0 0 1 .218-.229.78.78 0 0 0 .719-.778V9.023h.006l.04-2.998A1.566 1.566 0 0 0 5.6 4.461z" fill="#036"/></svg>