<svg xmlns="http://www.w3.org/2000/svg" width="19" height="19" viewBox="0 0 19 19"><path d="M10.163.5c-.288 0-.571.015-.852.043a.856.856 0 0 0-.757.939.85.85 0 0 0 .928.765c.225-.024.451-.035.681-.035 3.669.007 6.637 3.008 6.644 6.718 0 .228-.011.45-.032.671a.853.853 0 0 0 .843.941.851.851 0 0 0 .843-.771c.026-.276.04-.558.04-.841C18.499 4.274 14.768.5 10.163.5zm0 3.359c-.36 0-.715.04-1.057.113a.855.855 0 0 0-.648 1.018.845.845 0 0 0 1.006.656c.226-.048.458-.075.7-.075 1.833.004 3.318 1.504 3.321 3.36 0 .212-.019.417-.056.617a.856.856 0 0 0 .834 1.013.85.85 0 0 0 .831-.698c.056-.303.085-.615.084-.932 0-2.802-2.244-5.072-5.015-5.072zm.304 5.974H3.533A3.034 3.034 0 0 0 .5 12.868v2.599A3.032 3.032 0 0 0 3.533 18.5h6.934a3.032 3.032 0 0 0 3.033-3.033v-2.599a3.033 3.033 0 0 0-3.033-3.035zm.812 7.855H2.72v-7.041h8.559v7.041zm.945-1.481a.78.78 0 0 1-.667-.667h.667v.667zm0-.884h-.667a.78.78 0 0 1 .667-.664v.664zm.215.884v-.667h.664a.78.78 0 0 1-.664.667zm0-.884v-.664a.78.78 0 0 1 .664.664h-.664z" fill="#036"/></svg>