<svg xmlns="http://www.w3.org/2000/svg" width="19" height="19" viewBox="0 0 19 19"><path d="M18.381 7.897a.555.555 0 0 0-.435-.21h-7.524l1.883-5.064c.037-.098.034-.207-.01-.301s-.122-.169-.22-.206l-.617-.23a.396.396 0 0 0-.508.232L8.878 7.687H1.054a.554.554 0 0 0-.54.681l1.957 8.343a.555.555 0 0 0 .539.428h.002l12.979-.057a.555.555 0 0 0 .538-.428l1.956-8.284a.558.558 0 0 0-.104-.473zM3.83 16.026l-.381.002-.287-1.228a.308.308 0 0 0 .1.016h.568v1.21zm0-1.951h-.568a.376.376 0 0 0-.247.094l-.585-2.493c.04.015.084.024.131.024H3.83v2.375zm0-3.114H2.561a.374.374 0 0 0-.272.117l-.535-2.281H3.83v2.164zm3.43 5.05l-2.689.012v-1.207H7.26v1.195zm0-1.936H4.571V11.7H7.26v2.375zm0-3.114H4.571V8.797H7.26v2.164zm3.587 5.034L8 16.007v-1.191h2.847v1.179zm0-1.92H8V11.7h2.847v2.375zm0-3.114H8V8.797h2.847v2.164zm3.509 5.017l-2.77.014v-1.176h2.77v1.162zm0-1.903h-2.77V11.7h2.77v2.375zm0-3.114h-2.77V8.797h2.77v2.164zm1.194 5.014l-.453.002v-1.161h.726l-.273 1.159zm.447-1.899l-.009-.001h-.892V11.7h1.462l-.561 2.376zm.736-3.112a.322.322 0 0 0-.043-.003h-1.594V8.797h2.146l-.509 2.167z" fill="#036"/></svg>