<svg xmlns="http://www.w3.org/2000/svg" width="19" height="19" viewBox="0 0 19 19"><path d="M13.419 9.152c-1.494-1.822-2.506.583-3.019 2.207-.659 2.085-.923 4.78-.465 7.142.17-.062-.054-.519.116-.581 2.653-.442 2.361-3.831 2.671-6.618.859-.066 1.529.367 2.09.406-.413-.789-.83-1.869-1.393-2.556zm-1.626-1.045c-.231-2.225-.498-4.45-1.219-6.271-.182-.457-.557-1.375-1.161-1.335-.922.061-1.454 2.412-1.684 3.484a29.844 29.844 0 0 0-.581 4.18c1.397 1.1 1.835 3.159 2.322 5.168.468-2.049.963-4.071 2.323-5.226zm-5.632.406c-1.004.45-1.616 2.325-1.974 3.251.577-.273 1.185-.518 2.09-.464.016.385-.021.824 0 1.277.098 2.13.527 5.248 2.613 5.283.059.193-.129.632.116.639h.348c.172-2.335-.09-4.366-.639-6.444-.364-1.383-1.127-4.18-2.554-3.542z" fill="#036"/></svg>