<svg xmlns="http://www.w3.org/2000/svg" width="19" height="19" viewBox="0 0 19 19"><path d="M18.455 12.517a.19.19 0 0 0-.143-.065h-.044l-2.753-6.623c1.652-.146 2.287-1.418 2.315-1.475a.345.345 0 1 0-.62-.301c-.006.011-.549 1.1-2.005 1.1-.744 0-1.651-.452-2.612-.93-.945-.47-1.918-.954-2.838-1.043l-.063-1.658a.185.185 0 0 0-.189-.179h-.007l-.002-.001a.187.187 0 0 0-.187.181l-.062 1.652c-.911.072-1.938.565-2.935 1.045-.955.458-1.942.932-2.658.932-1.457 0-1.83-1.01-1.847-1.06a.345.345 0 0 0-.654.219c.02.061.497 1.444 2.328 1.526L.73 12.451H.687a.188.188 0 0 0-.142.065.188.188 0 0 0-.043.149c.187 1.242 1.542 2.179 3.15 2.179 1.608 0 2.963-.937 3.15-2.179.008-.054-.007-.108-.043-.149s-.087-.065-.142-.065h-.041l-2.71-6.62c.822-.069 1.757-.518 2.742-.99.909-.437 1.845-.886 2.61-.971l-.475 12.58H5.058a.187.187 0 0 0-.187.187v.835c0 .103.083.187.187.187h8.885a.187.187 0 0 0 .187-.187v-.835a.187.187 0 0 0-.187-.187h-3.686L9.782 3.877c.771.1 1.652.538 2.505.963 1.006.5 1.958.974 2.843 1l-2.706 6.611h-.043a.188.188 0 0 0-.184.214c.188 1.242 1.541 2.179 3.15 2.179s2.963-.937 3.15-2.179a.182.182 0 0 0-.042-.148zm-17.32-.066l2.538-6.106 2.5 6.106H1.135zm14.191-6.106l2.539 6.106h-5.039l2.5-6.106z" fill="#036"/></svg>