<svg xmlns="http://www.w3.org/2000/svg" width="19" height="19" viewBox="0 0 19 19"><path d="M18.179 11.92a.437.437 0 0 0-.104-.189V1.36a.24.24 0 0 0-.323-.225.544.544 0 0 0-.45-.239h-.008l-16.153.228a.544.544 0 0 0-.536.534L.539 6.153a.545.545 0 0 0 .543.551h.026l2.132-.101-2.216 11.501H2.13l.329-1.708 7.576-2.548.631 4.256h1.069c.005-.045.014-.09.007-.137L9.876 5.371l7.647-3.438c.024-.012.048-.024.07-.039v9.732a.434.434 0 0 0-.257.51c.1.387.329 1.499.232 2.118-.092.016-.366.025-1.01-.194a8.875 8.875 0 0 1-.897-.366.435.435 0 0 0-.379.782c.019.009.464.224.991.404.488.167.88.25 1.194.25.208 0 .382-.037.526-.108a.768.768 0 0 0 .418-.549c.179-.905-.19-2.387-.232-2.553zM5.181 2.269l3.121-.117.38 2.566-1.338.601-2.777.133.614-3.183zm2.317 4.13a.559.559 0 0 0 .197-.048l1.152-.518.193 1.304-5.323 2.73.64-3.318 3.141-.15zm-5.865-.807l.051-3.39 2.411-.034-.644 3.337-1.818.087zm.944 10.192L3.6 10.472l5.981 2.956-7.004 2.356zm7.329-2.801l-5.641-2.788 4.858-2.491.783 5.279zm-.195-8.728l-.32-2.162 5.297-.075-4.977 2.237z" fill="#036"/></svg>