<svg xmlns="http://www.w3.org/2000/svg" width="19" height="19" viewBox="0 0 19 19"><path d="M17.649 8.745a1.664 1.664 0 0 0-.639-3.201c-.138 0-.266.021-.392.05a1.9 1.9 0 0 0-3.799 0 1.745 1.745 0 0 0-.391-.05 1.666 1.666 0 0 0-.641 3.201 1.9 1.9 0 0 0-1.353 1.813 1.902 1.902 0 0 0 3.23 1.363c.11.961.1 2.835-.196 3.357h2.501c-.298-.522-.311-2.396-.198-3.357a1.9 1.9 0 1 0 1.878-3.176zm-9.715 1.457h1.599L6.739 6.575h1.549L5.512 3.721l-.012.011-.012-.011-2.779 2.854h1.553l-2.793 3.627h1.597L0 13.983h4.208v1.296h2.587v-1.296H11z" fill="#036"/></svg>