<svg xmlns="http://www.w3.org/2000/svg" width="19" height="19" viewBox="0 0 19 19"><path d="M5.543 15.932l3.966-2.338.042-.422-3.988 2.351zm3.948-4.533a.1.1 0 0 0-.02-.074L4.987 7.021A.092.092 0 0 0 4.875 7L1.349 8.938a.094.094 0 0 0-.044.063.094.094 0 0 0 .021.075l4.094 4.649a.092.092 0 0 0 .067.029.103.103 0 0 0 .045-.011l3.915-2.282a.087.087 0 0 0 .044-.062zm-4.204 2.71a.09.09 0 0 0-.022-.058l-4.024-4.58a.093.093 0 0 0-.098-.025.093.093 0 0 0-.06.083l.007 1.553a.09.09 0 0 0 .023.059l4.034 4.764a.085.085 0 0 0 .066.031h.001a.091.091 0 0 0 .09-.091l-.001-.008-.016-1.728zm.256.391l3.966-2.339.042-.421-3.988 2.353zm0 .717l3.966-2.339.042-.423-3.988 2.353zM9.241 3.356v5.705h5.919V3.327l1.596 1.596 1.29-1.289L15.16.75V.745h-1.739c.125.155.202.33.202.522 0 .566-.628 1.022-1.407 1.022-.777 0-1.407-.457-1.407-1.022 0-.192.077-.368.203-.522H9.241v.031L6.386 3.634l1.289 1.289 1.566-1.567zm8.328 7.079c-2.348-.377-2.581 1.561-2.581 1.56 1.927.66 2.581-1.56 2.581-1.56zm-.46 2.503c-1.06-1.06-2.171-.307-2.535-.037l.361-1.936s-.726-.579-.693 0c.134.339.188 1.294.21 1.926-.38-.278-1.474-1-2.519.047-1.369 1.37.363 4.755 1.798 4.755.642 0 .771-.182.79-.211.018.029.148.211.789.211 1.437 0 3.168-3.384 1.799-4.755z" fill="#036"/></svg>