<svg xmlns="http://www.w3.org/2000/svg" width="19" height="19" viewBox="0 0 19 19"><path d="M7.454 17.149a5.102 5.102 0 1 1-2.648-9.463V6.162A6.46 6.46 0 0 0 1 12.047 6.46 6.46 0 0 0 7.454 18.5a6.454 6.454 0 0 0 5.657-3.352l-.788-1.579a5.107 5.107 0 0 1-4.869 3.58zm8.64-1.934l-2.938-5.623a.75.75 0 0 0-.665-.403H7.395V6.857h3.642a.75.75 0 0 0 0-1.5H7.395V3.405A1.593 1.593 0 0 0 6.645.4a1.593 1.593 0 1 0-.75 3.005v6.534c0 .415.336.75.75.75h5.392l2.727 5.219a.751.751 0 0 0 1.012.318.75.75 0 0 0 .318-1.011z" fill="#036"/></svg>