<svg xmlns="http://www.w3.org/2000/svg" width="19" height="19" viewBox="0 0 19 19"><path d="M9.499.5a.86.86 0 0 0-.331 1.654v16.013a.332.332 0 0 0 .663 0V2.155A.862.862 0 0 0 9.499.5zm1.714 1.407c-1.493-.355-.869 3.06-.623 3.167.696.302 1.737.173 2.153-.66.547.52 1.819.158 2.284-.673.677.077 1.512-.495 1.645-1.015.138-.542-2.241-.053-5.459-.819zM8.407 5.074c.249-.107.873-3.522-.621-3.167-3.22.766-5.597.277-5.458.819.134.52.966 1.092 1.641 1.015.468.831 1.742 1.192 2.287.673.414.833 1.455.961 2.151.66zm-1.816.589a1.043 1.043 0 0 0-.571.952c0 1.004.872 1.446 1.889 1.728-.402.237-.668.561-.668 1.047 0 .635.519 1.004 1.16 1.304-.506.29-.888.667-.888 1.23 0 .579.461.926 1.019 1.212-.412.284-.72.643-.72 1.161 0 .565.417 1.115 1.004 1.585-.873.695-1.786 1.326-1.664 1.326.016 0 .031 0 .047-.003.454-.05 1.048-.236 1.633-.508v-2.095c-.079-.117-.135-.223-.135-.306 0-.088.056-.177.135-.261v-1.741c-.24-.131-.434-.266-.434-.371 0-.164.178-.319.434-.466V9.921c-.376-.171-.706-.361-.706-.531 0-.208.299-.368.706-.5V7.658c-1.11-.248-1.928-.507-1.928-1.043 0-.088.026-.132.105-.172.284-.153.89-.073 1.247.167a.442.442 0 0 0 .488-.736c-.555-.372-1.516-.552-2.153-.211zm5.815 0c-.637-.341-1.598-.161-2.155.211a.443.443 0 0 0 .49.737c.36-.24.964-.321 1.25-.168.075.041.102.084.102.172 0 .537-.815.795-1.926 1.043V8.89c.405.132.706.292.706.5 0 .169-.328.36-.706.531v1.538c.253.146.434.302.434.466 0 .105-.195.24-.434.371v1.741c.077.084.137.173.137.261 0 .083-.058.188-.137.306v2.095c.587.271 1.176.458 1.631.508a.259.259 0 0 0 .051.003c.116 0-.793-.631-1.664-1.326.587-.47 1-1.02 1-1.585 0-.519-.305-.877-.718-1.161.556-.286 1.019-.633 1.019-1.212 0-.563-.382-.94-.887-1.23.642-.3 1.159-.669 1.159-1.304 0-.486-.268-.811-.665-1.048 1.013-.281 1.883-.723 1.883-1.728 0-.418-.203-.757-.57-.953z" fill="#036"/></svg>