<svg xmlns="http://www.w3.org/2000/svg" width="19" height="19" viewBox="0 0 19 19"><g fill="#036"><path d="M13.633 3.08l1.777.84-4.717 4.193-3.617-3.311-6.576 5.28.871 1.084 5.645-4.534 3.664 3.352 5.707-5.073.642 1.658 1.471-4.516zM12.08 5.542h-2.714l1.337 1.224 1.377-1.224zm-1.561-2.828l2.427-.512h-11.717v1.25h10.854l-1.564-.738zm-6.265 7.419h5.107l-1.366-1.25h-2.184l-1.557 1.25zm-3.025 6.679h16.101v-1.25h-16.101v1.25zm16.097-7.929l-.021.069v-.055h-.447l-.006-.015h-3.428l-1.406 1.25h5.312v-1.25h-.004zm-12.769-3.341h-3.328v1.25h1.771l1.557-1.25zm-3.328 7.021v.909h16.101v-1.25h-15.678l-.423.341z"/></g></svg>