<svg xmlns="http://www.w3.org/2000/svg" width="19" height="19" viewBox="0 0 19 19"><path d="M15.843 11.115c-.327-.729-2.035-1.377-2.623-1.581-.596-1.305-.594-2.832-.52-3.738l.1-.791.041-.417-.151-.182.009-.006s.109.055.143.188c0 0 .237-2.258-.791-3.1l.005-.012C9.91-.416 7.482 1.024 7.482 1.024 5.704 2.169 6.2 4.643 6.2 4.643h.014l.063.362s.491 2.52-.416 4.519c-.704.302-1.413.517-1.413.517-.765.292-1.09.733-1.09.733-1.132 1.679-1.264 5.413-1.264 5.413.015.852.383.941.383.941 2.602 1.16 6.683 1.365 6.683 1.365 4.191.09 7.241-1.189 7.241-1.189.444-.279.457-.5.457-.5.309-2.675-1.015-5.689-1.015-5.689zm-8.931.908l-1.362.218L6.81 9.36l.852-.47.034.971 1.771 5.67-2.555-3.508zm5.177 0l-2.555 3.509 1.771-5.67.034-.971.851.47 1.261 2.881-1.362-.219z" fill="#036"/></svg>