<svg xmlns="http://www.w3.org/2000/svg" width="19" height="19" viewBox="0 0 19 19"><g fill="#036"><path d="M7.868 14.022s-.636-1.234.562-2.396c1.141-1.109.927-1.808.902-1.873.021.056.402 1.073 1.094 1.614.703.554.703 1.639.174 2.693 0 0 1.896-1.477 1.924-3.234.038-2.862-1.304-2.967-2.049-5.015 0 0 .013 1.659-.979 2.402 0 0 .122-2.604-.718-3.709 0 0 .026 2.104-1.299 3.714C6.28 9.383 6.121 9.962 6.11 10.762c-.013.803.21 2.337 1.758 3.26zM5 14.552v1.076h9v-1.076H5z"/><path d="M18.368 15.956L10.543 1.977a1.152 1.152 0 0 0-.985-.615h-.031c-.403 0-.779.211-.986.56L.664 15.901a1.147 1.147 0 0 0 .986 1.736h15.703c.402 0 .775-.21.983-.553a1.15 1.15 0 0 0 .032-1.128zm-16.719.534L9.526 2.511l7.825 13.979H1.649z"/></g></svg>