<svg xmlns="http://www.w3.org/2000/svg" width="19" height="19" viewBox="0 0 19 19"><path d="M6.639 11.838c.043-.158.056-.331.035-.499-.01-.078-.026-4.661-.023-6.983l.542.004-.005 7.937h.621l.006.889 5.702-.003.005-.886.534.005V.951c0-.242-.141-.451-.404-.451H7.798c-.303 0-.604.218-.604.567v.598c-.404-.051-.803.054-1.164 1.128.001.616.012 1.237.029 1.861-.631 2.563-1.896 4.035-2.798 6.209-.411 2.194 2.484 3.229 3.378.975zm1.737-9.737c0-.232.161-.36.375-.36h3.737c.207 0 .369.085.369.37v2.952c0 .199-.106.345-.335.345l-3.76-.01a.393.393 0 0 1-.404-.395l.018-2.902zm-2.333 9.501c-.558 1.605-2.336 1.112-2.271-.383.774-1.618 1.773-3.553 2.341-4.657.049 1.715.074 3.419-.07 5.04zm.138 3.164H5.046v3.671h2.905v-.903h-1.77v-2.768zm7.844 1.577v.765h.759v.345c-.148.089-.28.151-.396.188a1.208 1.208 0 0 1-.363.055c-.268 0-.476-.085-.625-.255-.149-.171-.225-.454-.225-.852 0-.374.074-.647.222-.82a.745.745 0 0 1 .595-.26c.167 0 .305.037.412.11s.185.18.229.318l1.095-.195a1.527 1.527 0 0 0-.3-.588 1.194 1.194 0 0 0-.501-.342c-.201-.073-.505-.109-.91-.109-.421 0-.756.059-1.004.178a1.6 1.6 0 0 0-.727.675 2.115 2.115 0 0 0-.248 1.046c0 .38.075.718.227 1.012s.364.515.639.663.63.224 1.065.224c.354 0 .66-.042.918-.124.258-.083.555-.239.891-.468v-1.565h-1.753zm-3.671-1.577H8.468v3.671h1.14v-1.362h.621c.457 0 .798-.104 1.021-.312.223-.209.334-.499.334-.869 0-.361-.103-.639-.307-.834s-.512-.294-.923-.294zm-.008 1.451c-.088.076-.242.114-.46.114h-.278v-.819h.323c.211 0 .356.04.432.12.077.08.115.178.115.293a.363.363 0 0 1-.132.292z" fill="#036"/></svg>