<svg xmlns="http://www.w3.org/2000/svg" width="19" height="19" viewBox="0 0 19 19"><path d="M13.651.5H7.798c-.303 0-.604.218-.604.567v.598c-.404-.051-.803.054-1.164 1.128.001.616.012 1.237.029 1.861-.631 2.563-1.896 4.035-2.798 6.209-.411 2.193 2.483 3.229 3.378.975.043-.158.056-.331.035-.499-.01-.078-.026-4.661-.023-6.983l.542.004-.005 7.937h.621l.006.889 5.702-.003.005-.886.534.005V.951c0-.242-.141-.451-.405-.451zM6.043 11.602c-.558 1.605-2.336 1.112-2.271-.383.774-1.618 1.773-3.553 2.341-4.657.049 1.715.074 3.419-.07 5.04zm6.814-6.54c0 .199-.106.345-.335.345l-3.76-.01a.393.393 0 0 1-.404-.395L8.377 2.1c0-.232.161-.36.375-.36h3.737c.207 0 .369.085.369.37v2.952z" fill="#036"/></svg>