<svg xmlns="http://www.w3.org/2000/svg" width="19" height="19" viewBox="0 0 19 19"><path d="M17.882 6.952c-.347-.386-.896-.605-1.505-.605-.562 0-1.106.181-1.546.503a29.418 29.418 0 0 0-2.615-.245c.132-1.184.314-2.305.618-3.391a.287.287 0 0 0-.037-.238.288.288 0 0 0-.203-.128l-.957-.132a.298.298 0 0 0-.228.063.303.303 0 0 0-.105.21c-.064 1.228-.302 2.411-.616 3.588-.982.012-1.693.084-2.131.144-.962.133-1.13.279-1.186.328a.284.284 0 0 0-.099.216l-.032 3.81-3.168-2.948c.236-.501.39-1.22.298-2.132a.289.289 0 0 0-.132-.214.29.29 0 0 0-.251-.032C2.492 6.251.764 8.242.514 9.044a.29.29 0 0 0 .203.37c.3.079.609.118.917.118.417 0 .806-.072 1.148-.207l4.433 4.751-.01 1.188a.287.287 0 0 0 .111.231c.695.543 2.576.791 4.029.791 1.04 0 2.913-.119 3.785-.904a.296.296 0 0 0 .093-.214l.021-2.457c.037-.03.073-.061.108-.095.088-.078.169-.152.256-.22.004-.003.01-.008.015-.009a40.781 40.781 0 0 0 2.047-1.895l.02-.021c.371-.452.72-.936.768-1.422.141-.841-.072-1.624-.576-2.097zm-.486 2.265c-.181.315-.543.699-1.055 1.112l-.013.009c-.173.155-.364.314-.566.485-.165.137-.334.28-.506.427l.029-3.42c.286-.235.668-.519 1.025-.519a.87.87 0 0 1 .052.002h.001c.459.025.983.299 1.092.778l.003.008a1.68 1.68 0 0 1-.062 1.118z" fill="#036"/></svg>