<svg xmlns="http://www.w3.org/2000/svg" width="19" height="19" viewBox="0 0 19 19"><path d="M2.204.912H1.049v17.224h1.154V5.8l5.705-2.322-5.704-2.124V.912zm15.738 5.226a.774.774 0 0 0-.308-.451L9.763.5l-.718 1.046c-.177.246-.136.458.123.636.245.15.457.108.635-.123l.411-.615 6.396 4.203-5.228.942c-.191.041-.345.141-.461.298s-.147.324-.093.502l1.128 4.408-3.69 5.515a.795.795 0 0 0-.103.39c0 .219.079.406.236.563s.346.235.564.235c.287 0 .52-.137.696-.409l3.854-5.802.205.799-.573 4.347a.793.793 0 0 0 .656.901.766.766 0 0 0 .605-.133.723.723 0 0 0 .317-.523l.595-4.447c.014-.15 0-.309-.041-.473l-1.312-5.228 3.424-.615c.178-.027.321-.119.431-.276s.15-.326.122-.503zm-5.853-.359c.267-.253.4-.563.4-.933s-.134-.681-.4-.934-.584-.379-.953-.379-.684.126-.943.379c-.26.254-.39.566-.39.935s.13.68.389.933c.26.253.574.379.943.379s.687-.127.954-.38z" fill="#036"/></svg>