<svg xmlns="http://www.w3.org/2000/svg" width="19" height="19" viewBox="0 0 19 19"><path d="M6.208 12.617c0 .465.933.841 2.082.841 1.15 0 2.083-.376 2.083-.841 0-.397-.685-.73-1.607-.817V4.368l4.027-1.639-4.027-1.5V.918h-.814v10.871c-.988.065-1.744.411-1.744.828zm12.232 4.197c-.342-.732-.697-1.26-.982-1.684-.436-.646-.723-1.072-.723-1.809 0-.646.253-.984.636-1.496.324-.436.729-.977 1.063-1.845a.606.606 0 0 0-.063-.57c-.195-.285-.678-.577-2.774-.577-1.818 0-4.177.222-6.426.584v.858c2.246-.369 4.613-.595 6.426-.595 1.239 0 1.765.11 1.975.18-.278.653-.597 1.079-.88 1.458-.412.555-.805 1.076-.805 2.004 0 .996.402 1.592.868 2.281.255.381.544.807.827 1.382-.303.11-1.095.249-2.682.249h-.001c-2.758 0-6.191-.409-8.745-1.043-3.056-.759-4.808-1.805-4.808-2.869 0-.646 1.375-1.652 5.233-2.541.295-.068.601-.133.91-.197V9.72a35.8 35.8 0 0 0-1.101.236C2.481 10.856.5 11.989.5 13.322c0 3.561 9.889 4.76 14.399 4.76h.001c3.07 0 3.374-.476 3.503-.679a.603.603 0 0 0 .037-.589z" fill="#036"/></svg>