<svg xmlns="http://www.w3.org/2000/svg" width="19" height="19" viewBox="0 0 19 19"><path d="M3.82 15.457a1.132 1.132 0 1 0 0 2.263 1.132 1.132 0 0 0 0-2.263zm10.467-1.784a2.024 2.024 0 1 0 0 4.048 2.024 2.024 0 0 0 0-4.048zm0-.778a3.09 3.09 0 0 0-.448.032l-.011.001-10.35 1.782a1.91 1.91 0 0 0 .343 3.79h10.467c1.546 0 2.803-1.257 2.803-2.803s-1.258-2.802-2.804-2.802zm1.642 4.444a2.307 2.307 0 0 1-1.642.681H3.82a1.43 1.43 0 1 1-.259-2.837l10.346-1.781h.003c.018-.003.182-.026.377-.026a2.325 2.325 0 0 1 2.322 2.322 2.31 2.31 0 0 1-.68 1.641zM6.124 5.122l.621 1.562a.632.632 0 0 0 1.173-.467l-.424-1.07 1.069-.425a.63.63 0 0 0-.465-1.174l-1.562.62a.637.637 0 0 0-.449.372.639.639 0 0 0 .037.582zm2.467 7.379a.73.73 0 0 0 .989.271l1.681-.969a.73.73 0 0 0 .449-.5.731.731 0 0 0-.138-.658l-.969-1.68a.73.73 0 0 0-1.263.728l.663 1.151-1.15.664a.732.732 0 0 0-.262.993zm2.533-8.981a1.51 1.51 0 1 0 0-3.02 1.51 1.51 0 0 0 0 3.02zM6.092 13.874c.37.16.8-.011.959-.381l3.323-7.707.412.737a.607.607 0 0 0 .414.381.614.614 0 0 0 .552-.109l1.417-.794a.61.61 0 0 0-.596-1.065l-.971.543-.705-1.259a.729.729 0 0 0-1.376-.136l-3.81 8.831a.73.73 0 0 0 .381.959z" fill="#036"/></svg>