<svg xmlns="http://www.w3.org/2000/svg" width="19" height="19" viewBox="0 0 19 19"><path d="M9.5.5a9 9 0 1 0 0 18 9 9 0 0 0 0-18zm0 17c-4.411 0-8-3.589-8-8s3.589-8 8-8 8 3.589 8 8-3.589 8-8 8zM6.943 7.561a1 1 0 1 0 0-2 1 1 0 0 0 0 2zm5.113 0a1 1 0 1 0 0-2 1 1 0 0 0 0 2zm1.043 3.293a.502.502 0 0 0-.571.417c-.143.914-1.176 2.2-3.027 2.2-1.744 0-2.896-1.121-3.134-2.228a.503.503 0 0 0-.593-.385.5.5 0 0 0-.384.594c.321 1.5 1.836 3.019 4.111 3.019 2.216 0 3.782-1.549 4.016-3.046a.502.502 0 0 0-.418-.571z" fill="#036"/></svg>