<svg xmlns="http://www.w3.org/2000/svg" width="19" height="19" viewBox="0 0 19 19"><path d="M7.935 6.27c.935-.007 1.753.791 2.008 1.231.538.895.303 1.946.958 1.94.311.006.378-.228.387-.502-.009-1.405-1.26-3.482-3.441-3.486h-.391C6.2 5.458 4.223 6.828 4.193 8.985c-.005.474.288.504.391.5.662.004.146-.836.934-1.983.632-.95 1.574-1.239 2.074-1.232h.343zm-.132-2.303c-3.137.004-5.127 2.561-5.088 4.972.002.5.25.641.5.641.882 0 .165-1.471 1.411-3.013.415-.539 1.515-1.579 3.126-1.575 1.944-.004 4.001 1.716 3.993 3.993.009 2.431-2.542 3.389-2.533 5.817v1.186c-.009.572-.641 1.402-1.46 1.393v.002h-.014c-.332.035-.578.101-.663.365-.071.305.135.617.433.707a.933.933 0 0 1 .204.045c1.616-.006 2.6-1.269 2.6-2.372v-1.073c0-2.514 2.507-3.113 2.507-5.976a5.048 5.048 0 0 0-5.016-5.112zm.95 5.422c-.025-.559-.461-1.005-1.001-1.001-.555-.004-.991.438-.999 1.001a.963.963 0 0 0 .999.946c.54.021.976-.423 1.001-.946zm.711-7.199l-.222.8a6.475 6.475 0 0 1 4.557 4.288l.798-.252c-.771-2.377-2.698-4.221-5.133-4.836zm-.227.821l.006-.021-.006-.002v.023zm-.002-.024h.002-.002zM9.897.5l-.226.821A8.265 8.265 0 0 1 15.44 6.75l.845-.274A9.059 9.059 0 0 0 9.897.5z" fill="#036"/></svg>