<svg xmlns="http://www.w3.org/2000/svg" width="19" height="19" viewBox="0 0 19 19"><path d="M11.469 6.423l4.453-4.454-.703-.703-5.204 5.204 1.454-.047zM9.001 4.954L4.547.5l-.703.703 5.204 5.204-.047-1.453zm-1.47 2.467l-4.453 4.454.703.703 5.204-5.204-1.454.047zM9.999 8.89l4.454 4.454.703-.703-5.204-5.204.047 1.453zm1.888 5.003H9.982v-3.502h-.023c.081-.271.229-.502.404-.715l-.658-.658-.004-.119-.047-1.453-.006-.155a.398.398 0 0 0 .247-.332l.268.267 1.239 1.239a1.11 1.11 0 0 0 .138-.525V6.719l-.062.002-1.453.048-.156.004a.399.399 0 0 0-.332-.247l.267-.268 1.736-1.735v-1.13a1.989 1.989 0 0 0-3.958-.28l1.713 1.714.004.118.047 1.453.006.155a.397.397 0 0 0-.248.332L7.562 5.343v1.778l1.414-.045.155-.006a.401.401 0 0 0 .332.248l-.267.267-1.311 1.31c.302.449.764.879 1.166 1.496a.18.18 0 0 0 .067.059v3.443H7.215a.248.248 0 0 0-.249.249v.221c0 .138.111.249.249.249h1.904v1.93h-.515v-1.147a.2.2 0 0 0-.198-.199.2.2 0 0 0-.199.199v2.907a.2.2 0 0 0 .199.199.2.2 0 0 0 .198-.199v-1.26h1.378v-2.43h1.904a.248.248 0 0 0 .249-.249v-.221a.248.248 0 0 0-.248-.249z" fill="#036"/></svg>