<svg xmlns="http://www.w3.org/2000/svg" width="19" height="19" viewBox="0 0 19 19"><path d="M13.051 10.718v7.611c0 .229 3.026.229 3.026 0v-7.611c0-.23-3.026-.23-3.026 0zm5.288 1.817V9.251c0-5.069-3.715-8.752-8.834-8.752-5.118 0-8.83 3.683-8.83 8.752v3.266c-.216.525-.271 1.214-.271 1.971 0 1.647.253 2.983 1.868 2.983v-5.964c-.089 0-.172.005-.254.013V9.251c0-4.36 3.08-7.406 7.486-7.406 4.408 0 7.485 3.046 7.485 7.406v2.261a2.682 2.682 0 0 0-.262-.015v5.964c1.615 0 1.867-1.335 1.867-2.979.002-.746-.051-1.423-.255-1.947zM2.924 10.641v7.611c0 .23 3.026.23 3.026 0v-7.611c0-.229-3.026-.229-3.026 0z" fill="#036"/></svg>