<svg xmlns="http://www.w3.org/2000/svg" width="19" height="19" viewBox="0 0 19 19"><path d="M18.292 6.31c.059-1.35.155-2.897.208-4.224-.317.072-.556.585-.992.625-.51.048-1.051-.364-1.615-.417-.368-.035-.881-.008-1.095.052-.697.195-1.153.671-1.548 1.238-.524.892-1.088 1.837-1.21 1.984-.182.225-4.673.102-6.688.034a4.521 4.521 0 0 0-.775.083c-.223.046-.422.189-.626.208-.967.091-1.669-.165-2.347.261-1.562.98-.967 3.24-1.094 5.789 1.07-.443 1.249-2.124 1.408-3.755.103-1.056.558-2.053 1.668-1.981-.275.474-.686.835-.782 1.407-.202 1.203.603 2.069.991 2.816-.222.338-.784 1.034-.784 1.034l-1.309 4.338a.471.471 0 0 0 .9.273L3.84 11.97s.164-.224.337-.328c.172-.104 1.064-.341 1.433-.549l.017-.012a2.1 2.1 0 0 0-.051.478c.018.525.666 4.064.739 4.466a.47.47 0 0 0 .923-.169c-.274-1.493-.713-3.986-.726-4.328-.007-.217.143-.714.295-1.136l1.425.05c.886.018 1.804.053 2.708.099l2.586.093-1.784 5.671a.47.47 0 0 0 .896.282l1.756-5.581 1.579 1.19v2.592a.47.47 0 0 0 .938 0v-3.061l-2.739-2.063 1.148-2.518c.755.08 1.597.072 1.876.625.301-.014.665.039.888-.052.313-.351.186-.925.208-1.409zm-1.409.782c-.501-.055-.946-.165-1.46-.208.196-.604.186-1.414.73-1.669.03.818.95.981.73 1.877z" fill="#036"/></svg>