<svg xmlns="http://www.w3.org/2000/svg" width="19" height="19" viewBox="0 0 19 19"><g transform="translate(-169.66 733.44) scale(1.64138)" fill="#036"><circle cx="113.449" cy="-445.532" r="1.005"/><path d="M110.593-435.949h2.597s.197.02.197-.186v-.206h.384s.088.703-.436.769h-2.742v-.377zm-6.479-2.008l1.838 1.837s.123.151.27.007l.146-.146.271.272s-.436.56-.853.238l-1.937-1.938.265-.27zm7.09-.64l.003 1.821c0 .342.276.62.621.62.313 0 .619-.362.619-.62v-2.533a.62.62 0 0 0-.193-.45l-1.486-1.482 1.972-1.971c.371-.462.175-1.017.175-1.017-.206-.615-.903-.636-.903-.636l-5.083-.001a.49.49 0 1 0 0 .982l3.51.006-1.479 1.472a1.046 1.046 0 0 0-.319.778c0 .306.121.578.325.778l2.238 2.253z"/><path d="M108.652-440.577a1.15 1.15 0 0 1-.129-.148l-2.931 2.937a.612.612 0 0 0 .661 1.02.605.605 0 0 0 .113-.076l3.01-3.014-.724-.719z"/></g></svg>