<svg xmlns="http://www.w3.org/2000/svg" width="19" height="19" viewBox="0 0 19 19"><path d="M12.174 14.04h5.354l-2.7-4.515 2.688-4.57h-5.413L9.448.5 6.827 4.955H1.475l2.697 4.519-2.688 4.566h5.414l2.655 4.46 2.621-4.46zm2.932-1.373H12.98l1.056-1.794 1.07 1.794zm-3.72 0H7.674l-1.91-3.199 1.847-3.139h3.713l1.913 3.201-1.851 3.137zm3.734-6.338l-1.089 1.852-1.106-1.852h2.195zM9.455 3.196l1.05 1.759H8.418l1.037-1.759zM3.894 6.329h2.125L4.964 8.122l-1.07-1.793zm-.011 6.338l1.089-1.85 1.102 1.85H3.883zm4.609 1.373h2.093l-1.04 1.768-1.053-1.768z" fill="#036"/></svg>