<svg xmlns="http://www.w3.org/2000/svg" width="19" height="19" viewBox="0 0 19 19"><path d="M9.412 13.936a3.393 3.393 0 0 0 3.282-2.549h-.263a.752.752 0 0 1 0-1.503h.301a3.393 3.393 0 0 0-3.32-2.722 3.394 3.394 0 0 0-3.389 3.388 3.392 3.392 0 0 0 3.389 3.386zM2.109 1.293v3.045H16.89V1.293H2.109zm8.824 2.418a.824.824 0 0 1 0-1.645.823.823 0 0 1 0 1.645zm2.166 0a.824.824 0 0 1 0-1.645.823.823 0 0 1 0 1.645zm2.166 0a.823.823 0 0 1 0-1.645.823.823 0 0 1 0 1.645zM2.109 17.707H16.89V5.162H2.109v12.545zm3.052-9.048c0-.194.158-.353.354-.353a.35.35 0 0 1 .283.145A4.18 4.18 0 0 1 9.412 6.37a4.186 4.186 0 0 1 4.138 3.59.751.751 0 0 1-.03 1.364 4.179 4.179 0 1 1-7.672 1.404.353.353 0 0 1-.686-.118V8.659z" fill="#036"/></svg>