<svg xmlns="http://www.w3.org/2000/svg" width="19" height="19" viewBox="0 0 19 19"><path d="M13.504.86c-1.502.243-2.771.55-3.808.924-1.033.377-1.94.861-2.722 1.452-.78.594-1.403 1.17-1.865 1.734-.462.562-.827 1.226-1.105 1.994-.272.767-.462 1.436-.561 2.004-.1.569-.144 1.233-.124 1.995.015.76.049 1.338.093 1.736.048.398.116.879.201 1.443.088.561.132.918.132 1.074L.5 18.5h1.044l2.823-2.863c.148.016.455.061.92.143.464.08.873.143 1.221.191.348.047.81.066 1.387.059a8.174 8.174 0 0 0 1.612-.17c.498-.107 1.06-.305 1.683-.594a9.007 9.007 0 0 0 1.797-1.113c.508-.402.951-.82 1.33-1.256s.705-.916.986-1.441c.279-.525.514-1.045.711-1.552.199-.509.395-1.134.59-1.87.193-.735.369-1.436.52-2.1.156-.661.359-1.505.609-2.531.251-1.026.507-1.993.767-2.903-1.826 0-3.492.12-4.996.36zm1.752 2.907c-2.398 1.326-3.76 3.707-5.077 6.01-1.046 1.83-2.034 3.557-3.471 4.564a.5.5 0 0 1-.574-.818c1.254-.879 2.188-2.513 3.177-4.242 1.321-2.31 2.817-4.927 5.46-6.388a.5.5 0 0 1 .485.874z" fill="#036"/></svg>