<svg xmlns="http://www.w3.org/2000/svg" width="19" height="19" viewBox="0 0 19 19"><path d="M10.515 10.158c-.036-.058-.424-.686-.424-1.161 0-.493.411-1.414.419-1.432l.021-.018 2.643-2.525a.7.7 0 0 0 .025-.992l-.053-.056a.702.702 0 0 0-.992-.026L9.673 6.319a.605.605 0 0 0-.147-.019h-.994l-1.94-2.674a.701.701 0 0 0-.978-.166l-.064.045a.7.7 0 0 0-.166.977l2.027 2.793v3.323L5.814 15.06c-.13.365.06.767.425.897l.072.026c.365.13.768-.06.897-.425l1.554-4.34h.711l3.058 3.538a.7.7 0 0 0 .989.072l.06-.051a.701.701 0 0 0 .072-.989l-3.137-3.63zm5.349-7.022A8.94 8.94 0 0 0 9.5.5a8.943 8.943 0 0 0-6.364 2.636A8.945 8.945 0 0 0 .5 9.5c0 2.403.937 4.664 2.636 6.363A8.943 8.943 0 0 0 9.5 18.5a8.942 8.942 0 0 0 6.364-2.637A8.939 8.939 0 0 0 18.5 9.5a8.94 8.94 0 0 0-2.636-6.364zM9.5 17.794c-4.573 0-8.294-3.721-8.294-8.294 0-4.574 3.721-8.295 8.294-8.295 4.574 0 8.295 3.721 8.295 8.295 0 4.573-3.721 8.294-8.295 8.294zM9.329 5.715a1.234 1.234 0 1 0 0-2.468 1.234 1.234 0 0 0 0 2.468z" fill="#036"/></svg>