<svg xmlns="http://www.w3.org/2000/svg" width="19" height="19" viewBox="0 0 19 19"><path d="M16.965 9.388a.162.162 0 0 0-.036-.132l-8.02-7.701a.162.162 0 0 0-.199-.036L2.403 4.984a.166.166 0 0 0-.08.113.16.16 0 0 0 .038.133l7.323 8.316a.16.16 0 0 0 .2.033l7.003-4.08a.153.153 0 0 0 .078-.111zm-7.519 4.847a.156.156 0 0 0-.04-.104L2.208 5.939a.16.16 0 0 0-.281.104l.013 2.775c0 .04.014.078.04.108l7.217 8.52a.165.165 0 0 0 .119.054h.003a.16.16 0 0 0 .159-.16l-.001-.016-.031-3.089zm.459.699L17 10.749l.073-.753-7.134 4.207-.034.731zm0 1.281L17 12.031l.073-.754-7.134 4.207-.034.731zm0 1.281L17 13.312l.073-.754-7.134 4.207-.034.731z" fill="#036"/></svg>