<svg xmlns="http://www.w3.org/2000/svg" width="19" height="19" viewBox="0 0 19 19"><path d="M11.803 5.902h.23c.245 0 .397-.152.397-.397 0-.246-.152-.398-.397-.398H6.917c-.245 0-.397.152-.397.398 0 .245.152.397.397.397h.23L5.502 18.304a.175.175 0 0 0 .172.197h7.582a.17.17 0 0 0 .131-.06.17.17 0 0 0 .041-.137L11.803 5.902zM7.02 2.437h4.892c.204 0 .296-.138.296-.275 0-.1-.05-.188-.139-.247l-.012-.007L9.549.521a.173.173 0 0 0-.168 0L6.895 1.908l-.011.006a.287.287 0 0 0-.14.247.266.266 0 0 0 .076.199.271.271 0 0 0 .2.077zm.813 1.897V3.131a.174.174 0 0 0-.152-.172L.629 2.062a.174.174 0 0 0-.196.173l.021 2.976a.174.174 0 0 0 .173.172l.021-.001 7.032-.876a.174.174 0 0 0 .153-.172zm10.675-2.23a.174.174 0 0 0-.137-.042l-7.031.897a.174.174 0 0 0-.152.172v1.182c0 .087.065.161.152.172l7.031.897.022.001a.172.172 0 0 0 .173-.173V2.234a.175.175 0 0 0-.058-.13zM8.219 3.744c0 .71.578 1.288 1.288 1.288s1.288-.578 1.288-1.288-.578-1.288-1.288-1.288-1.288.578-1.288 1.288z" fill="#036"/></svg>