<svg xmlns="http://www.w3.org/2000/svg" width="19" height="19" viewBox="0 0 19 19" enable-background="new 0 0 19 19"><style type="text/css">.st1{fill:#1C3660;}</style><circle class="st1" cx="5.6" cy="8.2" r=".6"/><path class="st1" d="M5.6 9.2c-.6 0-1-.4-1-1 0-.5.4-1 1-1 .5 0 1 .4 1 1-.1.6-.5 1-1 1zm0-1.1c-.1 0-.1 0-.1.1s.2.1.2 0l-.1-.1z"/><circle class="st1" cx="9.3" cy="12.2" r=".6"/><path class="st1" d="M9.3 13.2c-.5 0-1-.4-1-1s.4-1 1-1 1 .4 1 1-.5 1-1 1zm0-1.1c-.1 0-.1 0-.1.1s.2.1.2 0-.1-.1-.1-.1z"/><circle class="st1" cx="13" cy="5.9" r=".6"/><path class="st1" d="M13 6.9c-.5 0-1-.4-1-1s.4-1 1-1 1 .4 1 1-.5 1-1 1zm0-1.1c-.1 0-.1 0-.1.1s.2.1.2 0l-.1-.1z"/><circle class="st1" cx="15.9" cy="10.3" r=".6"/><path class="st1" d="M15.9 11.3c-.5 0-1-.4-1-1s.4-1 1-1 1 .4 1 1-.4 1-1 1zm0-1.1c-.1 0-.1 0-.1.1s.2.1.2 0 0-.1-.1-.1zM2.5 13.9c-.1 0-.2 0-.3-.1-.2-.1-.3-.4-.2-.7l3-5.2c.1-.1.2-.2.4-.2s.3 0 .4.2l3.3 3.4 3.4-5.7c.1-.1.2-.2.4-.2s.3.1.4.2l3 4.3c.2.2.1.5-.1.7-.2.2-.5.1-.7-.1l-2.5-3.6-3.3 5.6c-.1.1-.2.2-.4.2s-.3 0-.4-.2l-3.3-3.4-2.7 4.6c-.1.1-.2.2-.4.2z"/></svg>