<svg xmlns="http://www.w3.org/2000/svg" width="19" height="19" viewBox="0 0 19 19"><path d="M15.646 11.342c-.384-.854-2.734-1.595-2.734-1.595a5.202 5.202 0 0 1-.208-.078l-.599-.105-1.528 4.351-.335-2.472s.391-.446.391-.837c0-.39-.131-.835-1.078-.835-.947 0-1.078.446-1.078.835 0 .391.391.837.391.837l-.334 2.472-1.53-4.352-.815.145c-.746.34-1.585.594-1.585.594-.74.285-1.054.713-1.054.713-1.096 1.625-1.226 5.244-1.226 5.244.015.825.372.912.372.912 2.521 1.125 6.475 1.324 6.475 1.324 4.061.086 7.017-1.152 7.017-1.152.429-.273.441-.486.441-.486.301-2.592-.983-5.515-.983-5.515zM6.69 6.296c.189 1.564 1.535 3.182 2.753 3.182 1.402 0 2.734-1.701 2.942-3.182.079-.056.209-.191.257-.499 0 0 .299-1.074-.098-.957.138-.414.596-2.022-.292-3.023 0 0-.415-.566-1.426-.868l-.473-.163c-.294-.101-.445-.23-.667-.271-.221-.04-.527-.003-.707.1l-.007.023.006-.022S8.926.548 8.786.527c-.14-.02-.383.074-.383.074s-1.473.576-1.899 1.9c0 0-.252.601.079 2.359-.472-.222-.15.937-.15.937.05.308.179.444.257.499z" fill="#036"/></svg>