<svg xmlns="http://www.w3.org/2000/svg" width="19" height="19" viewBox="0 0 19 19"><path d="M15.688 11.296c-.318-.711-1.984-1.344-2.559-1.543a2.992 2.992 0 0 0-.217-.054l-.011.058c-.024.12-.268 1.2-1.483 1.857-.712.384-1.475.441-1.867.441l-.051-.001-.051.001c-.392 0-1.155-.058-1.867-.441-1.13-.61-1.419-1.583-1.474-1.817-.542.14-.956.269-1.536.453a2.333 2.333 0 0 0-1.063.716c-1.104 1.637-1.233 5.28-1.233 5.28.015.831.374.919.374.919 2.539 1.132 6.52 1.332 6.52 1.332 4.089.088 7.064-1.161 7.064-1.161.434-.271.446-.487.446-.487.3-2.613-.992-5.553-.992-5.553zM6.829 6.658c.094.772.484 1.557 1 2.136l-.095.551-.733.234s.148.755 1.018 1.225c.548.296 1.167.331 1.43.331h.102c.263 0 .881-.035 1.43-.331.869-.47 1.018-1.225 1.018-1.225l-.732-.233-.091-.522c.566-.596.981-1.41 1.088-2.165.075-.054.2-.184.245-.478 0 0 .285-1.024-.094-.913.132-.395.569-1.93-.278-2.886 0 0-.396-.54-1.36-.828l-.451-.154c-.177-.13-.534-.434-.534-.771 0 0-.223.104-.354.294A.914.914 0 0 1 9.715.5s-.146.077-.282.241c-.105.059-.346.221-.427.516l.006-.021s-.049-.064-.184-.085c-.132-.019-.365.07-.365.07s-1.405.55-1.812 1.813c0 0-.241.573.076 2.253-.451-.213-.143.893-.143.893.047.294.17.424.245.478zM9.39.796a.894.894 0 0 0-.156.36l-.05-.019A.822.822 0 0 1 9.39.796z" fill="#036"/></svg>