<svg xmlns="http://www.w3.org/2000/svg" width="19" height="19" viewBox="0 0 19 19"><g fill="#036"><path d="M8.758 9.111c-.011-.018-.029-.027-.054-.027-.046 0-.069.042-.069.126h.141a.219.219 0 0 0-.018-.099zm2.56-7.468c0-.01 0-.02-.002-.028v.048c.002-.008.002-.015.002-.02zM8.099 12.607c-.012-.019-.03-.027-.056-.027-.046 0-.068.042-.068.126h.14c0-.048-.005-.081-.016-.099z"/><path d="M15.24 14.413V1.486c0-.532-.453-.986-.986-.986H4.842c-.533 0-.985.454-.985.986v12.927c.002.05 11.385.027 11.383 0zm-6.405-2.934h-.291v-.835l.001-.062c0-.027.001-.048.003-.064a.345.345 0 0 1 .1-.216.324.324 0 0 1 .227-.075c.02 0 .041.002.062.005s.043.006.063.012a.265.265 0 0 1 .091.048.113.113 0 0 1 .038.091.209.209 0 0 1-.019.071.638.638 0 0 1-.045.091.302.302 0 0 0-.06-.031.182.182 0 0 0-.081-.018c-.025 0-.047.008-.064.023s-.025.04-.025.074v.042h.216v.261h-.216v.583zm-1.283-1.72a.47.47 0 0 1-.141-.017.367.367 0 0 1-.08-.034.138.138 0 0 1-.052-.049.124.124 0 0 1-.016-.058c0-.03.007-.061.019-.09a.967.967 0 0 1 .043-.085.228.228 0 0 0 .04.035.267.267 0 0 0 .049.03.195.195 0 0 0 .107.033c.025 0 .044-.006.055-.016s.016-.021.016-.037c0-.018-.008-.031-.023-.042a.288.288 0 0 0-.061-.029l-.077-.028a.302.302 0 0 1-.077-.042.226.226 0 0 1-.06-.072.244.244 0 0 1-.024-.116.3.3 0 0 1 .025-.123.247.247 0 0 1 .066-.086c.027-.022.059-.04.095-.051s.074-.016.114-.016c.08 0 .15.014.21.043a.21.21 0 0 1 .064.046.084.084 0 0 1 .025.063.198.198 0 0 1-.017.075.354.354 0 0 1-.04.086.468.468 0 0 0-.092-.067.22.22 0 0 0-.098-.025c-.041 0-.062.015-.062.043 0 .019.008.034.023.043s.035.018.059.025c.023.009.048.016.075.025s.053.022.076.039c.024.018.043.042.059.072s.023.069.023.118a.303.303 0 0 1-.083.224c-.054.055-.134.083-.24.083zm.057.665v1.05a.31.31 0 0 1-.107.022.226.226 0 0 1-.104-.02.136.136 0 0 1-.055-.051.156.156 0 0 1-.022-.072 1.201 1.201 0 0 1-.003-.087v-1.013a.246.246 0 0 0 .036-.006l.035-.005.039-.002a.19.19 0 0 1 .126.035c.017.014.03.033.041.057a.27.27 0 0 1 .014.092zm.759-2.998c.016.01.035.019.059.026l.076.023a.224.224 0 0 1 .135.112c.016.03.022.069.022.118 0 .093-.027.167-.082.223s-.135.083-.24.083a.47.47 0 0 1-.141-.017.379.379 0 0 1-.081-.034c-.026-.015-.042-.032-.052-.05s-.016-.036-.016-.056c0-.03.007-.06.019-.089a.985.985 0 0 1 .043-.086.283.283 0 0 0 .089.066.205.205 0 0 0 .108.029c.025 0 .044-.004.055-.014a.05.05 0 0 0 .016-.038.048.048 0 0 0-.023-.042.257.257 0 0 0-.06-.027l-.079-.028c-.028-.011-.053-.024-.077-.042s-.044-.042-.059-.072a.232.232 0 0 1-.024-.116c0-.046.009-.088.025-.123a.251.251 0 0 1 .161-.137.477.477 0 0 1 .324.025c.026.014.048.03.064.048.018.018.025.04.025.064a.377.377 0 0 1-.058.158.446.446 0 0 0-.093-.065.2.2 0 0 0-.097-.025c-.042 0-.062.014-.062.043a.045.045 0 0 0 .023.043zM7.959 9.71v-.814a3.162 3.162 0 0 1 .074-.011l.039-.001a.25.25 0 0 1 .067.008.16.16 0 0 1 .059.028.138.138 0 0 1 .04.055c.01.024.015.055.015.092v.618l-.003.096a.59.59 0 0 1-.013.102.319.319 0 0 1-.125.193.33.33 0 0 1-.085.041.269.269 0 0 1-.072.012c-.042 0-.073-.009-.093-.028s-.032-.047-.039-.085a.641.641 0 0 1-.007-.049l-.005-.069c.031-.003.057-.01.076-.021s.034-.024.045-.041.019-.034.023-.056.004-.045.004-.07zm-.004-1.082c0-.05.014-.089.041-.119s.062-.046.102-.046c.04 0 .075.016.103.046s.041.069.041.119c0 .05-.014.089-.041.119s-.064.043-.104.043c-.039 0-.074-.014-.102-.043s-.04-.069-.04-.119zm.112-1.67a.581.581 0 0 1-.044.091.362.362 0 0 0-.06-.032A.214.214 0 0 0 7.881 7a.088.088 0 0 0-.063.024c-.018.016-.026.041-.026.075v.042h.216v.26h-.216v.584H7.5v-.836l.001-.063a.56.56 0 0 1 .003-.064.341.341 0 0 1 .101-.216.32.32 0 0 1 .226-.074.44.44 0 0 1 .126.018c.035.01.065.026.091.047s.038.051.038.091a.238.238 0 0 1-.019.07zm-.459-2.537a.292.292 0 0 1-.108.023.214.214 0 0 1-.104-.02.134.134 0 0 1-.056-.049.207.207 0 0 1-.021-.073 1.21 1.21 0 0 1-.004-.087V3.202l.037-.005.035-.005a.277.277 0 0 1 .106.005c.022.005.042.014.059.027s.03.033.04.057a.218.218 0 0 1 .016.091v1.049zm.117 6.436a.44.44 0 0 1 .061-.141.23.23 0 0 1 .302-.073c.014.008.024.016.033.022l.017.017v-.428a.246.246 0 0 0 .036-.006l.035-.005.038-.002c.023 0 .046.002.068.007a.195.195 0 0 1 .058.028.153.153 0 0 1 .04.057c.01.024.016.054.016.091v1.056h-.22c-.015 0-.027-.004-.039-.012s-.018-.025-.018-.052a.196.196 0 0 1-.065.057.217.217 0 0 1-.111.024c-.033 0-.065-.006-.098-.019s-.062-.035-.088-.067a.372.372 0 0 1-.062-.131.77.77 0 0 1-.024-.209c0-.084.006-.155.021-.214zm.66-1.327a.63.63 0 0 1-.039-.239c0-.073.011-.138.031-.191a.408.408 0 0 1 .083-.133.306.306 0 0 1 .116-.077.368.368 0 0 1 .13-.023c.06 0 .11.01.152.031s.076.049.102.083a.348.348 0 0 1 .057.123.628.628 0 0 1 .017.146v.023l-.001.031-.001.03-.002.02h-.392a.24.24 0 0 0 .042.113c.021.03.059.047.108.047a.209.209 0 0 0 .098-.022.377.377 0 0 0 .079-.055c.013.023.025.05.038.08s.019.057.019.08c0 .021-.005.039-.014.057s-.023.034-.046.05a.252.252 0 0 1-.087.039.513.513 0 0 1-.265-.002c-.046-.012-.089-.034-.128-.068s-.07-.081-.097-.143zm.361-1.759V6.758l.036-.005a.173.173 0 0 1 .036-.005l.039-.002c.023 0 .045.003.067.009a.159.159 0 0 1 .059.027.131.131 0 0 1 .04.055c.01.024.015.054.015.091v1.049A.292.292 0 0 1 8.93 8a.226.226 0 0 1-.104-.02.131.131 0 0 1-.076-.122.795.795 0 0 1-.004-.087zm-.247 4.232c.027-.029.062-.044.102-.044s.073.015.102.044c.027.03.042.07.042.121 0 .05-.015.089-.042.118-.03.029-.063.043-.103.043s-.074-.014-.102-.043a.162.162 0 0 1-.041-.118c.001-.051.013-.091.042-.121zm1.892-4.629c-.004-.01-.012-.018-.02-.023s-.018-.009-.029-.011c-.01-.002-.023-.002-.035-.002a.3.3 0 0 0-.102.017.668.668 0 0 0-.111.052.405.405 0 0 1-.041-.08.233.233 0 0 1-.014-.058c0-.018.004-.034.014-.05s.029-.031.061-.049c.025-.017.062-.03.107-.039s.09-.014.137-.014c.113 0 .195.027.246.081.049.053.072.139.072.255v.341a.837.837 0 0 0 .024.186l-.037.011-.031.008-.034.002-.037.001c-.078 0-.125-.026-.137-.08a.245.245 0 0 1-.195.078c-.029 0-.059-.005-.086-.014s-.053-.024-.074-.044-.039-.047-.051-.081-.02-.074-.02-.122c0-.067.016-.122.045-.162s.066-.07.107-.091a.417.417 0 0 1 .133-.04.9.9 0 0 1 .115-.009v-.024a.085.085 0 0 0-.007-.039zm.597-3.19a.232.232 0 0 0-.059-.028l-.078-.028a.256.256 0 0 1-.137-.113.247.247 0 0 1-.023-.116.31.31 0 0 1 .023-.123.259.259 0 0 1 .164-.136.47.47 0 0 1 .322.027.21.21 0 0 1 .064.046.086.086 0 0 1 .027.063.202.202 0 0 1-.018.075.594.594 0 0 1-.041.084.421.421 0 0 0-.094-.066.201.201 0 0 0-.098-.025c-.041 0-.062.015-.062.043 0 .019.008.034.023.043.016.01.035.018.059.025l.076.024a.303.303 0 0 1 .079.038c.023.018.043.042.059.072s.023.069.023.119a.306.306 0 0 1-.082.224.333.333 0 0 1-.242.083.386.386 0 0 1-.221-.052c-.025-.015-.043-.032-.053-.05s-.014-.037-.014-.057c0-.03.006-.06.018-.089.014-.029.027-.058.043-.086a.17.17 0 0 0 .039.036c.016.011.031.021.049.03s.035.017.055.021a.21.21 0 0 0 .055.009c.025 0 .043-.005.053-.015a.048.048 0 0 0 .018-.038c-.001-.017-.011-.03-.027-.04zm.856 4.99c.016.01.035.018.059.025l.076.024a.238.238 0 0 1 .135.111.28.28 0 0 1 .021.118.303.303 0 0 1-.082.224c-.055.056-.135.083-.24.083-.061 0-.107-.006-.141-.017s-.061-.022-.08-.034a.15.15 0 0 1-.053-.049.124.124 0 0 1-.016-.058c0-.03.006-.061.02-.09a.736.736 0 0 1 .041-.085.306.306 0 0 0 .09.065.222.222 0 0 0 .108.031.084.084 0 0 0 .055-.016.049.049 0 0 0 .016-.037c0-.018-.008-.031-.023-.042s-.039-.019-.062-.027l-.076-.028a.235.235 0 0 1-.137-.114.22.22 0 0 1-.025-.116c0-.046.01-.087.025-.123a.274.274 0 0 1 .066-.086.295.295 0 0 1 .096-.051.482.482 0 0 1 .324.027.239.239 0 0 1 .064.046.093.093 0 0 1 .025.063.241.241 0 0 1-.016.075.603.603 0 0 1-.043.084.461.461 0 0 0-.092-.066.207.207 0 0 0-.098-.025c-.043 0-.064.015-.064.043.001.02.011.036.027.045zm-.076-2.216a.697.697 0 0 1-.045.091.338.338 0 0 0-.061-.032.204.204 0 0 0-.08-.017.09.09 0 0 0-.064.024c-.018.016-.026.041-.026.075v.042h.217v.26h-.217v.584h-.291v-.899a.53.53 0 0 1 .004-.064.356.356 0 0 1 .1-.216.325.325 0 0 1 .227-.074.44.44 0 0 1 .126.017c.035.01.064.026.09.047s.037.051.037.091a.222.222 0 0 1-.017.071zm-1.325 3.911a.036.036 0 0 0-.02-.022.083.083 0 0 0-.029-.011c-.01-.002-.021-.002-.035-.002a.334.334 0 0 0-.102.016.669.669 0 0 0-.109.053.345.345 0 0 1-.043-.079.173.173 0 0 1-.014-.058c0-.018.006-.034.016-.051a.173.173 0 0 1 .059-.05.367.367 0 0 1 .107-.038.692.692 0 0 1 .137-.014c.115 0 .195.026.244.08.051.054.074.139.074.256v.341c0 .029.004.061.008.096a.52.52 0 0 0 .016.09l-.037.011a.628.628 0 0 1-.031.007l-.033.004h-.037c-.078 0-.123-.026-.137-.08a.253.253 0 0 1-.195.079.277.277 0 0 1-.086-.014c-.029-.01-.053-.024-.074-.045s-.039-.047-.051-.08a.315.315 0 0 1-.02-.122c0-.067.016-.121.045-.162a.293.293 0 0 1 .107-.091c.043-.021.088-.034.133-.04s.084-.009.115-.009v-.025a.082.082 0 0 0-.008-.04zm.123-1.137v-.835l.002-.063c0-.027.002-.049.004-.065a.333.333 0 0 1 .1-.216.321.321 0 0 1 .225-.074.44.44 0 0 1 .126.017.268.268 0 0 1 .09.048.107.107 0 0 1 .035.06.174.174 0 0 1 .039-.096.138.138 0 0 1 .104-.046c.039 0 .072.016.1.046.029.03.041.069.041.119 0 .05-.012.089-.041.119a.132.132 0 0 1-.1.043.142.142 0 0 1-.104-.043.17.17 0 0 1-.039-.09c-.002.014-.008.03-.014.049a.707.707 0 0 1-.045.092.555.555 0 0 0-.061-.032.204.204 0 0 0-.082-.017c-.023 0-.045.008-.062.024s-.027.04-.027.074v.042h.217v.26h-.217v.584h-.291zm.227-1.77v-.814l.035-.005.037-.005a.316.316 0 0 1 .107.006.143.143 0 0 1 .057.027.13.13 0 0 1 .041.057c.01.023.016.054.016.091v.619c0 .026-.002.058-.004.096a.502.502 0 0 1-.014.102.32.32 0 0 1-.049.117.342.342 0 0 1-.076.076.272.272 0 0 1-.156.053c-.043 0-.072-.01-.092-.029a.162.162 0 0 1-.041-.085 3.141 3.141 0 0 1-.012-.117.19.19 0 0 0 .076-.021.134.134 0 0 0 .047-.041c.01-.016.018-.035.021-.056s.007-.045.007-.071zm-.006-1.082c0-.05.014-.09.041-.12.029-.03.062-.044.102-.044s.074.015.102.044c.029.03.041.069.041.12 0 .05-.012.09-.041.12-.027.029-.062.043-.102.043s-.073-.015-.102-.043a.173.173 0 0 1-.041-.12zm.293 2.998a.128.128 0 0 0 .066-.098.507.507 0 0 0 .006-.07v-.814a.283.283 0 0 0 .037-.006.327.327 0 0 1 .035-.005l.039-.001c.023 0 .047.002.068.008a.145.145 0 0 1 .057.028c.018.013.031.031.041.055s.016.055.016.092v.618c0 .025-.002.058-.004.096s-.006.072-.014.103a.296.296 0 0 1-.125.193.297.297 0 0 1-.156.053c-.041 0-.072-.009-.092-.028s-.033-.047-.041-.085a2.223 2.223 0 0 1-.006-.049l-.004-.068a.207.207 0 0 0 .077-.022zm-1.07-.994l.045-.001c.088 0 .143.029.164.087l.023-.034a.178.178 0 0 1 .082-.061.156.156 0 0 1 .057-.01c.014 0 .029 0 .043.004.014.004.025.01.037.018a.086.086 0 0 1 .041.077.35.35 0 0 1-.006.062c-.004.022-.01.044-.016.067-.006.023-.014.046-.021.068l-.023.06c-.02-.02-.039-.035-.059-.044s-.041-.015-.062-.015c-.025 0-.045.007-.059.022s-.02.036-.02.06v.487h-.294v-.834l.03-.007.038-.006zm-.045 1.819c.018.019.025.04.025.064a.22.22 0 0 1-.017.075.457.457 0 0 1-.041.083.473.473 0 0 0-.093-.065.204.204 0 0 0-.098-.025c-.042 0-.062.016-.062.044 0 .019.007.033.022.043s.035.018.059.024l.076.024a.229.229 0 0 1 .135.11c.016.03.022.07.022.12a.304.304 0 0 1-.082.223c-.056.055-.135.082-.24.082a.45.45 0 0 1-.221-.05.151.151 0 0 1-.053-.05.118.118 0 0 1-.015-.057c0-.03.007-.06.019-.089.013-.029.025-.059.041-.086a.351.351 0 0 0 .04.036.414.414 0 0 0 .104.051c.019.004.037.008.055.008.025 0 .042-.005.053-.015s.017-.022.017-.038c0-.018-.008-.031-.024-.042a.24.24 0 0 0-.06-.027l-.077-.028a.253.253 0 0 1-.137-.115.242.242 0 0 1-.023-.116c0-.046.008-.086.024-.121a.251.251 0 0 1 .162-.138.484.484 0 0 1 .323.026c.027.016.05.032.066.049zm-.139-1.227a.437.437 0 0 1-.066.145c-.03.042-.068.074-.115.1s-.105.038-.174.038a.326.326 0 0 1-.285-.136.395.395 0 0 1-.065-.144.673.673 0 0 1 .002-.344.378.378 0 0 1 .071-.14.33.33 0 0 1 .118-.094.365.365 0 0 1 .166-.035c.067 0 .124.011.17.035.047.023.085.055.114.094s.051.086.064.139a.703.703 0 0 1 0 .342zm-.448 2.908v.26h-.216v.585h-.291v-.837l.001-.062a.866.866 0 0 1 .004-.065c.013-.094.046-.166.1-.216s.129-.074.226-.074a.47.47 0 0 1 .125.018c.035.011.066.026.092.047s.038.052.038.091a.203.203 0 0 1-.018.071.657.657 0 0 1-.046.092c-.016-.011-.035-.021-.06-.032s-.051-.017-.08-.017a.093.093 0 0 0-.065.023c-.018.016-.026.041-.026.074v.042h.216zm.712.849l-.029.008a.433.433 0 0 1-.07.004c-.079 0-.126-.026-.139-.08a.239.239 0 0 1-.072.055.274.274 0 0 1-.122.023.283.283 0 0 1-.087-.014.198.198 0 0 1-.124-.125.335.335 0 0 1-.02-.122c0-.067.015-.12.044-.16a.32.32 0 0 1 .108-.093c.043-.021.087-.034.132-.04s.084-.009.116-.009v-.024a.084.084 0 0 0-.008-.039.043.043 0 0 0-.019-.023.083.083 0 0 0-.029-.01.3.3 0 0 0-.137.015.552.552 0 0 0-.11.051.375.375 0 0 1-.042-.078.2.2 0 0 1-.014-.059c0-.018.004-.033.014-.049s.031-.032.062-.05a.31.31 0 0 1 .106-.039.619.619 0 0 1 .137-.015c.113 0 .196.028.245.082.049.053.074.137.074.254v.341a.837.837 0 0 0 .022.186c-.015.005-.026.007-.038.01zm.623-.062c-.055.055-.135.083-.24.083a.474.474 0 0 1-.141-.016.391.391 0 0 1-.08-.035.143.143 0 0 1-.053-.05.117.117 0 0 1-.014-.057c0-.03.006-.06.018-.089s.025-.058.041-.086a.293.293 0 0 0 .09.066.216.216 0 0 0 .055.021.196.196 0 0 0 .053.009c.025 0 .045-.005.055-.016a.046.046 0 0 0 .018-.037c0-.018-.008-.031-.025-.042a.271.271 0 0 0-.059-.028l-.078-.028a.23.23 0 0 1-.137-.113.244.244 0 0 1-.023-.116.31.31 0 0 1 .023-.123.256.256 0 0 1 .164-.137.372.372 0 0 1 .113-.018c.08 0 .148.016.209.045a.236.236 0 0 1 .064.045c.018.019.025.04.025.064a.241.241 0 0 1-.016.075.485.485 0 0 1-.043.085.381.381 0 0 0-.092-.066.19.19 0 0 0-.098-.025c-.041 0-.062.015-.062.044 0 .019.008.033.023.043s.035.018.059.025l.076.023c.027.008.053.021.076.039s.041.042.057.072.025.069.025.118a.294.294 0 0 1-.083.225zm.133-2.526l.031-.006a.629.629 0 0 1 .082-.008c.088 0 .145.027.164.083a.222.222 0 0 1 .07-.07.198.198 0 0 1 .119-.03c.029 0 .061.007.092.021s.061.035.086.067a.37.37 0 0 1 .064.129.734.734 0 0 1 .023.202.873.873 0 0 1-.025.232c-.016.061-.039.109-.066.145s-.057.061-.09.074a.289.289 0 0 1-.102.02.222.222 0 0 1-.117-.033l-.031-.023c-.008-.007-.01-.013-.012-.017v.432h-.289v-1.218zm.66 2.602a.183.183 0 0 1-.109-.029.318.318 0 0 1-.068-.077l-.094-.155c-.016-.027-.029-.052-.039-.075s-.018-.051-.021-.079v.397h-.293v-1.228l.037-.005a.182.182 0 0 1 .035-.006l.039-.001c.023 0 .047.002.068.008a.145.145 0 0 1 .057.028.123.123 0 0 1 .041.055c.01.024.016.056.016.093v.562a.315.315 0 0 1 .023-.076.326.326 0 0 1 .041-.075l.078-.12a.336.336 0 0 1 .062-.072.131.131 0 0 1 .092-.031c.021 0 .043.005.064.012a.654.654 0 0 1 .059.025c.018.011.035.021.051.035l-.199.335.236.433a.427.427 0 0 1-.176.046zm.541-.026a.295.295 0 0 1-.105.022.232.232 0 0 1-.105-.019.156.156 0 0 1-.057-.051.183.183 0 0 1-.021-.072c-.002-.028-.002-.057-.002-.087V12l.035-.005a.182.182 0 0 1 .035-.006l.039-.001c.023 0 .047.002.068.008a.153.153 0 0 1 .059.028.136.136 0 0 1 .039.055.213.213 0 0 1 .016.093v1.049zm.295-1.87c-.062.104-.16.155-.295.155s-.232-.05-.297-.149c-.062-.101-.096-.251-.096-.45 0-.092.008-.175.023-.248a.57.57 0 0 1 .072-.189.312.312 0 0 1 .123-.119.363.363 0 0 1 .18-.043c.068 0 .125.014.174.041.049.026.09.066.121.118s.053.114.068.188c.014.074.021.158.021.252.002.192-.03.34-.094.444zm.17-1.619h-.291v-.898c0-.027.002-.049.004-.065a.343.343 0 0 1 .1-.216.33.33 0 0 1 .227-.074.44.44 0 0 1 .124.017c.035.011.066.027.092.048s.037.051.037.09a.194.194 0 0 1-.018.07.707.707 0 0 1-.045.092.417.417 0 0 0-.061-.032.188.188 0 0 0-.08-.017c-.025 0-.047.008-.064.024s-.025.04-.025.074v.042h.217v.26h-.217v.585zm.73 1.412a.576.576 0 0 1-.113.207.407.407 0 0 1-.156.118.445.445 0 0 1-.258.028.154.154 0 0 1-.053-.026c-.012-.012-.021-.025-.025-.042s-.006-.037-.006-.061c0-.018.002-.038.004-.062l.006-.062a.288.288 0 0 0 .094.011.261.261 0 0 0 .066-.009.199.199 0 0 0 .064-.025c.021-.014.041-.031.059-.053s.031-.049.043-.081a.18.18 0 0 1-.074.034.297.297 0 0 1-.074.009.244.244 0 0 1-.211-.113.398.398 0 0 1-.053-.12.675.675 0 0 1 .009-.339c.02-.056.045-.103.078-.14s.072-.065.115-.084a.379.379 0 0 1 .143-.027c.064 0 .121.013.168.037.049.024.09.061.121.105.033.046.057.101.072.166s.025.138.025.22a.94.94 0 0 1-.044.309zm.121-6.702c0 .026-.002.058-.004.096a.715.715 0 0 1-.012.102.359.359 0 0 1-.049.117.296.296 0 0 1-.232.129c-.043 0-.074-.01-.094-.029a.147.147 0 0 1-.039-.085 1.448 1.448 0 0 1-.012-.116.209.209 0 0 0 .076-.021.113.113 0 0 0 .045-.041c.01-.016.02-.035.023-.056s.004-.045.004-.071v-.815l.037-.005.037-.005.037-.001c.023 0 .047.002.068.007a.169.169 0 0 1 .059.028.148.148 0 0 1 .039.056c.01.023.016.055.016.092v.618zm-.297-1.057c0-.05.014-.091.041-.121s.061-.044.102-.044c.039 0 .074.015.102.044s.041.07.041.121-.014.089-.041.119a.135.135 0 0 1-.102.043.135.135 0 0 1-.102-.043.167.167 0 0 1-.041-.119zm.594 8.075c-.023.031-.057.046-.102.046a.125.125 0 0 1-.102-.046c-.025-.03-.037-.07-.037-.118s.014-.086.039-.116a.133.133 0 0 1 .1-.044c.041 0 .074.015.1.044.025.03.039.068.039.116s-.011.088-.037.118zm-.416-9.482a.23.23 0 0 1 .193-.103.194.194 0 0 1 .109.029c.014.007.023.015.033.022.008.008.014.013.016.017v-.428l.037-.005a.459.459 0 0 1 .072-.007c.023 0 .047.002.068.007a.169.169 0 0 1 .059.028c.016.014.029.033.039.057s.016.054.016.091v1.055h-.219c-.016 0-.027-.003-.039-.012s-.018-.025-.018-.052a.18.18 0 0 1-.066.057.266.266 0 0 1-.209.006.215.215 0 0 1-.086-.067.372.372 0 0 1-.064-.131c-.016-.055-.023-.125-.023-.208s.008-.156.021-.214a.459.459 0 0 1 .061-.142zm-.644-.135c0-.027.002-.048.004-.064a.335.335 0 0 1 .1-.216.327.327 0 0 1 .227-.075.435.435 0 0 1 .125.017c.035.011.064.027.09.048s.039.052.039.091a.203.203 0 0 1-.018.071.565.565 0 0 1-.047.091.519.519 0 0 0-.059-.031.195.195 0 0 0-.08-.018c-.025 0-.047.008-.064.024s-.025.04-.025.074v.042h.215v.261h-.215v.583H12.6v-.835c0-.015-.002-.036 0-.063zm.033 1.882a.44.44 0 0 1 .062-.072.131.131 0 0 1 .092-.031c.021 0 .043.004.064.012a.289.289 0 0 1 .11.06l-.199.335.236.432a.41.41 0 0 1-.176.047.173.173 0 0 1-.107-.029.273.273 0 0 1-.07-.077l-.094-.155a.683.683 0 0 1-.039-.075.27.27 0 0 1-.021-.079v.397h-.293V3.263l.037-.005a.266.266 0 0 1 .035-.005l.039-.001c.023 0 .045.002.068.008a.14.14 0 0 1 .098.083c.01.024.016.055.016.092v.562a.315.315 0 0 1 .023-.076.326.326 0 0 1 .041-.075l.078-.121zm-.908-2.21l.037-.005a.327.327 0 0 1 .035-.005l.039-.002c.023 0 .047.002.068.007a.135.135 0 0 1 .098.085c.01.024.016.054.016.091v.562a.302.302 0 0 1 .023-.076.342.342 0 0 1 .041-.074l.078-.121a.368.368 0 0 1 .062-.073c.021-.021.053-.03.092-.03.021 0 .043.004.064.012a.654.654 0 0 1 .059.025.46.46 0 0 1 .051.035l-.199.336.236.432a.408.408 0 0 1-.176.046.176.176 0 0 1-.109-.029.285.285 0 0 1-.068-.077l-.094-.155a.612.612 0 0 1-.039-.076.263.263 0 0 1-.021-.078v.396h-.293V1.515zm-.032 2.117c.02.006.035.012.047.02a.127.127 0 0 1 .033.023.114.114 0 0 1 .016.016v-.428a.47.47 0 0 0 .037-.005l.035-.005c.014-.003.026-.003.039-.003.023 0 .045.002.068.008a.14.14 0 0 1 .098.083c.01.024.014.055.014.092V4.49h-.219a.07.07 0 0 1-.039-.013c-.012-.008-.018-.025-.018-.052-.014.021-.035.04-.064.057s-.068.026-.111.026a.259.259 0 0 1-.1-.02.215.215 0 0 1-.086-.067.369.369 0 0 1-.062-.132.766.766 0 0 1-.023-.208c0-.083.006-.154.021-.212a.411.411 0 0 1 .061-.143.23.23 0 0 1 .253-.094zm-.959-1.79c0-.027.002-.049.004-.065a.356.356 0 0 1 .1-.216.325.325 0 0 1 .227-.074.46.46 0 0 1 .124.017.278.278 0 0 1 .092.048.102.102 0 0 1 .035.062v-.099l.037-.005a.266.266 0 0 1 .035-.005l.039-.002c.023 0 .045.002.068.007a.145.145 0 0 1 .057.028.155.155 0 0 1 .041.057c.01.024.016.054.016.091v1.049a.318.318 0 0 1-.107.023.223.223 0 0 1-.104-.02.149.149 0 0 1-.057-.051c-.012-.021-.02-.044-.021-.072s-.004-.057-.004-.087v-.866a.707.707 0 0 1-.061.143.417.417 0 0 0-.061-.032.188.188 0 0 0-.08-.017c-.025 0-.047.008-.064.024s-.025.04-.025.074v.042h.217v.26h-.217v.584h-.291v-.898zm.002 1.539c0 .018-.006.041-.018.071s-.025.061-.045.092a.41.41 0 0 0-.061-.033.187.187 0 0 0-.08-.016.094.094 0 0 0-.064.022c-.018.016-.025.042-.025.075v.041h.217v.261h-.217v.584h-.291V3.58l.004-.064a.356.356 0 0 1 .1-.216.33.33 0 0 1 .227-.074.46.46 0 0 1 .124.017c.035.01.066.025.092.046s.037.052.037.092zm-.802-1.274a.425.425 0 0 1 .061-.142.228.228 0 0 1 .254-.093.255.255 0 0 1 .047.02c.014.007.023.015.033.023l.016.016v-.429l.037-.005a.618.618 0 0 1 .035-.006l.038-.001c.023 0 .047.002.068.008s.041.015.059.028c.016.013.029.031.039.055s.016.055.016.092v1.056h-.219c-.016 0-.027-.005-.039-.013s-.018-.025-.018-.052a.182.182 0 0 1-.066.058.217.217 0 0 1-.111.025.242.242 0 0 1-.098-.02A.215.215 0 0 1 10 2.66a.37.37 0 0 1-.064-.132.761.761 0 0 1-.023-.208c0-.084.005-.154.021-.213zm.03 1.497a.509.509 0 0 1 .11.061l-.2.336.236.431a.413.413 0 0 1-.176.048.18.18 0 0 1-.108-.03.281.281 0 0 1-.069-.076l-.094-.157a.417.417 0 0 1-.061-.153v.396h-.293V3.233l.036-.005a.33.33 0 0 1 .036-.004.266.266 0 0 1 .107.005.143.143 0 0 1 .058.028c.017.013.03.031.04.055a.223.223 0 0 1 .016.092v.562a.435.435 0 0 1 .022-.076.455.455 0 0 1 .041-.074l.079-.121a.405.405 0 0 1 .062-.073.132.132 0 0 1 .092-.03.295.295 0 0 1 .066.012zm-.39-1.198a.337.337 0 0 0-.06-.027 4.358 4.358 0 0 1-.077-.028c-.028-.011-.054-.026-.077-.044s-.044-.042-.061-.072a.244.244 0 0 1-.023-.116.261.261 0 0 1 .09-.209.277.277 0 0 1 .096-.051.477.477 0 0 1 .324.027.213.213 0 0 1 .064.047c.018.018.025.04.025.064a.38.38 0 0 1-.057.159.429.429 0 0 0-.092-.065.205.205 0 0 0-.099-.025c-.042 0-.062.014-.062.043 0 .019.008.032.023.042.016.01.035.018.059.025l.076.024a.224.224 0 0 1 .135.112c.016.03.022.07.022.119a.304.304 0 0 1-.082.223c-.056.056-.135.083-.24.083a.47.47 0 0 1-.141-.017.47.47 0 0 1-.081-.034c-.025-.015-.042-.032-.052-.05s-.014-.037-.014-.056c0-.03.006-.06.018-.089a.69.69 0 0 1 .043-.086.458.458 0 0 0 .089.066c.017.009.035.016.053.022s.036.007.054.007c.025 0 .043-.004.054-.014a.05.05 0 0 0 .017-.038.054.054 0 0 0-.024-.042zm-.241 4.348a.159.159 0 0 1 .059.027c.017.013.03.032.04.056s.016.054.016.091v.563a.435.435 0 0 1 .022-.076.491.491 0 0 1 .04-.074l.079-.121c.019-.028.039-.052.062-.073s.053-.03.092-.03c.022 0 .045.004.066.012.021.008.04.016.057.025.019.01.036.021.053.035l-.2.335.236.432a.403.403 0 0 1-.177.048.177.177 0 0 1-.107-.029.282.282 0 0 1-.071-.078l-.093-.155a.683.683 0 0 1-.039-.075.304.304 0 0 1-.021-.079v.397h-.294V6.758l.037-.005a.184.184 0 0 1 .036-.005l.039-.002a.258.258 0 0 1 .068.008zm-.104-2.406a.63.63 0 0 0 .017.09l-.038.01-.031.008c-.01.002-.021.002-.033.003l-.036.001c-.079 0-.126-.027-.139-.081a.201.201 0 0 1-.072.055.26.26 0 0 1-.122.024.256.256 0 0 1-.087-.014.186.186 0 0 1-.073-.045c-.021-.02-.038-.047-.051-.08s-.019-.073-.019-.121a.27.27 0 0 1 .044-.162.3.3 0 0 1 .107-.091c.044-.022.089-.035.134-.041s.084-.009.116-.009v-.024c0-.016-.003-.029-.008-.039s-.011-.018-.02-.023a.083.083 0 0 0-.029-.01.327.327 0 0 0-.137.013.626.626 0 0 0-.11.052.412.412 0 0 1-.043-.079.205.205 0 0 1-.014-.057c0-.018.005-.034.015-.05a.178.178 0 0 1 .06-.049.332.332 0 0 1 .106-.039.643.643 0 0 1 .139-.015c.113 0 .195.027.244.081s.074.139.074.255v.341c0 .029.002.061.006.096zm-.014-1.699c0 .026-.002.058-.004.096s-.005.071-.012.102a.321.321 0 0 1-.125.193.297.297 0 0 1-.085.04.275.275 0 0 1-.072.013c-.042 0-.073-.01-.093-.029a.153.153 0 0 1-.039-.085 1.513 1.513 0 0 1-.012-.117.19.19 0 0 0 .076-.021.13.13 0 0 0 .046-.04c.011-.017.018-.035.021-.057s.005-.046.005-.072v-.814l.037-.004a.369.369 0 0 1 .037-.005l.039-.002c.023 0 .046.002.067.007a.156.156 0 0 1 .058.028c.017.014.03.033.04.057.01.024.016.054.016.091v.619zm-.872-.855c0-.027.002-.049.004-.065a.34.34 0 0 1 .101-.215.324.324 0 0 1 .226-.075.45.45 0 0 1 .126.017.268.268 0 0 1 .09.048.09.09 0 0 1 .03.046.167.167 0 0 1 .038-.079c.028-.029.062-.044.102-.044s.073.015.101.044c.028.03.042.069.042.12s-.014.09-.042.12c-.028.029-.061.043-.101.043s-.074-.014-.102-.043a.152.152 0 0 1-.038-.077.197.197 0 0 1-.01.033.765.765 0 0 1-.045.091.477.477 0 0 0-.061-.032.177.177 0 0 0-.08-.018.09.09 0 0 0-.064.024c-.017.016-.026.04-.026.074v.042h.216v.261h-.217v.583h-.29v-.898zm-.342 1.487c.01.024.015.054.015.091v.562a.463.463 0 0 1 .066-.149l.078-.12a.373.373 0 0 1 .062-.073.13.13 0 0 1 .093-.031c.022 0 .044.004.064.012a.374.374 0 0 1 .11.06l-.2.335.237.433a.416.416 0 0 1-.178.046.173.173 0 0 1-.108-.029.269.269 0 0 1-.068-.077l-.094-.155a.551.551 0 0 1-.039-.076.294.294 0 0 1-.022-.079v.396h-.293V3.202l.037-.005.035-.005a.264.264 0 0 1 .106.005.137.137 0 0 1 .099.084zm-.346-1.822l.037-.005.035-.005.038-.001c.023 0 .047.002.068.008a.116.116 0 0 1 .058.027c.017.013.03.031.04.055a.223.223 0 0 1 .016.092v1.048a.308.308 0 0 1-.107.023.226.226 0 0 1-.104-.02.128.128 0 0 1-.056-.049.188.188 0 0 1-.021-.073 1.184 1.184 0 0 1-.004-.087V1.459zm-.59.393l.001-.062c.001-.027.001-.049.003-.065a.345.345 0 0 1 .1-.216.324.324 0 0 1 .226-.074.464.464 0 0 1 .126.017c.035.011.065.026.091.047s.038.052.038.091a.189.189 0 0 1-.017.07.534.534 0 0 1-.046.093.456.456 0 0 0-.06-.032.177.177 0 0 0-.08-.017c-.025 0-.047.007-.064.023s-.027.041-.027.075v.041h.216v.261h-.216v.584h-.291v-.836zm-.12 8.404c.027-.029.061-.044.101-.044s.074.015.102.044c.028.03.042.069.042.119a.166.166 0 0 1-.042.12c-.027.029-.062.043-.102.043s-.073-.014-.101-.043a.166.166 0 0 1-.043-.12c0-.05.015-.089.043-.119zm-.102-.531a.217.217 0 0 1-.111.025c-.033 0-.067-.007-.1-.02s-.06-.035-.087-.067a.384.384 0 0 1-.062-.13.74.74 0 0 1-.024-.21c0-.084.007-.155.023-.213.015-.058.035-.105.061-.141s.054-.063.087-.079a.232.232 0 0 1 .104-.023c.023 0 .044.002.062.008a.24.24 0 0 1 .081.042l.016.016v-.428L6.93 8.5l.035-.005.038-.001c.023 0 .046.002.068.007a.156.156 0 0 1 .058.028.15.15 0 0 1 .04.056c.01.023.015.055.015.092v1.055h-.219c-.015 0-.027-.004-.039-.012s-.017-.026-.017-.053a.182.182 0 0 1-.066.058zm.16-6.528a.25.25 0 0 1 .067.008.133.133 0 0 1 .057.028c.017.013.03.032.041.056.01.024.016.054.016.091v1.056h-.219a.07.07 0 0 1-.04-.012c-.011-.007-.017-.025-.017-.051a.182.182 0 0 1-.065.056.266.266 0 0 1-.211.006.225.225 0 0 1-.087-.067.39.39 0 0 1-.062-.131c-.017-.056-.025-.125-.025-.209s.008-.156.023-.214a.425.425 0 0 1 .061-.142.228.228 0 0 1 .087-.078.26.26 0 0 1 .105-.024c.023 0 .044.003.062.009a.239.239 0 0 1 .079.043c.009.006.015.013.018.016v-.429a.495.495 0 0 0 .072-.009.253.253 0 0 1 .038-.003zm-.32-1.727c.027-.03.061-.045.101-.045s.074.015.102.045c.027.03.041.069.041.12 0 .05-.014.089-.041.118-.028.029-.062.044-.102.044s-.074-.015-.101-.044a.167.167 0 0 1-.043-.119c0-.05.015-.089.043-.119zm-.064 1.329c.01-.016.017-.036.021-.058s.007-.045.007-.07v-.815l.036-.005.035-.005.039-.001c.023 0 .047.002.068.008a.125.125 0 0 1 .058.027c.017.013.03.031.04.055a.223.223 0 0 1 .016.092v.619l-.003.094a.583.583 0 0 1-.014.103.305.305 0 0 1-.282.247c-.042 0-.071-.009-.091-.028a.15.15 0 0 1-.04-.084c-.003-.016-.006-.032-.007-.049l-.005-.069a.19.19 0 0 0 .076-.021.128.128 0 0 0 .046-.04zm-.872-1.318c.011-.001.024-.002.037-.005a.303.303 0 0 1 .036-.004l.039-.002a.25.25 0 0 1 .067.008c.021.005.04.015.057.028a.141.141 0 0 1 .042.055c.01.024.015.055.015.092v.562a.417.417 0 0 1 .064-.149l.079-.121c.019-.028.038-.052.061-.073s.054-.03.093-.03c.022 0 .045.003.066.011a.424.424 0 0 1 .109.061l-.2.335.237.431a.413.413 0 0 1-.178.049.172.172 0 0 1-.107-.031.267.267 0 0 1-.069-.076l-.094-.157a.386.386 0 0 1-.061-.153v.396h-.293V1.481zm.63 2.127v.26h-.215v.584h-.291v-.835l.001-.063c0-.027.001-.049.003-.065a.338.338 0 0 1 .1-.217.32.32 0 0 1 .226-.074.45.45 0 0 1 .126.018c.035.011.064.027.09.048s.038.051.038.09c0 .017-.006.041-.018.07s-.027.061-.045.093a.63.63 0 0 0-.061-.033.19.19 0 0 0-.08-.016.09.09 0 0 0-.064.024c-.017.015-.025.04-.025.073v.042h.215zm-1.04-.937a.173.173 0 0 1-.021-.073.795.795 0 0 1-.004-.087V1.498l.036-.005a.193.193 0 0 1 .036-.006l.039-.002c.023 0 .045.003.067.009a.159.159 0 0 1 .059.027.142.142 0 0 1 .04.056c.01.024.015.054.015.091v1.049a.313.313 0 0 1-.107.023.226.226 0 0 1-.104-.02.123.123 0 0 1-.056-.049zm.679 7.783a.638.638 0 0 1-.045.091.313.313 0 0 0-.061-.031.177.177 0 0 0-.08-.018c-.025 0-.047.008-.064.023s-.026.041-.026.075v.042h.217v.261H5.74v.583h-.291v-.835l.001-.062a.8.8 0 0 1 .004-.064c.013-.095.046-.166.1-.216s.13-.075.226-.075a.456.456 0 0 1 .125.018.256.256 0 0 1 .091.048.113.113 0 0 1 .038.091.21.21 0 0 1-.018.069zm.534 1.016a.269.269 0 0 1-.068-.077l-.094-.155a.56.56 0 0 1-.04-.075.304.304 0 0 1-.021-.079v.396h-.292v-1.226a.258.258 0 0 0 .037-.006.294.294 0 0 1 .035-.005l.038-.002c.023 0 .047.002.068.007a.184.184 0 0 1 .058.028c.017.014.03.033.04.057a.218.218 0 0 1 .016.091v.562a.405.405 0 0 1 .063-.149l.08-.12c.019-.028.039-.053.062-.073s.053-.03.091-.03c.022 0 .045.004.066.012s.041.016.058.025a.479.479 0 0 1 .053.034l-.2.336.236.433a.409.409 0 0 1-.177.046.185.185 0 0 1-.109-.03zm.509.354c-.027.02-.056.032-.084.04s-.053.013-.073.013c-.042 0-.072-.01-.092-.029a.15.15 0 0 1-.039-.084c-.003-.016-.006-.031-.007-.048a1.728 1.728 0 0 1-.006-.07.19.19 0 0 0 .076-.021c.02-.01.035-.023.046-.04s.018-.035.021-.057.007-.046.007-.071v-.814a.495.495 0 0 0 .071-.01l.039-.002c.023 0 .046.002.067.008a.168.168 0 0 1 .059.027c.017.014.03.033.04.057a.223.223 0 0 1 .016.092v.619l-.003.095a.61.61 0 0 1-.014.103.314.314 0 0 1-.124.192zm.571.56v.26h-.215v.585h-.291v-.837l.001-.062c.001-.026.001-.049.003-.065a.343.343 0 0 1 .101-.216.32.32 0 0 1 .226-.074.47.47 0 0 1 .125.018.262.262 0 0 1 .091.047.113.113 0 0 1 .038.091.546.546 0 0 1-.063.163c-.016-.011-.036-.021-.061-.032s-.052-.017-.081-.017a.088.088 0 0 0-.063.023c-.018.016-.026.041-.026.074v.042h.215zm.586.854a.531.531 0 0 1-.267-.001.311.311 0 0 1-.127-.069.386.386 0 0 1-.097-.142.647.647 0 0 1-.039-.24c0-.073.011-.138.031-.191a.376.376 0 0 1 .082-.132.35.35 0 0 1 .246-.102c.06 0 .11.011.152.031.042.021.076.05.102.085a.342.342 0 0 1 .056.122.586.586 0 0 1 .019.147v.022l-.001.03v.032l-.002.021h-.392c.005.044.02.082.042.112.021.031.058.047.107.047.039 0 .072-.008.099-.021s.052-.032.078-.056c.013.023.025.05.038.08s.02.058.02.081c0 .02-.005.038-.014.055a.143.143 0 0 1-.046.051.283.283 0 0 1-.087.038zm.103.225l-.005-.068a.258.258 0 0 0 .076-.021.12.12 0 0 0 .045-.041.127.127 0 0 0 .022-.056.396.396 0 0 0 .005-.071v-.814l.037-.005a.18.18 0 0 1 .036-.006l.039-.001a.25.25 0 0 1 .067.008.156.156 0 0 1 .058.028.148.148 0 0 1 .04.055c.01.024.015.056.015.093v.618c0 .025 0 .058-.002.096a.616.616 0 0 1-.013.102.319.319 0 0 1-.125.193.276.276 0 0 1-.085.041.24.24 0 0 1-.072.013c-.042 0-.073-.01-.093-.028a.16.16 0 0 1-.039-.086l-.006-.05z"/><path d="M11.674 4.216a.124.124 0 0 0 .029.042.06.06 0 0 0 .043.017c.012 0 .021-.002.029-.003l.014-.004v-.377a.07.07 0 0 0-.023-.01l-.025-.002c-.033 0-.055.017-.068.052a.457.457 0 0 0-.018.143.9.9 0 0 0 .004.078.223.223 0 0 0 .015.064zm-1.445-1.76a.124.124 0 0 0 .029.042.064.064 0 0 0 .045.016.091.091 0 0 0 .027-.003l.014-.004v-.376a.081.081 0 0 0-.021-.01l-.025-.002c-.033 0-.057.017-.068.052a.45.45 0 0 0-.02.143.475.475 0 0 0 .019.142zm3.251.012a.105.105 0 0 0 .029.043.06.06 0 0 0 .043.015c.012 0 .021 0 .027-.002a.04.04 0 0 0 .014-.004v-.376c-.006-.004-.012-.008-.021-.01l-.025-.002h-.012c-.027.003-.047.021-.057.052a.452.452 0 0 0-.02.144.463.463 0 0 0 .022.14zm-5.459 8.738a.118.118 0 0 0 .027.044c.012.01.027.015.045.015.012 0 .021 0 .027-.002l.015-.005v-.375a.05.05 0 0 0-.022-.01c-.009-.002-.019-.002-.026-.002h-.012c-.026.003-.045.021-.056.052a.646.646 0 0 0-.014.222.218.218 0 0 0 .016.061zM6.843 9.122c-.033 0-.055.019-.067.053a.446.446 0 0 0-.019.142v.001c0 .028.002.054.005.077a.274.274 0 0 0 .015.064.128.128 0 0 0 .028.043.065.065 0 0 0 .045.016c.012 0 .021 0 .027-.002l.015-.005v-.377a.054.054 0 0 0-.022-.009l-.027-.003zm4.343 2.113c.033 0 .057-.019.068-.057a.436.436 0 0 0 .018-.147.3.3 0 0 0-.02-.124c-.014-.029-.037-.044-.072-.044-.012 0-.021.001-.027.003s-.012.003-.014.005v.353c.006.005.012.008.021.01s.018.001.026.001zM8.853 4.082a.084.084 0 0 0-.027.034.108.108 0 0 0-.013.054c0 .027.007.047.019.062.013.015.029.021.051.021.018 0 .033-.005.047-.014s.02-.023.02-.041v-.147a.293.293 0 0 0-.053.011.127.127 0 0 0-.044.02zm.883 8.784a.111.111 0 0 0-.029.035.122.122 0 0 0-.011.055c0 .026.007.047.019.062.013.015.028.021.05.021a.084.084 0 0 0 .047-.014.05.05 0 0 0 .021-.043v-.146l-.052.011a.142.142 0 0 0-.045.019zm-.262-3.741c-.016 0-.03.005-.041.015s-.018.025-.025.042-.012.038-.015.06a.734.734 0 0 0 0 .141.268.268 0 0 0 .015.062.15.15 0 0 0 .025.044c.011.011.023.016.04.016s.03-.006.041-.017.019-.025.024-.044a.564.564 0 0 0-.001-.265c-.012-.035-.033-.054-.063-.054zM8.92 1.634a.12.12 0 0 0-.001-.083c-.002.012-.002.026-.002.04 0 .015.001.03.003.043zm2.228 7.022c.002-.008.002-.015.002-.021 0-.011 0-.021-.002-.03-.002.007-.002.015-.002.023l.002.028zm-.841-1.032a.111.111 0 0 0-.029.035.132.132 0 0 0-.01.053c0 .027.006.049.018.063a.064.064 0 0 0 .051.022c.018 0 .033-.005.047-.014s.02-.023.02-.042v-.148a.271.271 0 0 0-.097.031zm2.664 3.018a.154.154 0 0 0-.025-.048.057.057 0 0 0-.043-.018c-.02 0-.035.015-.049.043-.012.027-.02.069-.02.126s.008.099.023.124c.016.026.037.039.066.039a.187.187 0 0 0 .059-.008l.006-.054v-.057c0-.027 0-.055-.002-.08-.004-.024-.007-.048-.015-.067zm-2.612.477a.082.082 0 0 0-.027.034.108.108 0 0 0-.012.054c0 .027.006.048.018.062s.029.022.051.022a.084.084 0 0 0 .047-.014.05.05 0 0 0 .021-.043v-.146a.315.315 0 0 0-.055.011.154.154 0 0 0-.043.02zM6.843 3.827h-.012c-.026.004-.045.022-.056.052a.61.61 0 0 0-.013.221.265.265 0 0 0 .015.063.128.128 0 0 0 .028.043.061.061 0 0 0 .044.016c.012 0 .021 0 .028-.002l.014-.004v-.377a.04.04 0 0 0-.021-.009.139.139 0 0 0-.027-.003zm5.276 6.819a.14.14 0 0 0-.029-.055c-.01-.012-.023-.017-.041-.017s-.033.005-.045.017c-.012.011-.02.029-.027.055a.572.572 0 0 0-.016.104 3.275 3.275 0 0 0-.004.156c0 .123.008.209.021.259s.037.073.07.073c.018 0 .031-.005.041-.016.012-.012.021-.03.029-.057s.012-.061.016-.104c.004-.042.004-.095.004-.156s0-.113-.004-.156a.515.515 0 0 0-.015-.103zm-8.931 5.482H15.82a.226.226 0 0 0 .227-.225.232.232 0 0 0-.053-.145l-.625-.865a.227.227 0 0 0-.184-.094H3.814a.224.224 0 0 0-.183.095l-.627.878a.225.225 0 0 0 .184.356zm12.771.409H3.048c-.123 0-.224.1-.225.224l-.008 1.514a.224.224 0 0 0 .224.225h12.918a.225.225 0 0 0 .225-.225v-1.514a.222.222 0 0 0-.223-.224z"/></g></svg>