<svg xmlns="http://www.w3.org/2000/svg" width="19" height="19" viewBox="0 0 19 19"><path d="M8.941 12.932a.227.227 0 0 0-.08-.169L5.82 10.158l-.059-.457 3.101-2.655a.233.233 0 0 0 .08-.17.223.223 0 0 0-.073-.172l-1.133-1.06a.23.23 0 0 0-.342.032L5.136 8.754l-.408-.257-.424.254-2.257-3.075a.227.227 0 0 0-.164-.093.237.237 0 0 0-.178.061L.572 6.704a.233.233 0 0 0-.072.172c.001.066.03.127.08.17l3.08 2.637-.077.51-3.003 2.57a.23.23 0 0 0-.008.341l1.133 1.061c.042.04.099.062.157.062l.021-.001a.232.232 0 0 0 .164-.093l1.18-1.609-.721 4.736c.021.075 4.055 0 4.157.051.058.028-.268-2.637-.56-4.938l1.291 1.76a.234.234 0 0 0 .164.093l.021.001a.23.23 0 0 0 .157-.062l1.132-1.061a.22.22 0 0 0 .073-.172zm9.551-6.743a.762.762 0 0 0-.303-.444L10.437.639 9.73 1.668c-.174.242-.133.451.123.625.242.148.45.107.625-.122l.403-.605 6.298 4.139-5.147.929a.74.74 0 0 0-.454.292.534.534 0 0 0-.091.495l1.109 4.34-3.632 5.431a.775.775 0 0 0-.101.383.76.76 0 0 0 .231.555c.155.156.34.232.556.232.282 0 .511-.135.686-.403l3.794-5.713.203.788-.565 4.278a.78.78 0 0 0 .647.888.748.748 0 0 0 .594-.132.708.708 0 0 0 .314-.515l.585-4.38a1.383 1.383 0 0 0-.04-.464l-1.292-5.147 3.371-.606a.612.612 0 0 0 .424-.272.658.658 0 0 0 .121-.495zm-5.763-.353c.263-.249.393-.555.393-.918 0-.364-.13-.67-.393-.919s-.576-.374-.939-.374c-.362 0-.673.125-.929.374s-.383.555-.383.919c0 .363.127.669.383.918s.567.374.929.374c.363 0 .677-.125.939-.374z" fill="#036"/></svg>