<svg xmlns="http://www.w3.org/2000/svg" width="19" height="19" viewBox="0 0 19 19"><path d="M15.206 9.732a2.37 2.37 0 0 1 2.371 2.364 2.368 2.368 0 0 1-4.735 0 2.368 2.368 0 0 1 2.364-2.364m0-.923a3.291 3.291 0 1 0 .005 6.583 3.291 3.291 0 0 0-.005-6.583zm-11.414.923a2.368 2.368 0 0 1 2.366 2.364 2.369 2.369 0 0 1-2.366 2.369 2.369 2.369 0 0 1-2.369-2.369 2.368 2.368 0 0 1 2.369-2.364m0-.923A3.288 3.288 0 0 0 .5 12.097a3.29 3.29 0 0 0 3.292 3.294 3.291 3.291 0 0 0 0-6.582z" fill="#036"/><path d="M10.528 12.603H3.792v-1.005h4.645L5.957 9.11l.53-.533H1.053l1.338-1.714h7.862l2.463-1.421 1.799 1.886-3.987 5.275z" fill="#036"/><path fill="#036" d="M14.905 12.146l-.683-4.664-3.573-3.183-1.404.416-.176-.59 1.732-.516L14.8 7.174l.715 4.882z"/><path d="M14.413 7.571c-.323.048-.668-.484-.772-1.188-.1-.703.087-1.31.409-1.356.328-.049.669.486.768 1.188.105.704-.078 1.311-.405 1.356z" fill="#036"/></svg>