<svg xmlns="http://www.w3.org/2000/svg" width="19" height="19" viewBox="0 0 19 19"><path d="M6.466 11.201c.173.103.306.066.398-.106L8.396 8.46c.103-.174.067-.307-.106-.399l-.491-.291c-.174-.102-.306-.066-.398.107l-1.532 2.635c-.102.173-.066.306.107.397l.49.292zm6.222-.383l-.876-.49-1.256-1.517c-.174-.204-.418-.332-.735-.383-.551-.081-.965.113-1.24.583l-1.395 2.405a.994.994 0 0 0-.123.566l.046 3.049-1.057 2.268a.997.997 0 0 0-.076.23.648.648 0 0 0 .123.514.698.698 0 0 0 .459.268c.327.051.557-.061.689-.337l1.165-2.481a.71.71 0 0 0 .061-.291l-.015-1.885 1.181 1.596.342 2.807c.042.307.225.484.552.535a.685.685 0 0 0 .59-.191.634.634 0 0 0 .207-.574l-.404-3.19c-.041-.235-.184-.378-.318-.567l-1.046-1.458 1.011-1.762.506.644a.371.371 0 0 0 .184.138l1.008.489v5.931c0 .117.096.212.213.212s.211-.095.211-.212v-5.872a.55.55 0 0 0 .363-.518c-.001-.257-.124-.425-.37-.507zm-2.239-2.527a1 1 0 0 0 .721-.299.978.978 0 0 0 .307-.728.986.986 0 0 0-.307-.72.986.986 0 0 0-.721-.306.982.982 0 0 0-.728.306 1 1 0 0 0-.299.72c0 .286.1.529.299.728.2.199.443.299.728.299zm7.705-3.053L9.695.727a.416.416 0 0 0-.391 0L.846 5.238a.415.415 0 0 0-.098.658l.563.564a.412.412 0 0 0 .449.092l.618-.25v9.436c0 .229.186.414.415.414h1.055a.415.415 0 0 0 .415-.414V5.582l-.001-.04.262-.106 4.925-.595 5.013.604.184.074a.264.264 0 0 0-.006.063v10.157c0 .229.186.414.415.414h1.054a.415.415 0 0 0 .415-.414V6.277l.713.288a.42.42 0 0 0 .451-.094l.566-.577a.414.414 0 0 0-.1-.656z" fill="#036"/></svg>