<svg xmlns="http://www.w3.org/2000/svg" width="19" height="19" viewBox="0 0 19 19"><path d="M4.394 14.625L2.257 8.752.5 9.392l3.894 5.233zm-1.91-7.33l3.291 9.041L18.5 11.705l-3.291-9.042L2.484 7.295zm9.997-1.458a.294.294 0 0 0-.148-.029 4.264 4.264 0 0 0-.298.026c-.198.021-.346.012-.442-.027a.46.46 0 0 1-.277-.282.453.453 0 0 1-.016-.266c.021-.092.071-.174.148-.246s.18-.131.309-.178c.211-.077.386-.088.526-.035.14.053.24.156.302.309l-.333.138c-.046-.081-.1-.131-.161-.151-.062-.021-.14-.014-.235.021a.408.408 0 0 0-.209.144.136.136 0 0 0 .071.207c.056.021.174.02.353-.001s.315-.025.409-.012a.5.5 0 0 1 .248.103c.07.056.125.137.164.243a.524.524 0 0 1-.14.569.982.982 0 0 1-.343.194c-.212.077-.393.087-.542.031s-.27-.175-.359-.355l.317-.152a.43.43 0 0 0 .21.2c.079.03.171.026.273-.012.109-.04.183-.092.222-.159a.219.219 0 0 0 .024-.192.164.164 0 0 0-.073-.088zM5.363 7.194l.33-.12 1.094.871-.407-1.121.314-.115.61 1.678-.338.124-1.075-.847.398 1.094-.315.114-.611-1.678zm5.036 6.531l-4.266 1.551-1.677-4.606 4.266-1.552 1.677 4.607zM9.057 7.75l-1.277.464-.61-1.677 1.244-.453.104.284-.906.329.136.372.842-.306.104.283-.843.306.166.457.938-.341.102.282zm-.022-1.893l.672 1.061-.112-1.264.402-.146.721 1.065-.169-1.266.341-.125.204 1.827-.36.131-.791-1.133.124 1.375-.368.134-1.011-1.532.347-.127zm8.541 5.666l-6.029 2.193-.122-.334 6.029-2.195.122.336zm-.355-.976l-6.029 2.195-.122-.336 6.029-2.193.122.334zm-.355-.975l-6.03 2.194-.121-.334 6.029-2.195.122.335zm-.355-.976l-6.029 2.195-.122-.336 6.029-2.194.122.335zm-.356-.975l-6.029 2.194-.122-.335 6.03-2.194.121.335zm-.354-.976l-6.03 2.194-.122-.335 6.029-2.194.123.335zm-7.414 6.121a1.613 1.613 0 0 1-1.428.519c-.416.289-.672.707-.612 1.383l3.398-1.236c-.39-.557-.854-.711-1.358-.666zm-.698.081c.542-.198.789-.888.551-1.542-.238-.652-.87-1.023-1.412-.825-.542.198-.788.888-.551 1.54.238.654.87 1.025 1.412.827z" fill="#036"/></svg>