<svg xmlns="http://www.w3.org/2000/svg" width="19" height="19" viewBox="0 0 19 19"><path d="M11.897 4.711l2.406-2.406H4.696l2.407 2.406h4.794zM11.051.5H7.996c-.504 0-.924.358-1.021.833h5.096A1.04 1.04 0 0 0 11.051.5zm-.125 5.183H8.074L9.5 7.108l1.426-1.425zm4.544.238l-3.578 3.578 3.578 3.578V5.921zM3.809 12.799l3.3-3.3-3.3-3.3v6.6zm.225 4.558A2.054 2.054 0 0 0 5.87 18.5h7.537c.733 0 1.374-.386 1.739-.962L9.5 11.892l-5.466 5.465zM18.5 1.888L17.111.5 9.5 8.111 1.888.5.5 1.888l7.611 7.611L.5 17.111 1.888 18.5 9.5 10.889l7.611 7.611 1.389-1.389-7.611-7.612L18.5 1.888z" fill-rule="evenodd" clip-rule="evenodd" fill="#036"/></svg>