<svg viewBox="0 0 19 19" width="19" height="19" xmlns="http://www.w3.org/2000/svg" fill-rule="evenodd" clip-rule="evenodd" stroke-linejoin="round" stroke-miterlimit="1.414"><path d="M9.5 0C4.288 0 0 4.288 0 9.5S4.288 19 9.5 19 19 14.712 19 9.5 14.712 0 9.5 0zM4.787 3.426A7.692 7.692 0 0 1 9.5 1.81c4.219 0 7.69 3.472 7.69 7.691a7.692 7.692 0 0 1-1.616 4.713L4.787 3.426zm9.426 12.148A7.692 7.692 0 0 1 9.5 17.19c-4.219 0-7.69-3.471-7.69-7.69a7.692 7.692 0 0 1 1.616-4.713l10.787 10.787z" fill="red" fill-rule="nonzero"/></svg>