<svg xmlns="http://www.w3.org/2000/svg" width="19" height="19" viewBox="0 0 19 19"><path d="M4.022 11.811l4.43-4.43A6.658 6.658 0 0 0 3.82 10.37c-.299.469-.194 1.067.202 1.441zm-.87-4.12c2.042-2.034 4.825-2.86 7.493-2.503l1.933-1.933C8.764 2.151 4.506 3.08 1.524 6.062c-.274.273-.53.558-.771.852a1.15 1.15 0 0 0 .174 1.612 1.142 1.142 0 0 0 1.61-.154c.192-.236.398-.463.615-.681zm11.164 1.621a6.936 6.936 0 0 0-.953-.79l-1.664 1.663c.357.2.702.434 1.008.737.197.201.376.414.53.642a1.155 1.155 0 0 0 1.759.17c.382-.38.443-.993.125-1.456a6.643 6.643 0 0 0-.805-.966zm3.921-2.324a11.986 11.986 0 0 0-.763-.839 11.716 11.716 0 0 0-.949-.844 2.134 2.134 0 0 1-.248.303l-1.35 1.35c.324.247.64.508.937.804.219.218.416.438.606.669a1.147 1.147 0 0 0 1.614.168c.03-.021.058-.051.086-.075.409-.41.445-1.075.067-1.536zm-8.355 5.015L7.465 14.42c.073.42.267.824.592 1.15.832.829 2.171.838 2.992.018.82-.823.815-2.16-.016-2.992a2.128 2.128 0 0 0-1.151-.593zm7.345-10.369a1.202 1.202 0 0 0-1.704 0L2.47 14.685a1.207 1.207 0 0 0 1.708 1.705L17.227 3.34a1.205 1.205 0 0 0 0-1.706z" fill="#036"/></svg>