<svg xmlns="http://www.w3.org/2000/svg" width="19" height="19" viewBox="0 0 19 19"><path d="M7.346 15.406l1.483-1.479-2.021-2.021-1.72 1.723c-.553.553-.41 1.523.105 2.051l2.404 2.498a.894.894 0 0 0 1.268-1.252l-1.519-1.52zM9.5 5.585A2.543 2.543 0 1 0 9.499.5 2.543 2.543 0 0 0 9.5 5.585zm6.033 4.285l-3.438-3.443a1.443 1.443 0 0 0-1.087-.448H7.957c-.479 0-.781.174-1.057.448l-3.403 3.41c-.93.931.328 2.121 1.257 1.193L6.81 8.96v1.94h5.359V8.949l2.109 2.114c.848.894 2.141-.308 1.255-1.193zm-3.377 2.036l-2.02 2.021 1.482 1.479-1.52 1.52a.894.894 0 0 0 1.268 1.252l2.404-2.498c.516-.527.658-1.498.105-2.051 0-.002-1.719-1.723-1.719-1.723z" fill="#036"/></svg>