<svg xmlns="http://www.w3.org/2000/svg" width="19" height="19" viewBox="0 0 19 19"><g fill="#036"><path d="M18.277 10.555c-.25-.342-.687-.363-1.208-.023-1.57 1.023-2.335 1.369-3.033 1.369-.343 0-.695-.09-1.143-.289-1.37-.612-2.302-.873-3.114-.873-.482 0-.93.09-1.41.283-.368.148-.442.164-.691.099a16.532 16.532 0 0 0-.896-.194c-.418-.08-.606-.17-.961-.459-.61-.498-1.542-.945-1.994-.958a3.034 3.034 0 0 1-.265-.018c.162-.089.514-.245 1.273-.495l.36-.123c.515-.179 1.001-.349 1.508-.349.499 0 .96.174 1.408.531.341.271.483.374.632.374.193 0 .273-.176.326-.293.237-.519-.101-.7-1.005-1.183-.461-.246-.891-.362-1.352-.362-.653 0-1.282.233-2.08.528-.298.111-.619.23-.974.349-2.129.71-3.01 1.194-3.142 1.727-.056.227.024.455.239.678.147.154.241.4.355.94.399 1.884 1.662 3.252 3.002 3.252.562 0 1.079-.249 1.495-.722.331-.377 1.035-1.574 1.112-2.002.037.004.084.012.142.021.254.047.299.085.307.08 0 .004 0 .031-.046.117-.139.258-.103.422.111 1.008.674 1.846 1.722 2.783 3.286 2.946.205.036.383.054.545.054.303 0 .575-.062.836-.192.851-.435 1.274-.958 1.744-2.155.244-.622.265-.629.514-.715.2-.068.573-.266.831-.438.247-.164.666-.432.933-.594a16.8 16.8 0 0 0 1.117-.779c.077-.061.12-.066.135-.066.065 0 .162.137.247.787.018.129.033.232.05.285.102.303.273.348.366.348.2 0 .373-.193.485-.544.211-.651.278-1.508-.045-1.95zM4.912 13.751c-.293.423-.798.493-1.42.21-.875-.396-1.448-1.636-1.435-2.543.005-.274.07-.76.465-.924a1.79 1.79 0 0 1 .7-.144c1.09 0 1.978.989 1.979 2.206 0 .508-.1.923-.289 1.195zM12.249 15c-.49.635-1.393.869-2.252.565-1.199-.425-1.954-2.056-1.523-3.292.177-.508.803-.584 1.16-.584 1.161 0 2.65.738 2.907 1.727.151.582.048 1.146-.292 1.584z"/><path d="M14.512.5a.478.478 0 0 0-.184.92v8.897a.184.184 0 1 0 .369 0V1.419a.48.48 0 0 0 .294-.441.48.48 0 0 0-.479-.478zm.952.782c-.829-.197-.482 1.7-.346 1.759.387.167.965.096 1.196-.367.304.289 1.011.087 1.269-.374.376.043.84-.275.914-.563.076-.301-1.245-.029-3.033-.455zm-1.559 1.759c.139-.06.485-1.957-.345-1.759-1.789.426-3.109.154-3.032.455.074.289.536.606.911.563.26.461.968.663 1.271.374.23.463.809.534 1.195.367zm-1.009.327a.579.579 0 0 0-.317.529c0 .558.484.804 1.049.96-.223.132-.37.312-.37.582 0 .353.288.558.645.725-.281.161-.493.37-.493.684 0 .321.256.514.565.673-.229.158-.399.357-.399.645 0 .314.231.62.558.88-.485.386-.992.737-.925.737l.026-.001c.252-.028.582-.131.907-.282V8.335c-.044-.065-.075-.124-.075-.169 0-.049.031-.098.075-.145v-.968c-.134-.073-.242-.147-.242-.206 0-.091.099-.177.241-.259v-.854c-.209-.095-.393-.201-.393-.295 0-.115.166-.205.393-.278v-.684c-.617-.138-1.071-.281-1.071-.58 0-.049.015-.073.059-.096.157-.085.494-.04.692.093a.247.247 0 0 0 .34-.068.244.244 0 0 0-.068-.341c-.309-.206-.843-.306-1.197-.117zm3.231 0c-.354-.189-.888-.089-1.197.117a.248.248 0 0 0-.067.341.245.245 0 0 0 .34.068c.2-.133.535-.178.694-.093.042.022.057.047.057.096 0 .298-.453.442-1.07.58v.685c.226.073.393.163.393.278 0 .094-.183.2-.393.295v.854c.141.082.241.167.241.259 0 .059-.108.133-.241.206v.967c.043.047.076.096.076.145 0 .046-.032.104-.076.169v1.164c.326.151.653.254.906.282l.028.001c.064 0-.44-.351-.925-.737.326-.261.556-.566.556-.88 0-.288-.169-.487-.398-.645.309-.159.565-.352.565-.673 0-.313-.212-.522-.492-.684.356-.167.644-.372.644-.725 0-.27-.148-.45-.369-.582.562-.156 1.046-.402 1.046-.96a.583.583 0 0 0-.318-.528z"/></g></svg>