<svg xmlns="http://www.w3.org/2000/svg" width="19" height="19" viewBox="0 0 19 19"><path d="M14.187 12.369l-.917-2.364c-.172-.45-.546-.835-1.251-.835H7.21c-.704 0-1.078.385-1.25.835l-.917 2.364c-.362.047-1.006.473-1.006 1.279v3.008h.892v.962c0 1.183 1.674 1.168 1.674 0v-.962h6.024v.962c0 1.168 1.675 1.183 1.675 0v-.962h.892v-3.008c-.001-.806-.645-1.232-1.007-1.279zm-8.395 2.475c-.427 0-.772-.356-.772-.797s.346-.797.772-.797.773.356.773.797-.346.797-.773.797zm.2-2.499l.691-1.86c.086-.262.215-.45.517-.453h4.831c.302.003.431.191.517.453l.691 1.86H5.992zm7.446 2.499c-.427 0-.774-.356-.774-.797s.348-.797.774-.797.773.356.773.797-.347.797-.773.797zM5.426 2.566c-.079-.021-.261-.045-.674-.045H3.428v1.756h1.34c.453 0 .773-.08.95-.237.174-.154.259-.371.259-.661 0-.21-.05-.384-.154-.531a.695.695 0 0 0-.397-.282zM8.276.737C8.125.581 7.897.5 7.601.5H1.414C.816.5.5.819.5 1.422v6.21c0 .288.075.508.222.657.148.149.37.226.66.226h6.236c.585 0 .882-.297.882-.882v-6.21c0-.302-.075-.532-.224-.686zM6.57 4.71c-.348.379-.941.563-1.814.563H3.428v2.196c0 .087-.07.157-.156.157h-.767a.157.157 0 0 1-.157-.157V1.681c0-.086.07-.157.157-.157h2.184c.397 0 .694.019.908.058.305.051.567.151.777.296.213.147.387.355.516.618.126.261.191.549.191.859 0 .531-.172.987-.511 1.355z" fill="#036"/></svg>