<svg xmlns="http://www.w3.org/2000/svg" width="19" height="19" viewBox="0 0 19 19"><path d="M11.58 5.14c-.179-.047-.587-.103-1.514-.103H7.092v3.944h3.011c1.018 0 1.735-.179 2.135-.532.392-.347.582-.833.582-1.484 0-.474-.113-.864-.348-1.193a1.573 1.573 0 0 0-.892-.632zm6.4-4.11c-.339-.351-.85-.529-1.518-.529C16.403.501 6.803.498 3.597.5h-.958l-.07.001C1.225.501.515 1.216.515 2.569v13.949c0 .646.168 1.143.499 1.476.334.336.832.506 1.482.506h14.007c1.314 0 1.981-.667 1.981-1.981V2.57c0-.675-.17-1.193-.504-1.54zm-3.832 8.927c-.781.85-2.113 1.263-4.073 1.263H7.092v4.934a.352.352 0 0 1-.352.352H5.02a.352.352 0 0 1-.352-.352V3.151c0-.194.157-.352.352-.352h4.904c.891 0 1.558.042 2.038.129.686.115 1.273.338 1.745.665.479.332.869.799 1.158 1.39.285.584.43 1.233.43 1.928.001 1.192-.385 2.217-1.147 3.046z" fill="#036"/></svg>