<svg xmlns="http://www.w3.org/2000/svg" width="19" height="19" viewBox="0 0 19 19"><path d="M18.048 10.131a1.756 1.756 0 0 0-.292-.286c-.524-.39-1.222-.401-1.835-.277-.783.127-1.469.585-2.092 1.06-.688.492-1.108 1.302-1.165 2.141-.033.248-.016.498.123.71.296.615.883 1.135 1.587 1.157a4.638 4.638 0 0 0 2.688-.953c.505-.416.976-.899 1.247-1.497.317-.663.242-1.506-.261-2.055zm-5.396-.721c1.034.417 2.545-.498 2.545-.498 1.352-.666 1.985-1.9 1.985-1.9 1.021-1.402-.05-2.557-.05-2.557-1.344-1.528-3.412-.284-3.412-.287-1.571.733-2.113 2.881-2.113 2.881-.196 2.063 1.045 2.361 1.045 2.361zm-3.07-2.424c1.132-.077 1.958-1.416 1.958-1.416.935-1.263 1.056-2.375 1.056-2.375.222-1.695-.83-2.329-.83-2.329C10.822.297 9.702.543 9.701.542c-1.342.32-1.966 1.81-1.966 1.81-.618 1.432-.3 2.894-.3 2.894.462 2.084 2.147 1.74 2.147 1.74zm-5.349.854a1.9 1.9 0 0 0 1.662-.593c.371-.382.554-.892.672-1.396.271-1.047.34-2.219-.137-3.218-.298-.492-.736-.922-1.266-1.152-.746-.323-1.622-.034-2.187.501-.782.815-1.055 1.98-1.087 3.08-.039.506.094 1.004.314 1.457.355.774 1.167 1.326 2.029 1.321zm7.234 2.788c.038-1.102-.862-1.899-1.662-2.509a4.419 4.419 0 0 0-1.331-.515c-.795-.212-1.489.338-2.13.717-.504.361-1.122.317-1.704.271-1.389-.083-2.947.397-3.692 1.649-.544.807-.588 1.878-.157 2.742.393.705.827 1.438 1.525 1.883.699.528 1.584.634 2.408.856.906.211 1.379 1.075 2.023 1.655.974.976 2.443 1.314 3.771 1.037 1.282-.41 2.321-1.707 2.248-3.085-.149-.956-.612-1.836-1.125-2.643-.157-.671-.136-1.371-.174-2.058z" fill="#036"/></svg>