<svg xmlns="http://www.w3.org/2000/svg" width="19" height="19" viewBox="0 0 19 19"><path d="M3.125 3.604h12.75a1.188 1.188 0 0 0 0-2.376H3.125a1.188 1.188 0 1 0 0 2.376zm5.148 3.334H7a.5.5 0 0 0-.5.5v1a.5.5 0 0 0 .5.5h5a.5.5 0 0 0 .5-.5v-1a.5.5 0 0 0-.5-.5h-1.273v-.962a.505.505 0 0 0-.037-.182h1.041a.5.5 0 0 0 .5-.5V5.02a.5.5 0 0 0-.5-.5H7.27a.5.5 0 0 0-.5.5v.274a.5.5 0 0 0 .5.5h1.041a.482.482 0 0 0-.038.182v.962zm8.157 1.719h-.098a.98.98 0 0 0-.98.98v.489h-2.098a4.838 4.838 0 0 0-.822-.796h-5.76a4.783 4.783 0 0 0-.568.515 1.764 1.764 0 0 0-.274.282H3.646v-.489a.98.98 0 0 0-.979-.98H2.57a.979.979 0 0 0-.98.98v6.859c0 .541.438.979.98.979h.098a.979.979 0 0 0 .979-.979v-.49h2.182A4.697 4.697 0 0 0 9.5 17.772l.04-.002.021.002c.029 0 .057-.008.084-.01a4.74 4.74 0 0 0 .637-.062 4.697 4.697 0 0 0 2.936-1.691h2.135v.49a.98.98 0 0 0 .98.979h.098a.98.98 0 0 0 .98-.979v-6.86a.983.983 0 0 0-.981-.982z" fill="#036"/></svg>