<svg xmlns="http://www.w3.org/2000/svg" width="19" height="19" viewBox="0 0 19 19"><path d="M.5 13.893h6.09v-1.329H.5v1.329zm0-4.304h6.09V8.261H.5v1.328zm0 2.151h6.09v-1.328H.5v1.328zm0 4.305h6.09v-1.328H.5v1.328zm16.582-1.259a1.69 1.69 0 0 0-.719.16c-.215.094-.451.15-.699.15-.247 0-.487-.057-.698-.15a1.692 1.692 0 0 0-1.437 0c-.213.094-.45.15-.701.15-.093 0-.187-.008-.28-.025l.24 1.07h.04c.254 0 .488-.052.701-.147.217-.103.459-.161.718-.161.258 0 .497.059.719.161a1.723 1.723 0 0 0 1.397 0 1.683 1.683 0 0 1 1.438 0c.211.096.45.147.699.147v-1.045a1.73 1.73 0 0 1-.699-.15 1.687 1.687 0 0 0-.719-.16zM8.559 2.858H7.505v13.187h4.625S9.507 4.277 9.331 3.728c-.177-.55-.407-.87-.772-.87zm9.242 10.165a1.658 1.658 0 0 0-.719-.16c-.257 0-.502.057-.719.16a1.726 1.726 0 0 1-.699.151c-.247 0-.487-.057-.698-.151a1.678 1.678 0 0 0-.719-.16c-.259 0-.499.057-.718.16-.213.095-.45.151-.701.151-.247 0-.482-.057-.698-.151l.256 1.139a1.768 1.768 0 0 0 1.143-.089c.217-.105.459-.162.718-.162.258 0 .497.057.719.162.211.092.451.146.698.146.248 0 .484-.055.699-.146a1.665 1.665 0 0 1 1.438 0c.211.092.45.146.699.146v-1.044c-.252 0-.488-.057-.699-.152zM.5 7.437h6.09V6.109H.5v1.328zm0-2.152h6.09V3.957H.5v1.328z" fill="#036"/></svg>