<svg xmlns="http://www.w3.org/2000/svg" width="19" height="19" viewBox="0 0 19 19"><path d="M10.643 7.931l4.173-4.26H12.73l2.503-2.557h-2.92l-2.086 3.409h2.086l-1.67 3.408zM6.354 10a3.5 3.5 0 1 0 0 7 3.5 3.5 0 1 0 0-7zm.043.232c.178-.551.927.158.947.598.02.422-.638 2.499-.947 2.421-.436-.11-.194-2.419 0-3.019zm-3.309 3.225c-.551-.178.157-.928.598-.947.422-.019 2.499.639 2.42.947-.11.436-2.419.194-3.018 0zm3.224 3.31c-.178.551-.928-.157-.947-.598-.019-.422.638-2.499.947-2.421.436.11.194 2.42 0 3.019zm2.711-2.278c-.422.019-2.498-.638-2.42-.947.109-.436 2.42-.194 3.018 0 .551.179-.156.928-.598.947zm7.289-6.094a4.549 4.549 0 0 0-1.971-.44c-.703 0-1.375.155-1.97.44a4.705 4.705 0 0 1-1.916.417 4.663 4.663 0 0 1-1.913-.417 4.597 4.597 0 0 0-1.97-.44c-.708 0-1.367.155-1.967.44a4.678 4.678 0 0 1-1.92.417 4.71 4.71 0 0 1-1.914-.417v9.79h17.432v-6.518c.009 0 .017.003.025.003V8.812a4.654 4.654 0 0 1-1.916-.417zM6.354 17.5c-2.206 0-4-1.795-4-4s1.794-4 4-4 4.001 1.795 4.001 4-1.794 4-4.001 4z" fill="#036"/></svg>