<svg xmlns="http://www.w3.org/2000/svg" width="19" height="19" viewBox="0 0 19 19"><path d="M15.83 2.192c.188.071.295.166.319.277.042.207-.177.474-.265.56l.233.237c.046-.043.44-.445.354-.863-.046-.231-.224-.405-.522-.521-.175-.068-.276-.164-.314-.293-.078-.275.155-.666.253-.793l-.266-.201c-.019.023-.444.591-.308 1.084.068.233.241.405.516.513zm-.894.166c.189.072.295.166.318.278.043.206-.175.474-.263.56l.231.237c.047-.044.442-.444.357-.864-.049-.23-.225-.405-.524-.521-.175-.068-.276-.163-.312-.292-.08-.276.153-.666.25-.793l-.265-.201c-.019.023-.444.59-.307 1.083.065.233.239.405.515.513zm2.966 7.187c-.03-.111-.061-.225-.09-.348-.008-.021-.011-.041-.018-.062v-.006c-.482-2.067-.659-5.411-.659-5.411h-3.17s-.104 6.669-1.033 6.876h5.34c-.149-.191-.247-.574-.37-1.049zm-11.539 3.58a.7.7 0 1 0 0-1.4.7.7 0 0 0 0 1.4zm-.529.201l-1.241 2.119a3.496 3.496 0 0 0 3.52.01L6.886 13.33c-.337.193-.738.18-1.052-.004zm.013-1.808L4.633 9.382a3.498 3.498 0 0 0-1.77 3.042h2.455c0-.389.214-.727.529-.906zm2.266-2.124l-1.228 2.128c.336.193.524.547.522.91l2.455.016a3.492 3.492 0 0 0-1.749-3.054zM6.364 6.29a6.364 6.364 0 1 0 0 12.729 6.364 6.364 0 0 0 0-12.729zm-.157 10.665a4.304 4.304 0 1 1 .312-8.603 4.304 4.304 0 1 1-.312 8.603z" fill="#036"/></svg>