<svg xmlns="http://www.w3.org/2000/svg" width="19" height="19" viewBox="0 0 19 19"><path d="M9.5 4.404A3.14 3.14 0 0 0 6.358 7.54c0 .572.155 1.106.424 1.568h-.004L9.5 14.596l2.723-5.487h-.004c.269-.462.423-.997.423-1.568A3.14 3.14 0 0 0 9.5 4.404zm0 4.544a1.512 1.512 0 1 1-.001-3.025A1.512 1.512 0 0 1 9.5 8.948zM1 4.5h1.5V2.25h2.25V.75H1V4.5zM2.5 7H1v5h1.5V7zm0 7.5H1v3.75h3.75v-1.5H2.5V14.5zM11.875.75h-4.75v1.5h4.75V.75zm4.625 16h-2.25v1.5H18V14.5h-1.5v2.25zm0-4.75H18V7h-1.5v5zm-9.375 6.25h4.75v-1.5h-4.75v1.5zM14.25.75v1.5h2.25V4.5H18V.75h-3.75z" fill="#036"/></svg>