<svg xmlns="http://www.w3.org/2000/svg" width="19" height="19" viewBox="0 0 19 19"><g fill="#036"><path d="M9.477 8.947a2.205 2.205 0 0 0-1.351 3.949v1.153s.249.104.591.188v-.642h.23v.695c.133.023.273.042.414.048v-.743h.231v.743c.14-.006.278-.024.411-.048v-.695h.234v.647c.353-.085.621-.194.621-.194V12.87a2.204 2.204 0 0 0-1.381-3.923zm-.76 2.883a.514.514 0 1 1-.003-1.027.514.514 0 0 1 .003 1.027zm.449.727l.329-.377.331.376-.66.001zm1.057-.727zm-2.658.774l-.95.544a.605.605 0 1 0-.59.925.481.481 0 1 0 .808-.086l1.082-.626v-.381c.001-.001-.233-.166-.35-.376zm5.33.265a.596.596 0 0 0-.508.278l-.953-.544a1.343 1.343 0 0 1-.352.376v.381l1.086.626a.472.472 0 0 0-.109.3.482.482 0 0 0 .965 0 .511.511 0 0 0-.052-.214.603.603 0 0 0-.077-1.203zm-1.016-1.775l.508-.292a.605.605 0 1 0 .586-.927.481.481 0 0 0-.429-.695.484.484 0 0 0-.484.481c0 .114.04.217.109.3l-.469.273c.109.266.171.555.179.86zm-5.773-.013a.607.607 0 0 0 .509-.279l.461.264c.012-.3.077-.589.188-.854l-.43-.25a.48.48 0 1 0-.858-.3c0 .076.019.149.05.214a.604.604 0 0 0 .08 1.205z"/><path d="M18.368 15.956L10.543 1.977a1.152 1.152 0 0 0-.985-.615h-.031c-.403 0-.779.211-.986.56L.664 15.901a1.147 1.147 0 0 0 .986 1.736h15.703c.402 0 .775-.21.983-.553a1.15 1.15 0 0 0 .032-1.128zm-16.719.534L9.526 2.511l7.825 13.979H1.649z"/></g></svg>