<svg xmlns="http://www.w3.org/2000/svg" width="19" height="19" viewBox="0 0 19 19"><path d="M1 1v17h17V1H1zm6.375 15.751H6.283V11.43c-1.087.684-1.792 1.695-1.792 2.84 0 .931.072 1.745.194 2.475H2.148V2.255h4.135v8.616h1.092v5.88zm4.19-5.858a6.35 6.35 0 0 0-2.085-.352c-.731 0-1.421.125-2.047.336V9.144a2.47 2.47 0 0 0 4.132-.065v1.814zm0-4.467a2.468 2.468 0 0 0-4.132-.065V2.255h4.132v4.171zm1.131 10.325h-1.092v-5.88h1.092v5.88zm4.155-.007h-2.616c.148-.743.237-1.562.237-2.475 0-1.131-.689-2.133-1.755-2.816V2.255h4.134v14.489z" fill="#036"/></svg>