<svg xmlns="http://www.w3.org/2000/svg" width="19" height="19" viewBox="0 0 19 19"><path d="M11.624 4.588c.463.462 1.477.646 2.123.646V2.342c-.646 0-1.66-.185-2.123-.646-.461-.462-.738-.647-2.124-.554v2.892c1.386-.093 1.663.093 2.124.554zm-6.842.981v12.312h9.437V5.569H4.782zm2.668 11.3H5.534v-1.915H7.45v1.915zm0-3.272H5.534v-1.915H7.45v1.915zm.014-3.302H5.548V8.381h1.916v1.914zm3.005 6.574H8.552v-1.915h1.917v1.915zm0-3.272H8.552v-1.915h1.917v1.915zm.013-3.302H8.567V8.381h1.916v1.914zm2.981 6.574h-1.916v-1.915h1.916v1.915zm0-3.272h-1.916v-1.915h1.916v1.915zm.016-3.302h-1.914V8.381h1.914v1.914zm.06-2.965h-8.08v-.987h8.08v.987z" fill="#036"/></svg>