<svg xmlns="http://www.w3.org/2000/svg" width="19" height="19" viewBox="0 0 19 19"><path d="M15.862 3.118a8.983 8.983 0 0 0-12.725 0c-3.517 3.522-3.517 9.238 0 12.761a8.977 8.977 0 0 0 12.725 0c3.517-3.523 3.517-9.238 0-12.761zM8.537 16.261c-.81 0-1.296-.522-1.296-1.26s.54-1.387 1.422-1.387c.81 0 1.333.504 1.333 1.242s-.595 1.405-1.459 1.405zm2.233-6.68l-.991.594c-.666.396-.99.9-.99 1.692v.378l-.522.072-.414-2.538c-.145-.828.215-1.495.954-1.873l1.152-.594c.704-.36 1.747-.847 1.747-1.818 0-.919-.809-1.513-1.728-1.513-1.026 0-1.836.612-2.161 1.603l-.127.054c-.738.036-1.422-.432-1.422-1.225 0-1.296 1.621-1.674 2.628-1.674 2.035 0 3.836 1.35 3.836 3.457 0 1.603-.828 2.7-1.962 3.385z" fill="#036"/></svg>