<svg version="1" xmlns="http://www.w3.org/2000/svg" width="19" height="19" viewBox="0 0 19 19"><path d="M.5 11.6c.2 2.5 2.2 4.3 4.7 4.5h6c-.1-1.1-1.4-1.6-2.4-1.8l.1-.5c1.7.3 2.7 1.1 2.8 2.3h3.6c0-1.2-.4-2.2-.8-3.1 2.1.3 4-.6 4-2.6 0-2.5-2.7-4.3-5.3-4.2C11.3 4.9 8.8 3.1 6 2.9c-.8-.1-1.6 0-1.8.5-.1.2 0 .4.1.7.1.3.3.6.6.8l.3.3c.1.1.2.2.4.3 1.1 1 2.8 1.8 5.1 2.6l-.2.5C9.8 8.5 8.4 8 7 7.2c-.5-.3-.9-.6-1.3-.8H5C2.5 6.5.3 8.7.5 11.6zm14.6-2.7c0-.3.3-.6.6-.6s.6.3.6.6-.3.6-.6.6-.6-.3-.6-.6z" fill="#036"/></svg>