<svg xmlns="http://www.w3.org/2000/svg" width="19" height="19" viewBox="0 0 19 19"><path d="M18.082 13.235H12.16v-1.411c0-.413-.359-.034-.359-.034l-3.03 3.115s-.239.206-.024.42c.297.299 3.127 3.037 3.127 3.037s.377.38.377-.122v-1.305h4.954s.18.006.18-.228c0-.232.912-2.877.912-3.204 0-.324-.215-.268-.215-.268z" fill="#036"/><path d="M14.104 11l.696 1.422c.116.137.401.269.549.269h2.553a.27.27 0 0 0 .268-.269l-1.134-2.68s-.096-.365-.426-.195l-2.297 1.061c-.195.084-.334.172-.209.392zm-2.911-4.732l.307.533s-.868.496-1.227.703c-.359.204.15.328.15.328l4.208 1.082s.299.106.379-.188c.109-.406 1.081-4.221 1.081-4.221s.142-.516-.294-.268l-1.133.649-.274-.479c-.511-.895-1.806-3.154-2.188-3.82 0 0-.083-.16-.285-.043-.203.115-2.951.638-3.234.802-.282.16-.126.317-.126.317l2.636 4.605z" fill="#036"/><path d="M9.441 4.306L8.172 2.09a.266.266 0 0 0-.364-.099L6.046 4.307s-.269.262.041.465L8.15 6.238c.171.128.316.206.444-.014l.887-1.311c.062-.167.034-.48-.04-.607zM6.154 6.943s-.083-.305-.371-.202c-.395.142-4.08 1.531-4.08 1.531s-.503.179-.05.394l1.18.556-.236.5-1.878 3.981s-.083.161.128.259c.21.1 2.212 2.053 2.509 2.192.294.139.333-.08.333-.08.338-.713 1.809-3.833 2.266-4.798l.263-.557 1.276.603c.373.177.184-.309.184-.309l-1.524-4.07z" fill="#036"/><path d="M7.409 13.434l-1.583.021c-.173.046-.413.248-.476.383l-1.09 2.308a.27.27 0 0 0 .128.357l2.906.117s.371.07.358-.301l.022-2.53c.008-.213-.011-.377-.265-.355z" fill="#036"/></svg>