<svg xmlns="http://www.w3.org/2000/svg" width="19" height="19" viewBox="0 0 19 19"><path d="M16.162 3.555c-.072-.062-.14-.12-.176-.174a.19.19 0 0 0-.035-.04 2.652 2.652 0 0 1-.191-.199c-.193-.215-.433-.481-.791-.481a.721.721 0 0 0-.145.015 6.444 6.444 0 0 1-.512.017c-.158 0-.323-.004-.482-.007a19.857 19.857 0 0 0-.492-.008 8.03 8.03 0 0 0-.324.006h-.036c-.362 0-.73.002-1.087.004s-.727.004-1.088.004c-.868 0-1.535-.013-2.15-.042a3.166 3.166 0 0 1-.348-.404c-.204-.265-.416-.538-.747-.706a3.244 3.244 0 0 0-1.867-.539h-.013c-.916 0-1.801.448-2.429 1.228-.629.781-.878 1.743-.685 2.64a3.31 3.31 0 0 0 1.094 1.91c.591.519 1.318.804 2.048.804.09 0 .181-.004.271-.013A3.342 3.342 0 0 0 8.59 5.966a.605.605 0 0 1 .349-.085c.089 0 .182.01.281.019.104.008.209.018.317.018.172 0 .426-.022.647-.211l.013-.012c.083-.086.162-.179.239-.268.199-.234.388-.455.635-.559.125.055.226.166.338.291.106.118.216.239.36.327.063.04.145.038.207-.002.129-.082.228-.195.324-.304.146-.164.246-.271.38-.292.106.075.201.173.3.276.112.118.229.24.373.336a.197.197 0 0 0 .214.002c.132-.085.236-.202.338-.316.155-.173.265-.287.403-.309.089.062.17.147.254.238.133.142.27.29.469.375.069.03.151.017.208-.035.378-.34.849-.765 1.221-1.243a.193.193 0 0 0 .041-.122c-.002-.248-.189-.407-.339-.535zM5.101 4.924c-.005.003-.008.007-.011.01a.885.885 0 0 1-.659.271c-.346 0-.745-.177-.857-.572a.94.94 0 0 1 .135-.849c.167-.235.408-.37.662-.37a.64.64 0 0 1 .075.004l.024.001c.399-.011.67.309.779.581.11.274.128.662-.148.924zm9.086 7.445l-.917-2.364c-.172-.45-.546-.835-1.251-.835H7.21c-.704 0-1.078.385-1.25.835l-.917 2.364c-.362.047-1.006.473-1.006 1.279v3.008h.892v.962c0 1.183 1.674 1.168 1.674 0v-.962h6.024v.962c0 1.168 1.675 1.183 1.675 0v-.962h.892v-3.008c-.001-.806-.645-1.232-1.007-1.279zm-8.395 2.475c-.427 0-.772-.356-.772-.797s.346-.797.772-.797.773.356.773.797-.346.797-.773.797zm.2-2.499l.691-1.86c.086-.262.215-.45.517-.453h4.831c.302.003.431.191.517.453l.691 1.86H5.992zm7.446 2.499c-.427 0-.774-.356-.774-.797s.348-.797.774-.797.773.356.773.797-.347.797-.773.797z" fill="#036"/></svg>