<svg xmlns="http://www.w3.org/2000/svg" width="19" height="19" viewBox="0 0 19 19"><path d="M15.324 12.594c-.43 0-.84.086-1.213.242l-.105-.363c-.146-.508-.296-1.023-.422-1.444-.124-.415-.238-.67-.277-.854-.029-.144.152-.131.344-.291a.937.937 0 0 0 .306-.531.792.792 0 0 0-.092-.514c-.296-.45-.581-.441-.962-.441h-1.322l.003.811 1.271.002c.15 0 .229.213-.066.296-.129.036-.273.191-.322.382a.902.902 0 0 0 .059.559c.018.041.049.166.096.341l-5.765.028-.34-.833c.384-.087 1.265-.299 1.387-.415.145-.132 0-.331-.112-.331h-3.01c.037.664.556.808.838.853l.333.812a.354.354 0 0 0-.089.107l-1.005 1.867A3.18 3.18 0 0 0 .5 15.824 3.18 3.18 0 0 0 3.676 19a3.181 3.181 0 0 0 3.161-2.866h.315c.105.323.35.592.669.744l-.154.357-.57.006a.222.222 0 0 0 .003.444h.002l1.279-.014c.122 0 .22-.101.218-.223a.22.22 0 0 0-.223-.219l-.363.003.11-.255c.094.02.191.029.292.029.727 0 1.318-.551 1.318-1.229 0-.141-.026-.273-.072-.398l3.581-2.431.099.342a3.17 3.17 0 0 0-1.192 2.479 3.181 3.181 0 0 0 3.177 3.177 3.18 3.18 0 0 0 3.176-3.177 3.183 3.183 0 0 0-3.178-3.175zM5.056 14.036c.431.333.737.816.84 1.373H4.318l.738-1.373zm-1.38 4.047a2.263 2.263 0 0 1-2.26-2.26A2.262 2.262 0 0 1 4.42 13.69l-1.027 1.908a.363.363 0 0 0 .319.533h2.202a2.263 2.263 0 0 1-2.238 1.952zm3.482-2.674h-.332a3.186 3.186 0 0 0-1.331-2.188l.799-1.482 1.268 3.104a1.234 1.234 0 0 0-.404.566zm2.06-.603a1.528 1.528 0 0 0-.127-.082l.158-.366.572-.007a.221.221 0 0 0-.002-.442h-.002l-1.279.013a.221.221 0 0 0 .002.442h.002l.36-.003-.104.242a1.458 1.458 0 0 0-.418-.051l-1.232-3.013 5.675-.029.208.709-3.813 2.587zm6.106 3.224a2.263 2.263 0 0 1-2.26-2.26c0-.571.213-1.094.562-1.491l.1.332c.041.131.062.205.096.288l.014.033.021.033c.016.022.158.431.551.766l.003.003.003.003c.279.232.521.316.676.363.161.051.383.024.489-.142.085-.12.01-.366-.149-.483a7.533 7.533 0 0 1-.471-.385c-.199-.179-.215-.313-.334-.522.003.007-.029-.088-.066-.211-.039-.125-.088-.292-.146-.487-.014-.047-.027-.096-.043-.146.291-.137.613-.213.956-.213a2.263 2.263 0 0 1 2.26 2.26 2.264 2.264 0 0 1-2.262 2.259zm.838-14.475c-.072-.062-.14-.12-.176-.174a.19.19 0 0 0-.035-.04 2.652 2.652 0 0 1-.191-.199c-.193-.215-.433-.481-.791-.481a.721.721 0 0 0-.145.015 6.444 6.444 0 0 1-.512.017c-.158 0-.323-.004-.482-.007a19.857 19.857 0 0 0-.492-.008 8.03 8.03 0 0 0-.324.006h-.036c-.362 0-.73.002-1.087.004s-.727.004-1.088.004c-.868 0-1.535-.013-2.15-.042a3.166 3.166 0 0 1-.348-.404c-.204-.265-.416-.538-.747-.706a3.244 3.244 0 0 0-1.867-.539h-.013c-.916 0-1.801.448-2.429 1.228-.629.781-.878 1.743-.685 2.64a3.31 3.31 0 0 0 1.094 1.91c.591.519 1.318.804 2.048.804.09 0 .181-.004.271-.013A3.342 3.342 0 0 0 8.59 5.966a.605.605 0 0 1 .349-.085c.089 0 .182.01.281.019.104.008.209.018.317.018.172 0 .426-.022.647-.211l.013-.012c.083-.086.162-.179.239-.268.199-.234.388-.455.635-.559.125.055.226.166.338.291.106.118.216.239.36.327.063.04.145.038.207-.002.129-.082.228-.195.324-.304.146-.164.246-.271.38-.292.106.075.201.173.3.276.112.118.229.24.373.336a.197.197 0 0 0 .214.002c.132-.085.236-.202.338-.316.155-.173.265-.287.403-.309.089.062.17.147.254.238.133.142.27.29.469.375.069.03.151.017.208-.035.378-.34.849-.765 1.221-1.243a.193.193 0 0 0 .041-.122c-.002-.248-.189-.407-.339-.535zM5.101 4.924c-.005.003-.008.007-.011.01a.885.885 0 0 1-.659.271c-.346 0-.745-.177-.857-.572a.94.94 0 0 1 .135-.849c.167-.235.408-.37.662-.37a.64.64 0 0 1 .075.004l.024.001c.399-.011.67.309.779.581.11.274.128.662-.148.924z" fill="#036"/></svg>