<svg version="1" xmlns="http://www.w3.org/2000/svg" width="19" height="19" viewBox="0 0 19 19"><g fill="#036"><path d="M18.4 16L10.5 2c-.2-.4-.6-.6-1-.6s-.8.2-1 .6L.6 16c-.2.4-.2.8 0 1.2.2.4.6.6 1 .6h15.7c.4 0 .8-.2 1-.6.2-.5.3-.9.1-1.2zm-16.8.5l7.9-14 7.8 14H1.6z"/><path d="M14.8 14.8v-.2c0-.1 0-.1-.1-.2l-1.2-2.3c-.1-.2-.4-.4-.7-.4s-.5.2-.7.4l-.6.9-1.7-1.1v-3c0-.2-.1-.3-.3-.3l-2.2-.2c-.1 0-.2 0-.3.1L6 9.7c-.1.1-.1.4 0 .5.1.1.2.1.3.1l.3.2-.1.1-.1.1L4.2 15c-.1.2 0 .5.2.6.1 0 .1.1.2.1.2 0 .3-.1.4-.2l2-3.7.9 1v2.5c0 .3.2.5.5.5s.5-.2.5-.5v-2.7c0-.1 0-.2-.1-.3l-.6-.7.1-.1.9.5c0 .2.2.3.3.3h.1l1.7 1.1-.8 1-.1.1c-.1.1-.2.3-.2.5 0 .4.3.7.7.8h3.2c.4-.2.7-.6.7-1zM7 10.1l-.3-.2.7-.9h.4L7 10.1zm1.5 1l.6-.7v1.1l-.6-.4zM10 8.4c.4 0 .8-.3.8-.8 0-.4-.3-.8-.8-.8-.4 0-.8.3-.8.8 0 .4.3.8.8.8z"/></g></svg>