<svg version="1" xmlns="http://www.w3.org/2000/svg" width="19" height="19" viewBox="0 0 19 19"><path d="M18.1 15.3c0-.1 0-.2-.1-.3v-.1c0-.1-.1-.2-.1-.3l-2-3.6c-.2-.4-.6-.7-1.1-.7-.5 0-.9.3-1.1.7l-1 1.3-2.7-1.7v-5c-.1-.3-.3-.6-.6-.6L6 4.8c-.2 0-.4.1-.5.2L3.9 7c-.2.2-.1.6.1.8.2.1.4.2.5.1l.5.3v.1l-.2.2-3.7 7c-.2.4-.1.8.3 1 .1.1.2.1.3.1.3 0 .5-.1.6-.4l3.2-6 1.4 1.6v4c0 .4.3.7.7.7.4 0 .7-.3.7-.7v-4.3c0-.2-.1-.3-.2-.5l-1-1.1.2-.2 1.5 1c.1.2.3.4.5.4h.1l2.7 1.7-1.2 1.6.1.1c-.2.2-.3.5-.3.8 0 .6.5 1.1 1.1 1.2H17.1c.5-.1 1-.6 1-1.2zM5.5 7.7l-.4-.3L6.2 6h.7L5.5 7.7zm2.4 1.5l1-1.1v1.8l-1-.7zm2.4-4.3c.7 0 1.2-.6 1.2-1.2s-.6-1.2-1.2-1.2C9.6 2.4 9 3 9 3.7s.6 1.2 1.3 1.2z" fill="#036"/></svg>