<svg xmlns="http://www.w3.org/2000/svg" width="19" height="19" viewBox="0 0 19 19"><path d="M18.372 6.796L16.301 8.81c-.087-3.163-1.923-6.726-6.48-7.628l-.23 1.388c2.595.347 5.359 3.042 5.291 6.251L12.83 6.815l-.013 1.655 2.787 2.835 2.777-2.788-.009-1.721zM5.329 14.464l2.766-.763-1.423-.844-3.853.98 1.011 3.804 1.491.859-.697-2.804c2.777 1.517 6.78 1.725 9.854-1.758l-1.084-.898c-1.607 2.068-5.327 3.099-8.065 1.424zm-.1-11.072L4.5 6.167l1.444-.808L7.03 1.535 3.234.5l-1.491.858 2.774.805C1.811 3.804-.378 7.16 1.09 11.567l1.32-.487c-.981-2.427-.004-6.161 2.819-7.688z" fill="#036"/></svg>