<svg xmlns="http://www.w3.org/2000/svg" width="19" height="19" viewBox="0 0 19 19"><path d="M6.17 6.815L4.119 8.821c-.068-3.209 2.695-5.904 5.29-6.251l-.23-1.389C4.622 2.084 2.787 5.646 2.7 8.81L.628 6.796l-.01 1.721 2.777 2.788L6.183 8.47 6.17 6.815zm4.735 6.886l2.766.763c-2.737 1.675-6.458.645-8.064-1.424l-1.084.898c3.074 3.482 7.076 3.274 9.853 1.758l-.697 2.804 1.491-.858 1.011-3.804-3.853-.98-1.423.843zm3.577-11.538l2.774-.805L15.766.5 11.97 1.535l1.086 3.824 1.444.808-.729-2.775c2.823 1.527 3.8 5.262 2.818 7.688l1.32.487c1.469-4.407-.72-7.763-3.427-9.404z" fill="#036"/></svg>