<svg xmlns="http://www.w3.org/2000/svg" width="19" height="19" viewBox="0 0 19 19"><path d="M10.163.5c-.288 0-.571.015-.852.043a.856.856 0 0 0-.757.939.85.85 0 0 0 .928.765c.225-.024.451-.035.681-.035 3.669.007 6.637 3.008 6.644 6.718 0 .228-.011.45-.032.671a.853.853 0 0 0 .843.941.851.851 0 0 0 .843-.771c.026-.276.04-.558.04-.841C18.499 4.274 14.768.5 10.163.5zm0 3.359c-.36 0-.715.04-1.057.113a.855.855 0 0 0-.648 1.018.845.845 0 0 0 1.006.656c.226-.048.458-.075.7-.075 1.833.004 3.318 1.504 3.321 3.36 0 .212-.019.417-.056.617a.856.856 0 0 0 .834 1.013.85.85 0 0 0 .831-.698c.056-.303.085-.615.084-.932 0-2.802-2.244-5.072-5.015-5.072zm4.288 10.94a.908.908 0 0 0 0 1.814.907.907 0 0 0 0-1.814zm1.645-2.248H2.859V7.739c.344-.183.58-.54.58-.958a1.089 1.089 0 0 0-2.176 0c0 .418.236.775.58.958v4.816A1.404 1.404 0 0 0 .5 13.953v3.143c0 .775.629 1.404 1.404 1.404h14.192c.775 0 1.404-.629 1.404-1.404v-3.143c0-.775-.629-1.402-1.404-1.402zm-13.783 5.08a.908.908 0 1 1 .003-1.815.908.908 0 0 1-.003 1.815zm2.892 0a.908.908 0 1 1 0-1.816.908.908 0 0 1 0 1.816zm2.805 0a.908.908 0 1 1 0-1.816.908.908 0 0 1 0 1.816zm6.441-.081c-1.016 0-1.842-.827-1.842-1.843s.826-1.843 1.842-1.843a1.844 1.844 0 1 1 0 3.686z" fill="#036"/></svg>