<svg xmlns="http://www.w3.org/2000/svg" width="19" height="19" viewBox="0 0 19 19"><path d="M11.644 10.316l2.947-4.437a.713.713 0 0 0-.167-.967l-.396-.298a.934.934 0 0 0-.615-.461l-.283-.211a.936.936 0 0 0-.418-.314l-.695-.521a.714.714 0 0 0-.429-.143H8.052a.714.714 0 0 0-.628.375l-1.957 3.61a.715.715 0 0 0 1.257.681l1.753-3.237h2.833l-5.217 7.485h-4.55a.94.94 0 0 0 0 1.88h5.041c.308 0 .596-.15.772-.402l2.107-3.025 1.842 3.09-1.874 3.714a.94.94 0 1 0 1.68.847l2.106-4.175a.94.94 0 0 0-.032-.905l-1.541-2.586zM18.2 8.792l-.838-.882c.439-.814.435-1.679-.072-2.107-.627-.53-1.782-.194-2.58.75s-.938 2.139-.311 2.668c.491.416 1.308.299 2.021-.226l.743.782a.713.713 0 0 0 1.01.026.715.715 0 0 0 .027-1.011zm-3.151-4.605a1.843 1.843 0 1 0 0-3.686 1.843 1.843 0 0 0 0 3.686z" fill="#036"/></svg>