<svg xmlns="http://www.w3.org/2000/svg" width="19" height="19" viewBox="0 0 19 19"><path d="M7.47 6.803L6.188 4.936c-.365-.523-.801-.761-1.402-.761H2.255C1.353 4.175.5 4.851.5 5.996v4.264c0 .918 1.269.918 1.269-.017V6.346h.281V17.26c0 1.102 1.618 1.074 1.618-.028l-.001-6.323.312.004.001 6.322c0 1.102 1.598 1.112 1.598.025l.009-10.869 1.118 1.537c.321.41.566.378.842.26V6.759l-.077.044zM3.758 3.775A1.424 1.424 0 1 0 3.757.928a1.424 1.424 0 0 0 .001 2.847zM17.547.943H8.499a.953.953 0 0 0-.952.953v4.863l1.857-1.05c.777-.439 1.357.688.639 1.094L7.812 8.064c-.094.043-.181.087-.265.124v1.094c0 .526.426.952.952.952h9.048a.953.953 0 0 0 .953-.952V1.896a.953.953 0 0 0-.953-.953z" fill="#036"/></svg>