<svg xmlns="http://www.w3.org/2000/svg" width="19" height="19" viewBox="0 0 19 19"><path d="M14.814 3.759c-.242-.724-1.301-1.36-1.875-1.485a.407.407 0 0 0-.171.796c.368.08.906.441 1.151.736a2.973 2.973 0 0 0-.086.007c-1.026.066-1.304.812-2.117.868-.555.039-1.314-.272-1.954-.38-1.307-.22-2.692-.389-4.233-.271C3.106 4.217.77 5.709.536 7.993a6.522 6.522 0 0 0 1.045 4.302l.119.194v-.013c.255.36.571.792.894 1.016.053.6.206 2.003.521 2.633a.463.463 0 0 0 .413.257c.07 0 .141-.018.206-.051a.46.46 0 0 0 .208-.617c-.197-.393-.346-1.437-.413-2.12.264-.051.574-.132.908-.227.013.905.172 2.219.565 2.807a.459.459 0 0 0 .639.129.464.464 0 0 0 .128-.642c-.262-.39-.437-1.699-.412-2.55.791-.213 1.605-.391 2.206-.315.614.075 1.384.175 2.109.222-.086.603-.302 2.518.277 3.491a.46.46 0 1 0 .792-.469c-.357-.605-.277-2.138-.141-2.995.243-.002.467-.02.661-.049-.144 1.464-.154 2.844.448 3.484a.463.463 0 0 0 .336.146.46.46 0 0 0 .336-.778c-.46-.486-.235-2.506-.159-3.172.007-.056.011-.108.017-.16.345-.229.662-.414.907-.58 1.212-.887 2.098-2.1 2.842-3.457-1.113-.455-1.875-1.034-2.277-1.729-.358-.625-.424-1.334-.195-2.108l.626.186c-.181.604-.135 1.126.134 1.597.471.818 1.667 1.484 3.463 1.931a.701.701 0 0 0 .109-.037c.307-.141.643-1.033.65-1.412.044-1.567-2.044-3.114-3.684-3.148z" fill="#036"/></svg>