<svg xmlns="http://www.w3.org/2000/svg" width="19" height="19" viewBox="0 0 19 19"><path d="M7.582 4.612c-.015-.385-.244-.577-.689-.577h-3.89c-.015 0-.104.029-.267.089-.281.103-.423.288-.423.555 0 .385.23.578.689.578h3.89c.49 0 .72-.215.69-.645zm-1.045-.978c.43 0 .797-.152 1.101-.456s.456-.678.456-1.123c0-.43-.152-.797-.456-1.101S6.967.5 6.537.5s-.8.152-1.111.456-.467.67-.467 1.1c0 .445.155.819.467 1.123s.681.455 1.111.455zm10.124-.263l-8.524.184s-.615.225-.853.354l.521.192.044.045c.06.118.104.252.134.4.014.148-.023.318-.112.511 0 .03-.015.067-.045.111-.207.311-.518.467-.933.467H4.759v5.735l-1.223 6.091c-.044.237 0 .456.134.656s.318.322.556.366c.237.045.455 0 .655-.133.2-.134.33-.318.39-.557l1.244-6.312h.578l1.245 6.312a.828.828 0 0 0 .366.557c.2.133.427.178.679.133.223-.044.404-.166.545-.366s.181-.419.122-.656l-1.223-6.135V6.19l.802-1.039.83-.055.66-.858 5.567-.31-.025-.557z" fill="#036"/></svg>