<svg xmlns="http://www.w3.org/2000/svg" width="19" height="19" viewBox="0 0 19 19"><path d="M12.292 4.855c-.045.087-.13.132-.164.231.089-.02.148-.068.233-.092-.019-.051-.013-.125-.069-.139zm1.875-.417c-.039-.128-.028-.312-.115-.394-.094.053-.252.041-.346.092.021.132.055.255.092.371.132-.014.228-.065.369-.069zm-1.228.347c-.022-.152-.056-.298-.139-.393-.243.052-.392.312-.184.509a.916.916 0 0 1 .323-.116zm.604-.184c-.002-.161-.06-.265-.094-.394-.138.016-.231.078-.37.094.024.152.058.298.139.393a.727.727 0 0 1 .325-.093zm.974-1.251c.002-.134.002-.267-.048-.348-.106.113-.466.157-.302.395.097-.036.223-.044.35-.047zm-.118 1.019c.139-.016.291-.021.395-.069-.047-.099-.029-.263-.069-.371-.133.022-.276.034-.395.069.025.123.06.235.069.371zm-2.78 2.432c-.101-.083-.115-.255-.253-.302-.073.091-.181.145-.278.21.04.135.156.198.209.324a.924.924 0 0 0 .322-.232zm-1.089.695c-.027.081-.144.193-.114.255.042-.083.287-.167.114-.255zm1.321-.811c.098-.065.19-.133.303-.186a1.051 1.051 0 0 0-.209-.347c-.098.089-.251.12-.325.232.104.073.12.237.231.301zm-1.504 3.012c.069-.117.281-.167.277-.278-.004-.089-.225-.169-.277-.278-.082.104-.18.192-.278.278.114.07.159.212.278.278zm.485-2.293c.091-.079.195-.145.277-.232-.094-.089-.15-.219-.254-.302-.046.141-.137.235-.187.371.054.058.067.153.164.163zm3.939-4.078c.143.012.222-.041.371-.023V2.91c-.148-.009-.236.041-.395.023-.018.156.033.246.024.393zm1.435-.995c-.136.04-.316.038-.392.139.092.055.262.03.37.069-.013-.09.04-.113.022-.208zm1.529.764c-.149.002-.238-.056-.393-.047-.004.136-.054.225-.047.371.107.039.25.043.369.069.024-.133.054-.258.071-.393zm-2.757.787c.013.136.042.253.05.394.118-.027.288-.003.392-.045-.039-.098-.021-.256-.046-.371-.157-.019-.246.031-.396.022zm2.548-1.528c-.148-.003-.262-.046-.392-.069-.025.13-.067.243-.069.393.129.016.244.05.37.07.033-.13.053-.273.091-.394zm-.647-.117c-.157-.018-.247.033-.393.024a.906.906 0 0 0-.049.3c.118.031.261.034.372.07.03-.124.045-.263.07-.394zm.022 4.727c-.129.042-.309.028-.395.115a1.2 1.2 0 0 1 .094.348c.133-.014.229-.065.37-.069.009-.16-.048-.26-.069-.394zm.254-.811a.65.65 0 0 0 .07-.393c-.158-.019-.246.031-.393.022-.007.152.031.262.046.394.119.016.162-.039.277-.023zm.163-2.317c-.139 0-.237-.04-.393-.023v.394a1.66 1.66 0 0 1 .37.024c.001-.14.04-.239.023-.395zm-7.411 6.302c.041-.137.258-.162.253-.278-.002-.085-.217-.17-.301-.255-.041.137-.259.163-.255.278.005.086.217.171.303.255zm5.882-7.228h-.392v.394h.392V2.91zm.233.393c.139 0 .236.041.395.023-.011-.147.039-.237.021-.394-.14 0-.284.007-.393-.023-.006.134.017.295-.023.394zm.764 5.398c-.082-.08-.057-.267-.161-.324-.127.044-.271.069-.349.161.055.099.103.208.141.325.138-.039.281-.072.369-.162zM15.675 4.23c.076-.054.253-.008.37-.024.002-.14-.04-.239-.022-.394-.133.005-.295-.018-.396.023.011.138.012.284.048.395zM4.09 5.69c-.057.12-.204.15-.255.277.075.096.168.172.232.278.137-.041.167-.188.302-.23-.053-.149-.166-.237-.279-.325zm.626 3.683a.848.848 0 0 0 .255-.301c-.117-.059-.174-.181-.301-.232-.076.109-.193.177-.254.301.134.043.164.191.3.232zm4.75 1.227c.041-.137.259-.16.254-.277-.004-.086-.216-.169-.301-.254-.041.137-.259.161-.255.278.005.086.217.169.302.253zm-5.421-.44c-.096.034-.197.067-.255.14.044.01.058.05.116.047.01-.1.109-.108.139-.187zm-.324.37c-.138-.213-.462-.106-.557.094.131.054.202.168.324.232.054-.134.179-.194.233-.326zm-.603-1.458c-.105-.081-.185-.185-.302-.255-.047.137-.192.178-.231.324.105.073.174.182.301.232.073-.105.182-.175.232-.301zm.185-.163c.094-.009.155-.242.255-.324-.145-.04-.16-.211-.324-.232-.038.141-.194.162-.233.302.14.033.196.264.302.254zm.696-.786c-.104-.083-.2-.171-.302-.255-.084.1-.173.196-.255.301.118.067.165.205.302.255.067-.118.206-.166.255-.301zm2.594 1.32c.044-.139.259-.165.255-.279-.005-.099-.238-.16-.301-.277-.07.123-.221.165-.255.324.135.042.164.19.301.232zm-.185.185c-.004-.084-.222-.194-.325-.255-.05.126-.185.169-.231.301.111.067.178.178.301.232.046-.127.259-.169.255-.278zm-.441.462c-.106-.077-.18-.19-.301-.253-.063.108-.151.188-.231.278.059.133.183.203.3.277.067-.11.179-.178.232-.302zm-.811.973c-.124-.061-.187-.184-.324-.232-.073.115-.184.189-.232.327.115.045.185.14.279.207.138-.054.182-.204.277-.302zm.394-.485a2.736 2.736 0 0 0-.3-.256c-.079.117-.178.208-.255.325.135.049.187.181.324.232.072-.106.178-.176.231-.301zM2.747 7.566c.06-.109.191-.149.232-.277a1.827 1.827 0 0 0-.277-.279c-.069.117-.207.165-.256.301.087.1.181.19.301.255zm2.827.324c-.048.145-.283.182-.279.301.005.092.219.167.301.255.092-.086.203-.154.256-.277a1.88 1.88 0 0 0-.278-.279zM4.253 9.303c-.015.053-.076.062-.092.116.081-.017.175.07.231 0-.061-.023-.078-.092-.139-.116zm1.762-1.297a.752.752 0 0 0 .3-.302c-.107-.071-.171-.183-.278-.254-.066.119-.211.16-.278.279.105.072.18.174.256.277zm-.905.348c-.019.165-.26.177-.255.301.004.087.217.167.301.254.068-.117.207-.164.255-.301-.108-.076-.177-.193-.301-.254zm-.949-.95c-.047.144-.283.183-.278.3.005.093.219.167.302.254.067-.116.205-.164.254-.3-.107-.07-.173-.183-.278-.254zm-2.34-.695c.066-.087.144-.166.23-.232a.361.361 0 0 0-.208-.208c.031.169-.049.351-.022.44zm1.32-.14c-.071.107-.184.173-.255.279.114.079.187.199.302.278.068-.117.207-.165.254-.302-.117-.067-.164-.205-.301-.255zm.463-.439c-.043.141-.26.159-.254.278.003.091.23.153.277.277.075-.103.189-.166.279-.255a.752.752 0 0 0-.302-.3zm-.902-.835c-.029.13-.285.125-.279.279.002.04.272.277.279.277.104.003.153-.223.277-.255a.909.909 0 0 0-.277-.301zM4.6 6.964c-.044.14-.258.159-.255.278.003.085.222.167.279.277.09-.103.223-.161.277-.3-.116-.069-.164-.207-.301-.255zm.487-.44c-.068.124-.283.164-.277.277.003.103.238.139.277.278.081-.097.188-.167.278-.255-.077-.116-.147-.238-.278-.3zm11.189.602c-.139.04-.306.05-.393.138.053.102.092.218.114.348.121-.041.256-.069.371-.116-.008-.144-.076-.231-.092-.37zm-2.432 1.043c-.096.067-.176.149-.301.185.029.147.154.202.185.347.142-.036.214-.141.35-.185-.071-.124-.117-.272-.234-.347zm-.556 2.78c.076-.108.211-.16.278-.28-.108-.075-.16-.21-.278-.277-.044.152-.279.164-.279.277 0 .088.226.169.279.28zm.741-.696c-.089-.09-.127-.227-.254-.277-.067.11-.206.148-.277.254.076.092.163.176.229.279.124-.064.244-.129.302-.256zm.232-.139c.069-.07.169-.111.232-.186-.142-.059-.303-.098-.464-.138-.002.099.135.246.232.324zm-7.506 1.345c.058-.129.192-.18.232-.326-.107-.07-.182-.172-.302-.231-.072.106-.178.177-.23.301.087.099.195.173.3.256zm6.788-2.642c-.099-.078-.132-.225-.233-.302-.087.099-.23.138-.301.255.079.101.15.207.232.301.092-.093.227-.144.302-.254zm-.765.092a2.02 2.02 0 0 1-.279.232c.062.133.161.226.257.324a1.06 1.06 0 0 1 .277-.232.97.97 0 0 0-.255-.324zm.071 2.481c.04-.139.261-.163.254-.28-.005-.086-.219-.169-.302-.253-.04.136-.259.162-.253.276.002.086.215.169.301.257zm2.778-2.132a1.497 1.497 0 0 0-.185-.371c-.104.081-.251.12-.347.208.07.1.127.21.185.324.141-.028.205-.135.347-.161zm.023-1.924c-.147.016-.231.094-.37.116.028.144.091.25.139.371.131-.024.222-.089.348-.116-.022-.141-.074-.25-.117-.371zm-.416-2.386c.04.099.062.215.069.347.157.011.252-.042.393-.046-.028-.125-.032-.277-.069-.394-.118.044-.3.022-.393.093zm-.231 4.448c-.066-.042-.068-.148-.14-.185-.065.095-.222.103-.277.208.131-.015.322.031.417-.023zm0-1.83c-.085.077-.221.105-.326.163.039.131.112.229.162.347.141-.021.218-.108.348-.138-.047-.139-.077-.295-.184-.372zm-.371.603c-.104-.074-.104-.252-.208-.325-.096.076-.212.129-.326.185.062.125.118.254.21.348.093-.085.25-.104.324-.208zm3.429-5.282c.015-.14.069-.24.093-.371-.142-.021-.26-.065-.395-.094a3.988 3.988 0 0 1-.094.394c.156.001.233.078.396.071zm-7.622 8.271c-.078.084-.148.177-.232.253.06.133.172.214.302.277.058-.117.179-.175.23-.299-.125-.052-.17-.187-.3-.231zM16.67 3.35c.12.019.256.022.37.046.018-.13.045-.25.047-.395a5.289 5.289 0 0 1-.393-.046c.007.149-.042.238-.024.395zm-.394 2.942c.099-.04.216-.062.349-.07.007-.155-.05-.243-.049-.393-.141.013-.266.04-.392.069.031.13.025.299.092.394zm-3.984 3.567c.083-.085.188-.152.256-.255-.096-.09-.162-.209-.279-.277-.062.116-.197.157-.255.277.086.092.153.203.278.255zm-1.367 1.368c.061-.005.259-.273.254-.301-.011-.099-.248-.138-.299-.257-.054.134-.185.189-.256.302.122.014.16.264.301.256zm4.102-4.634c.139-.015.224-.084.37-.094-.035-.144-.038-.317-.141-.393-.091.069-.268.056-.349.138.055.103.094.219.12.349zm1.921-1.46c.014-.151-.014-.264-.022-.393-.157-.017-.256.023-.395.022.02.119.029.248.024.394.098-.04.261-.016.393-.023zM11.781 10.3c.137-.041.168-.19.303-.231-.062-.133-.18-.207-.278-.301-.069.117-.283.168-.277.278.001.096.217.12.252.254zm-.439-.093c-.075.094-.16.181-.254.253.087.093.174.308.278.302.091-.004.17-.22.253-.302-.106-.071-.172-.182-.277-.253zm4.285-3.799c.156-.008.28-.046.396-.093-.049-.105-.06-.25-.095-.37-.126.042-.287.05-.392.115.04.105.077.215.091.348zm.649-2.595v.371c.126.012.304-.025.394.023v-.394a.935.935 0 0 0-.394 0zm-.392 1.019c.022.117.048.229.044.371.155.014.239-.04.396-.022-.029-.119-.012-.284-.047-.396-.141.007-.28.016-.393.047zm-2.526.648c.056.104.104.222.14.349.151-.01.222-.103.37-.116-.034-.131-.088-.24-.117-.371-.152.025-.271.083-.393.138zm-.557 8.271c-.008-.091-.218-.164-.322-.232-.069.111-.157.2-.232.302.128.059.197.173.322.231.029-.139.244-.188.232-.301zm-1.435-.742a1.167 1.167 0 0 0-.303-.254c-.056.129-.183.188-.231.324.122.063.193.177.326.231.047-.121.162-.174.208-.301zm1.599.557c.094-.012.112-.219.23-.278-.066-.124-.185-.202-.3-.279-.057.131-.186.19-.233.326.151.017.191.243.303.231zm-.303-1.993c-.004-.086-.218-.169-.301-.254-.04.138-.26.161-.254.278.003.086.216.169.302.254.039-.136.259-.163.253-.278zm-1.112 1.252c.064-.107.152-.188.231-.277-.058-.137-.181-.205-.301-.279-.033.145-.243.188-.231.3.011.107.233.137.301.256zm.42-.486c.035-.137.262-.193.253-.301-.007-.105-.229-.14-.303-.256-.041.132-.266.193-.253.302.01.098.241.132.303.255zm1.667.439c-.118-.07-.198-.175-.302-.255-.082.104-.17.201-.256.302.103.084.198.173.3.254.085-.104.173-.198.258-.301zm1.55-1.482c.094-.068.187-.139.28-.207-.055-.133-.145-.228-.232-.327-.091.097-.227.145-.302.257.094.084.14.212.254.277zm.811-.578c-.114-.207-.407-.333-.556-.094.079.091.158.182.208.302.141-.046.232-.141.348-.208zm-1.02.741c-.085-.101-.164-.207-.253-.301-.046.136-.301.144-.301.276 0 .024.274.278.277.278.079.002.223-.252.277-.253zm-.762.669c.125-.058.199-.168.301-.253-.121-.065-.164-.206-.279-.277-.082.108-.229.158-.277.302a.858.858 0 0 1 .255.228zm-.164.163c-.133-.041-.165-.189-.301-.232-.038.141-.194.162-.232.302.104.074.174.183.302.232.064-.114.205-.151.231-.302zm-1.251-4.632c.109-.046.18-.132.302-.163-.063-.127-.109-.276-.232-.347-.092.07-.197.125-.302.185.068.12.109.264.232.325zm-.023-1.946c.021.147.105.233.14.371.142-.042.277-.094.37-.186a.928.928 0 0 1-.14-.324c-.147.02-.229.111-.37.139zm.348 1.321c.082.096.11.243.209.324.083-.094.251-.104.322-.208-.079-.097-.108-.245-.208-.325-.089.088-.259.096-.323.209zm.58-.302c.057.104.104.219.162.324.125-.035.228-.097.348-.139a1.066 1.066 0 0 0-.164-.371c-.099.079-.272.085-.346.186zm2.292 1.876c-.09.08-.233.105-.323.185.085.093.109.246.184.348.095-.084.245-.109.348-.185-.101-.085-.073-.296-.209-.348zm-5.212.116a1.715 1.715 0 0 1-.256.255c.121.067.164.208.279.279.105-.064.151-.189.278-.232-.084-.118-.138-.264-.301-.302zm3.196-3.474c.037.126.079.247.115.371.128-.043.29-.052.371-.14a1.207 1.207 0 0 1-.091-.324c-.11-.035-.261.075-.395.093zm.465 1.551c.132-.037.268-.071.37-.139-.1-.078-.049-.307-.186-.348-.097.05-.203.09-.324.116.027.144.089.251.14.371zm-2.641 1.066c-.069.117-.234.136-.277.277.122.068.139.276.253.279.083 0 .179-.202.277-.255-.103-.082-.145-.224-.253-.301zm-.509.417a1.091 1.091 0 0 1-.278.232c.074.118.151.233.278.302.089-.089.203-.151.276-.254-.116-.069-.153-.219-.276-.28zm3.31-3.22c.029.142.058.282.117.394.098-.049.226-.068.348-.093-.008-.149-.066-.243-.069-.395-.133.03-.255.073-.396.094zm-2.338 2.965c.088-.09.229-.125.3-.231-.101-.085-.114-.255-.254-.302-.079.084-.187.139-.276.208.057.127.135.236.23.325zm-.071-2.015c.022.147.122.219.163.347.133-.038.229-.11.347-.162a1.588 1.588 0 0 0-.185-.371c-.085.085-.215.125-.325.186zm-4.771.695c.136-.057.23-.157.325-.255-.109-.078-.142-.229-.278-.278-.077.103-.203.153-.279.254.088.083.174.166.232.279zm-2.155 8.778c.121.066.224.148.347.21.038-.147.167-.205.185-.369-.136-.035-.203-.14-.324-.187-.07.117-.151.218-.208.346zm1.158 1.207c.049.013.076.048.117.069.113-.103.313-.118.417-.232-.133-.043-.206-.148-.348-.185-.06.118-.154.201-.186.348zm-.254-2.617c-.061.115-.141.213-.208.322.12.066.205.167.347.208.061-.117.141-.213.209-.323-.128-.057-.201-.17-.348-.207zm-.556.88c.137.04.199.157.348.185.039-.13.146-.194.186-.323-.103-.076-.199-.158-.324-.211-.067.122-.167.205-.21.349zM4.6 16.601c.139.04.22.136.348.187.077-.108.135-.237.208-.349-.138-.047-.208-.161-.371-.185-.047.129-.13.224-.185.347zm.325-.555c.148.038.218.151.37.184.04-.138.136-.218.186-.347-.138-.04-.206-.15-.348-.186a9.178 9.178 0 0 0-.208.349zm2.525-.998c.118.062.215.14.324.21.066-.122.166-.206.209-.349-.123-.056-.208-.147-.325-.208-.056.13-.158.211-.208.347zm1.112-1.598c.016.102.24.13.324.231.067-.111.158-.198.208-.323a4.927 4.927 0 0 0-.302-.232c-.037.135-.248.21-.23.324zm-1.807 2.687c.13.049.202.154.348.187.055-.123.149-.205.186-.347-.14-.04-.207-.15-.348-.188-.04.139-.15.207-.186.348zm1.043-1.619c.136.047.219.149.347.207.058-.129.16-.211.208-.347-.131-.048-.207-.149-.324-.211-.071.123-.161.227-.231.351zM1.728 2.377c-.004-.08-.081-.088-.092-.163-.174-.004-.286.056-.441.07.057.128.152.218.231.324.089-.09.198-.158.302-.231zm2.641 11.606c-.066.119-.166.203-.208.347.109.067.207.149.325.208.064-.119.166-.204.208-.347-.118-.059-.216-.141-.325-.208zm3.799 0c.139.046.199.17.347.208.057-.122.159-.197.208-.323-.124-.053-.187-.168-.323-.211-.079.107-.156.215-.232.326zM.871 3.859c-.036.142.143.254.255.325.002-.108-.156-.243-.255-.325zm.486-.417a1.058 1.058 0 0 1-.278.232c.075.118.145.242.278.302.101-.061.163-.163.279-.21-.078-.122-.148-.253-.279-.324zm.764 4.772c-.003-.093-.223-.177-.324-.255-.065.178-.06.451.069.557.027-.154.261-.185.255-.302zm-.092-3.335a1.177 1.177 0 0 0-.278-.324c-.066.118-.208.162-.278.277.09.096.169.202.279.278.105-.064.154-.184.277-.231zM.5 2.91c-.002.149.013.281.069.371.054-.048.109-.093.163-.139C.645 3.073.616 2.948.5 2.91zm.718-.139c-.072-.13-.133-.271-.278-.324-.058.112-.21.129-.254.255.064.097.148.175.208.277.145-.033.194-.162.324-.208zm1.437 11.721c.121-.071.182-.202.231-.346-.105-.058-.199-.126-.301-.188.031.173.031.372.07.534zm.811.926c.122.056.205.151.347.188.058-.114.146-.193.186-.325-.099-.078-.214-.142-.325-.208-.07.115-.153.217-.208.345zm.022.742c.049-.129.146-.209.186-.346-.128-.05-.209-.147-.348-.188-.196.194-.203.527.162.534zm-.578-2.756c-.05.136-.152.218-.208.347.114.07.217.152.347.208.06-.116.141-.214.208-.322-.123-.072-.218-.171-.347-.233zm-.858-1.227c.072.091.181.145.279.208.046-.139.176-.194.208-.347-.121-.057-.197-.159-.324-.209-.078.091-.115.225-.163.348zm1.761 2.686c.105.079.21.161.348.209.044-.133.149-.205.185-.348-.141-.036-.191-.164-.347-.187-.054.12-.139.203-.186.326zm3.29.742c.136.033.203.137.324.184.065-.119.167-.203.208-.346-.135-.044-.196-.161-.347-.186-.051.125-.16.195-.185.348zm9.798-7.321c.035.136.058.284.139.371.12-.069.261-.354.164-.486-.083.057-.21.067-.303.115zm-.602 3.591c-.075.095-.184.154-.276.232.065.126.157.229.254.322.071-.096.179-.16.279-.231-.069-.125-.136-.251-.257-.323zm-7.343 1.064c.092.056.153.141.255.187.031-.146.112-.242.139-.395-.06-.032-.107-.076-.162-.114-.067.118-.173.196-.232.322zm6.833-.648c-.101.078-.177.179-.277.257.097.078.167.187.255.277.125-.062.202-.17.301-.257-.103-.082-.141-.229-.279-.277zm-.926.881c-.078.116-.192.193-.256.325.133.046.172.184.301.23.072-.105.18-.176.233-.3-.106-.071-.171-.184-.278-.255zm.441-.441c-.043.136-.259.164-.257.277.006.086.22.173.303.257.042-.137.259-.164.256-.277-.005-.087-.219-.173-.302-.257zm1.227-.995c.104.079.134.234.255.302.139-.077.036-.368.023-.51-.08.081-.193.13-.278.208zm1.831-9.059c-.011.116-.064.183-.07.302.094-.007.115.054.208.047-.006-.157-.039-.286-.138-.349zm-.371.465c-.025.131-.065.243-.069.394.129.019.224.068.37.069.009-.138.076-.218.07-.371-.119-.035-.256-.056-.371-.092zm-.742 4.147v-.394h-.094c.018.144.026.299.094.394zm.325-3.43c.014.152-.04.238-.022.394.12-.013.174.04.3.023.064-.097.13-.195.114-.37-.114-.031-.266-.028-.392-.047zm-.37 1.251c.247 0 .283-.211.37-.37h-.394c-.002.133-.006.267.024.37zm-3.014 8.873c.116.062.182.175.303.232.06-.119.182-.175.231-.302-.101-.087-.194-.177-.301-.257-.047.14-.192.18-.233.327zm-4.006-.069c.088.105.155.229.256.323.038-.09.109-.151.16-.229-.137-.058-.199-.188-.348-.232.013.08-.08.057-.068.138zm.255-.326c.105.067.177.161.3.21a.86.86 0 0 0 .231-.301c-.108-.075-.188-.183-.323-.231-.042.135-.171.181-.208.322zm.67 1.785c.104.072.197.159.326.208.062-.112.152-.2.207-.323-.116-.061-.193-.161-.323-.21-.071.105-.158.196-.21.325zm-.788-3.498c-.01-.1-.238-.132-.301-.256-.077.117-.192.192-.253.325.127.059.178.191.322.232.031-.154.248-.177.232-.301zm1.159 2.965c.103.084.208.163.325.232.043-.132.164-.191.208-.324-.111-.074-.202-.169-.325-.23-.043.13-.162.19-.208.322zm-2.13-2.41c.012.092.232.151.324.232.071-.107.173-.183.233-.302-.119-.067-.18-.191-.325-.232-.032.144-.246.191-.232.302zm2.919 4.147c.108.069.208.148.324.21.058-.129.16-.211.208-.349-.141-.038-.19-.162-.347-.185-.048.122-.151.187-.185.324zm.949-1.389c-.08.105-.159.211-.23.325.122.056.195.159.322.207.083-.091.16-.181.209-.302-.082-.093-.192-.161-.301-.23zm.161-.185c.136.044.191.164.327.208.057-.119.171-.182.207-.323-.133-.048-.17-.186-.325-.21-.039.138-.171.182-.209.325zm.396-.534c.011.098.228.148.322.232.065-.111.164-.192.232-.302-.128-.056-.188-.181-.323-.232-.03.142-.243.192-.231.302zm-1.158 1.577c.126.056.21.159.348.208.043-.134.145-.211.207-.326-.128-.055-.19-.178-.347-.208-.054.124-.154.202-.208.326zm-.533-2.038c-.062.122-.167.203-.233.322.127.061.207.166.326.231.07-.113.162-.209.232-.324-.117-.07-.211-.159-.325-.229zM6.06 5.666a1.012 1.012 0 0 1-.278.232c.076.117.147.239.278.302.091-.087.208-.149.279-.255-.119-.068-.154-.218-.279-.279zM2.539 7.729c-.106-.072-.172-.184-.278-.255-.079.114-.2.186-.279.3.112.081.188.2.324.255.074-.105.183-.174.233-.3zm.394 3.799c-.13-.056-.215-.156-.325-.232-.064.129-.178.208-.232.347.125.053.189.169.326.209.077-.11.166-.205.231-.324zm.671 1.575c-.103-.08-.217-.153-.324-.232-.052.136-.168.205-.21.348.118.062.194.161.325.21.064-.117.165-.194.209-.326zm-.301-2.063c-.079-.106-.199-.169-.301-.253-.054.137-.193.192-.231.346.131.047.185.17.325.209.055-.113.164-.176.207-.302zM2.237 4.137c-.07.115-.212.159-.277.279.081.088.169.17.232.277.132-.062.22-.166.325-.255-.106-.088-.164-.224-.28-.301zm0 2.155c.083-.095.159-.197.279-.255a.77.77 0 0 0-.302-.302c-.078.085-.137.188-.255.232.074.128.17.233.278.325zm-.44-2.711a.73.73 0 0 0 .324-.255c-.07-.09-.146-.177-.208-.278-.148.03-.201.155-.324.208.03.149.166.19.208.325zm3.777 9.383c.1-.015.127-.238.23-.325-.115-.071-.209-.159-.324-.229-.07.111-.15.216-.23.321.142.03.21.25.324.233zm-1.598-.396c-.123-.054-.197-.158-.325-.208-.061.119-.162.193-.209.326.104.081.212.158.324.232.047-.14.172-.2.21-.35zm1.459.58c-.14-.046-.195-.177-.348-.209-.05.128-.161.196-.208.326.127.058.199.17.347.208.047-.131.148-.206.209-.325zM4.74 11.55c-.112-.066-.2-.156-.302-.23-.064.128-.191.193-.232.348.13.047.185.17.324.208.052-.129.178-.179.21-.326zM2.724 3.744c-.058.137-.275.135-.278.255-.002.095.206.137.231.277.108-.078.322-.145.324-.255 0-.015-.229-.276-.277-.277zm2.34 9.938c-.119-.075-.218-.167-.348-.231-.048.137-.151.219-.208.348.134.053.207.162.347.21.045-.136.145-.212.209-.327zm2.34-3.035c-.112-.066-.177-.178-.301-.231-.082.103-.171.2-.255.302.124.069.204.18.324.253.048-.137.192-.179.232-.324zm-.672-1.923c.004.086.217.17.302.254.041-.136.259-.162.255-.278-.005-.084-.219-.17-.302-.254-.041.137-.26.162-.255.278zM6.5 7.01c-.042.149-.279.164-.278.279.002.094.239.146.278.277.1-.086.198-.173.279-.277-.09-.097-.169-.203-.279-.279zm.95.973c-.075.095-.16.179-.255.255.087.09.174.305.279.3.089-.003.17-.22.254-.3-.115-.062-.157-.197-.278-.255zm.556 2.016c.065-.112.283-.168.277-.278-.002-.082-.22-.196-.324-.256-.051.11-.142.18-.23.255a.644.644 0 0 0 .277.279zM3.188 4.855c-.067.119-.212.16-.278.278.074.095.178.162.231.278.141-.052.222-.164.325-.255-.099-.094-.167-.219-.278-.301zm4.4 5.63c.11-.011.135-.237.255-.302-.104-.08-.2-.17-.3-.255-.077.108-.194.178-.255.301.137.055.179.268.3.256zm-3.404-6.44c-.076.094-.185.155-.278.231.094.104.144.321.255.325.07.002.207-.245.278-.231a.868.868 0 0 0-.255-.325zm1.39 2.038c-.06.137-.278.155-.279.278 0 .078.263.231.279.278.071-.114.212-.159.277-.278-.114-.07-.158-.212-.277-.278zM3.396 4.716c-.001.078.244.189.231.279.138-.057.23-.157.324-.255-.089-.096-.168-.202-.254-.302-.069.136-.299.156-.301.278zm1.181.556c-.065.113-.218.137-.255.278.121.071.142.277.255.279.098.001.131-.217.278-.233a.738.738 0 0 0-.278-.324zm.233-.185c.048.145.16.226.254.324.09-.081.17-.169.278-.23a1.339 1.339 0 0 0-.255-.326 1.51 1.51 0 0 1-.277.232zm-.441 6.972c-.144-.04-.188-.181-.348-.207-.052.125-.167.188-.208.325.128.05.195.16.324.208.075-.112.169-.203.232-.326zM5.55 5.018c.09-.095.208-.163.302-.255-.102-.083-.147-.224-.256-.302-.093.092-.211.16-.301.255.096.09.165.208.255.302zm.51-.394c.07-.085.179-.13.255-.208-.117-.076-.182-.204-.3-.279-.046.086-.158.105-.21.186.104.083.147.224.255.301zm-1.39-.44c.093-.068.185-.14.278-.208a1.567 1.567 0 0 0-.232-.325c-.09.095-.226.143-.3.255.097.079.123.231.254.278zm.765-.58c-.18-.102-.342-.348-.51-.093.075.095.156.184.208.302a.685.685 0 0 0 .302-.209zm1.112 2.201c.065.002.232-.242.277-.255-.09-.094-.15-.219-.255-.3-.071.097-.179.159-.277.23.079.109.145.322.255.325zm.532-.416c-.044-.149-.15-.235-.231-.349.007.054-.068.026-.069.07.124.063.158.308.3.279zm-3.08-2.108a1.046 1.046 0 0 0-.233-.325c-.094.075-.184.155-.3.208.041.136.156.199.208.324.141-.036.214-.141.325-.207zm-1.368-.302c-.036-.141-.15-.206-.208-.324-.148.03-.201.154-.324.208.032.145.161.194.207.324.137-.041.2-.156.325-.208zm.232-.186c.085-.084.222-.118.278-.232-.084-.244-.368-.266-.533-.091.067.127.134.251.255.323zm.348 1.089c.083-.093.223-.132.277-.255-.077-.099-.148-.206-.232-.301a1.373 1.373 0 0 1-.3.232.88.88 0 0 0 .255.324zm1.227-.926c-.146-.043-.281-.208-.44-.163-.01.088.159.197.186.325.117-.021.179-.099.254-.162zm2.271 3.892c.1.084.164.206.277.278.097-.082.184-.171.278-.255-.097-.087-.152-.218-.277-.278-.092.086-.193.162-.278.255zm2.2 2.247c.063-.1.2-.125.232-.255-.076-.101-.119-.237-.254-.277a.852.852 0 0 1-.255.23c.06.134.178.207.277.302zm-1.645 4.146c-.122-.062-.212-.157-.324-.232-.067.127-.18.207-.231.35.127.05.202.151.324.208.074-.112.169-.204.231-.326zm.371-.51c-.108-.076-.194-.177-.324-.232-.045.135-.164.191-.208.326.106.078.195.174.324.231.04-.137.171-.183.208-.325zm.394-.509c-.113-.063-.191-.164-.3-.232-.07.118-.18.192-.232.326.113.073.187.183.325.232.04-.138.178-.177.207-.326zm-1.436-.603c-.131-.054-.202-.168-.324-.229-.059.125-.175.195-.232.323.116.069.191.18.324.231.063-.122.178-.192.232-.325zm.301 2.132c-.141-.043-.203-.166-.347-.208-.054.123-.154.202-.208.325.105.07.196.158.324.209.084-.102.162-.209.231-.326zm1.274-1.713c.134-.06.196-.191.278-.302-.125-.062-.187-.186-.324-.232-.035.143-.244.194-.233.302.013.102.218.112.279.232zm.255-4.379a.11.11 0 0 1 .07-.07.856.856 0 0 0-.185-.37c-.034.066-.113.089-.163.139.076.117.147.239.278.301zm-.764.162c.114.07.158.212.278.278.066-.119.211-.16.277-.278-.117-.067-.16-.211-.277-.278-.067.118-.211.16-.278.278zm.509 1.482c.109.046.171.139.232.232.156-.02.182-.173.301-.232-.071-.122-.145-.241-.278-.3-.068.116-.206.164-.255.3zM6.2 12.128c-.123-.061-.205-.164-.325-.229-.074.108-.167.2-.231.322.118.066.197.173.324.233.062-.122.165-.203.232-.326zm2.663-.879c-.132-.053-.17-.199-.324-.23-.062.112-.175.178-.23.301.11.067.177.177.3.23.094-.09.182-.189.254-.301zm.162-.16c.09-.005.221-.297.255-.327-.14-.037-.162-.193-.302-.231-.035.126-.268.185-.255.301.007.06.099.061.163.118.038.032.1.14.139.139z" fill="#036"/></svg>