<svg xmlns="http://www.w3.org/2000/svg" width="19" height="19" viewBox="0 0 19 19"><path d="M11.237 14.383l1.742 1.43s7.239-7.453.926-12.317l-.331.262c1.296 1.547 1.637 3.227 1.439 4.607-.319 2.242-2.55 3.996-4.456 5.273-.278.186-.538.351-.802.521l.022-1.315c.453-.589 1.307-.787 1.307-.787s-.09-.299-.216-.748c1.665-.573 2.873-2.138 2.873-3.995 0-1.879-1.236-3.458-2.933-4.014.157-.556.275-.938.275-.938L9.5.616h-.002L7.916 2.361s.118.383.275.938c-1.696.555-2.932 2.135-2.932 4.013 0 1.857 1.208 3.422 2.873 3.995-.126.449-.216.748-.216.748s.855.198 1.307.789l.022 1.313c-.264-.17-.524-.335-.802-.521-1.906-1.277-4.137-3.031-4.456-5.273-.197-1.38.144-3.06 1.439-4.607l-.331-.26c-6.313 4.864.926 12.317.926 12.317l1.742-1.43.123.085c.242.161.464.303.696.452-1.217.804-1.928 1.418-1.516 2.14l.024-.014c.14.259.548.311.911.114.363-.195.545-.565.405-.824-.01-.019-.03-.027-.042-.043.243-.189.568-.409.904-.629.007.498.013.882.013.977 0 .338-.386.734-.386 1.045 0 .287.315.719.573.785v.024c.01 0 .021-.011.032-.013.01.002.022.013.032.013v-.024c.258-.066.573-.498.573-.785 0-.311-.386-.707-.386-1.045 0-.095.005-.479.013-.977.336.22.661.439.904.629-.013.016-.032.024-.042.043-.14.259.042.629.405.824.363.196.771.145.911-.114l.023.014c.412-.722-.298-1.336-1.515-2.14.23-.149.454-.291.695-.452l.124-.085zm-.69-10.124a3.237 3.237 0 0 1 2.194 3.053 3.236 3.236 0 0 1-2.133 3.033c-.288-1.107-.601-2.471-.601-3.186.001-.663.27-1.865.54-2.9zm-2.156 6.087a3.237 3.237 0 0 1-2.132-3.033c0-1.419.922-2.614 2.193-3.053.269 1.035.539 2.236.539 2.9 0 .715-.312 2.078-.6 3.186z" fill="#036"/></svg>