<svg xmlns="http://www.w3.org/2000/svg" width="19" height="19" viewBox="0 0 19 19"><path d="M15.048 6.294c.229.403.371.863.371 1.361v7.955H18.5V6.294h-3.452zm3.423-.592a2.598 2.598 0 0 0-2.579-2.312c-1.097 0-2.016.684-2.4 1.643.426.136.811.361 1.12.67h3.859zM10.38 8.858l2.271 1.36v1.966h-1.047v3.426h3.317V8.072H10.38v.786zm2.27-3.314a2.262 2.262 0 0 0-2.243 2.014h4.489a2.262 2.262 0 0 0-2.246-2.014zm-.584 4.963L6.282 6.948.5 10.507v1.124h1.172v3.979h2.544v-3.136H8.76v3.136h2.274v-3.979h1.032v-1.124z" fill="#036"/></svg>