<svg xmlns="http://www.w3.org/2000/svg" width="19" height="19" viewBox="0 0 19 19"><path d="M17.097 17.396H3.366v.578h13.731c.387 0 .716-.139.991-.413.274-.275.412-.605.412-.99h-.557c0 .234-.083.43-.247.588a.835.835 0 0 1-.599.237zM13.84 3.789c.372 0 .693-.134.97-.402.275-.268.412-.594.412-.979s-.137-.711-.412-.979a1.346 1.346 0 0 0-.97-.402c-.384 0-.711.134-.979.402s-.402.594-.402.979.135.711.402.979.595.402.979.402zm-9.072 12.37a.796.796 0 0 0 .557.207c.248 0 .509-.097.784-.289l-.413-.433c-.124.081-.24.123-.35.123s-.193-.027-.248-.083l-.02-.021L.5 11.066v.804l4.268 4.289zm.454-9.175H.542v.557h4.68v-.557zm7.918 9.608l5.34-10.721-.537-.227-5.401 10.948h.598zm-10.743-6.31a.934.934 0 0 0-.66.249.833.833 0 0 0-.268.639c0 .247.09.457.268.629a.891.891 0 0 0 .64.258h3.732c.151 0 .289-.015.412-.041.316-.055.536-.151.66-.289l1.834-2.042 2.146 2.062-.867 3.855a.67.67 0 0 0-.042.206c0 .248.09.461.269.64s.392.269.641.269c.467 0 .755-.241.865-.723l1.051-4.68c.125-.495.069-.859-.164-1.093l-1.878-1.876 2.042-2.371 1.32 1.319a.649.649 0 0 0 .474.207c.233 0 .46-.103.681-.309l2.144-2.144a.722.722 0 0 0-.051-.97.714.714 0 0 0-.506-.206c-.193 0-.344.055-.454.165L14.912 5.81l-2.145-2.145a.837.837 0 0 0-.617-.248H8.789a.701.701 0 0 0-.536.248l-2.31 2.66a.642.642 0 0 0-.247.515c0 .193.069.358.207.495a.67.67 0 0 0 .494.206.706.706 0 0 0 .536-.248l2.145-2.495 1.237.021-4.722 5.485-3.196-.022z" fill="#036"/></svg>