<svg xmlns="http://www.w3.org/2000/svg" width="19" height="19" viewBox="0 0 19 19"><path d="M4.388 15.06V7.45a5.944 5.944 0 0 0-1.368 3.804c0 1.446.513 2.772 1.368 3.806zM2.855 6.742v.353h1.026v.039c.159-.196.327-.382.507-.559v-.17h.007V5.332h-.667l-.873 1.41zm1.04-.997c-.006.15-.013.292-.013.431v.513h-.525l.004-.007.305-.506c.08-.146.144-.281.219-.431h.01zm3.208-.782A3.46 3.46 0 0 0 .5 6.423c0 1.443.883 2.68 2.138 3.202a6.58 6.58 0 0 1 .608-1.548 1.804 1.804 0 0 1 .722-3.459c.716 0 1.33.419 1.621 1.025a6.558 6.558 0 0 1 1.514-.68zm6.468 10.134a5.951 5.951 0 0 0 1.4-3.843 5.948 5.948 0 0 0-1.4-3.841v7.684zm.497-13.327c-1.937 0-3.565 1.251-4.167 2.983a6.502 6.502 0 0 1 2.02.624 2.303 2.303 0 1 1 2.963 2.976 6.48 6.48 0 0 1 .616 2.024c1.741-.599 3-2.231 3-4.174a4.43 4.43 0 0 0-4.432-4.433zm-6.397 8.576c0 .338.183.653.557.849v.012c-.421.186-.688.506-.688.968 0 .522.45 1.073 1.43 1.073.896 0 1.482-.475 1.482-1.174 0-.493-.332-.813-.712-.956V11.1c.387-.19.563-.516.563-.848 0-.47-.373-.991-1.275-.991-.77 0-1.357.432-1.357 1.085zm1.316-.474c.332 0 .469.238.469.48 0 .238-.184.428-.392.486-.309-.094-.54-.261-.54-.522.001-.237.156-.444.463-.444zm-.059 1.637c.35.097.605.297.605.635 0 .273-.215.481-.528.481a.528.528 0 0 1-.546-.54c0-.279.172-.493.469-.576zm-3.54-5.011v9.513a5.945 5.945 0 0 0 7.184.026V6.473a5.945 5.945 0 0 0-7.184.025zm6.719 4.756a3.112 3.112 0 1 1-6.224 0 3.112 3.112 0 0 1 6.224 0zm1.936-5.826V7.05c.188.226.358.466.515.716h.152V4.815h-.566l-.787.362.114.518.564-.267h.008z" fill="#036"/></svg>