<svg xmlns="http://www.w3.org/2000/svg" width="19" height="19" viewBox="0 0 19 19"><path d="M12.733 1.895c0-.035.037-.074.093-.074h1.623c.06 0 .095.039.095.074v2.809h.95V1.895c0-.564-.469-1.023-1.045-1.023h-1.623c-.574 0-1.042.459-1.042 1.023v2.809h.949V1.895zm2.706 7.037h-3.41a.475.475 0 0 0 0 .951h3.41a.473.473 0 0 0 .473-.474.474.474 0 0 0-.473-.477zm0-1.72h-3.41a.476.476 0 0 0 0 .953h3.41a.474.474 0 0 0 .473-.478.474.474 0 0 0-.473-.475zM4.262 1.895c0-.035.039-.074.094-.074H5.98c.058 0 .093.039.093.074v2.809h.952V1.895c0-.564-.47-1.023-1.045-1.023H4.356c-.575 0-1.043.459-1.043 1.023v2.809h.949V1.895zm6.983 4.612h4.978a.477.477 0 0 0 0-.953h-4.978a.473.473 0 0 0-.474.475c0 .264.209.478.474.478zm0 4.983h4.978a.477.477 0 1 0 0-.952h-4.978c-.265 0-.474.211-.474.475s.209.477.474.477zM6.969 8.932H3.561a.476.476 0 0 0 0 .951h3.408a.474.474 0 0 0 0-.951zM2.775 6.507h4.978a.478.478 0 0 0 0-.953H2.775a.476.476 0 0 0 0 .953zm0 4.983h4.978a.477.477 0 0 0 0-.952H2.775c-.264 0-.475.211-.475.475s.211.477.475.477zm4.194-4.278H3.561a.476.476 0 0 0 0 .953h3.408a.476.476 0 0 0 0-.953zm7.48 9.159c.576 0 1.045-.461 1.045-1.023v-3.043l-.003-.018h-.944l-.003.018v3.043c0 .039-.035.074-.095.074h-1.623c-.056 0-.093-.035-.093-.074v-3.043l-.003-.018h-.943l-.003.018v3.043c0 .562.468 1.023 1.042 1.023H5.979c.575 0 1.045-.461 1.045-1.023v-3.043c0-.006-.004-.014-.004-.018h-.943c0 .004-.004.012-.004.018v3.043c0 .039-.036.074-.093.074H4.356c-.055 0-.094-.035-.094-.074v-3.043l-.003-.018h-.943l-.003.018v3.043c0 .562.468 1.023 1.043 1.023H1.094v1.758h16.812v-1.758h-3.457z" fill="#036"/></svg>