<svg version="1" xmlns="http://www.w3.org/2000/svg" width="19" height="19" viewBox="0 0 19 19"><path d="M18.5 4v5.5c0 .2-.1.3-.2.5-.1.1-.3.2-.4.2L6.6 11.5c.1.4.1.7.1.8 0 .1-.1.3-.3.7h10c.2 0 .3.1.5.2.1.1.2.3.2.5s-.1.3-.2.5c-.1.1-.3.2-.5.2H5.3c-.2 0-.3-.1-.5-.2-.1-.1-.2-.3-.2-.5 0-.1 0-.2.1-.3.1-.1.1-.3.2-.4.1-.2.1-.3.2-.5s.2-.3.2-.3L3.4 3.3H1.2c-.2 0-.4-.1-.5-.2-.1-.2-.2-.3-.2-.5s.1-.3.2-.5c.1-.1.3-.2.5-.2H4c.1 0 .2 0 .3.1.1 0 .2.1.2.2.1.1.1.2.1.3 0 .1.1.2.1.3 0 .1 0 .2.1.3v.3h13c.2 0 .4.1.5.2.1 0 .2.2.2.4zM7 14.8c.3.3.4.6.4 1s-.1.7-.4 1c-.3.3-.6.4-1 .4s-.7-.1-1-.4c-.3-.3-.4-.6-.4-1s.1-.7.4-1c.3-.3.6-.4 1-.4s.7.1 1 .4zm9.7 0c.3.3.4.6.4 1s-.1.7-.4 1c-.3.3-.6.4-1 .4s-.7-.1-1-.4c-.3-.3-.4-.6-.4-1s.1-.7.4-1c.3-.3.6-.4 1-.4.4-.1.7.1 1 .4z" fill="#036"/></svg>