<svg xmlns="http://www.w3.org/2000/svg" width="19" height="19" viewBox="0 0 19 19"><path d="M7.567 15.188a2.357 2.357 0 0 1-.653.096c-2.921 0-5.664-5.999-5.664-9.616 0-.953.196-1.105.219-1.119.206-.13 1.016.257 1.61.539.675.32 1.439.684 2.293.911a.5.5 0 1 0 .257-.967c-.765-.204-1.486-.546-2.122-.848-1.064-.506-1.903-.904-2.572-.48C.328 4.087.25 4.955.25 5.668c0 3.729 2.748 10.616 6.664 10.616.309 0 .623-.046.931-.135a.5.5 0 0 0-.278-.961zm5.119-9.061C9.475 4.996 8.123.529 6.888 4.034c-1.236 3.505-.76 10.459 2.451 11.59 3.21 1.132 7.94-3.987 9.175-7.492 1.235-3.505-2.618-.873-5.828-2.005zm-5.085-.169c.321-.375 1.248-.11 2.073.594.823.703 1.23 1.579.911 1.954-.322.376-1.249.11-2.073-.594-.824-.704-1.232-1.579-.911-1.954zm4.337 7.682c-.137.391-1.006.44-1.939.11-.934-.328-1.579-.911-1.44-1.302.137-.39.74.314 1.674.644.931.329 1.843.158 1.705.548zm2.82-3.524c-1.084.039-1.975-.329-1.992-.823-.019-.493.845-.924 1.926-.963 1.083-.039 1.976.33 1.994.823.017.493-.846.925-1.928.963z" fill="#036"/></svg>