<svg xmlns="http://www.w3.org/2000/svg" width="19" height="19" viewBox="0 0 19 19"><path d="M4.182 2.703h10.637c.402 0 .751.146 1.046.441.299.299.441.645.434 1.037l-.002 10.637c0 .414-.145.766-.434 1.055a1.42 1.42 0 0 1-1.045.424h-1.225a1.365 1.365 0 0 1-1.047-.426 1.371 1.371 0 0 1-.424-1.045l-.008-4.795-5.753 5.752a1.24 1.24 0 0 1-.996.385 1.547 1.547 0 0 1-1.004-.475l-1.047-1.047a1.564 1.564 0 0 1-.475-1.004 1.237 1.237 0 0 1 .385-.996l5.752-5.754-4.794-.008a1.356 1.356 0 0 1-1.046-.424 1.435 1.435 0 0 1-.434-1.054V4.181c.011-.414.155-.76.433-1.037.283-.283.633-.43 1.047-.441z" fill="#036"/></svg>