<svg xmlns="http://www.w3.org/2000/svg" width="19" height="19" viewBox="0 0 19 19"><path d="M15.957.5h-1.309v.439c-.43.085-.857.234-1.268.353-.762.275-1.512-.162-2.227-.377-.896-.308-1.778.23-2.606.495-.652.263-1.318-.05-1.922-.293-.722-.357-1.553-.132-2.257.155A8.39 8.39 0 0 1 4.353.5h-1.31v7.011h2.225L3.51 18.5h1.161l1.096-6.863 3.814-1.322 3.579 1.24 1.168 6.945h1.162L13.643 7.511h2.314V.5zm-9.988 9.88l.199-1.247 1.701.59-1.9.657zm.379-2.372l.08-.497h6.053l.098.579-2.997 1.038-3.234-1.12zm4.945 1.715l1.473-.511.184 1.083-1.657-.572z" fill="#036"/></svg>