<svg version="1" xmlns="http://www.w3.org/2000/svg" width="19" height="19" viewBox="0 0 19 19"><path d="M12.3 13.5c0 1.4 1.2 2.6 2.6 2.6 1.4 0 2.6-1.2 2.6-2.6 0-1.4-1.2-2.6-2.6-2.6-1.5 0-2.6 1.2-2.6 2.6zm-10.8-.7c0 1.9 1.6 3.5 3.5 3.5s3.5-1.6 3.5-3.5S6.9 9.3 5 9.3s-3.5 1.6-3.5 3.5zm7.9 0c0 .2 0 .5-.1.7h2.1c0-1.9 1.5-3.5 3.5-3.5 1.1 0 2 .5 2.6 1.2V7.9h-3.3v-.3h.4V5.3h-.4v-.5l.6-.3-.4-.8-1.1.5v1.1h-.4v2.3h.4v.3H11l-1-3.4V2.7H3v1.8h.2l-.6 2.6h-.5v2.4c.8-.6 1.8-1.1 2.9-1.1 2.4 0 4.4 2 4.4 4.4zm-.1-4.9H7.9v-.8H4.2l.6-2.6h3.6l.9 3.4z" fill="#036"/></svg>