<svg xmlns="http://www.w3.org/2000/svg" width="19" height="19" viewBox="0 0 19 19"><path d="M9.51.5L6.427.502c-1.438 0-2.495 1.154-2.495 2.412v8.905c0 1.218.954 2.217 1.91 2.371L2.97 18.501h1.658l2.053-3.012h5.632l2.054 3.012h1.66l-2.874-4.31c.96-.155 1.911-1.154 1.911-2.372V2.914c0-1.258-1.056-2.412-2.494-2.412L9.51.5zm-1.22.516h2.419a.41.41 0 0 1 .408.402v.708c0 .219-.18.406-.408.406H8.29a.41.41 0 0 1-.41-.406v-.708c0-.219.19-.402.41-.402zM6.51 3.013h5.98c.813 0 1.244.58 1.244 1.247v1.603c.006.77-.557 1.243-1.244 1.243H6.51c-.687 0-1.248-.473-1.241-1.243V4.26c-.002-.666.43-1.247 1.241-1.247zm-.135 7.69a1.094 1.094 0 1 1-.004 2.189 1.094 1.094 0 0 1 .004-2.189zm6.225 0a1.094 1.094 0 1 1-.002 2.19 1.094 1.094 0 0 1 .002-2.19z" fill="#036"/></svg>