<svg xmlns="http://www.w3.org/2000/svg" width="19" height="19" viewBox="0 0 19 19"><path d="M6.775 2.259c.109 0 .22-.03.319-.093.404-.256 1.058-.401 1.756-.451v2.872h1.194V1.721c.7.056 1.323.204 1.642.428a.597.597 0 1 0 .687-.976c-1.262-.891-4.525-.9-5.918-.017a.598.598 0 0 0 .32 1.103zm5.081 3.015H7.144a2.389 2.389 0 0 0-2.389 2.389v5.87a2.389 2.389 0 0 0 2.389 2.389h4.713a2.389 2.389 0 0 0 2.389-2.389v-5.87a2.39 2.39 0 0 0-2.39-2.389zm.156 2.777l-.507 3.075H7.27l-.478-3.075h5.22zm-4.787 6.317a.806.806 0 1 1 0-1.613.806.806 0 0 1 0 1.613zm4.354 0a.807.807 0 1 1 .002-1.614.807.807 0 0 1-.002 1.614zm-.929 2.221l1.828 1.911h1.457l-1.875-1.911h-1.41zM4.869 18.5h1.457l1.827-1.911H6.744L4.869 18.5z" fill="#036"/></svg>