<svg xmlns="http://www.w3.org/2000/svg" width="19" height="19" viewBox="0 0 19 19"><path d="M9.5 3.6l-9 4.48 3.965 2.833a6.216 6.216 0 0 1 10.071 0L18.5 8.08l-9-4.48zm4.796 7.695s-1.713-2.472-4.804-2.472c-3.09 0-4.709 2.472-4.709 2.472v2.264l.008-.012a.567.567 0 0 0-.085.291c0 .862 2.164 1.562 4.833 1.562 2.67 0 4.834-.7 4.834-1.562a.555.555 0 0 0-.077-.275v-2.268zm-4.757 3.539c-2.756 0-4.191-.729-4.27-.988.079-.279 1.512-1.008 4.27-1.008 2.758 0 4.191.729 4.271.989-.081.278-1.515 1.007-4.271 1.007z" fill="#036"/></svg>