<svg xmlns="http://www.w3.org/2000/svg" width="19" height="19" viewBox="0 0 19 19"><path d="M7.16 11.063c.573.437 1.219 1.007 1.19 1.797.029.492.013.991.126 1.474.368.577.7 1.207.805 1.89.053.987-.691 1.915-1.609 2.21-.95.197-2.003-.047-2.7-.743-.461-.416-.8-1.035-1.449-1.186-.589-.158-1.221-.233-1.723-.612-.5-.32-.81-.842-1.091-1.348a1.973 1.973 0 0 1 .111-1.963c.534-.897 1.65-1.24 2.644-1.182.416.034.858.066 1.22-.193.46-.272.955-.665 1.525-.512.337.065.656.2.951.368zM2.273 6.67c.405-.384 1.032-.59 1.564-.36.381.166.695.473.907.825.343.716.294 1.553.1 2.304-.087.362-.217.726-.482.998a1.357 1.357 0 0 1-1.19.426c-.617.003-1.197-.391-1.453-.946-.156-.323-.252-.681-.224-1.043.023-.787.218-1.62.778-2.205zm6.291-.798s.753.453.596 1.666c0 0-.085.798-.756 1.7 0 0-.59.96-1.402 1.014 0 0-1.207.246-1.538-1.247 0 0-.227-1.046.215-2.072 0 0 .449-1.065 1.407-1.293 0 0 .804-.176 1.478.232zm3.844 2.568s.767.827.036 1.83c0 0-.455.884-1.422 1.36 0 0-1.081.656-1.82.356 0 0-.891-.213-.75-1.69 0 0 .387-1.538 1.513-2.061 0 0 1.48-.889 2.443.205zm.656 4.063c.357.392.413.997.186 1.47-.197.427-.533.775-.892 1.072a3.33 3.33 0 0 1-1.924.684c-.504-.018-.926-.388-1.137-.828-.1-.152-.111-.333-.089-.51.042-.6.343-1.18.836-1.531.443-.341.934-.668 1.497-.76.439-.09.937-.08 1.31.199.08.058.15.127.213.204zM14.512.5a.478.478 0 0 0-.184.92v8.897a.184.184 0 1 0 .369 0V1.419a.48.48 0 0 0 .294-.441.48.48 0 0 0-.479-.478zm.952.782c-.829-.197-.482 1.7-.346 1.759.387.167.965.096 1.196-.367.304.289 1.011.087 1.269-.374.376.043.84-.275.914-.563.076-.301-1.245-.029-3.033-.455zm-1.559 1.759c.139-.06.485-1.957-.345-1.759-1.789.426-3.109.154-3.032.455.074.289.536.606.911.563.26.461.968.663 1.271.374.23.463.809.534 1.195.367zm-1.009.327a.579.579 0 0 0-.317.529c0 .558.484.804 1.049.96-.223.132-.37.312-.37.582 0 .353.288.558.645.725-.281.161-.493.37-.493.684 0 .321.256.514.565.673-.229.158-.399.357-.399.645 0 .314.231.62.558.88-.485.386-.992.737-.925.737l.026-.001c.252-.028.582-.131.907-.282V8.335c-.044-.065-.075-.124-.075-.169 0-.049.031-.098.075-.145v-.968c-.134-.073-.242-.147-.242-.206 0-.091.099-.177.241-.259v-.854c-.209-.095-.393-.201-.393-.295 0-.115.166-.205.393-.278v-.684c-.617-.138-1.071-.281-1.071-.58 0-.049.015-.073.059-.096.157-.085.494-.04.692.093a.247.247 0 0 0 .34-.068.244.244 0 0 0-.068-.341c-.309-.206-.843-.306-1.197-.117zm3.231 0c-.354-.189-.888-.089-1.197.117a.248.248 0 0 0-.067.341.245.245 0 0 0 .34.068c.2-.133.535-.178.694-.093.042.022.057.047.057.096 0 .298-.453.442-1.07.58v.685c.226.073.393.163.393.278 0 .094-.183.2-.393.295v.854c.141.082.241.167.241.259 0 .059-.108.133-.241.206v.967c.043.047.076.096.076.145 0 .046-.032.104-.076.169v1.164c.326.151.653.254.906.282l.028.001c.064 0-.44-.351-.925-.737.326-.261.556-.566.556-.88 0-.288-.169-.487-.398-.645.309-.159.565-.352.565-.673 0-.313-.212-.522-.492-.684.356-.167.644-.372.644-.725 0-.27-.148-.45-.369-.582.562-.156 1.046-.402 1.046-.96a.583.583 0 0 0-.318-.528z" fill="#036"/></svg>