<svg xmlns="http://www.w3.org/2000/svg" width="19" height="19" viewBox="0 0 19 19"><ellipse transform="rotate(-44.984 9.545 14.084)" cx="9.544" cy="14.083" rx="2.104" ry="2.127" fill="#036"/><path d="M18.084 8.599a1.149 1.149 0 0 1-1.614-.168 8.804 8.804 0 0 0-.606-.668c-3.535-3.522-9.215-3.555-12.712-.07a8.774 8.774 0 0 0-.615.68 1.145 1.145 0 0 1-1.611.154 1.15 1.15 0 0 1-.174-1.613c.241-.294.497-.579.771-.852 4.381-4.381 11.52-4.34 15.951.088.27.27.525.551.763.839a1.144 1.144 0 0 1-.066 1.534c-.029.025-.057.052-.087.076z" fill="#036"/><path d="M14.834 11.868a1.154 1.154 0 0 1-1.598-.304 4.656 4.656 0 0 0-.53-.642c-1.771-1.762-4.61-1.778-6.358-.036-.23.229-.43.475-.597.734a1.134 1.134 0 0 1-1.581.335 1.153 1.153 0 0 1-.351-1.586c.254-.395.554-.77.898-1.113 2.637-2.636 6.932-2.61 9.598.053.304.302.571.626.805.968a1.142 1.142 0 0 1-.125 1.456c-.049.05-.103.096-.161.135z" fill="#036"/></svg>