<svg xmlns="http://www.w3.org/2000/svg" width="19" height="19" viewBox="0 0 19 19"><path d="M5.078 13.404c.392 0 .77-.09 1.105-.242a2.73 2.73 0 0 1 2.285 0c.336.152.716.242 1.11.242.392 0 .774-.09 1.106-.242.349-.16.738-.25 1.143-.25s.793.09 1.139.25c.34.152.717.242 1.111.242.108 0 .217-.027.326-.039.197-.047.396-.062.59-.139l.016-.006c.354-1.996 1.178-5.993 1.178-5.993s-2.863 1.184-5.939 2.468L8.619 5.823l1.641-.689-.422-1.008c-.548.23-1.096.458-1.644.69L7.38 2.875l-1.008.422.815 1.944c-.861.361-1.757.739-1.757.739l.422 1.007 1.759-.74 1.627 3.871c-3.352 1.404-6.613 2.793-6.414 2.793.406 0 .798.09 1.138.25a2.72 2.72 0 0 0 1.116.243zm12.316.817c-.344-.16-.73-.25-1.143-.25-.405 0-.795.09-1.139.25a2.705 2.705 0 0 1-1.111.242c-.395 0-.769-.09-1.11-.242a2.704 2.704 0 0 0-1.139-.25c-.404 0-.794.09-1.144.25a2.674 2.674 0 0 1-1.105.242c-.396 0-.774-.09-1.111-.242a2.707 2.707 0 0 0-1.139-.25c-.41 0-.798.09-1.143.25a2.692 2.692 0 0 1-1.106.242c-.397 0-.774-.09-1.115-.242a2.702 2.702 0 0 0-2.276 0 2.724 2.724 0 0 1-1.112.242v1.662c.393 0 .774-.088 1.112-.238a2.735 2.735 0 0 1 1.137-.254c.405 0 .798.096 1.139.254a2.715 2.715 0 0 0 2.221 0 2.738 2.738 0 0 1 1.143-.254c.404 0 .793.096 1.139.254a2.7 2.7 0 0 0 2.216 0c.35-.158.739-.254 1.144-.254.405 0 .795.096 1.139.254.342.15.716.238 1.11.238.396 0 .774-.088 1.111-.238.344-.158.73-.254 1.139-.254.409 0 .799.096 1.143.254.338.15.711.238 1.106.238v-1.662c-.396 0-.769-.09-1.106-.242z" fill="#036"/></svg>