<svg version="1.1" xmlns="http://www.w3.org/2000/svg" xmlns:xlink="http://www.w3.org/1999/xlink" overflow="visible" preserveAspectRatio="none" viewBox="0 0 102 102" height="57" width="57"><g transform="translate(1, 1)"><title>AreaChart_mini</title><desc>Created with Sketch.</desc><g fill-rule="evenodd" fill="none" stroke-width="1" stroke="none" id="AreaChart_mini">
        <polygon points="13.4615385 64.8076923 29.8076923 38.4615385 48.2576923 46.6942308 67.8788462 40.6807692 86.5384615 25 86.5384615 82.6923077 13.4615385 82.6923077" fill="#C6CBDE" id="Path" vector-effect="non-scaling-stroke"/>
        <path fill="#142E7B" id="Path" d="M67.4096154,35.9711538 L85.9192308,20.4173077 C86.3269231,20.0769231 86.9326923,20.1288462 87.275,20.5346154 C87.6153846,20.9423077 87.5634615,21.5480769 87.1576923,21.8903846 L68.4980769,37.5692308 C68.3980769,37.6538462 68.2846154,37.7153846 68.1615385,37.7538462 L48.5403846,43.7673077 C48.3153846,43.8365385 48.075,43.8211538 47.8615385,43.725 L29.0980769,35.2307692 L10.4269231,64.5019231 C10.1403846,64.95 9.54615385,65.0807692 9.09807692,64.7961538 C8.65,64.5096154 8.51923077,63.9153846 8.80384615,63.4673077 L27.925,33.4942308 C28.1826923,33.0903846 28.6961538,32.9384615 29.1326923,33.1346154 L48.3230769,41.8230769 L67.4096154,35.9711538 Z" vector-effect="non-scaling-stroke"/>
        <path fill="#6C7AAA" id="Path" d="M8.65384615,82.6923077 L8.65384615,53.8461538 C8.65384615,53.3153846 9.08461538,52.8846154 9.61538462,52.8846154 C10.1461538,52.8846154 10.5769231,53.3153846 10.5769231,53.8461538 L10.5769231,81.7307692 L90.3846154,81.7307692 C90.9153846,81.7307692 91.3461538,82.1615385 91.3461538,82.6923077 C91.3461538,83.2230769 90.9153846,83.6538462 90.3846154,83.6538462 L9.61538462,83.6538462 L9.55384615,83.6519231 L9.49230769,83.6461538 L9.43846154,83.6384615 L9.38653846,83.6269231 L9.35769231,83.6192308 L9.34615385,83.6153846 C8.94807692,83.5 8.65576923,83.1326923 8.65384615,82.6980769 L8.65384615,82.6923077 L8.65384615,82.6923077 Z" vector-effect="non-scaling-stroke"/>
    </g></g></svg>