<svg version="1.1" xmlns="http://www.w3.org/2000/svg" xmlns:xlink="http://www.w3.org/1999/xlink" overflow="visible" preserveAspectRatio="none" viewBox="0 0 102 102" height="57" width="57"><g transform="translate(1, 1)"><title>Artboard</title><desc>Created with Sketch.</desc><g fill-rule="evenodd" fill="none" stroke-width="1" stroke="none" id="Artboard">
        <path fill="#C6CBDE" id="Shape" d="M85.5769231,78.4230769 C85.5769231,77.5961538 84.9038462,76.9230769 84.0769231,76.9230769 L10.5769231,76.9230769 L10.5769231,84.6153846 L84.0769231,84.6153846 C84.9038462,84.6153846 85.5769231,83.9423077 85.5769231,83.1153846 L85.5769231,78.4230769 Z M66.3461538,59.1923077 C66.3461538,58.3653846 65.6730769,57.6923077 64.8461538,57.6923077 L10.5769231,57.6923077 L10.5769231,65.3846154 L64.8461538,65.3846154 C65.6730769,65.3846154 66.3461538,64.7115385 66.3461538,63.8846154 L66.3461538,59.1923077 L66.3461538,59.1923077 Z M72.1153846,39.9615385 C72.1153846,39.1346154 71.4423077,38.4615385 70.6153846,38.4615385 L10.5769231,38.4615385 L10.5769231,46.1538462 L70.6153846,46.1538462 C71.4423077,46.1538462 72.1153846,45.4807692 72.1153846,44.6538462 L72.1153846,39.9615385 L72.1153846,39.9615385 Z M52.8846154,20.7307692 C52.8846154,19.9038462 52.2115385,19.2307692 51.3846154,19.2307692 L10.5769231,19.2307692 L10.5769231,26.9230769 L51.3846154,26.9230769 C52.2115385,26.9230769 52.8846154,26.25 52.8846154,25.4230769 L52.8846154,20.7307692 L52.8846154,20.7307692 Z" vector-effect="non-scaling-stroke"/>
        <path fill="#142E7B" id="Shape" d="M90.3846154,74.5769231 C90.3846154,73.2192308 89.2807692,72.1153846 87.9230769,72.1153846 L10.5769231,72.1153846 C10.0461538,72.1153846 9.61538462,72.5461538 9.61538462,73.0769231 L9.61538462,84.6153846 C9.61538462,85.1461538 10.0461538,85.5769231 10.5769231,85.5769231 L87.9230769,85.5769231 C89.2807692,85.5769231 90.3846154,84.4730769 90.3846154,83.1153846 C90.3846154,83.1153846 90.3846154,74.5769231 90.3846154,74.5769231 Z M11.5384615,74.0384615 L11.5384615,83.6538462 L87.9230769,83.6538462 C88.2211538,83.6538462 88.4615385,83.4134615 88.4615385,83.1153846 L88.4615385,74.5769231 C88.4615385,74.2788462 88.2211538,74.0384615 87.9230769,74.0384615 L11.5384615,74.0384615 Z M71.1538462,55.3461538 C71.1538462,53.9884615 70.05,52.8846154 68.6923077,52.8846154 L10.5769231,52.8846154 C10.0461538,52.8846154 9.61538462,53.3153846 9.61538462,53.8461538 L9.61538462,65.3846154 C9.61538462,65.9153846 10.0461538,66.3461538 10.5769231,66.3461538 L68.6923077,66.3461538 C70.05,66.3461538 71.1538462,65.2423077 71.1538462,63.8846154 C71.1538462,63.8846154 71.1538462,55.3461538 71.1538462,55.3461538 L71.1538462,55.3461538 Z M11.5384615,54.8076923 L11.5384615,64.4230769 L68.6923077,64.4230769 C68.9903846,64.4230769 69.2307692,64.1826923 69.2307692,63.8846154 L69.2307692,55.3461538 C69.2307692,55.0480769 68.9903846,54.8076923 68.6923077,54.8076923 L11.5384615,54.8076923 L11.5384615,54.8076923 Z M76.9230769,36.1153846 C76.9230769,34.7576923 75.8192308,33.6538462 74.4615385,33.6538462 L10.5769231,33.6538462 C10.0461538,33.6538462 9.61538462,34.0846154 9.61538462,34.6153846 L9.61538462,46.1538462 C9.61538462,46.6846154 10.0461538,47.1153846 10.5769231,47.1153846 L74.4615385,47.1153846 C75.8192308,47.1153846 76.9230769,46.0115385 76.9230769,44.6538462 C76.9230769,44.6538462 76.9230769,36.1153846 76.9230769,36.1153846 L76.9230769,36.1153846 Z M11.5384615,35.5769231 L11.5384615,45.1923077 L74.4615385,45.1923077 C74.7596154,45.1923077 75,44.9519231 75,44.6538462 L75,36.1153846 C75,35.8173077 74.7596154,35.5769231 74.4615385,35.5769231 L11.5384615,35.5769231 L11.5384615,35.5769231 Z M57.6923077,16.8846154 C57.6923077,15.5269231 56.5884615,14.4230769 55.2307692,14.4230769 L10.5769231,14.4230769 C10.0461538,14.4230769 9.61538462,14.8538462 9.61538462,15.3846154 L9.61538462,26.9230769 C9.61538462,27.4538462 10.0461538,27.8846154 10.5769231,27.8846154 L55.2307692,27.8846154 C56.5884615,27.8846154 57.6923077,26.7807692 57.6923077,25.4230769 C57.6923077,25.4230769 57.6923077,16.8846154 57.6923077,16.8846154 L57.6923077,16.8846154 Z M11.5384615,25.9615385 L55.2307692,25.9615385 C55.5288462,25.9615385 55.7692308,25.7211538 55.7692308,25.4230769 L55.7692308,16.8846154 C55.7692308,16.5865385 55.5288462,16.3461538 55.2307692,16.3461538 L11.5384615,16.3461538 L11.5384615,25.9615385 L11.5384615,25.9615385 Z" vector-effect="non-scaling-stroke"/>
        <path fill="#6C7AAA" id="Path" d="M11.5384615,89.4230769 L11.5384615,10.5769231 C11.5384615,10.0461538 11.1076923,9.61538462 10.5769231,9.61538462 C10.0461538,9.61538462 9.61538462,10.0461538 9.61538462,10.5769231 L9.61538462,89.4230769 C9.61538462,89.9538462 10.0461538,90.3846154 10.5769231,90.3846154 C11.1076923,90.3846154 11.5384615,89.9538462 11.5384615,89.4230769 Z" vector-effect="non-scaling-stroke"/>
    </g></g></svg>