<svg version="1.1" xmlns="http://www.w3.org/2000/svg" xmlns:xlink="http://www.w3.org/1999/xlink" overflow="visible" preserveAspectRatio="none" viewBox="0 0 102 102" height="57" width="57"><g transform="translate(1, 1)"><title>ColumnChart_mini</title><desc>Created with Sketch.</desc><g fill-rule="evenodd" fill="none" stroke-width="1" stroke="none" id="ColumnChart_mini">
        <path fill="#C6CBDE" id="Shape" d="M59.1923077,35.5769231 C58.3653846,35.5769231 57.6923077,36.25 57.6923077,37.0769231 L57.6923077,81.7307692 L65.3846154,81.7307692 L65.3846154,37.0769231 C65.3846154,36.25 64.7115385,35.5769231 63.8846154,35.5769231 L59.1923077,35.5769231 L59.1923077,35.5769231 Z M78.4230769,22.1153846 C77.5961538,22.1153846 76.9230769,22.7884615 76.9230769,23.6153846 L76.9230769,81.7307692 L84.6153846,81.7307692 L84.6153846,23.6153846 C84.6153846,22.7884615 83.9423077,22.1153846 83.1153846,22.1153846 L78.4230769,22.1153846 Z M20.7307692,45.1923077 C19.9038462,45.1923077 19.2307692,45.8173077 19.2307692,46.5884615 L19.2307692,81.7307692 L26.9230769,81.7307692 L26.9230769,46.5884615 C26.9230769,45.8173077 26.25,45.1923077 25.4230769,45.1923077 L20.7307692,45.1923077 L20.7307692,45.1923077 Z M39.9615385,54.8076923 C39.1346154,54.8076923 38.4615385,55.4807692 38.4615385,56.3076923 L38.4615385,81.7307692 L46.1538462,81.7307692 L46.1538462,56.3076923 C46.1538462,55.4807692 45.4807692,54.8076923 44.6538462,54.8076923 L39.9615385,54.8076923 L39.9615385,54.8076923 Z" vector-effect="non-scaling-stroke"/>
        <path fill="#142E7B" id="Shape" d="M16.8846154,40.3846154 C15.5096154,40.3846154 14.4230769,41.4615385 14.4230769,42.75 L14.4230769,81.7307692 C14.4230769,82.2615385 14.8538462,82.6923077 15.3846154,82.6923077 L26.9230769,82.6923077 C27.4538462,82.6923077 27.8846154,82.2615385 27.8846154,81.7307692 L27.8846154,42.75 C27.8846154,41.4615385 26.7980769,40.3846154 25.4230769,40.3846154 L16.8846154,40.3846154 L16.8846154,40.3846154 Z M36.1153846,50 C34.7576923,50 33.6538462,51.1038462 33.6538462,52.4615385 L33.6538462,81.7307692 C33.6538462,82.2615385 34.0846154,82.6923077 34.6153846,82.6923077 L46.1538462,82.6923077 C46.6846154,82.6923077 47.1153846,82.2615385 47.1153846,81.7307692 L47.1153846,52.4615385 C47.1153846,51.1038462 46.0115385,50 44.6538462,50 L36.1153846,50 L36.1153846,50 Z M55.3461538,30.7692308 C53.9884615,30.7692308 52.8846154,31.8730769 52.8846154,33.2307692 C52.8846154,33.2307692 52.8846154,81.7307692 52.8846154,81.7307692 C52.8846154,82.2615385 53.3153846,82.6923077 53.8461538,82.6923077 L65.3846154,82.6923077 C65.9153846,82.6923077 66.3461538,82.2615385 66.3461538,81.7307692 L66.3461538,33.2307692 C66.3461538,31.8730769 65.2423077,30.7692308 63.8846154,30.7692308 C63.8846154,30.7692308 55.3461538,30.7692308 55.3461538,30.7692308 L55.3461538,30.7692308 Z M74.5769231,17.3076923 C73.2192308,17.3076923 72.1153846,18.4115385 72.1153846,19.7692308 L72.1153846,81.7307692 C72.1153846,82.2615385 72.5461538,82.6923077 73.0769231,82.6923077 L84.6153846,82.6923077 C85.1461538,82.6923077 85.5769231,82.2615385 85.5769231,81.7307692 L85.5769231,19.7692308 C85.5769231,18.4115385 84.4730769,17.3076923 83.1153846,17.3076923 C83.1153846,17.3076923 74.5769231,17.3076923 74.5769231,17.3076923 Z M25.9615385,80.7692308 L25.9615385,42.75 C25.9615385,42.4865385 25.7038462,42.3076923 25.4230769,42.3076923 L16.8846154,42.3076923 C16.6038462,42.3076923 16.3461538,42.4865385 16.3461538,42.75 L16.3461538,80.7692308 L25.9615385,80.7692308 L25.9615385,80.7692308 Z M45.1923077,80.7692308 L45.1923077,52.4615385 C45.1923077,52.1634615 44.9519231,51.9230769 44.6538462,51.9230769 L36.1153846,51.9230769 C35.8173077,51.9230769 35.5769231,52.1634615 35.5769231,52.4615385 L35.5769231,80.7692308 L45.1923077,80.7692308 L45.1923077,80.7692308 Z M64.4230769,80.7692308 L64.4230769,33.2307692 C64.4230769,32.9326923 64.1826923,32.6923077 63.8846154,32.6923077 L55.3461538,32.6923077 C55.0480769,32.6923077 54.8076923,32.9326923 54.8076923,33.2307692 L54.8076923,80.7692308 L64.4230769,80.7692308 Z M83.6538462,80.7692308 L83.6538462,19.7692308 C83.6538462,19.4711538 83.4134615,19.2307692 83.1153846,19.2307692 L74.5769231,19.2307692 C74.2788462,19.2307692 74.0384615,19.4711538 74.0384615,19.7692308 L74.0384615,80.7692308 L83.6538462,80.7692308 Z" vector-effect="non-scaling-stroke"/>
        <path fill="#6C7AAA" id="Path" d="M89.4230769,80.7692308 L10.5769231,80.7692308 C10.0461538,80.7692308 9.61538462,81.2 9.61538462,81.7307692 C9.61538462,82.2615385 10.0461538,82.6923077 10.5769231,82.6923077 L89.4230769,82.6923077 C89.9538462,82.6923077 90.3846154,82.2615385 90.3846154,81.7307692 C90.3846154,81.2 89.9538462,80.7692308 89.4230769,80.7692308 Z" vector-effect="non-scaling-stroke"/>
    </g></g></svg>