<svg version="1.1" xmlns="http://www.w3.org/2000/svg" xmlns:xlink="http://www.w3.org/1999/xlink" overflow="visible" preserveAspectRatio="none" viewBox="0 0 102 102" height="57" width="57"><g transform="translate(1, 1)"><title>Histogram_mini</title><desc>Created with Sketch.</desc><g fill-rule="evenodd" fill="none" stroke-width="1" stroke="none" id="Histogram_mini">
        <path fill="#C6CBDE" id="Shape" d="M38.4615385,42.0826923 C38.4615385,41.4115385 37.7788462,40.8653846 36.9403846,40.8653846 L32.2903846,40.8653846 C31.4519231,40.8653846 30.7692308,41.4115385 30.7692308,42.0826923 L30.7692308,79.3269231 L38.4615385,79.3269231 L38.4615385,42.0826923 Z M57.6923077,33.0615385 C57.6923077,32.0615385 57.0096154,31.25 56.1711538,31.25 L51.5211538,31.25 C50.6826923,31.25 50,32.0615385 50,33.0615385 L50,79.3269231 L57.6923077,79.3269231 L57.6923077,33.0615385 Z M76.9230769,23.1557692 C76.9230769,22.3173077 76.2403846,21.6346154 75.4019231,21.6346154 L70.7519231,21.6346154 C69.9134615,21.6346154 69.2307692,22.3173077 69.2307692,23.1557692 L69.2307692,79.3269231 L76.9230769,79.3269231 L76.9230769,23.1557692 L76.9230769,23.1557692 Z M19.2307692,52.1115385 C19.2307692,51.2115385 18.5480769,50.4807692 17.7096154,50.4807692 L13.0596154,50.4807692 C12.2211538,50.4807692 11.5384615,51.2115385 11.5384615,52.1115385 L11.5384615,79.3269231 L19.2307692,79.3269231 L19.2307692,52.1115385 Z" vector-effect="non-scaling-stroke"/>
        <path fill="#6C7AAA" id="Path" d="M1.92307692,80.2884615 L84.6153846,80.2884615 C85.1461538,80.2884615 85.5769231,79.8576923 85.5769231,79.3269231 C85.5769231,78.7961538 85.1461538,78.3653846 84.6153846,78.3653846 L1.92307692,78.3653846 C1.39230769,78.3653846 0.961538462,78.7961538 0.961538462,79.3269231 C0.961538462,79.8576923 1.39230769,80.2884615 1.92307692,80.2884615 Z" vector-effect="non-scaling-stroke"/>
        <polygon points="85.5769231 76.4423077 95.1923077 81.25 85.5769231 86.0576923" fill="#C6CBDE" id="Path" vector-effect="non-scaling-stroke"/>
        <path fill="#142E7B" id="Shape" d="M64.4230769,78.3653846 L64.4230769,19.3096154 C64.4230769,17.9403846 65.5365385,16.8269231 66.9057692,16.8269231 C66.9057692,16.8269231 75.4019231,16.8269231 75.4019231,16.8269231 C76.7711538,16.8269231 77.8846154,17.9403846 77.8846154,19.3096154 L77.8846154,78.3653846 L84.6153846,78.3653846 L84.6153846,72.5961538 C84.6153846,72.2634615 84.7884615,71.9538462 85.0711538,71.7788462 C85.3557692,71.6038462 85.7096154,71.5865385 86.0076923,71.7365385 L99.4692308,78.4673077 C99.7942308,78.6288462 100,78.9634615 100,79.3269231 C100,79.6903846 99.7942308,80.025 99.4692308,80.1865385 L86.0076923,86.9173077 C85.7096154,87.0673077 85.3557692,87.05 85.0711538,86.875 C84.7884615,86.7 84.6153846,86.3903846 84.6153846,86.0576923 L84.6153846,80.2884615 L7.11538462,80.2884615 C6.58461538,80.2884615 6.15384615,79.8576923 6.15384615,79.3269231 C6.15384615,78.9326923 6.39038462,78.5942308 6.73076923,78.4461538 L6.73076923,48.2519231 C6.73076923,46.8134615 7.85961538,45.6730769 9.21346154,45.6730769 C9.21346154,45.6730769 17.7096154,45.6730769 17.7096154,45.6730769 C19.0634615,45.6730769 20.1923077,46.8134615 20.1923077,48.2519231 L20.1923077,78.3653846 L25.9615385,78.3653846 L25.9615385,38.2596154 C25.9615385,37.1019231 27.025,36.0576923 28.4442308,36.0576923 C28.4442308,36.0576923 36.9403846,36.0576923 36.9403846,36.0576923 C38.3596154,36.0576923 39.4230769,37.1019231 39.4230769,38.2596154 L39.4230769,78.3653846 L45.1923077,78.3653846 L45.1923077,29.1903846 C45.1923077,27.6346154 46.35,26.4423077 47.675,26.4423077 L56.1711538,26.4423077 C57.4961538,26.4423077 58.6538462,27.6346154 58.6538462,29.1903846 L58.6538462,78.3653846 L64.4230769,78.3653846 L64.4230769,78.3653846 Z M86.5384615,84.5019231 L96.8884615,79.3269231 L86.5384615,74.1519231 L86.5384615,84.5019231 L86.5384615,84.5019231 Z M18.2692308,78.3653846 L18.2692308,48.2519231 C18.2692308,47.9057692 18.0346154,47.5961538 17.7096154,47.5961538 L9.21346154,47.5961538 C8.88846154,47.5961538 8.65384615,47.9057692 8.65384615,48.2519231 L8.65384615,78.3653846 L18.2692308,78.3653846 Z M37.5,78.3653846 L37.5,38.2596154 C37.5,38.2038462 37.4538462,38.1653846 37.4076923,38.1288462 C37.2884615,38.0307692 37.1211538,37.9807692 36.9403846,37.9807692 L28.4442308,37.9807692 C28.2634615,37.9807692 28.0961538,38.0307692 27.9769231,38.1288462 C27.9307692,38.1653846 27.8846154,38.2038462 27.8846154,38.2596154 L27.8846154,78.3653846 L37.5,78.3653846 L37.5,78.3653846 Z M56.7307692,78.3653846 L56.7307692,29.1903846 C56.7307692,28.7711538 56.5269231,28.3653846 56.1711538,28.3653846 C56.1711538,28.3653846 47.675,28.3653846 47.675,28.3653846 C47.3192308,28.3653846 47.1153846,28.7711538 47.1153846,29.1903846 L47.1153846,78.3653846 L56.7307692,78.3653846 Z M75.9615385,78.3653846 L75.9615385,19.3096154 C75.9615385,19.0019231 75.7096154,18.75 75.4019231,18.75 L66.9057692,18.75 C66.5980769,18.75 66.3461538,19.0019231 66.3461538,19.3096154 L66.3461538,78.3653846 L75.9615385,78.3653846 L75.9615385,78.3653846 Z" vector-effect="non-scaling-stroke"/>
    </g></g></svg>