<svg version="1.1" xmlns="http://www.w3.org/2000/svg" xmlns:xlink="http://www.w3.org/1999/xlink" overflow="visible" preserveAspectRatio="none" viewBox="0 0 102 102" height="57" width="57"><g transform="translate(1, 1)"><title>LineChart_mini</title><desc>Created with Sketch.</desc><g fill-rule="evenodd" fill="none" stroke-width="1" stroke="none" id="LineChart_mini">
        <polygon points="13.4615385 54.1211538 28.7346154 37.8576923 48.2576923 46.6942308 67.8788462 40.6807692 86.5384615 25 86.5384615 30.7692308 67.8788462 46.45 48.2576923 52.4634615 28.7346154 43.6269231 13.4615385 59.8903846" fill="#C6CBDE" id="Path" vector-effect="non-scaling-stroke"/>
        <path fill="#142E7B" id="Path" d="M67.4096154,35.9711538 L85.9192308,20.4173077 C86.3269231,20.0769231 86.9326923,20.1288462 87.275,20.5346154 C87.6153846,20.9423077 87.5634615,21.5480769 87.1576923,21.8903846 L68.4980769,37.5692308 C68.3980769,37.6538462 68.2846154,37.7153846 68.1615385,37.7538462 L48.5403846,43.7673077 C48.3153846,43.8365385 48.075,43.8211538 47.8615385,43.725 L28.9653846,35.1711538 L10.3153846,55.0288462 C9.95384615,55.4153846 9.34423077,55.4346154 8.95769231,55.0711538 C8.57115385,54.7076923 8.55192308,54.0980769 8.91538462,53.7115385 L28.0346154,33.3519231 C28.3153846,33.0538462 28.7576923,32.9653846 29.1326923,33.1346154 L48.3230769,41.8230769 L67.4096154,35.9711538 Z" vector-effect="non-scaling-stroke"/>
        <path fill="#6C7AAA" id="Path" d="M8.65384615,82.6923077 L8.65384615,44.2307692 C8.65384615,43.7 9.08461538,43.2692308 9.61538462,43.2692308 C10.1461538,43.2692308 10.5769231,43.7 10.5769231,44.2307692 L10.5769231,81.7307692 L90.3846154,81.7307692 C90.9153846,81.7307692 91.3461538,82.1615385 91.3461538,82.6923077 C91.3461538,83.2230769 90.9153846,83.6538462 90.3846154,83.6538462 L9.61538462,83.6538462 L9.55384615,83.6519231 L9.49230769,83.6461538 L9.43846154,83.6384615 L9.38653846,83.6269231 L9.36346154,83.6211538 C8.95576923,83.5096154 8.65384615,83.1365385 8.65384615,82.6942308 L8.65384615,82.6923077 L8.65384615,82.6923077 Z" vector-effect="non-scaling-stroke"/>
    </g></g></svg>