<svg version="1.1" xmlns="http://www.w3.org/2000/svg" xmlns:xlink="http://www.w3.org/1999/xlink" overflow="visible" preserveAspectRatio="none" viewBox="0 0 102 102" height="57" width="57"><g transform="translate(1, 1)"><title>PieChart_mini</title><desc>Created with Sketch.</desc><g fill-rule="evenodd" fill="none" stroke-width="1" stroke="none" id="PieChart_mini">
        <path fill="#C6CBDE" id="Shape" d="M47.1153846,18.9076923 L47.1153846,49.8634615 C47.1153846,50.6038462 47.4,51.3153846 47.9096154,51.8519231 L72.4403846,77.6288462 C66.3153846,82.6115385 58.5038462,85.5769231 50,85.5769231 C41.1596154,85.5769231 33.0692308,82.3461538 26.8442308,77.0019231 C21.5,70.7769231 18.2692308,62.6865385 18.2692308,53.8461538 C18.2692308,36.5115385 30.6942308,22.0557692 47.1153846,18.9076923 L47.1153846,18.9076923 Z M80.6634615,31.9596154 C83.7846154,37.2480769 85.5769231,43.4173077 85.5769231,50 C85.5769231,59.0153846 82.2173077,67.25 76.6807692,73.5211538 L57.9769231,53.8673077 L80.6634615,31.9596154 Z M56.7307692,18.3846154 C59.2692308,18.5961538 61.7788462,19.0653846 64.2173077,19.8076923 C67.2673077,20.7365385 70.175,22.0846154 72.8711538,23.7865385 L72.9442308,23.8326923 L56.7307692,39.4903846 L56.7307692,18.3846154 Z" vector-effect="non-scaling-stroke"/>
        <path fill="#142E7B" id="Shape" d="M48.0769231,14.5384615 C48.0769231,14.2711538 47.9653846,14.0153846 47.7673077,13.8326923 C47.5711538,13.65 47.3057692,13.5596154 47.0384615,13.5807692 C28.2538462,15.0923077 13.4615385,30.8326923 13.4615385,50 C13.4615385,70.1653846 29.8346154,86.5384615 50,86.5384615 C58.7326923,86.5384615 66.7557692,83.4923077 73.0461538,78.375 C73.2538462,78.2057692 73.3826923,77.9576923 73.4,77.6903846 C73.4153846,77.4230769 73.3211538,77.1596154 73.1365385,76.9653846 L48.6076923,51.1884615 C48.2673077,50.8307692 48.0769231,50.3576923 48.0769231,49.8634615 C48.0769231,49.8634615 48.0769231,14.5384615 48.0769231,14.5384615 L48.0769231,14.5384615 Z M46.1538462,15.5980769 C28.8557692,17.5115385 15.3846154,32.1961538 15.3846154,50 C15.3846154,69.1038462 30.8961538,84.6153846 50,84.6153846 C57.9,84.6153846 65.1846154,81.9846154 71.0153846,77.5269231 L47.2134615,52.5153846 C46.5326923,51.8 46.1538462,50.85 46.1538462,49.8634615 L46.1538462,15.5980769 Z M78.25,26.8365385 C78.0788462,26.6288462 77.8307692,26.5019231 77.5634615,26.4865385 C77.2942308,26.4711538 77.0326923,26.5692308 76.8384615,26.7557692 L53.4634615,49.3288462 C53.0826923,49.6961538 53.0711538,50.3 53.4346154,50.6826923 L75.8961538,74.2865385 C76.0807692,74.4807692 76.3384615,74.5884615 76.6076923,74.584715 C76.8769231,74.5807692 77.1307692,74.4634615 77.3096154,74.2615385 C83.05,67.8096154 86.5384615,59.3076923 86.5384615,50 C86.5384615,41.2076923 83.4269231,33.1384615 78.25,26.8365385 Z M77.4134615,28.8730769 L55.4865385,50.0480769 L76.5576923,72.1923077 C81.5865385,66.1826923 84.6153846,58.4423077 84.6153846,50 C84.6153846,42.0461538 81.9269231,34.7153846 77.4134615,28.8730769 Z M52.9615385,13.5807692 C52.6942308,13.5596154 52.4288462,13.65 52.2326923,13.8326923 C52.0346154,14.0153846 51.9230769,14.2711538 51.9230769,14.5384615 L51.9230769,43.2038462 C51.9230769,43.5903846 52.1538462,43.9384615 52.5096154,44.0884615 C52.8634615,44.2403846 53.275,44.1634615 53.5519231,43.8961538 L74.1653846,23.9903846 C74.3596154,23.8038462 74.4653846,23.5442308 74.4598396,23.275 C74.4538462,23.0076923 74.3346154,22.7538462 74.1346154,22.5769231 C68.3903846,17.5153846 61.0461538,14.2307692 52.9615385,13.5807692 L52.9615385,13.5807692 Z M53.8461538,15.5961538 L53.8461538,40.9384615 L72.0692308,23.3403846 C67.0057692,19.1423077 60.7288462,16.3596154 53.8461538,15.5961538 L53.8461538,15.5961538 Z" vector-effect="non-scaling-stroke"/>
    </g></g></svg>