<svg version="1.1" xmlns="http://www.w3.org/2000/svg" xmlns:xlink="http://www.w3.org/1999/xlink" overflow="visible" preserveAspectRatio="none" viewBox="0 0 102 102" height="57" width="57"><g transform="translate(1, 1)"><title>Radar_mini</title><desc>Created with Sketch.</desc><g fill-rule="evenodd" fill="none" stroke-width="1" stroke="none" id="Radar_mini">
        <polygon points="75.1634615 31.0230769 77.9884615 50.0961538 60.4403846 61.1057692 51.8115385 80.375 41.5846154 60.1288462 39.0365385 59.3961538 21.1153846 52.1615385 37.6134615 37.4788462 54.1365385 40.6153846" fill="#C6CBDE" id="Path" vector-effect="non-scaling-stroke"/>
        <path fill="#6C7AAA" id="Shape" d="M50.3673077,14.4961538 C50.1326923,14.3980769 49.8673077,14.3980769 49.6326923,14.4961538 L25.1557692,24.6346154 C24.9192308,24.7326923 24.7326923,24.9192308 24.6346154,25.1557692 L14.4961538,49.6326923 C14.3980769,49.8673077 14.3980769,50.1326923 14.4961538,50.3673077 L24.6346154,74.8442308 C24.7326923,75.0807692 24.9192308,75.2673077 25.1557692,75.3653846 L49.6326923,85.5038462 C49.8673077,85.6019231 50.1326923,85.6019231 50.3673077,85.5038462 L74.8442308,75.3653846 C75.0807692,75.2673077 75.2673077,75.0807692 75.3653846,74.8442308 L85.5038462,50.3673077 C85.6019231,50.1326923 85.6019231,49.8673077 85.5038462,49.6326923 L75.3653846,25.1557692 C75.2673077,24.9192308 75.0807692,24.7326923 74.8442308,24.6346154 L50.3673077,14.4961538 L50.3673077,14.4961538 Z M26.2596154,26.2596154 L16.425,50 L26.2596154,73.7403846 L50,83.575 L73.7403846,73.7403846 L83.575,50 L73.7403846,26.2596154 L50,16.425 L26.2596154,26.2596154 Z M50.3673077,26.0346154 C50.1326923,25.9365385 49.8673077,25.9365385 49.6326923,26.0346154 L33.3134615,32.7942308 C33.0788462,32.8923077 32.8923077,33.0788462 32.7942308,33.3134615 L26.0346154,49.6326923 C25.9365385,49.8673077 25.9365385,50.1326923 26.0346154,50.3673077 L32.7942308,66.6865385 C32.8923077,66.9211538 33.0788462,67.1076923 33.3134615,67.2057692 L49.6326923,73.9653846 C49.8673077,74.0634615 50.1326923,74.0634615 50.3673077,73.9653846 L66.6865385,67.2057692 C66.9211538,67.1076923 67.1076923,66.9211538 67.2057692,66.6865385 L73.9653846,50.3673077 C74.0634615,50.1326923 74.0634615,49.8673077 73.9653846,49.6326923 L67.2057692,33.3134615 C67.1076923,33.0788462 66.9211538,32.8923077 66.6865385,32.7942308 L50.3673077,26.0346154 Z M34.4173077,34.4173077 L27.9634615,50 L34.4173077,65.5826923 L50,72.0365385 L65.5826923,65.5826923 L72.0365385,50 L65.5826923,34.4173077 L50,27.9634615 L34.4173077,34.4173077 Z" vector-effect="non-scaling-stroke"/>
        <polygon points="75.1634615 31.0230769 77.9884615 50.0961538 60.4403846 61.1057692 51.8115385 80.375 41.5846154 60.1288462 39.0365385 59.3961538 21.1153846 52.1615385 37.6134615 37.4788462 54.1365385 40.6153846" fill="#C6CBDE" fill-opacity="0.65" id="Path" vector-effect="non-scaling-stroke"/>
        <path fill="#142E7B" id="Shape" d="M50.1692308,35.7673077 L73.9884615,24.9019231 C74.2634615,24.7769231 74.5807692,24.7865385 74.8461538,24.9307692 C75.1115385,25.075 75.2942308,25.3365385 75.3384615,25.6346154 L78.9403846,49.9557692 C78.9961538,50.3326923 78.8230769,50.7076923 78.5,50.9096154 L61.1980769,61.7653846 L51.0057692,84.525 C50.8480769,84.8769231 50.4961538,85.1 50.1115385,85.0943401 C49.725,85.0865385 49.3826923,84.85 49.2365385,84.4923077 L39.5980769,60.6596154 L15.1365385,50.7826923 C14.8269231,50.6596154 14.6057692,50.3846154 14.5480769,50.0557692 C14.4923077,49.7288462 14.6076923,49.3942308 14.8557692,49.1730769 L33.1269231,32.9153846 C33.35,32.7173077 33.6538462,32.6326923 33.9461538,32.6884615 L50.1692308,35.7673077 L50.1692308,35.7673077 Z M73.6230769,27.1826923 L50.6903846,37.6442308 C50.5096154,37.7269231 50.3057692,37.7519231 50.1115385,37.7153846 L34.0519231,34.6673077 L17.2923077,49.5807692 L40.6961538,59.0307692 C40.9384615,59.1269231 41.1307692,59.3192308 41.2269231,59.5615385 L50.1730769,81.6788462 L59.5634615,60.7134615 C59.6403846,60.5403846 59.7673077,60.3923077 59.9288462,60.2923077 L76.9461538,49.6153846 L73.6230769,27.1826923 Z" vector-effect="non-scaling-stroke"/>
    </g></g></svg>