<svg xmlns="http://www.w3.org/2000/svg" width="19" height="19" viewBox="0 0 19 19"><path d="M7.803 4.317c.41 0 .76-.145 1.05-.435.29-.29.436-.647.436-1.071 0-.411-.146-.761-.436-1.05s-.64-.435-1.05-.435a1.47 1.47 0 0 0-1.061.435c-.297.29-.445.64-.445 1.05 0 .424.148.781.445 1.071.299.29.652.435 1.061.435zm.997.933c-.014-.367-.233-.551-.657-.551H4.431a2.2 2.2 0 0 0-.254.084c-.268.1-.403.277-.403.531 0 .368.219.551.657.551h3.712c.467 0 .686-.204.657-.615zM13.551.797L13.297.5 9.012 4.763l.042.042c.057.113.1.24.128.382.015.141-.021.304-.106.487a.204.204 0 0 1-.042.106c-.199.298-.495.446-.891.446H6.107v5.47L4.94 17.509c-.042.226.001.434.128.625s.304.308.53.35c.226.043.435 0 .625-.127a.869.869 0 0 0 .371-.53l1.188-6.022h.552l1.188 6.022a.786.786 0 0 0 .35.53c.192.127.407.17.647.127a.806.806 0 0 0 .52-.35.727.727 0 0 0 .117-.625l-1.167-5.854V6.756l3.309 3.287.275-.296c1.104-1.216 1.654-2.708 1.654-4.475 0-1.753-.559-3.245-1.676-4.475zM9.67 4.699l3.373-3.394a5.894 5.894 0 0 1 1.42 3.394H9.67zm3.373 4.518L10.01 6.184v-.319h4.453a6.056 6.056 0 0 1-1.42 3.352z" fill="#036"/></svg>