<svg xmlns="http://www.w3.org/2000/svg" width="19" height="19" viewBox="0 0 19 19"><path d="M18.5 1.885V.5h-1.385c.11 1.775-2.888 1.814-2.77 0h-1.384c.109 1.775-2.889 1.814-2.77 0H8.808c.11 1.775-2.888 1.814-2.769 0H4.654c.095 1.79-2.864 1.79-2.769 0H.5v1.385c1.787-.104 1.787 2.87 0 2.769v1.385c1.787-.104 1.787 2.87 0 2.769v1.385c1.808-.125 1.776 2.88 0 2.77v1.384c1.808-.124 1.776 2.881 0 2.77V18.5h1.385c-.113-1.82 2.866-1.762 2.769 0h1.385c-.109-1.824 2.856-1.752 2.769 0h1.385c-.109-1.824 2.856-1.752 2.77 0h1.384c-.108-1.824 2.856-1.752 2.77 0H18.5v-1.385c-1.789.124-1.802-2.9 0-2.77v-1.384c-1.789.123-1.802-2.9 0-2.77V8.808c-1.799.134-1.799-2.903 0-2.769V4.654c-1.799.134-1.799-2.903 0-2.769zM15.73 15.73H3.265V3.269H15.73V15.73zM9.327 9.374a2.356 2.356 0 1 0 0-4.712 2.356 2.356 0 0 0 0 4.712zm4.004 3.383c0-1.815-1.734-2.854-3.877-2.854s-3.876 1.039-3.876 2.854v1.589h7.754v-1.589z" fill="#036"/></svg>