<svg xmlns="http://www.w3.org/2000/svg" width="19" height="19" viewBox="0 0 19 19"><path d="M6.196 18.5h1.873v-2.223a4.338 4.338 0 0 1-1.873-1.176V18.5zM9.341.5L1.897 5.412h15.107L9.341.5zm1.441 15.695V18.5h1.877v-3.656a4.295 4.295 0 0 1-1.877 1.351zM1.675 6.374v1.429h.581V18.5H4.13V7.803h2.066v1.468a4.26 4.26 0 0 1 1.873-1.174v-.294h2.713v.372a4.305 4.305 0 0 1 1.877 1.352V7.803h2.212V18.5h1.873V7.803h.581V6.374H1.675zm7.717 2.039a3.823 3.823 0 0 0-3.822 3.826 3.822 3.822 0 1 0 7.646 0 3.824 3.824 0 0 0-3.824-3.826zm1.21 5.717c-.21.176-.467.289-.767.344v.607h-.656v-.607a1.702 1.702 0 0 1-.791-.373c-.28-.242-.42-.518-.425-.826l.015-.165h.637v.063c.005.257.08.443.233.579.152.135.373.205.653.205.284 0 .503-.07.662-.205.148-.136.229-.319.229-.564 0-.2-.069-.354-.222-.474-.146-.121-.416-.231-.788-.318-.415-.099-.727-.25-.936-.447a1.01 1.01 0 0 1-.322-.76c0-.348.14-.645.403-.856a1.38 1.38 0 0 1 .651-.302V9.5h.655v.517c.293.044.541.15.732.304.259.221.4.521.414.899l.003.062h-.64l-.009-.054c-.033-.236-.108-.41-.235-.52-.122-.117-.304-.167-.542-.167-.252 0-.445.05-.582.167a.577.577 0 0 0-.207.472c0 .177.059.32.187.422.126.106.35.202.672.277.466.113.82.271 1.056.485.231.217.354.488.354.809.001.386-.147.706-.434.957z" fill="#036"/></svg>