<svg xmlns="http://www.w3.org/2000/svg" width="19" height="19" viewBox="0 0 19 19"><path d="M15.324 8.395c-.43 0-.84.086-1.213.242l-.105-.363c-.146-.508-.297-1.023-.422-1.444-.125-.415-.238-.67-.277-.854-.029-.144.152-.131.344-.291a.94.94 0 0 0 .305-.531.786.786 0 0 0-.092-.514c-.295-.45-.58-.441-.961-.441h-1.322l.002.811 1.271.002c.15 0 .229.213-.066.296-.129.036-.273.191-.322.382a.894.894 0 0 0 .059.559c.018.041.049.166.096.341l-5.767.028-.34-.833c.383-.087 1.264-.3 1.386-.415.145-.132 0-.331-.112-.331H4.782c.036.664.555.807.838.852l.333.812a.355.355 0 0 0-.089.108L4.858 8.678a3.18 3.18 0 0 0-4.359 2.947 3.18 3.18 0 0 0 3.176 3.177 3.181 3.181 0 0 0 3.161-2.866h.315c.105.323.35.592.669.744l-.154.357-.57.006a.222.222 0 0 0 .003.444h.002l1.279-.014c.122 0 .22-.101.218-.223a.22.22 0 0 0-.223-.219l-.363.003.11-.255c.094.02.191.029.292.029.727 0 1.318-.551 1.318-1.229 0-.141-.026-.273-.072-.398l3.582-2.431.098.342a3.17 3.17 0 0 0-1.191 2.48c0 1.751 1.424 3.177 3.176 3.177s3.176-1.426 3.176-3.177a3.183 3.183 0 0 0-3.177-3.177zM5.056 9.837c.431.333.737.817.84 1.374H4.317l.739-1.374zm-1.381 4.048a2.263 2.263 0 0 1-2.26-2.26 2.262 2.262 0 0 1 3.004-2.133L3.393 11.4a.363.363 0 0 0 .319.533h2.202a2.264 2.264 0 0 1-2.239 1.952zm3.483-2.674h-.332a3.188 3.188 0 0 0-1.331-2.189l.798-1.482 1.268 3.105a1.22 1.22 0 0 0-.403.566zm2.059-.604a1.528 1.528 0 0 0-.127-.082l.158-.366.572-.007a.221.221 0 0 0-.002-.442h-.002l-1.278.013a.221.221 0 0 0 .002.442h.002l.36-.003-.104.242a1.458 1.458 0 0 0-.418-.051L7.147 7.34l5.675-.029a114 114 0 0 1 .209.709l-3.814 2.587zm6.107 3.225a2.263 2.263 0 0 1-2.26-2.26c0-.571.213-1.094.562-1.491.037.127.072.239.1.332.041.131.061.205.096.288l.014.033.021.033c.016.022.158.431.551.766l.002.003.004.003c.279.232.521.316.676.363.16.051.383.024.488-.142.086-.12.01-.366-.148-.483a7.235 7.235 0 0 1-.471-.385c-.199-.179-.215-.313-.334-.522a8.087 8.087 0 0 1-.066-.211c-.039-.125-.088-.292-.146-.488-.014-.047-.027-.096-.043-.146a2.23 2.23 0 0 1 .955-.213 2.263 2.263 0 0 1 2.26 2.26 2.264 2.264 0 0 1-2.261 2.26z" fill="#036"/></svg>