<svg xmlns="http://www.w3.org/2000/svg" width="19" height="19" viewBox="0 0 19 19"><path d="M10.163.5c-.288 0-.571.015-.852.043a.856.856 0 0 0-.757.939.85.85 0 0 0 .928.765c.225-.024.451-.035.681-.035 3.669.007 6.637 3.008 6.644 6.718 0 .228-.011.45-.032.671a.853.853 0 0 0 .843.941.851.851 0 0 0 .843-.771c.026-.276.04-.558.04-.841C18.499 4.274 14.768.5 10.163.5zm0 3.359c-.36 0-.715.04-1.057.113a.855.855 0 0 0-.648 1.018.845.845 0 0 0 1.006.656c.226-.048.458-.075.7-.075 1.833.004 3.318 1.504 3.321 3.36 0 .212-.019.417-.056.617a.856.856 0 0 0 .834 1.013.85.85 0 0 0 .831-.698c.056-.303.085-.615.084-.932 0-2.802-2.244-5.072-5.015-5.072zm1.714 7.773l-1.021-2.654c-.204-.5-.612-.939-1.419-.939H4.064c-.807 0-1.226.439-1.42.939l-1.021 2.654C1.235 11.674.5 12.153.5 13.053v3.37h1.001v1.092c0 1.317 1.879 1.308 1.879 0v-1.092h6.74v1.092c0 1.308 1.879 1.317 1.879 0v-1.092H13v-3.37c0-.9-.735-1.379-1.123-1.421zM2.481 14.4a.886.886 0 0 1-.878-.89c0-.5.388-.897.878-.897.459 0 .848.397.848.897 0 .482-.388.89-.848.89zm.215-2.797l.756-2.083c.102-.296.245-.5.592-.511h5.412c.348.01.49.214.593.511l.756 2.083H2.696zm8.323 2.797c-.459 0-.848-.408-.848-.89 0-.5.389-.897.848-.897.49 0 .879.397.879.897a.888.888 0 0 1-.879.89z" fill="#036"/></svg>