<svg xmlns="http://www.w3.org/2000/svg" width="19" height="19" viewBox="0 0 19 19"><path d="M10.163.5c-.288 0-.571.015-.852.043a.856.856 0 0 0-.757.939.85.85 0 0 0 .928.765c.225-.024.451-.035.681-.035 3.669.007 6.637 3.008 6.644 6.718 0 .228-.011.45-.032.671a.853.853 0 0 0 .843.941.851.851 0 0 0 .843-.771c.026-.276.04-.558.04-.841C18.499 4.274 14.768.5 10.163.5zm0 3.359c-.36 0-.715.04-1.057.113a.855.855 0 0 0-.648 1.018.845.845 0 0 0 1.006.656c.226-.048.458-.075.7-.075 1.833.004 3.318 1.504 3.321 3.36 0 .212-.019.417-.056.617a.856.856 0 0 0 .834 1.013.85.85 0 0 0 .831-.698c.056-.303.085-.615.084-.932 0-2.802-2.244-5.072-5.015-5.072zM6.536 12.25H1.509c.133.436.417 1.139.59 1.426a.265.265 0 0 1 .035.172c-.011.078-.182 1.439-.259 1.824l-.003.002a7.955 7.955 0 0 0 4.27 2.826l-.002-.009.455-2.969a.263.263 0 0 1 .363-.204c.51.211 1.552.3 1.688.145.174-.29.323-.99.341-1.576h-1.23c-.417 0-.978-.77-1.221-1.637zm1.221-3.383h.917c-.465-1.08-1.913-2.363-3.873-2.363-2.318 0-3.438 1.768-3.566 3.161H6.82c.278-.47.656-.798.937-.798zm3.524-.498h-.44a.216.216 0 0 0-.153.063l-.736.855a.266.266 0 0 1-.214.11H7.771c-.076.027-.338.225-.557.654a.27.27 0 0 1-.237.145H.719a.22.22 0 0 0-.219.219v1.088a.22.22 0 0 0 .219.219h6.023c.125 0 .232.087.26.209.18.84.638 1.356.778 1.427h1.802c.077 0 .151.034.202.094l.898 1.057.005.004a.22.22 0 0 0 .153.064h.44c.12 0 .219-.1.219-.22V8.588a.218.218 0 0 0-.218-.219z" fill="#036"/></svg>