<svg xmlns="http://www.w3.org/2000/svg" width="19" height="19" viewBox="0 0 19 19"><g fill="#036"><path d="M10.163.5c-.288 0-.571.015-.852.043a.856.856 0 0 0-.757.939.85.85 0 0 0 .928.765c.225-.024.451-.035.681-.035 3.669.007 6.637 3.008 6.644 6.718 0 .228-.011.45-.032.671a.853.853 0 0 0 .843.941.851.851 0 0 0 .843-.771c.026-.276.04-.558.04-.841C18.499 4.274 14.768.5 10.163.5zm0 3.359c-.36 0-.715.04-1.057.113a.855.855 0 0 0-.648 1.018.845.845 0 0 0 1.006.656c.226-.048.458-.075.7-.075 1.833.004 3.318 1.504 3.321 3.36 0 .212-.019.417-.056.617a.856.856 0 0 0 .834 1.013.85.85 0 0 0 .831-.698c.056-.303.085-.615.084-.932 0-2.802-2.244-5.072-5.015-5.072z"/><path d="M2.05 10.498H.835c-.186 0-.335.193-.335.431v.243c0 .236.149.43.335.43H2.05c.186 0 .335-.193.335-.43v-.243c0-.238-.149-.431-.335-.431zm8.885-3.808l-.169-.172c-.167-.17-.41-.201-.542-.072l-.867.851c-.132.131-.103.374.063.542l.17.173c.166.169.409.202.541.071l.865-.852c.133-.129.105-.372-.061-.541zm-4.557.014h.243c.238 0 .431-.15.431-.336V5.154c0-.186-.192-.336-.431-.336h-.243c-.238 0-.431.15-.431.336v1.214c0 .186.193.336.431.336zM3.41 8.012l.169-.173c.166-.167.194-.411.062-.542l-.866-.852c-.132-.129-.374-.097-.54.073l-.17.172c-.167.169-.194.412-.063.541l.867.852c.132.131.374.098.541-.071zm4.478 7.972H5.104a.35.35 0 0 0-.35.35v.848c0 .193.157.35.35.35h.241c0 .008-.005.016-.005.023 0 .522.423.945.945.945h.422a.945.945 0 0 0 .945-.945c0-.008-.004-.016-.005-.023h.241a.35.35 0 0 0 .35-.35v-.848a.35.35 0 0 0-.35-.35zM6.499 7.495c-1.905 0-3.451 1.443-3.451 3.224 0 1.167 1.657 2.851 1.657 4.719h3.591c0-1.589 1.657-3.552 1.657-4.719-.001-1.781-1.546-3.224-3.454-3.224zm1.446 4.66c-.262.527-.551 1.106-.687 1.689H5.754c-.137-.689-.466-1.317-.743-1.847-.221-.421-.45-.856-.45-1.1 0-.999.87-1.81 1.938-1.81 1.069 0 1.939.812 1.939 1.81 0 .268-.262.794-.493 1.258zm4.22-1.657h-1.216c-.185 0-.336.193-.336.431v.243c0 .236.151.43.336.43h1.216c.186 0 .335-.193.335-.43v-.243c0-.238-.149-.431-.335-.431z"/></g></svg>