<svg version="1" xmlns="http://www.w3.org/2000/svg" width="19" height="19" viewBox="0 0 19 19"><path d="M10.2.5h-.9c-.5.1-.8.5-.7 1 0 .5.4.8.9.7h.7c3.7 0 6.6 3 6.6 6.7v.7c0 .5.3.9.8.9h.1c.4 0 .8-.3.8-.8v-.8c0-4.6-3.7-8.4-8.3-8.4zm0 3.4c-.4 0-.7 0-1.1.1-.5.1-.7.5-.6 1 .1.5.5.8 1 .7.2 0 .5-.1.7-.1 1.8 0 3.3 1.5 3.3 3.4 0 .2 0 .4-.1.6-.1.5.2.9.7 1h.2c.4 0 .8-.3.8-.7.1-.3.1-.6.1-.9 0-2.9-2.3-5.1-5-5.1zm-.9 7.7V7.4c0-.5-.4-.9-.9-.9H1.6c-.5 0-.9.4-.9.9v4.2c-.1.1-.2.2-.2.4v2.9c0 .2.1.3.2.4v2.4c0 .5.4.9.9.9h6.7c.5 0 .9-.4.9-.9v-2.4c.1-.1.2-.2.2-.4V12c.1-.2 0-.3-.1-.4zm-2 2.3H2.7v-1.1h4.7v1.1zm1.1-2.4H1.6V9.3h6.7v2.2zm-1.2-.6c.3 0 .5-.2.5-.5s-.2-.5-.5-.5-.5.2-.5.5.3.5.5.5zm-1.4 0c.3 0 .5-.2.5-.5s-.3-.5-.5-.5-.5.2-.5.5.2.5.5.5zm-1.5 0c.3 0 .5-.2.5-.5s-.2-.5-.5-.5-.5.2-.5.5.2.5.5.5zm-1.5 0c.3 0 .5-.2.5-.5s-.2-.5-.5-.5-.5.2-.5.5.2.5.5.5z" fill="#036"/></svg>