<svg xmlns="http://www.w3.org/2000/svg" width="19" height="19" viewBox="0 0 19 19"><path d="M17.252 5.03C15.811 2.328 12.538.727 12.378.671L11.881.5l-1.373 3.463 1.493 2.799c-.034.014-.071.014-.105.032L2.09 12.085a.965.965 0 1 0 .192 1.779v2.548H.724V18.5h3.773v-2.089H2.94v-2.603c.021-.01.042-.008.062-.02l5.122-2.765L5.589 18.5h.746l.207-.606.637.606h1.222l1.093-1.092 1.132 1.092h1.212l.302-.307.095.307h.741l-2.71-8.63 2.541-1.371c.032-.018.054-.047.083-.07l1.494 2.799 2.559.555V18.5h.72v-6.562l.363.078.136-.509c.042-.163.533-3.774-.91-6.477zM2.566 13.236a.39.39 0 1 1 0-.78.39.39 0 0 1 0 .78zm7.607-1.353l-.739.637-.812-.756.386-1.138h.773l.392 1.257zm-1.8.615l.52.484-.967.834.447-1.318zm-.581 5.607l-1-.949.601-1.772 1.591 1.532-1.192 1.189zm4.107-.677l-.664.674-1.24-1.194 1.33-1.327.574 1.847zm-2.414-1.012l-1.65-1.59 1.58-1.357 1.565 1.456-1.495 1.491zm1.269-2.668l-.799-.744.448-.383.351 1.127zm-1.471-4.83a.421.421 0 0 1 0 .844.423.423 0 0 1 0-.844zm3.231-3.537l-.793-1.486.788-1.987c.567.241 1.381.801 2.156 1.555l-2.151 1.918zm.534.999l2.367-2.112c.325.396.622.827.865 1.281.234.439.421.907.565 1.379l-3.083.794-.714-1.342zm1.25 2.343L17.105 8c.204 1.084.218 2.094.1 2.711l-2.088-.453-.819-1.535z" fill="#036"/></svg>