<svg xmlns="http://www.w3.org/2000/svg" width="19" height="19" viewBox="0 0 19 19"><g fill="#036"><path d="M12.59 1.183c-.002-.403-.364-.73-.815-.73-.381 0-.702.242-.78.582A2.968 2.968 0 0 1 9.938.794c-.33-.131-.671-.266-1.547-.31L5.488.458c-1.8.02-3.255 1.063-4.325 3.1-.01.019.254.106.258.098.359-.721 1.63-1.471 2.809-1.471.778 0 1.32.281 1.522.783.158.313.365.576.702.643l.009 5.082c-.3.032-.607.354-.613.659l-.16 8.371c-.005.256.06.455.194.592.223.229.581.231.793.232l1.534-.002c.245-.001.59-.104.809-.33a.776.776 0 0 0 .22-.586L9.01 9.35c-.008-.3-.315-.62-.614-.653l-.007-5.099c.45-.035.76-.226.972-.599.158-.278.411-.402.819-.402.176 0 .364.022.546.044.081.009.161.019.239.026v.211c.002.411.359.732.814.732.448 0 .812-.33.812-.733l-.001-1.694z"/><path d="M15 17.91V9.572c1-.426 1.609-1.378 1.611-2.484C16.609 5.979 16 5.028 15 4.602V7.1c0 .353-.096.9-.447.9h-.957C13.244 8 13 7.453 13 7.102v-2.5c-1 .426-1.611 1.377-1.611 2.484.002 1.11.611 2.059 1.611 2.487v8.337a.62.62 0 0 0 .616.637l.853-.002c.351 0 .531-.283.531-.635zm-.926-.107a.588.588 0 1 1 0-1.177.588.588 0 0 1 0 1.177z"/></g></svg>