<svg xmlns="http://www.w3.org/2000/svg" width="19" height="19" viewBox="0 0 19 19"><path d="M13.01 3.48c-.118-.595-.384-1.053-.741-1.28v-.504c.205.067.365.106.481.106a.652.652 0 0 0 0-1.302h-.01c-.147.006-.37.076-.701.194a.527.527 0 0 0-.602-.003C11.111.575 10.89.505 10.745.5h-.01a.652.652 0 0 0 0 1.302c.114 0 .27-.038.469-.103v.5c-.354.225-.619.677-.738 1.266l-1.223-.006h-.068c-1.215 0-1.931.482-2.319.891-.882.927-.826 2.186-.817 2.326l1.771-.118c-.001-.006-.019-.619.331-.986.221-.233.585-.347 1.079-.339l1.329.007c.219.673.652 1.102 1.188 1.102h.001c.53 0 .961-.423 1.181-1.088l3.124.018.011-1.774-3.044-.018zM6.984 8.451c-2.229 0-4.037.107-4.037.24 0 .006.004.011.01.017h-.01l1.26 9.609h.006c-.011.006-.017.012-.017.018 0 .092 1.248.166 2.788.166 1.541 0 2.789-.074 2.789-.166 0-.006-.006-.012-.017-.018l1.262-9.609h-.006c.006-.006.01-.011.01-.017 0-.133-1.807-.24-4.038-.24zm2.55 4.84H4.37l-.577-4.002c2.043.007 3.514.108 6.292-.056l-.551 4.058z" fill="#036"/></svg>