<svg xmlns="http://www.w3.org/2000/svg" width="19" height="19" viewBox="0 0 19 19"><path d="M6.263 3.392a.604.604 0 0 0 .094-.007l6.342-.874a.68.68 0 0 0 .581-.767.673.673 0 0 0-.768-.581l-.279.039c0-.007.004-.013.004-.021A.681.681 0 0 0 11.556.5h-4.11a.68.68 0 1 0 0 1.362h.002l-1.277.175a.68.68 0 0 0 .092 1.355zm0 1.864a.754.754 0 0 0 .094-.006l6.342-.875a.681.681 0 0 0 .581-.768.673.673 0 0 0-.768-.581l-6.341.875a.682.682 0 0 0 .092 1.355zm0 1.864a.754.754 0 0 0 .094-.006l6.342-.875a.68.68 0 0 0 .581-.767.67.67 0 0 0-.768-.581l-6.341.875a.68.68 0 0 0 .092 1.354zm0 1.865a.757.757 0 0 0 .094-.007l6.342-.875a.68.68 0 0 0 .581-.767.673.673 0 0 0-.768-.581l-6.341.875a.68.68 0 0 0 .092 1.355zm5.899 3.129h-.188l.035-1.015 1.123-1.375a.68.68 0 0 0-.621-1.105l-6.34.876a.68.68 0 0 0-.581.767.674.674 0 0 0 .767.581l4.626-.638-.173.21a.683.683 0 0 0-.152.407l-.044 1.27c0 .008.004.015.004.022H8.716v-.965l-1.361.224v.741h-.517c-.752 0-1.361.61-1.361 1.361v2.587c0 .751.609 1.36 1.361 1.36h1.238a1.396 1.396 0 0 0 2.717.001h1.369a1.36 1.36 0 0 0 1.361-1.36v-2.587c0-.751-.609-1.362-1.361-1.362z" fill="#036"/></svg>