<svg xmlns="http://www.w3.org/2000/svg" width="19" height="19" viewBox="0 0 19 19"><path d="M10.42 3.55c.369.368 1.178.515 1.693.515V1.759c-.516 0-1.324-.147-1.693-.515-.367-.368-.588-.516-1.693-.442v2.306c1.105-.074 1.326.074 1.693.442zm4.394 2.966c0-.976-.791-1.767-1.767-1.767H5.414c-.976 0-1.767.792-1.767 1.767v.324h11.167v-.324zm1.497.883H2.69c-.976 0-1.767.792-1.767 1.767v8.541c0 .178.034.348.083.51h16.988c.049-.162.082-.332.082-.51v-8.54c0-.976-.791-1.768-1.765-1.768zM4.383 16.014H2.911v-2.576h1.472v2.576zm0-3.903H2.911V9.535h1.472v2.576zm2.381 3.903H5.292v-2.576h1.473l-.001 2.576zm0-3.903H5.292V9.535h1.473l-.001 2.576zm2.381 3.903H7.672v-2.576h1.473v2.576zm0-3.903H7.672V9.535h1.473v2.576zm2.38 3.903h-1.474v-2.576h1.474v2.576zm0-3.903h-1.474V9.535h1.474v2.576zm2.381 3.903h-1.473v-2.576h1.473v2.576zm0-3.903h-1.473V9.535h1.473v2.576zm2.381 3.903h-1.473v-2.576h1.473v2.576zm0-3.903h-1.473V9.535h1.473v2.576z" fill="#036"/></svg>