<svg xmlns="http://www.w3.org/2000/svg" width="19" height="19" viewBox="0 0 19 19"><g fill="#036"><path d="M11.731 12.424L13.19 9.65l-2.748 1.472-.942-4.92-.945 4.92L5.81 9.65l1.458 2.774-2.904.886L9.5 16.2l5.136-2.89-2.905-.886zm-4.649.899l1.317-.442-.651-1.303 1.296.688.456-2.415.457 2.415 1.296-.688-.652 1.303 1.316.442L9.5 15.628l-2.418-2.305z"/><path d="M18.368 15.956L10.543 1.977a1.152 1.152 0 0 0-.985-.615h-.031c-.403 0-.779.211-.986.56L.664 15.901a1.147 1.147 0 0 0 .986 1.736h15.703c.402 0 .775-.21.983-.553a1.15 1.15 0 0 0 .032-1.128zm-16.719.534L9.526 2.511l7.825 13.979H1.649z"/></g></svg>