<svg xmlns="http://www.w3.org/2000/svg" width="19" height="19" viewBox="0 0 19 19"><path d="M15.415 6.993l.003-.157c0-2.366-1.525-4.392-3.688-5.232l-.134 1.773-.787-2.759A.175.175 0 0 0 10.644.5H8.356a.176.176 0 0 0-.165.117l-.787 2.759-.133-1.772c-2.163.84-3.688 2.866-3.688 5.232l.002.157C1.71 7.867.525 9.149.525 10.577c0 1.729 1.733 3.243 4.327 4.079.721 1.381 2.29 3.844 4.681 3.844 2.374 0 4.139-2.744 4.704-3.873 2.545-.842 4.238-2.34 4.238-4.05 0-1.429-1.184-2.711-3.06-3.584zM8.409 3.958c.74 0 1.055-.282 1.057-.285A.036.036 0 0 1 9.5 3.65c.015 0 .028.01.034.023.001.003.314.285 1.057.285.021 0 .037.017.037.037l-.187 1.264c-.062.505-.889.912-.926.929a.04.04 0 0 1-.03 0c-.038-.017-.847-.4-.926-.929l-.187-1.264c0-.02.016-.037.037-.037zm5.267 7.671c0 1.678-1.71 5.49-4.044 5.49-2.334 0-4.241-3.648-4.241-5.457 0-1.217.024-2.259.024-2.259 1.052-.46 2.54-.601 4.085-.601s3.156.233 4.176.726v2.101z" fill="#036"/></svg>