<svg xmlns="http://www.w3.org/2000/svg" width="19" height="19" viewBox="0 0 19 19"><path d="M9.337.5c-1.673 0-.302 2.856 0 3.694.302-.838 1.67-3.694 0-3.694zm-.689 3.878C8.492 3.503 8.25.342 6.802 1.179c-1.447.837 1.168 2.627 1.846 3.199zm-.502.502c-.573-.679-2.362-3.293-3.2-1.846-.836 1.448 2.325 1.69 3.2 1.846zm-.183.688c-.838-.301-3.695-1.674-3.695 0 0 1.675 2.857.302 3.695 0zm.183.687c-.875.156-4.036.4-3.2 1.852.839 1.445 2.628-1.171 3.2-1.852zM6.802 9.96c1.448.837 1.69-2.322 1.846-3.2-.678.571-3.293 2.363-1.846 3.2zm2.535-3.017c-.302.834-1.673 3.695 0 3.695 1.67.001.302-2.861 0-3.695zM11.87 9.96c1.449-.837-1.166-2.629-1.845-3.201.159.879.396 4.038 1.845 3.201zm-1.342-3.705c.576.681 2.361 3.297 3.196 1.852.838-1.451-2.323-1.696-3.196-1.852zm.186-.687c.838.302 3.691 1.675 3.691 0 0-1.673-2.854-.3-3.691 0zm-.186-.688c.873-.156 4.033-.397 3.196-1.846-.834-1.447-2.62 1.168-3.196 1.846zm1.342-3.701c-1.449-.837-1.688 2.324-1.845 3.199.679-.572 3.294-2.361 1.845-3.199zm-2.533 3.32a1.07 1.07 0 1 0 0 2.14 1.07 1.07 0 0 0 1.066-1.071c0-.59-.476-1.069-1.066-1.069zm3.25 4.263l-.021.022c.134.237.191.466.146.675.55 1.076-.177 2.65-1.006 4.439-.669 1.443-1.391 3.024-1.606 4.644h.573c.218-1.517.907-3.025 1.547-4.405.933-2.01 1.791-3.91.783-5.24a1.13 1.13 0 0 1-.416-.135z" fill="#036"/></svg>