<svg xmlns="http://www.w3.org/2000/svg" width="19" height="19" viewBox="0 0 19 19"><path d="M1.509 7.894c.259.152.457.099.593-.159L4.384 3.81c.152-.258.099-.456-.159-.593l-.73-.434c-.259-.153-.457-.099-.594.159L.619 6.867c-.152.259-.098.457.16.593l.73.434zM16.821.843l-.936 4.245-1.598.661-1.393 3.902 1.324 2.99-.365 1.164-3.08.912-.183 1.369-4.906 1.211.046.82h11.979c.213 0 .392-.072.536-.217s.218-.322.218-.536V1.208L16.821.843zM7.442 3.558c.411 0 .769-.148 1.072-.445.305-.296.457-.658.457-1.083 0-.411-.152-.769-.457-1.073A1.46 1.46 0 0 0 7.442.5c-.426 0-.787.152-1.084.457s-.445.662-.445 1.072c0 .426.148.787.445 1.083.297.298.659.446 1.084.446zm-.296 8.649l.434 2.738c.061.457.335.723.822.799.334.046.627-.049.878-.285s.354-.521.308-.855l-.524-3.31a.92.92 0 0 0-.57-.73L6.118 9.491l1.507-2.624.753.958c.061.092.152.16.274.206l2.853.822a.56.56 0 0 0 .205.045.714.714 0 0 0 .547-.251.827.827 0 0 0 .229-.571c0-.38-.182-.631-.547-.753l-2.465-.73-1.871-2.26c-.26-.304-.624-.494-1.096-.57-.821-.121-1.438.168-1.849.867L2.581 8.213c-.137.229-.197.51-.182.844l.069 4.543-1.575 3.377a1.473 1.473 0 0 0-.114.342c-.046.289.015.544.182.765s.396.354.685.399c.486.076.829-.092 1.026-.502l1.734-3.697c.062-.137.092-.281.092-.433l-.023-2.808 2.671 1.164z" fill="#036"/></svg>