<svg xmlns="http://www.w3.org/2000/svg" width="19" height="19" viewBox="0 0 19 19"><path d="M5.55 2.739l.808.13a.216.216 0 0 0 .096.04l1.785.309a.233.233 0 0 0 .272-.223l.001-.007.001-.032a1.15 1.15 0 0 0-2.164-.537l-.715-.047a.132.132 0 0 0-.125.07l-.056.104a.127.127 0 0 0 0 .12c.019.04.054.066.097.073zm2.643.69l-1.928-.346a.109.109 0 0 0-.126.091A1.09 1.09 0 0 0 7.198 4.4h.021c.51 0 .945-.347 1.059-.844a.104.104 0 0 0-.085-.127zm10.263 12.257c-.702-.852-1.206-2.203-1.652-3.396a29.804 29.804 0 0 0-.426-1.104.194.194 0 0 0-.055-.074c-.891-.723-1.433-1.49-1.646-2.339.164-.025.325-.037.481-.037.955 0 1.769.458 2.419 1.36.035.048.09.078.149.078a.185.185 0 0 0 .152-.074l.509-.68a.19.19 0 0 0-.003-.232c-.577-.704-1.315-1.455-2.812-1.455-.404 0-.856.056-1.346.167-.562-.529-1.284-.776-2.258-.776-.174 0-.355.008-.546.024.508-.469.914-1.153.854-1.71-.029-.274-.188-.638-.776-.82l-.005-.002-2.219-.555-.006-.001c-.098-.025-.189-.049-.288-.049-.168 0-.331.068-.54.225-.116.088-.557.396-1.116.787-.577.405-1.27.891-1.858 1.309a14.61 14.61 0 0 0-1.077-.707 27.5 27.5 0 0 1-.52-.325l-.204-.838a.188.188 0 0 0-.359-.023l-.345.887C1.854 5.942.649 7.436.636 7.451c-.164.205-.182.507-.046.79.14.292.4.473.678.473a.66.66 0 0 0 .099-.007c.348-.053.684-.242 1.009-.425.339-.19.659-.371.938-.371.117 0 .221.033.319.1.361.25.781.781 1.099 1.386.25.48.549 1.219.621 2.1l-2.144 1.5a.052.052 0 0 0-.018.015c-.271.305-.37.564-.303.793.077.256.358.422.728.561-.516.792-1.056 1.53-1.653 1.993a.188.188 0 0 0 .038.32l1.109.496a.174.174 0 0 0 .077.018.187.187 0 0 0 .146-.072 49.647 49.647 0 0 0 1.716-2.334c.208.068.404.143.569.23l.006.002 1.368.621c.013.006.026.01.04.01a.109.109 0 0 0 .055-.018.096.096 0 0 0 .039-.088l-.11-1.034a.096.096 0 0 0-.038-.067l-1.115-.797c.372-.51.73-.971 1.106-1.373 1.423-.033 3.35-.324 4.686-1.5l.338.109c.425.473.913.766 1.438.982.024.068.05.139.074.211.527 1.504 1.409 4.023 1.095 4.895a.094.094 0 0 0 .088.127h.004l1.22-.041a.092.092 0 0 0 .074-.041.09.09 0 0 0 .011-.084c-.474-1.369-.622-2.768-.767-4.119l-.013-.125c1.021 1.008 1.788 2.82 2.322 4.078l.007.023a.187.187 0 0 0 .157.111.18.18 0 0 0 .174-.084l.593-.91a.182.182 0 0 0-.014-.219zM9.084 7.612l-1.998.448a6.063 6.063 0 0 0-.668-.878c.498-.269 1.065-.55 1.802-.853.537.248.968.334 1.425.369l-.561.914z" fill="#036"/></svg>