<svg xmlns="http://www.w3.org/2000/svg" width="19" height="19" viewBox="0 0 19 19"><path d="M6.846 15.617c-.234-.438-.477-.791-.745-1.234-.002-.015-.004-.027-.023-.023-.262.436-.488.843-.745 1.327-.223.42-.542.906-.582 1.421-.148 1.896 2.945 1.848 2.678-.093-.068-.494-.365-.991-.583-1.398zm6.616-7.78v.956c0 .004-.003.008-.005.008h-1.104a6.512 6.512 0 0 1-.987-.009 1.574 1.574 0 0 1-1.281-.955c-.179-.408-.182-.982-.165-1.591V2.695c0-.016.003-.028.006-.028h.997V.5H3.399c-.054.676-.008 1.452-.024 2.167h.955v5.59c0 1.424.206 2.545.745 3.448.062.104.508.8.606.792.021-.002.225-.276.279-.35.303-.407.546-.742.792-1.118-.372-.179-.72-.382-1.093-.559.813-1.019 1.629-2.16 2.445-3.099-.268.866-.508 1.759-.769 2.633.302.179.638.325.908.535-.433 1.011-.823 2.065-1.234 3.098.709.414 1.626.725 2.752.767h2.036c.265-.002.529-.003.791 0h.861c.007 0 .013.003.013.008v.949h2.166V7.837h-2.166z" fill="#036"/></svg>