<svg xmlns="http://www.w3.org/2000/svg" width="19" height="19" viewBox="0 0 19 19"><g fill="#036"><path d="M2.256 7.732a1.011 1.011 0 0 0 1.205.767l13.648-3.043a1.01 1.01 0 1 0-.439-1.971L3.022 6.526a1.01 1.01 0 0 0-.766 1.206zm15.59.888a.528.528 0 0 0-.371-.153h-1.914a.528.528 0 0 0-.525.524v6.299a.523.523 0 0 0 .525.524h1.914a.527.527 0 0 0 .371-.152.535.535 0 0 0 .154-.372V8.991a.532.532 0 0 0-.154-.371z"/><path d="M1.609 8.781c-.812-.97-.398-2.685.798-3.137l1.557-.359V3.839a.663.663 0 0 0-.191-.463.66.66 0 0 0-.462-.191H1.654c-.171 0-.342.07-.463.191S1 3.668 1 3.839V15.16c0 .172.07.343.191.463a.663.663 0 0 0 .463.191H3.31c.171 0 .341-.07.463-.191a.66.66 0 0 0 .191-.463V9.455c-.827.255-1.82.03-2.355-.674z"/></g></svg>