<svg xmlns="http://www.w3.org/2000/svg" width="19" height="19" viewBox="0 0 19 19"><path d="M15.432 11.593c-.371-.823-2.639-1.539-2.639-1.539-1.211-.426-1.22-.851-1.22-.851-2.376 4.686-4.183.013-4.183.013-.166.632-2.614 1.374-2.614 1.374-.715.275-1.017.688-1.017.688-1.057 1.568-1.182 5.06-1.182 5.06.014.797.358.881.358.881 2.433 1.085 6.248 1.278 6.248 1.278 3.919.082 6.771-1.113 6.771-1.113.414-.264.426-.469.426-.469.29-2.502-.948-5.322-.948-5.322z" fill="#036"/><path d="M12.438 5.32c.133-.399.575-1.951-.281-2.917 0 0-.4-.546-1.376-.837l-.456-.157c-.178-.13-.54-.438-.54-.779 0 0-.226.105-.36.298A.953.953 0 0 1 9.706.5s-.147.078-.285.243c-.106.06-.349.225-.431.522l.006-.021s-.05-.065-.186-.085c-.134-.02-.369.07-.369.07s-1.42.556-1.833 1.834c0 0-.243.58.077 2.277-.456-.215-.144.903-.144.903.047.298.172.428.248.482.182 1.508 1.481 3.069 2.656 3.069 1.354 0 2.639-1.641 2.839-3.069.077-.054.202-.185.248-.482 0 0 .288-1.036-.094-.923zM9.22 1.163l-.051-.018A.82.82 0 0 1 9.378.8a.91.91 0 0 0-.158.363z" fill="#036"/></svg>