<svg xmlns="http://www.w3.org/2000/svg" width="19" height="19" viewBox="0 0 19 19"><path d="M10.733 8.766h.213V7.424H9.922v-.689h-.738v.688H8.159v1.342h.215l-2.823 8.32H3.963V18.5h11.181v-1.414h-1.818l-2.593-8.32zm.242 3.257l-.834-.776.468-.4.366 1.176zM9.154 8.766h.806l.408 1.312-.771.664-.846-.79.403-1.186zm-.663 1.953l.543.506-1.009.869.466-1.375zm1.087 1.012l1.632 1.52-1.559 1.556-1.721-1.658 1.648-1.418zM6.33 17.086l.25-.737.775.737H6.33zm.512-1.507l.627-1.85 1.66 1.6-1.244 1.24-1.043-.99zm1.572 1.507l1.247-1.244 1.29 1.244H8.414zm1.77-1.767l1.387-1.385.6 1.928-.693.704-1.294-1.247zm1.818 1.767l.418-.424.132.424h-.55zM9.563 4.639c0-.507 1.247-2.354 1.247-2.862 0-.764-.564-1.266-1.245-1.273V.5l-.007.001L9.551.5v.003c-.681.008-1.246.51-1.246 1.273 0 .508 1.248 2.355 1.248 2.862h.01zm4.994-.242c-1.377-.963-3.617-.675-4.485 1.384.835-.374 1.25-.456 1.87-.249.618.207.864 1.064 1.158 1.511.292.446 1.439 1.052 2.13.373.584-.573.702-2.056-.673-3.019zM5.9 7.043c.293-.446.54-1.304 1.158-1.511.62-.207 1.035-.125 1.87.249C8.06 3.723 5.82 3.435 4.444 4.397c-1.376.963-1.258 2.446-.674 3.019.691.679 1.838.073 2.13-.373z" fill="#036"/></svg>