<svg version="1" xmlns="http://www.w3.org/2000/svg" width="19" height="19" viewBox="0 0 19 19"><path d="M15.4 11.6c-.4-.8-2.6-1.5-2.6-1.5-1.2-.4-1.2-.9-1.2-.9v-.7c.4-.6.7-1.3.8-1.9.1-.1.2-.2.3-.5 0 0 .3-1.1-.1-1 .1-.4.6-2-.3-3 0 0-.4-.6-1.4-.9l-.5-.2c-.3 0-.5-.1-.7-.2-.2 0-.5 0-.7.1 0 0-.1-.1-.2-.1s-.4.1-.4.1-1.5.6-1.9 1.9c0 0-.3.6.1 2.4-.5-.2-.2.9-.2.9 0 .3.2.4.3.5.1.7.4 1.3.8 1.9.1.3.1.4 0 .8-.2.6-2.6 1.4-2.6 1.4-.7.3-1 .7-1 .7-1.1 1.6-1.2 5.1-1.2 5.1 0 .8.4.9.4.9 2.4 1.1 6.2 1.3 6.2 1.3 3.9.1 6.8-1.1 6.8-1.1.4-.3.4-.5.4-.5.2-2.7-1.1-5.5-1.1-5.5z" fill="#036"/></svg>