<svg xmlns="http://www.w3.org/2000/svg" width="19" height="19" viewBox="0 0 19 19"><path d="M5.426 2.566c-.079-.021-.261-.045-.674-.045H3.428v1.756h1.34c.453 0 .773-.08.95-.237.174-.154.259-.371.259-.661 0-.21-.05-.384-.154-.531a.695.695 0 0 0-.397-.282zM8.276.737C8.125.581 7.897.5 7.601.5H1.414C.816.5.5.819.5 1.422v6.21c0 .288.075.508.222.657.148.149.37.226.66.226h6.236c.585 0 .882-.297.882-.882v-6.21c0-.302-.075-.532-.224-.686zM6.57 4.71c-.348.379-.941.563-1.814.563H3.428v2.196c0 .087-.07.157-.156.157h-.767a.157.157 0 0 1-.157-.157V1.681c0-.086.07-.157.157-.157h2.184c.397 0 .694.019.908.058.305.051.567.151.777.296.213.147.387.355.516.618.126.261.191.549.191.859 0 .531-.172.987-.511 1.355zm5.636 12.815a3.685 3.685 0 0 1-3.68-3.682c0-1.33.709-2.498 1.77-3.146V9.6a4.659 4.659 0 0 0-2.745 4.244 4.66 4.66 0 0 0 4.655 4.656 4.66 4.66 0 0 0 4.081-2.418l-.568-1.141a3.684 3.684 0 0 1-3.513 2.584zm6.232-1.396l-2.118-4.055a.542.542 0 0 0-.48-.291h-3.676v-1.682h2.627a.541.541 0 0 0 0-1.083h-2.627V7.61c.363-.193.613-.572.613-1.013a1.154 1.154 0 0 0-2.309 0c0 .441.251.819.613 1.013v4.714c0 .299.243.541.541.541h3.891l1.967 3.764a.54.54 0 1 0 .958-.5z" fill="#036"/></svg>