<svg xmlns="http://www.w3.org/2000/svg" width="19" height="19" viewBox="0 0 19 19"><path d="M15.905 2.682c-5.263 0-6.153-1.997-6.161-2.016A.266.266 0 0 0 9.503.5h-.006a.265.265 0 0 0-.24.162c-.009.021-.918 2.02-6.162 2.02a.263.263 0 0 0-.262.263v8.952c0 3.663 6.295 6.463 6.561 6.582a.26.26 0 0 0 .106.021.248.248 0 0 0 .104-.021c.27-.119 6.562-2.919 6.562-6.582V2.945a.26.26 0 0 0-.261-.263zm-3.624 10.53L9.5 11.275l-2.782 1.937.98-3.242L5 7.922l3.388-.069 1.112-3.2 1.113 3.199 3.387.07-2.699 2.048.98 3.242z" fill="#036"/></svg>