<svg xmlns="http://www.w3.org/2000/svg" width="19" height="19" viewBox="0 0 19 19"><path d="M10.713 18.171c.885-.383 1.298-.331 2.025.05.729.381 1.456.381 2.315-.057.858-.438 1.558-.188 1.945.046.324.197.648.275 1.135.275v-1.752c-.731.002-1.046-.247-1.046-.247-.756-.467-1.448-.374-2.4.121-.543.282-1.404.208-2.014-.11-.841-.438-1.316-.331-2.196.061-.683.304-1.298.304-1.978 0-.88-.393-1.334-.498-2.174-.061-.609.318-1.483.393-2.026.11-.952-.495-1.632-.588-2.389-.121 0 0-.326.247-1.045.247v1.752c.453 0 .808-.088 1.112-.275.387-.236 1.109-.484 1.968-.046.858.438 1.587.438 2.314.057.729-.381 1.132-.449 2.017-.066.86.437 1.709.397 2.437.016zM8.249.5v1.734H6.234v1.294H4.795v2.457l-.746.304c-.448.19-.635.591-.448 1.029l1.232 2.837v3.951c-.799-.001-1.479-.971-2.931-.161 0 0-.416.232-1.046.248v1.693c.492-.036.729-.115 1.102-.324.396-.222 1.12-.437 1.979.001.858.438 1.587.438 2.314.058.729-.381 1.362-.4 2.044-.058.858.438 1.532.443 2.398.011.698-.354 1.325-.334 2.054.047.728.381 1.456.381 2.314-.058.859-.438 1.579-.216 1.979-.001.351.189.598.288 1.103.324v-1.71c-.644-.015-1.046-.247-1.046-.247-1.486-.811-2.133.177-2.932.177v-3.951l1.233-2.837c.187-.438 0-.838-.448-1.029l-.746-.304V3.528h-1.439V2.234H10.75V.5H8.249zm-.951 2.762h4.404v1.275h1.438v.992L9.499 4.026 5.86 5.528v-.991h1.438V3.262z" fill="#036"/></svg>