<svg xmlns="http://www.w3.org/2000/svg" width="19" height="19" viewBox="0 0 19 19"><path d="M9.5.5a9 9 0 1 0 0 18 9 9 0 0 0 0-18zm0 17c-4.411 0-8-3.589-8-8s3.589-8 8-8 8 3.589 8 8-3.589 8-8 8zM6.943 7.561a1 1 0 1 0 0-2 1 1 0 0 0 0 2zm5.113 0a1 1 0 1 0 0-2 1 1 0 0 0 0 2zM9.5 10.564c-2.275 0-3.791 1.519-4.111 3.019a.5.5 0 0 0 .977.209c.237-1.106 1.39-2.228 3.134-2.228 1.852 0 2.885 1.286 3.027 2.2a.503.503 0 0 0 .571.417.502.502 0 0 0 .417-.571c-.233-1.497-1.799-3.046-4.015-3.046z" fill="#036"/></svg>