<svg xmlns="http://www.w3.org/2000/svg" width="19" height="19" viewBox="0 0 19 19"><path d="M9.5.5c-4.971 0-9 4.029-9 9s4.029 9 9 9 9-4.029 9-9-4.029-9-9-9zm2.706 4.83a1.059 1.059 0 1 1 0 2.117 1.059 1.059 0 0 1 0-2.117zm-5.413-.001a1.06 1.06 0 1 1 0 2.12 1.06 1.06 0 0 1 0-2.12zm6.518 9.144a.53.53 0 0 1-.605-.441c-.15-.968-1.244-2.329-3.205-2.329-1.847 0-3.067 1.187-3.318 2.358a.53.53 0 0 1-1.035-.222c.339-1.588 1.944-3.195 4.353-3.195 2.346 0 4.005 1.64 4.252 3.225a.532.532 0 0 1-.442.604z" fill="#036"/></svg>