<svg xmlns="http://www.w3.org/2000/svg" width="19" height="19" viewBox="0 0 19 19"><path d="M14.729 4.82S13.409.5 9.799.5h-.597C5.592.5 4.27 4.82 4.27 4.82L.764 14.835c0 .966 2.998 2.897 3.762 2.897 0 0 2.096.768 4.864.768 3.198 0 5.084-.768 5.084-.768.764 0 3.762-1.932 3.762-2.897L14.729 4.82zM3.797 16.792l-1.269-.813 1.636-4.201-.367 5.014zM7.988 1.414c.524-.38 2.553-.382 3.024 0 .401.325 0 .61 0 .61H7.988s-.351-.355 0-.61zm4.42 14.6a.554.554 0 0 1-.555.555H7.146a.555.555 0 0 1-.555-.555v-2.307c0-.307.249-.556.555-.556h4.708c.307 0 .555.249.555.556v2.307zm2.778.795l-.283-5.102 1.555 4.288-1.272.814zm-3.332-3.288H7.146a.187.187 0 0 0-.186.186v2.307c0 .104.084.186.186.186h4.708a.186.186 0 0 0 .186-.186v-2.307a.188.188 0 0 0-.186-.186z" fill="#036"/></svg>