<svg xmlns="http://www.w3.org/2000/svg" width="19" height="19" viewBox="0 0 19 19"><path d="M.5 2.723v13.555h18V2.723H.5zm9 8.099c-.729 0-1.323-.593-1.323-1.322S8.771 8.178 9.5 8.178s1.322.593 1.322 1.322-.593 1.322-1.322 1.322zM1.381 7.645h1.91v3.931h-1.91V7.645zm0 4.812h2.792V6.764H1.381v-3.16h7.678V7.34c-1.005.205-1.763 1.096-1.763 2.16s.758 1.955 1.763 2.16v3.735H1.381v-2.938zm16.237-.882h-1.91v-3.93h1.91v3.93zm-2.792-4.811v5.693h2.792v2.938H9.94V11.66c1.005-.205 1.763-1.096 1.763-2.16s-.758-1.955-1.763-2.159V3.604h7.678v3.159h-2.792z" fill="#036"/></svg>