<svg xmlns="http://www.w3.org/2000/svg" width="19" height="19" viewBox="0 0 19 19"><path d="M12.953 10.596c-1.091.28-2.099.342-3.02.678-1.435.522-2.745 1.919-4.746 1.664.753-.168 1.252-.778 1.911-1.171 1.201-.716 2.636-1.123 3.883-1.787 2.912-1.551 4.908-3.222 4.992-7.643-.004-.038-.01-.073-.062-.062-1.692.733-3.351 2.294-5.3 3.205-.869.406-1.933.852-2.712 1.418-.832.605-1.425 1.454-2.219 1.91-.741.427-1.847.653-2.896 1.048-.771.292-2.21.935-2.28 1.665-.089.922 1.332 1.779 2.157 1.849-.512.243-1.159.306-1.294.801-.158.578.274 1.385.555 1.664.427.428 1.491.782 2.28.863 1.941.199 2.903-.667 4.252-.925.655-.125 1.257-.161 1.806-.246.152-.023.325-.059.511-.101l.087-.022-.003.003c.618-.145 1.348-.354 1.852-.486l.001-.01.226-.047c.054-.014.103-.024.146-.033 3.067-.73 4.743-3.124 5.422-6.022-1.893.378-3.678 1.306-5.549 1.787zM2.6 14.91c-.028-.778.799-.945 1.541-1.048.799-.11 2.629-.072 2.772.616.343 1.63-4.259 1.935-4.313.432zm9.429-1.664c-.112.921-2.089 1.734-3.205 1.603-.868-.103-.906-.859-.309-1.541.436-.496 1.227-1.006 1.85-1.109.884-.147 1.785.046 1.664 1.047zm3.327-.247c-.734.404-2.333.547-2.403-.431-.079-1.111 2.373-2.818 3.637-2.034.117.977-.47 2.045-1.234 2.465z" fill="#036"/></svg>