<svg xmlns="http://www.w3.org/2000/svg" width="19" height="19" viewBox="0 0 19 19"><path d="M16.615 11.416c-.233-.054-.445-.301-.833-.287-.397.015-.958.37-1.5.37-.55-.012-1.167-.386-1.728-.386-.559.004-1.066.392-1.603.403-.546.002-1.09-.361-1.625-.369-.541-.014-1.056.322-1.562.318-.498-.01-.94-.368-1.436-.353-.508.021-1.065.413-1.562.437-.501.008-.954-.365-1.396-.369-.446-.008-.946.272-1.248.336-.301.057-.491.062-.562.018v1.041c.071.045.262.039.562-.018.302-.062.802-.344 1.248-.336.442.004.896.377 1.396.369.496-.02 1.054-.422 1.562-.436.495-.02.937.346 1.436.354.506.004 1.021-.33 1.562-.32.535.008 1.079.371 1.625.369.536-.012 1.044-.398 1.603-.402.561-.002 1.178.377 1.728.387.542 0 1.103-.355 1.5-.369.388-.018.6.233.833.285.229.049.405.057.54.016v-1.042c-.134.042-.31.034-.54-.016zm-7.122-.757c.44.043.858.468 1.385.471.525-.011 1.18-.502 1.754-.504.576.002 1.193.442 1.656.487.455.034.792-.051 1.046-.269l-1.97-4.335c.547-.204 1.021-.389 1.452-.554.426-.173.986-.228 1.096-.446.1-.224.124-.888-.479-.857-.615.037-2.501.804-3.131 1.071-.631.258-.516.287-.599.481-.081.189-.021.277.122.674.14.399.379.959.718 1.702l-4.306 2.297a2.339 2.339 0 0 1 1.256-.218zm5.278-2.277c0 .693.539 1.256 1.203 1.256.663 0 1.202-.562 1.202-1.256s-.539-1.256-1.202-1.256c-.664 0-1.203.562-1.203 1.256zM3.739 10.526c.564.196 1.084.342 1.594.436.398-.187.766-.281 1.115-.275.349.008.69.258.962.303.268.039.476.012.634-.074a71.95 71.95 0 0 0-3.326-1.29c-.958-.342-1.88-.755-2.345-.729-.463.026-.631.587-.401.869.229.272 1.199.551 1.767.76zm12.876 2.631c-.233-.051-.445-.303-.833-.285-.397.014-.958.369-1.5.369-.55-.012-1.167-.385-1.728-.385-.559.004-1.066.391-1.603.402-.546.002-1.09-.361-1.625-.369-.541-.014-1.056.322-1.562.318-.498-.01-.94-.367-1.436-.352-.508.02-1.065.412-1.562.436-.501.008-.954-.365-1.396-.369-.446-.008-.946.273-1.248.336-.301.062-.491.06-.562.016v1.042c.071.044.262.046.562-.016.302-.063.802-.344 1.248-.336.442.004.896.377 1.396.369.496-.023 1.054-.417 1.562-.437.495-.016.937.342 1.436.352.506.004 1.021-.332 1.562-.318.535.008 1.079.372 1.625.37.536-.012 1.044-.399 1.603-.403.561 0 1.178.374 1.728.386.542 0 1.103-.356 1.5-.37.388-.014.6.234.833.287.229.049.405.057.54.016v-1.041c-.134.037-.31.031-.54-.018z" fill="#036"/></svg>