<svg xmlns="http://www.w3.org/2000/svg" width="19" height="19" viewBox="0 0 19 19"><path d="M7.26 13.081a.44.44 0 0 0 .44-.44v-1.475h3.346v1.475a.44.44 0 0 0 .881 0V2.654c0-.673.657-1.273 1.175-1.273.333 0 .383.046.482.138.039.036.08.073.125.109a.44.44 0 1 0 .548-.69c-.027-.021-.051-.044-.075-.066C13.964.668 13.73.5 13.104.5c-.951 0-2.057.941-2.057 2.154v1.079H7.701V2.654c0-.673.657-1.273 1.175-1.273.333 0 .383.046.482.138.039.036.079.073.125.109a.44.44 0 0 0 .549-.69C10.004.917 9.98.894 9.957.872 9.736.668 9.502.5 8.876.5c-.951 0-2.056.941-2.056 2.154v9.987c0 .243.197.44.44.44zm.441-8.468h3.346v2.396H7.701V4.613zm0 3.277h3.346v2.395H7.701V7.89zm7.285 6.03c-.626 0-1.285.35-1.866.659-.369.196-.788.419-.987.419-.203 0-.623-.229-.994-.432-.584-.317-1.188-.646-1.773-.646-.573 0-1.194.32-1.795.63-.407.21-.868.448-1.102.448-.258 0-.807-.276-1.249-.498-.593-.299-1.154-.58-1.604-.58-.596 0-1.539.506-2.083.829v1.021a.425.425 0 0 0 .104-.048c.587-.383 1.589-.922 1.979-.922.242 0 .778.27 1.209.486.606.305 1.178.592 1.645.592.447 0 .961-.266 1.505-.546.484-.249 1.033-.532 1.392-.532.361 0 .887.287 1.352.54.508.276.988.538 1.416.538.419 0 .874-.242 1.4-.522.491-.26 1.047-.556 1.453-.556.598 0 1.807.62 2.428 1.011.018.01.035.015.054.023v-1.017c-.606-.338-1.711-.897-2.484-.897zM13.12 17.2c-.369.195-.788.418-.987.418-.203 0-.623-.229-.994-.431-.584-.318-1.188-.646-1.773-.646-.573 0-1.194.32-1.795.63-.407.21-.868.447-1.102.447-.258 0-.807-.275-1.249-.498-.593-.298-1.154-.579-1.604-.579-.596 0-1.539.505-2.083.829v1.021a.425.425 0 0 0 .104-.048c.587-.383 1.589-.922 1.979-.922.242 0 .778.27 1.209.485.605.306 1.177.594 1.643.594.447 0 .961-.266 1.505-.546.484-.249 1.033-.532 1.392-.532.361 0 .887.287 1.352.54.508.276.988.538 1.416.538.419 0 .874-.242 1.4-.522.491-.261 1.047-.556 1.453-.556.598 0 1.807.619 2.428 1.01.018.011.035.016.054.024v-1.017c-.604-.341-1.709-.898-2.481-.898-.627 0-1.286.35-1.867.659z" fill="#036"/></svg>