<svg xmlns="http://www.w3.org/2000/svg" width="19" height="19" viewBox="0 0 19 19"><path d="M18.5 9.997c0 .393-.143.739-.428 1.04l-.865.865a1.433 1.433 0 0 1-1.053.439c-.416 0-.762-.145-1.039-.439l-3.396-3.384v8.134c0 .398-.145.725-.434.977a1.556 1.556 0 0 1-1.045.375H8.76a1.55 1.55 0 0 1-1.045-.375 1.235 1.235 0 0 1-.435-.977V8.518l-3.396 3.384a1.364 1.364 0 0 1-1.039.439c-.417 0-.763-.145-1.04-.439l-.866-.865A1.42 1.42 0 0 1 .5 9.997c0-.408.146-.758.439-1.051L8.46 1.425c.27-.285.617-.428 1.04-.428.416 0 .766.143 1.051.428l7.521 7.521c.285.3.428.651.428 1.051z" fill="#036"/></svg>