<svg xmlns="http://www.w3.org/2000/svg" width="19" height="19" viewBox="0 0 19 19"><path d="M12.941 1.581l-.61.6a3.774 3.774 0 0 1 1.12 2.857 3.77 3.77 0 0 1-1.223 2.609l.6.611a4.625 4.625 0 0 0 1.479-3.181 4.611 4.611 0 0 0-1.366-3.496zM14.039.5l-.645.636a5.273 5.273 0 0 1-.12 7.573l.634.645a6.177 6.177 0 0 0 1.931-4.205A6.185 6.185 0 0 0 14.039.5zm-2.221 2.185l-.543.533a2.295 2.295 0 0 1-.085 3.372l.535.542a3.043 3.043 0 0 0 1.007-2.126 3.053 3.053 0 0 0-.914-2.321zm-5.149-.504l-.61-.6a4.615 4.615 0 0 0-1.366 3.496 4.633 4.633 0 0 0 1.478 3.181l.601-.611A3.765 3.765 0 0 1 5.55 5.038a3.777 3.777 0 0 1 1.119-2.857zM5.606 1.136L4.96.5a6.188 6.188 0 0 0-1.799 4.649 6.181 6.181 0 0 0 1.931 4.205l.635-.645a5.27 5.27 0 0 1-.121-7.573zM7.032 4.97a2.295 2.295 0 0 1 .692-1.752l-.541-.533a3.05 3.05 0 0 0 .093 4.447l.536-.542a2.285 2.285 0 0 1-.78-1.62zM5.925 18.5a17.84 17.84 0 0 0 1.183-1.975l2.394-2.215 2.403 2.222a17.1 17.1 0 0 0 1.183 1.968h1.153c-.012-.024-.018-.051-.034-.072-1.912-2.551-2.946-5.811-3.48-8.1-.545-2.337-.709-4.229-.741-4.889l.004-.175V5.23l-.001-.009c.246-.126.411-.351.417-.609v-.008c.001-.398-.387-.726-.866-.73-.486-.005-.883.316-.891.718-.004.245.139.466.361.6l-.001.021v.034c0 .043.002.107.006.193-.029.645-.194 2.55-.743 4.906-.532 2.287-1.569 5.548-3.48 8.099-.012.018-.016.037-.025.056h1.158zm5.373-3.26l-1.4-1.299.671-.619c.211.624.452 1.27.729 1.918zm-1.177-3.363l-.376-.35.228-.211c.047.184.097.372.148.561zm-.904-1.313c.108-.467.204-.917.285-1.347.08.423.174.87.281 1.333.032.132.066.269.099.41l-.373.346-.385-.354c.033-.133.065-.261.093-.388zm-.183.745l.237.219-.394.364c.057-.2.109-.393.157-.583zm-.332 1.186l.807-.746.792.732c.026.092.056.182.084.275a.012.012 0 0 0-.005.005l-.878.814-.879-.814-.003-.003c.029-.088.056-.177.082-.263zm-.264.827l.668.619-1.394 1.289c.277-.644.516-1.284.726-1.908z" fill="#036"/></svg>