<svg xmlns="http://www.w3.org/2000/svg" width="19" height="19" viewBox="0 0 19 19"><path d="M18.418 12.544a.528.528 0 0 0-.729-.162 14.81 14.81 0 0 1-1.171.672.173.173 0 0 0-.034-.124c-.6-.726-1.032-1.879-1.412-2.897-.126-.336-.245-.654-.363-.942a.16.16 0 0 0-.049-.063c-.76-.618-1.222-1.272-1.404-1.997.14-.021.279-.032.411-.032.816 0 1.51.39 2.065 1.162a.156.156 0 0 0 .128.066.163.163 0 0 0 .13-.064l.435-.58a.158.158 0 0 0-.005-.198c-.49-.601-1.121-1.243-2.397-1.243a5.29 5.29 0 0 0-1.15.143c-.479-.451-1.095-.663-1.928-.663-.29 0-.609.027-.955.08l-.01.002-3.205.716c-.686-1.083-1.507-1.589-2.3-2.077-.147-.091-.297-.183-.445-.278l-.174-.715a.16.16 0 0 0-.306-.02l-.295.757c-.946.527-1.975 1.802-1.986 1.814-.14.175-.155.434-.04.675.12.249.342.404.579.404a.472.472 0 0 0 .085-.007c.296-.045.583-.207.861-.362.29-.164.563-.317.8-.317.1 0 .189.028.272.085.565.392 1.418 1.656 1.479 3.143-.347.454-.685.998-1.013 1.524-.459.737-.931 1.496-1.448 2.049a14.757 14.757 0 0 1-1.523-.891.528.528 0 0 0-.586.877 15.994 15.994 0 0 0 8.906 2.69c3.063 0 6.041-.865 8.614-2.502a.524.524 0 0 0 .163-.725zM3.987 13.619c.419-.556.785-1.077 1.118-1.552.559-.796 1.044-1.486 1.569-2.05 1.216-.027 2.861-.276 4.002-1.278l.288.093c.646.718 1.466.952 2.334 1.198h.002c.985.651 1.729 2.26 2.251 3.479a14.993 14.993 0 0 1-5.91 1.208 14.985 14.985 0 0 1-5.654-1.098z" fill="#036"/></svg>