<svg xmlns="http://www.w3.org/2000/svg" width="19" height="19" viewBox="0 0 19 19"><path d="M8.489 4.314c.353.27.789.418 1.236.418.644 0 1.272-.302 1.682-.808.386-.477.54-1.087.426-1.679A2.126 2.126 0 0 0 9.571.508c-.869.06-1.609.675-1.851 1.544-.239.861.07 1.76.769 2.262zm6.858 11.489l-.014.001-3.437.029 2.79-2.068c.395-.292.593-.748.576-1.204l.003.002-.043-.344-1.147-4.91-.148-.582a2.36 2.36 0 0 0-2.871-1.704L7.185 6.056l-2.35-2.797a1.037 1.037 0 1 0-1.589 1.334l2.688 3.2a1.039 1.039 0 0 0 .859.368l2.585-.162.899 3.526.011.042.257 1.006c.004.015.012.026.016.04l.14.535-3.18 2.357a1.436 1.436 0 0 0-.493 1.646l-.001.05c.008.721.595 1.3 1.313 1.3h.015l7.007-.069a1.314 1.314 0 0 0-.015-2.629z" fill="#036"/></svg>