<svg xmlns="http://www.w3.org/2000/svg" width="19" height="19" viewBox="0 0 19 19"><g fill="#036"><path d="M17.079 5.817c-3.82-.613-4.198 2.54-4.198 2.538 3.136 1.073 4.198-2.538 4.198-2.538zm-.747 4.072c-1.726-1.724-3.534-.499-4.124-.061l.587-3.149s-1.182-.942-1.128 0c.218.553.306 2.105.342 3.134-.618-.452-2.398-1.627-4.099.076-2.228 2.231.589 7.738 2.924 7.738 1.045 0 1.256-.297 1.287-.344.029.047.24.344 1.284.344 2.337 0 5.155-5.507 2.927-7.738z"/><path d="M9.582 3.743V1.841l-1.07-.277-.425 1.695c-.108-.01-.201-.021-.327-.03-.95-.08-1.901 1.664-2.139 2.575l2.615-.377 1.981 2.2c.277-1.823.238-3.17-.635-3.884zM5.944 6.364c-.801 2.462-4.523 4.681-5.042 6.175-.591 1.703.061 3.803 1.526 4.517 1.292.629 3.667.587 4.965-.988-1.265-2.244-1.755-5.222-.14-6.839.704-.705 1.416-1.014 2.086-1.099.015-.208.032-.42.041-.598L8.054 6.059l-2.11.305z"/></g></svg>