<svg xmlns="http://www.w3.org/2000/svg" width="19" height="19" viewBox="0 0 19 19"><g fill="#036"><path d="M16.441 8.636a.032.032 0 0 0-.028-.022l-1.76-.198a5.79 5.79 0 0 0-.229-2.497 5.756 5.756 0 0 0-1.316-2.23l.803-.802a.033.033 0 0 0 .008-.034l-.359-1.158a.035.035 0 0 0-.027-.023.033.033 0 0 0-.033.013l-1.063 1.401a5.771 5.771 0 0 0-4.813-1.057L7.318.839 5.895.5l.752 1.84a5.795 5.795 0 0 0-3.285 3.641l-1.178-.336a.033.033 0 0 0-.034.009l-.838.877a.032.032 0 0 0-.007.035.035.035 0 0 0 .028.023l1.833.262a5.751 5.751 0 0 0 .213 2.588 5.77 5.77 0 0 0 1.244 2.153l-.896.864c-.009.01-.013.022-.009.035l.342 1.163c.003.013.014.021.026.024l.006.001a.032.032 0 0 0 .027-.014l1.152-1.468a5.765 5.765 0 0 0 4.937 1.128l.315 1.173a.035.035 0 0 0 .026.024l1.183.265.008.001c.01 0 .02-.004.026-.012a.034.034 0 0 0 .006-.036l-.712-1.684a5.753 5.753 0 0 0 2.99-2.719c.174-.337.312-.686.417-1.041l1.122.285.008.001c.01 0 .02-.004.026-.012l.81-.901a.028.028 0 0 0 .008-.033zM8.903 2.504c1.176 0 2.275.392 3.157 1.072L9.612 6.8a1.13 1.13 0 0 0-.828-.244L7.776 2.63a5.157 5.157 0 0 1 1.127-.126zm-2.021.412l1.53 3.745a1.12 1.12 0 0 0-.562.605L3.961 6.152a5.17 5.17 0 0 1 2.921-3.236zM5.07 11.161a5.198 5.198 0 0 1-1.098-1.91 5.13 5.13 0 0 1-.19-2.312l4.002.572c-.026.169-.013.343.041.511.037.117.092.225.161.32L5.07 11.161zm3.83 1.693a5.154 5.154 0 0 1-3.245-1.141l2.5-3.185a1.128 1.128 0 0 0 .838.278l1.054 3.918c-.377.086-.761.13-1.147.13zm4.598-2.801a5.135 5.135 0 0 1-2.679 2.431L9.245 8.756c.317-.102.559-.33.686-.612l3.934 1.001c-.093.31-.215.614-.367.908zm.536-1.707l-4.023-.453a1.127 1.127 0 0 0-.213-.902l2.87-2.865a5.175 5.175 0 0 1 1.162 1.981c.234.735.301 1.496.204 2.239z"/><path d="M17.44 14.291c-.258-.052-.499-.317-.925-.292-.437.025-1.045.432-1.642.446-.604.004-1.293-.391-1.91-.376-.615.02-1.165.459-1.754.487-.601.018-1.209-.367-1.797-.362-.597 0-1.153.385-1.711.394-.549.003-1.045-.378-1.589-.348-.56.036-1.161.483-1.708.523-.551.022-1.06-.377-1.546-.369-.491.004-1.035.327-1.364.404a2.21 2.21 0 0 1-.443.058v1.143c.11.005.254-.007.472-.054.329-.077.873-.4 1.363-.404.487-.008.996.391 1.547.368.546-.035 1.149-.493 1.707-.523.544-.034 1.042.355 1.59.351.558-.01 1.114-.392 1.711-.396.588-.006 1.196.38 1.796.362.591-.028 1.14-.468 1.754-.487.618-.017 1.308.383 1.912.379.598-.015 1.205-.422 1.642-.448.426-.03.667.24.925.291.187.035.332.037.46.021V14.31c-.133.02-.287.019-.49-.019zm.048 1.917c-.258-.05-.498-.321-.925-.292-.437.027-1.044.434-1.641.448-.604.002-1.295-.392-1.911-.377-.615.021-1.164.461-1.755.488-.601.018-1.209-.368-1.796-.361-.597-.001-1.153.383-1.711.393-.549.003-1.046-.379-1.59-.349-.558.036-1.159.485-1.707.524-.55.022-1.06-.376-1.547-.368-.491.004-1.034.326-1.363.404-.232.053-.381.06-.491.05v1.143c.107.018.266.012.52-.046.33-.078.873-.4 1.363-.404.487-.009.996.391 1.547.368.546-.04 1.149-.488 1.707-.523.544-.03 1.041.351 1.59.349.558-.01 1.114-.395 1.71-.394.588-.007 1.197.379 1.796.362.591-.028 1.141-.468 1.754-.488.617-.016 1.308.379 1.912.377.597-.015 1.204-.422 1.641-.448.426-.025.668.241.926.293.164.031.295.036.412.028v-1.152c-.123.01-.263.008-.441-.025z"/></g></svg>