<svg xmlns="http://www.w3.org/2000/svg" width="19" height="19" viewBox="0 0 19 19"><path d="M18.368 15.956L10.543 1.977a1.152 1.152 0 0 0-.985-.615h-.031c-.403 0-.779.211-.986.56L.664 15.901a1.147 1.147 0 0 0 .986 1.736h15.703c.402 0 .775-.21.983-.553a1.15 1.15 0 0 0 .032-1.128zm-16.719.534L9.526 2.511l7.825 13.979H1.649z" fill="#036"/><path d="M9.709 12.669h-.43c-.014-1.901-.924-4.971-.924-6.713 0-.227.079-.321.309-.321h1.623c.214 0 .361.054.361.334 0 1.729-.939 4.799-.939 6.7zm-.283 2.964c-.602 0-.951-.387-.951-.938 0-.551.403-1.03 1.046-1.03.602 0 .992.372.992.923s-.44 1.045-1.087 1.045z" fill="#036"/></svg>