<svg xmlns="http://www.w3.org/2000/svg" width="19" height="19" viewBox="0 0 19 19"><g fill="#036"><path d="M17.09 4.19l-8.5-2.419.217-.761a.4.4 0 1 0-.771-.219l-.327 1.147a.401.401 0 0 0 .276.495L16.87 4.96a1.14 1.14 0 0 1-.623 2.193L7.362 4.625a.4.4 0 0 0-.495.275l-.285 1a.402.402 0 0 0 .276.495.402.402 0 0 0 .495-.277l.174-.614 8.501 2.419a1.943 1.943 0 0 0 2.397-1.335A1.943 1.943 0 0 0 17.09 4.19z"/><path d="M17.136 6.2a.642.642 0 0 0-.442-.793l-4.502-1.281H7.584a.668.668 0 0 0 .159.07l8.598 2.446a.644.644 0 0 0 .795-.442z"/><circle cx="7.603" cy="9.138" r=".505"/><path d="M11.795 12.433h-.088l-4.201.524 3.066-.821a.976.976 0 0 0 .541-.361.743.743 0 0 0 .156-.599.8.8 0 0 0-.287-.511.815.815 0 0 0-.541-.196c-.033 0-.094.005-.176.017l-1.588.34a1.105 1.105 0 0 1-2.159.464l-.164.035-1.896.322a.065.065 0 0 0-.026.006.11.11 0 0 1-.026.004c-.133 0-.222-.067-.266-.202-.044-.134-.007-.237.108-.313l1.625-1.092a.813.813 0 0 0 .368-.557.798.798 0 0 0-.158-.642.767.767 0 0 0-.664-.331.901.901 0 0 0-.515.158L2.964 9.97a4.588 4.588 0 0 0-.96.848L.728 12.303a1.049 1.049 0 0 0-.252.924l.629 3.608a.85.85 0 0 0 .742.69l4.602.489 3.076.279h.077a.82.82 0 0 0 .591-.245.802.802 0 0 0 .248-.592.784.784 0 0 0-.234-.562.98.98 0 0 0-.571-.279l-2.27-.278h3.913c.24 0 .443-.088.607-.262a.818.818 0 0 0-.049-1.189.901.901 0 0 0-.602-.227l-3.861-.007 4.55-.561a.828.828 0 0 0 .576-.322.808.808 0 0 0-.135-1.141.899.899 0 0 0-.57-.195z"/><circle cx="7.603" cy="11.083" r=".505"/></g></svg>