<svg xmlns="http://www.w3.org/2000/svg" width="19" height="19" viewBox="0 0 19 19"><g fill="#036"><path d="M12.22 8.926L7.918 7.704l.109-.386a.202.202 0 1 0-.388-.11l-.166.58a.2.2 0 0 0 .141.25l4.494 1.279a.575.575 0 1 1-.316 1.108L7.298 9.146a.202.202 0 0 0-.25.14l-.145.506a.205.205 0 0 0 .14.25c.108.03.22-.031.25-.141l.088-.31 4.3 1.224a.982.982 0 0 0 .539-1.889z"/><path d="M12.24 9.944a.322.322 0 0 0-.221-.403l-2.276-.646H7.412c.023.013.05.026.08.035l4.351 1.237a.32.32 0 0 0 .397-.223z"/><circle cx="7.421" cy="11.43" r=".255"/><path d="M9.542 13.095h-.044l-2.126.267 1.55-.417a.473.473 0 0 0 .274-.182.37.37 0 0 0 .079-.302.412.412 0 0 0-.146-.259.41.41 0 0 0-.272-.101c-.018 0-.047.004-.088.008l-.805.176a.555.555 0 0 1-.543.686.556.556 0 0 1-.549-.453l-.083.018-.959.162c-.004 0-.009 0-.013.002a.049.049 0 0 1-.013.004c-.068 0-.114-.033-.136-.103s-.003-.122.056-.158l.823-.553a.41.41 0 0 0 .185-.281.398.398 0 0 0-.079-.324.388.388 0 0 0-.337-.168.46.46 0 0 0-.261.079l-.98.654c-.18.118-.343.259-.487.427l-.645.755a.53.53 0 0 0-.128.466l.319 1.826a.44.44 0 0 0 .129.235.404.404 0 0 0 .245.11l2.329.249 1.556.142h.04c.114 0 .214-.04.299-.125a.408.408 0 0 0 .007-.583.513.513 0 0 0-.289-.141l-1.148-.141H9.28a.399.399 0 0 0 .307-.132.404.404 0 0 0 .118-.316.39.39 0 0 0-.143-.286.463.463 0 0 0-.302-.115l-1.954-.003 2.3-.281a.436.436 0 0 0 .294-.167.406.406 0 0 0-.067-.574.474.474 0 0 0-.291-.101z"/><circle cx="7.421" cy="12.415" r=".256"/><path d="M18.368 15.956L10.543 1.977a1.152 1.152 0 0 0-.985-.615h-.031c-.403 0-.779.211-.986.56L.664 15.901a1.147 1.147 0 0 0 .986 1.736h15.703c.402 0 .775-.21.983-.553a1.15 1.15 0 0 0 .032-1.128zm-16.719.534L9.526 2.511l7.825 13.979H1.649z"/></g></svg>