<svg xmlns="http://www.w3.org/2000/svg" width="19" height="19" viewBox="0 0 19 19"><path d="M11.625 4.279c.463.462 1.477.646 2.123.646v-2.892c-.646 0-1.66-.185-2.123-.646-.461-.462-.738-.647-2.125-.554v2.892c1.387-.093 1.664.093 2.125.554zm5.742 5.311l.236-.894-8.111-4.628-8.096 4.628.237.894h2.289v6.37h-1v.996h-.996v1.234h15.148v-1.234h-.998v-.996h-1.074v-6.37h2.365zm-8.767 6.37h-2.955v-6.37h2.955v6.37zm4.677 0h-2.953v-6.37h2.953v6.37zm-9.841-7.326l6.064-3.46 6.063 3.459h-12.127z" fill="#036"/></svg>