<svg xmlns="http://www.w3.org/2000/svg" width="19" height="19" viewBox="0 0 19 19"><path d="M10.101 9.424c.132.064.304.113.516.145.189.028.334.064.424.103.092.04.151.09.186.154.041.079.035.14-.012.183-.051.044-.143.066-.275.066a.82.82 0 0 1-.343-.066.435.435 0 0 1-.208-.188l-.011-.021h-.3l.022.054c.055.101.168.189.341.268.14.062.284.104.435.121l.104.196h.308l-.103-.196a.61.61 0 0 0 .302-.111c.091-.081.106-.185.041-.311a.645.645 0 0 0-.305-.262 2.184 2.184 0 0 0-.578-.157 1.476 1.476 0 0 1-.362-.09.307.307 0 0 1-.16-.137c-.034-.065-.028-.116.017-.154.044-.036.127-.054.246-.054.11 0 .205.018.281.054a.5.5 0 0 1 .199.169l.014.018h.301l-.013-.019a.738.738 0 0 0-.348-.294 1.385 1.385 0 0 0-.396-.098l-.088-.167h-.308l.091.173a.482.482 0 0 0-.255.097c-.088.069-.103.165-.045.277.053.099.15.182.282.247zm-4.912 3.162L2.722 7.897h.032l-.48-.905H16.38L17.754 9.6V6.217a.437.437 0 0 0-.438-.439H.938a.439.439 0 0 0-.438.439v3.451c0 .243.196.438.438.438h1.426L1.241 7.897h.56l2.802 5.325h13.144l-.333-.636H5.189zm1.232-1.414h10.246l-1.723-3.275H4.698l1.723 3.275zm3.627-2.84c.965 0 2.027.538 2.377 1.203.349.661-.148 1.2-1.112 1.2-.96 0-2.022-.539-2.369-1.2-.351-.665.144-1.203 1.104-1.203zm-4.442 3.862H18.5l-2.736-5.203-12.898.003 2.74 5.2zm11.793-.558H6.119L3.969 7.55h11.28l2.15 4.086z" fill="#036"/></svg>