<svg xmlns="http://www.w3.org/2000/svg" width="19" height="19" viewBox="0 0 19 19"><g fill="#036"><path d="M11.244 9.5c0 .967-.789 1.763-1.744 1.763-.957 0-1.744-.796-1.744-1.763S8.543 7.737 9.5 7.737c.955 0 1.744.796 1.744 1.763z"/><path d="M9.499 4.354A5.153 5.153 0 0 0 4.34 9.5a5.155 5.155 0 0 0 5.159 5.147c2.85 0 5.161-2.306 5.161-5.147 0-2.842-2.311-5.146-5.161-5.146zm0 1.93A3.224 3.224 0 0 1 12.725 9.5a3.223 3.223 0 0 1-3.226 3.216A3.224 3.224 0 0 1 6.275 9.5a3.224 3.224 0 0 1 3.224-3.216"/><path d="M9.499.523C4.528.523.5 4.543.5 9.5s4.028 8.977 8.999 8.977c4.97 0 9.001-4.02 9.001-8.977S14.469.523 9.499.523zm0 1.924c3.9 0 7.072 3.164 7.072 7.053 0 3.89-3.172 7.054-7.072 7.054-3.899 0-7.072-3.164-7.072-7.054 0-3.889 3.173-7.053 7.072-7.053"/></g></svg>