<svg xmlns="http://www.w3.org/2000/svg" width="19" height="19" viewBox="0 0 19 19"><path d="M16.987 1.477h-.011c.013-.01.019-.021.019-.031C16.995 1.2 13.64 1 9.5 1s-7.495.2-7.495.445c0 .01.006.021.018.031h-.018l6.643 6.148v6.957l-4.304 3.076h.011c-.021.012-.032.023-.032.035 0 .171 2.318.308 5.177.308s5.178-.137 5.178-.307c0-.012-.011-.023-.032-.035h.003l-4.305-3.076V7.625l6.643-6.148zM9.714 6.429a.327.327 0 0 1-.436 0l-3.21-2.971c-.12-.111-.084-.202.08-.202h6.696c.164 0 .199.09.08.202l-3.21 2.971z" fill="#036"/></svg>