<svg xmlns="http://www.w3.org/2000/svg" width="19" height="19" viewBox="0 0 19 19"><path d="M9.702 4.039c0 .378.132.698.395.961.264.263.583.395.961.395.363 0 .681-.132.95-.395.271-.263.405-.583.405-.961s-.135-.697-.405-.961a1.318 1.318 0 0 0-.95-.394c-.378 0-.697.131-.961.394a1.31 1.31 0 0 0-.395.961zm-.728-1.234l1.72-1.597a.437.437 0 0 0 .1-.283c0-.283-.141-.425-.424-.425a.455.455 0 0 0-.304.101L8.428 2.239 6.102 4.747l.283.283 2.589-2.225zm5.764 14.421l-2.003-6.067V6.304c-.039-.404-.256-.606-.646-.606H9.521c-.068-.013-.183.04-.344.161l-1.497.87-1.578-1.557a.747.747 0 0 0-.566-.264c-.458 0-.688.236-.688.708 0 .176.061.338.182.486l2.002 2.002c.163.163.338.243.527.243.121 0 .263-.047.425-.141l1.314-.729v3.579l-2.002 6.148a.708.708 0 0 0-.061.283c0 .27.101.502.303.697a.986.986 0 0 0 .708.295c.485 0 .815-.25.99-.75l1.76-5.318 1.779 5.34c.176.498.506.748.991.748.27 0 .506-.098.708-.293a.94.94 0 0 0 .303-.698.946.946 0 0 0-.039-.282zM4.565 6.103c-.081-.081-.169-.081-.263 0l-.021.02c-.081.081-.081.169 0 .263l.386.404c.081.08.168.08.263 0l.02-.021c.081-.095.081-.182 0-.263l-.385-.403z" fill="#036"/></svg>