<svg xmlns="http://www.w3.org/2000/svg" width="19" height="19" viewBox="0 0 19 19"><path d="M17.562 9.729c0-3.458-1.576-5.63-2.898-6.844C13.014 1.369 10.834.5 8.684.5h-.245L1.438 9.737l7.01 8.763h.236c3.722 0 8.878-3.049 8.878-8.771zm-14.241.784c.232-.153.391-.451.391-.793 0-.353-.167-.657-.412-.806l2.894-3.818c.136.213.35.351.59.351a.682.682 0 0 0 .506-.24l3.348 3.721a.7.7 0 0 0-.326.572.7.7 0 0 0 .326.573l-3.311 3.828a.694.694 0 0 0-.545-.287c-.27 0-.504.172-.635.431l-2.826-3.532zm3.96 4.95l5.178-5.985-5.204-5.782L8.928 1.49c3.8.125 7.648 3.187 7.648 8.238 0 4.962-4.373 7.657-7.658 7.78l-1.637-2.045zM8.033 9.5a1.25 1.25 0 1 0-2.5 0 1.25 1.25 0 0 0 2.5 0z" fill="#036"/></svg>