<svg xmlns="http://www.w3.org/2000/svg" width="19" height="19" viewBox="0 0 19 19"><path d="M18.293 15.354c-.207-.27-.416-.539-.629-.81.333-.267.809-.794.756-1.608-.076-1.239-.857-2.267-1.787-2.357-.859-.086-1.5.339-1.8.6a76.324 76.324 0 0 0-3.386-3.53c-.194-.19-.392-.375-.588-.555a55.932 55.932 0 0 1 6.875-4.981c-2.918.707-5.717 1.93-8.234 3.85-2.518-1.92-5.317-3.143-8.235-3.85a55.718 55.718 0 0 1 6.876 4.981c-.198.18-.395.365-.589.555a74.671 74.671 0 0 0-3.383 3.53c-.304-.261-.943-.686-1.802-.6-.93.091-1.711 1.118-1.789 2.357-.051.814.425 1.342.757 1.608-.213.271-.422.54-.628.81 0 0-.466.695 0 1.271.466.573 1.167.028 1.142 0a122.468 122.468 0 0 1 2.534-3.04c.112.115.26.185.419.185.352-.001.637-.333.637-.744v-.002a.828.828 0 0 0-.146-.472A58.764 58.764 0 0 1 9.5 8.291a58.771 58.771 0 0 1 4.207 4.262.813.813 0 0 0-.146.472v.002c-.001.411.284.743.636.744a.58.58 0 0 0 .42-.185 126.771 126.771 0 0 1 2.536 3.04c-.026.028.673.573 1.141 0 .464-.576-.001-1.272-.001-1.272zM1.822 12.24c.36-.48.947-.151 1.304.124a64.782 64.782 0 0 0-1.346 1.62c-.155-.497-.309-1.276.042-1.744zm15.355 0c.351.468.196 1.247.042 1.744a64.782 64.782 0 0 0-1.346-1.62c.356-.275.945-.604 1.304-.124z" fill="#036"/></svg>