<svg xmlns="http://www.w3.org/2000/svg" width="19" height="19" viewBox="0 0 19 19"><g fill="#036"><path d="M4.066 1.729c.496.161.817.267 1.285.542 1.136.667 1.449 1.926 1.445 2.766 1.862-.046 3.835 2.491 3.651 4.263.94.007 2.114.716 2.511 1.853.172.492.166.832.177 1.285 5.828-4.62-3.257-15.601-9.069-10.709zm9.49 1.221a.469.469 0 0 0-.608-.711l-.254.218c.212.229.414.467.607.711l.255-.218zM5.664 8.478a.467.467 0 0 0-.163.355v9.199a.467.467 0 1 0 .936 0V9.049L9.03 6.827a6.564 6.564 0 0 0-.602-.717L5.664 8.478z"/><path d="M1.532 14.473v1.021a.425.425 0 0 0 .104-.048c.586-.383 1.588-.922 1.979-.922.241 0 .777.27 1.209.485l.213.105v-.982c-.524-.261-1.019-.489-1.422-.489-.595.001-1.539.505-2.083.83zm13.454-.829c-.626 0-1.285.35-1.866.659-.369.195-.788.418-.987.418-.203 0-.623-.229-.994-.431-.584-.318-1.188-.646-1.773-.646-.572 0-1.194.32-1.795.63-.19.098-.391.2-.576.283v.941c.309-.103.637-.266.979-.441.483-.249 1.032-.532 1.392-.532.361 0 .887.287 1.352.54.508.276.988.538 1.416.538.419 0 .874-.242 1.4-.522.491-.261 1.047-.556 1.453-.556.598 0 1.807.619 2.428 1.01.018.011.035.016.054.024v-1.017c-.605-.341-1.71-.898-2.483-.898z"/></g></svg>