<svg xmlns="http://www.w3.org/2000/svg" width="19" height="19" viewBox="0 0 19 19"><path d="M.5 6.64h3.312c.552 0 .976.137 1.271.41.295.274.443.612.443 1.016 0 .339-.105.628-.316.871-.141.161-.346.288-.618.382.412.099.715.268.908.51.194.24.291.543.291.907a1.534 1.534 0 0 1-.773 1.363c-.148.086-.373.148-.672.188a7.772 7.772 0 0 1-.792.078H.5V6.64zm1.785 2.245h.769c.276 0 .468-.047.576-.143.108-.095.162-.232.162-.412a.49.49 0 0 0-.162-.391c-.108-.093-.296-.139-.565-.139h-.78v1.085zm0 2.25h.902c.305 0 .52-.055.645-.162s.188-.253.188-.436a.504.504 0 0 0-.186-.408c-.124-.104-.34-.154-.65-.154h-.899v1.16zm8.671-1.554l1.243.276c-.066.229-.129.412-.188.551s-.144.301-.253.488l.598.41c.072.047.166.103.279.168l-.854.983c-.157-.083-.318-.179-.486-.288s-.318-.203-.451-.281a3.198 3.198 0 0 1-.828.398 4.535 4.535 0 0 1-1.305.171c-.762 0-1.33-.158-1.703-.476-.372-.318-.559-.703-.559-1.156 0-.326.11-.633.329-.923.218-.291.576-.536 1.074-.736-.208-.252-.352-.471-.43-.657s-.117-.376-.117-.569c0-.406.155-.741.465-1.003s.78-.395 1.41-.395c.643 0 1.115.125 1.418.375.301.25.453.549.453.898 0 .195-.047.382-.139.562-.093.18-.203.326-.334.438s-.363.278-.7.5c.278.278.569.538.872.777.08-.161.148-.332.206-.511zM9.129 8.577c.206-.112.365-.234.477-.365s.167-.255.167-.373a.4.4 0 0 0-.141-.311.555.555 0 0 0-.385-.127.559.559 0 0 0-.395.141.436.436 0 0 0-.152.332c0 .161.142.396.429.703zm-.566 1.39c-.219.153-.364.285-.436.395a.627.627 0 0 0-.107.348c0 .19.083.359.246.508.164.148.377.223.641.223.284 0 .603-.111.957-.332a17.887 17.887 0 0 1-1.301-1.142zm4.645-3.327h3.312c.553 0 .976.137 1.271.41.295.274.443.612.443 1.016 0 .339-.105.628-.316.871-.141.162-.346.289-.617.383.412.099.715.268.908.51.193.24.291.543.291.907a1.534 1.534 0 0 1-.773 1.363c-.148.086-.372.148-.672.188a7.706 7.706 0 0 1-.793.078h-3.054V6.64zm1.784 2.245h.77c.276 0 .469-.047.577-.143.107-.095.161-.231.161-.411a.493.493 0 0 0-.161-.391c-.109-.094-.296-.14-.565-.14h-.782v1.085zm0 2.25h.902c.306 0 .52-.055.645-.162s.188-.253.188-.436a.502.502 0 0 0-.187-.408c-.123-.104-.34-.154-.65-.154h-.898v1.16z" fill="#036"/></svg>