<svg xmlns="http://www.w3.org/2000/svg" width="19" height="19" viewBox="0 0 19 19"><path d="M16.734 5.889H3.961v5.916h12.773V5.889zm-6.389 5.128a2.171 2.171 0 1 1 2.174-2.168 2.172 2.172 0 0 1-2.174 2.168zm.041-2.412c-.188-.044-.319-.1-.394-.162a.296.296 0 0 1-.109-.247c0-.118.04-.208.121-.277.08-.067.193-.097.341-.097.14 0 .246.03.317.097.074.064.118.166.138.305l.005.032h.375l-.002-.036a.697.697 0 0 0-.242-.527.89.89 0 0 0-.429-.178v-.303h-.384v.312a.788.788 0 0 0-.38.176.623.623 0 0 0-.237.501c0 .178.065.33.188.445.123.116.305.204.548.262.218.05.375.115.461.187.089.07.13.16.13.277a.421.421 0 0 1-.134.33.58.58 0 0 1-.388.12c-.164 0-.293-.042-.382-.12s-.133-.189-.136-.339v-.037h-.374l-.008.097c.002.181.085.342.25.483a.992.992 0 0 0 .462.219v.355h.384v-.355a.958.958 0 0 0 .449-.201.719.719 0 0 0 .255-.562.626.626 0 0 0-.207-.473c-.139-.124-.346-.217-.618-.284zM2.269 4.257l.005 9.394h16.074V4.253l-16.079.004zm15.073 8.387H3.279V5.261h14.062v7.383zM1.497 5.889H.349v9.62h16.386V14.36H1.497V5.889z" fill="#036"/></svg>