<svg xmlns="http://www.w3.org/2000/svg" width="19" height="19" viewBox="0 0 19 19"><path d="M15.351 13.043L10.658 9.51l4.69-3.555a.244.244 0 0 0-.003-.39L8.543.547a.243.243 0 0 0-.387.196v6.883L5.033 5.275a.952.952 0 0 0-1.294.183.922.922 0 0 0 .182 1.294l3.67 2.764-3.537 2.68a.927.927 0 0 0-.178 1.296c.299.393.9.477 1.294.177l2.984-2.263v6.852c0 .092.052.176.134.218a.244.244 0 0 0 .254-.023l6.805-5.02a.244.244 0 0 0 .004-.39zm-5.346-9.122l2.517 1.857-2.517 1.908V3.921zm0 11.157v-3.747l2.514 1.893-2.514 1.854z" fill="#036"/></svg>