<svg xmlns="http://www.w3.org/2000/svg" width="19" height="19" viewBox="0 0 19 19"><path d="M16.297 4.181v10.637c0 .402-.146.751-.441 1.046a1.383 1.383 0 0 1-1.037.434l-10.637-.002c-.414 0-.766-.145-1.055-.434a1.42 1.42 0 0 1-.424-1.045v-1.225c-.013-.404.129-.75.426-1.047a1.37 1.37 0 0 1 1.045-.424l4.795-.008-5.752-5.751a1.236 1.236 0 0 1-.384-.997c.029-.38.186-.715.475-1.004l1.047-1.047a1.551 1.551 0 0 1 1.003-.474c.383-.026.715.102.996.384l5.753 5.752.008-4.795a1.355 1.355 0 0 1 .424-1.045 1.434 1.434 0 0 1 1.055-.434h1.225c.414.011.76.156 1.037.433.283.283.429.632.441 1.046z" fill="#036"/></svg>