<svg xmlns="http://www.w3.org/2000/svg" width="19" height="19" viewBox="0 0 19 19"><path d="M8.757 18.109c-.161-.161-.246-.411-.246-.724v-.477l-.715-.141c-2.774-.546-5.229-3.422-5.824-6.402a5.202 5.202 0 0 0-.474-.021c-.6 0-.998-.401-.998-1.006 0-.55.338-.872.955-.909l.462-.028.218-.847c.365-1.41.905-2.34 1.999-3.434 1.122-1.122 2.06-1.685 3.415-2.021.412-.102.443-.023.907-.126.061-.644.005-1.362.99-1.328.778.027.853.502.855 1.291.267.026.354.034.815.129 2.777.571 5.271 3.077 5.758 5.878.077.444.118.489.412.455.387-.046 1.021.256 1.129.537.268.696-.124 1.294-.917 1.4-.519.07-.543.093-.625.573-.129.754-.633 1.907-1.195 2.736-.992 1.46-2.538 2.547-4.334 3.046l-.924.257-.04.489c-.021.269-.128.586-.234.704-.274.303-1.072.286-1.389-.031zm-.246-4.745c0-.847-.043-1.54-.095-1.54s-.564.471-1.137 1.047c-.576.579-.902.935-1.022 1.109.149.109.411.403 1.066.673.549.226 1.001.29 1.208.321-.035-.256-.02-.643-.02-1.61zm3.701 1l.536-.331-1.1-1.104c-.604-.607-1.142-1.104-1.194-1.104-.052 0-.095.7-.095 1.556v1.556l.658-.12c.22-.046.758-.249 1.195-.453zm-6.167-2.94l1.142-1.078H3.923l.083.445c.096.509.696 1.792.816 1.743.045-.017.595-.517 1.223-1.11zm8.606.288c.193-.424.277-.773.319-.96l.076-.406H11.78l1.104 1.108c.607.61 1.149 1.109 1.205 1.109s.37-.427.562-.851zm-4.754-1.219c.211-.109.56-.475.663-.72.163-.392.063-.806-.244-1.143-.49-.538-1.126-.541-1.67-.028a1.122 1.122 0 0 0-.1 1.546c.346.405.905.577 1.351.345zM7.032 8.371c0-.035-.492-.553-1.092-1.151L4.848 6.132l-.264.426c-.295.478-.484.994-.647 1.88.082.012.215-.003 1.554-.003.847 0 1.541-.029 1.541-.064zm7.914-.268A4.446 4.446 0 0 0 14.632 7c-.201-.449-.507-.845-.561-.845-.089 0-2.233 2.127-2.233 2.215 0 .036.707.053 1.571.039 1.557-.025 1.571-.028 1.537-.306zm-6.435-2.69V3.809l-.339.076c-.618.028-1.91.741-1.88.875.019.083 2.102 2.258 2.185 2.258.019 0 .034-.722.034-1.605zm3.377-1.19c-.461-.216-.989-.288-1.159-.31l-.308-.039-.034 1.602-.034 1.604 1.179-1.171 1.18-1.171-.824-.515z" fill="#036"/></svg>