<svg xmlns="http://www.w3.org/2000/svg" width="19" height="19" viewBox="0 0 19 19"><path d="M7.161 5.672h4.612c.238 0 .289-.171.266-.344l-.251-1.802c-.035-.219-.109-.363-.394-.363H7.539c-.284 0-.357.145-.392.363l-.251 1.802c-.024.172.026.344.265.344zm.054 1.104c-.254 0-.525.271-.525.525s.271.525.525.525.524-.271.524-.525c0-.253-.27-.525-.524-.525zm.919-4.021h2.732c.269 0 .269-.403 0-.403H8.134c-.269 0-.269.403 0 .403zM13.671.5H5.329a.657.657 0 0 0-.656.657v9.245c0 .363.294.657.656.657h8.342a.657.657 0 0 0 .656-.657V1.157A.657.657 0 0 0 13.671.5zm-.851 8.334h-.556v.537c0 .654-.958.654-.958 0v-.537H7.693v.537c0 .654-.958.654-.958 0v-.537H6.18V5.411l.322-2.485c.09-.448.377-.627.808-.807.423-.177 1.44-.389 2.19-.394h-.032.064H9.5c.75.006 1.767.217 2.19.394.431.179.718.359.808.807l.322 2.485v3.423zm-.402 8.686H9.98v-6.441h-.941v6.441H6.501a.49.49 0 0 0 0 .98h5.917a.49.49 0 0 0 0-.98zm-.633-10.744c-.254 0-.525.271-.525.525s.271.525.525.525.524-.271.524-.525c.001-.253-.27-.525-.524-.525z" fill="#036"/></svg>