<svg xmlns="http://www.w3.org/2000/svg" width="19" height="19" viewBox="0 0 19 19"><path d="M16.394 2.828a.843.843 0 0 0-.378.09 1.66 1.66 0 0 0-.43.322c-.18.174-.339.367-.474.518a3.022 3.022 0 0 1-.173.181.943.943 0 0 1-.05.043l-.004.002-.827.356h-.087c-1.132.002-2.144.33-3.1.63-1.053.333-2.06.73-3.076.927-.468.091-.993.117-1.542.16-.55.044-1.125.106-1.689.304a6.632 6.632 0 0 0-1.384.663c-.2.126-.377.278-.544.402-.163.125-.321.214-.38.227l-.258.172s-.234.178-.355.282l-.488.418c-.49.421-.65 1.484-.65 2.078v.01c.004.909.301 1.77.773 2.534.473.769 1.126 1.448 1.865 2.02 1.484 1.139 3.351 1.881 5.112 1.887.345 0 .685-.028 1.019-.091.31-.058.58-.206.787-.396.128-.118.369-.252.454-.391.15-.069.156-.162.271-.284.171-.176.28-.37.408-.609.212-.4.47-.825.674-1.286.234-.529.32-1.089.4-1.612.077-.524.15-1.013.296-1.39.148-.392.408-.72.731-1.07.321-.35.702-.712 1.026-1.18.255-.367.553-.693.813-1.102.23-.358.418-.796.455-1.325l.653-.343.056-.057a.46.46 0 0 1 .217-.128c.132-.043.341-.052.607-.075.26-.024.608-.078.92-.33a1.45 1.45 0 0 0 .323-.353.897.897 0 0 0 .14-.467.804.804 0 0 0-.094-.379 1.128 1.128 0 0 0-.365-.402 2.598 2.598 0 0 0-.622-.305 3.96 3.96 0 0 0-.254-.081A1.256 1.256 0 0 0 17 3.12a.778.778 0 0 0-.607-.293zm-.018.506c.16-.01.302.117.404.485.483.107 1.774.495.941 1.173-.514.415-1.256.033-1.787.573l-.848.444-.002-.049c-.213.078-.434.173-.655.214a5.194 5.194 0 0 0-.141-.66 3.03 3.03 0 0 1-.529.153c.063-.304.134-.538.29-.772l1.048-.449c.341-.15.87-1.084 1.279-1.112zM3.042 8.144h.115c.923.002 1.884.318 2.619.594.597.227 1.09.436 1.538.73.45.29.846.666 1.255 1.196.638.834 1.3 1.875 1.57 2.962.065.264.107.598.107.948-.002.386-.05.791-.204 1.144-.15.35-.438.664-.868.744a5.01 5.01 0 0 1-.92.085c-1.617-.004-3.402-.701-4.807-1.783-1.4-1.082-2.433-2.557-2.438-4.163 0-.521.113-1.052.356-1.571l.423-.472.47-.286c.25-.08.515-.118.784-.128z" fill="#036" stroke="#fff" stroke-width=".067"/></svg>