<svg xmlns="http://www.w3.org/2000/svg" width="19" height="19" viewBox="0 0 19 19"><path d="M16.838 4.6c-.427-.435-.949-.666-1.514-.666-.554 0-1.133.167-1.652.386a17.406 17.406 0 0 0-.093-.977.337.337 0 0 0-.334-.293h-.001l-5.873.024-5.876-.024h-.001a.337.337 0 0 0-.334.293c-.01.077-.244 1.914-.127 4.185.16 3.084.871 5.367 2.114 6.781.95 1.082 2.199 1.631 3.713 1.631h.014c.167.009.335.012.496.01h.111c.126 0 .256-.003.384-.01h.014c1.515 0 2.764-.549 3.714-1.631.19-.217.369-.455.535-.714.927-.077 1.765-.279 2.5-.604a5.657 5.657 0 0 0 2.06-1.517C17.87 10.083 17.991 8.559 18 8.125c.021-1.141-.328-2.673-1.162-3.525zm-.49 3.493c-.004.21-.068 1.312-.918 2.313-.592.695-1.416 1.163-2.459 1.396.402-1.186.649-2.614.735-4.275.025-.494.034-.966.032-1.405.527-.288 1.135-.538 1.586-.538.078 0 .188.019.334.17.406.414.708 1.441.69 2.339z" fill="#036"/></svg>