<svg version="1" xmlns="http://www.w3.org/2000/svg" width="19" height="19" viewBox="0 0 19 19"><g fill="#036"><path d="M14.9 6.4l-.9.8 1.6 1.6c.2.2.6.2.8 0 .2-.2.2-.6 0-.8l-1.5-1.6zM17 2.8l-.2-.2c-.2-.2-.6-.2-.9 0l-1.3-1.3c-.7-.7-1.9-.7-2.6 0l-.2.2C11 .9 10.1.5 9 .5c-2.4 0-4.4 2-4.4 4.4 0 1.2.5 2.3 1.3 3.1 1.3 1.5 3.1 4.2 2.8 5.7-.1.5-.3.8-.8 1-.5.3-1 .3-1.4 0-1-.6-1.7-2.8-1.7-5.2 0-.3-.2-.5-.5-.5s-.5.2-.5.5c0 2.2.6 5.1 2.2 6.1.3.2.7.3 1.2.3.4 0 .8-.1 1.2-.3.7-.4 1.2-1 1.3-1.7.4-2.3-3.1-6.6-3.1-6.6-.6-.6-1-1.4-1-2.4 0-1.8 1.5-3.3 3.3-3.3.8 0 1.5.3 2.1.7l-.3.3c-.7.7-.7 1.9 0 2.6L12 6.5c-.2.2-.2.6 0 .9l.2.2c.2.2.6.2.9 0L17 3.7c.3-.3.3-.6 0-.9zM18.4 6l-1.6-1.6-.8.8 1.6 1.6c.2.2.6.2.8 0 .2-.2.2-.6 0-.8z"/><path d="M3.5 7.1c-1.4 0-2.5.7-2.5.7V18h5V7.8s-1.2-.7-2.5-.7zM5.1 10c0 .3-.2.5-.5.5H2.3c-.3 0-.5-.2-.5-.5v-.8c0-.3.2-.5.5-.5h2.4c.3 0 .5.2.5.5v.8z"/></g></svg>