<svg xmlns="http://www.w3.org/2000/svg" width="19" height="19" viewBox="0 0 19 19"><path d="M8.701 8.767c-1.002 0-4.172 3.599-4.172 4.735 0 .129 2.237.234 4.971.234s4.971-.109 4.971-.242c0-.134-.584-1.057-1.298-2.05-1.209-1.683-2.869-2.677-4.472-2.677zm9.313 3.242c-.641-1.021-2.865-3.697-5.021-6.042-.911-.991-3.413-.929-5.913.146-1.597.687-2.488 1.496-4.219 3.831C1.654 11.572.598 13.062.515 13.255c-.083.192.175.286.575.207.399-.079 1.546-1.354 2.55-2.835 1.506-2.224 2.199-2.852 3.981-3.611 3.626-1.545 3.638-1.541 7.542 2.883.911 1.033 1.964 2.317 2.34 2.856.953 1.365 1.413.692.511-.746z" fill="#036"/></svg>