<svg xmlns="http://www.w3.org/2000/svg" width="19" height="19" viewBox="0 0 19 19"><path d="M5.621 9.507c-.474.94-.679 1.877-.553 2.646-1.509-.176-3.968.633-4.513 1.445-.402 1.851 3.575 1.631 4.657 4.726.503-.687 1.295-2.958 1.604-4.422.199.037.41.045.63.041.248-.66.161-1.629-.244-2.569-.379-.873-.971-1.553-1.581-1.867zM13.916.696c-.88.543-1.824 3.225-1.568 4.703a3.102 3.102 0 0 0-.813-.1c.929.893 1.703 2.188 2.108 3.485.198-.643.255-1.257.15-1.789 1.454-.219 3.948-.979 4.682-1.481C15.423 4.325 15.781.358 13.916.696zM7.479 7.12c-.079.071-.162.133-.241.209a8.893 8.893 0 0 0-1.063 1.238c.822.445 1.563 1.283 2.034 2.373.416.966.559 1.962.42 2.796a6.653 6.653 0 0 0 1.544-.708c.424-1.506-.226-4.468-2.694-5.908zm.91-.718c2.117 1.424 3.046 3.799 3.014 5.703.081-.072.161-.139.24-.215a8.457 8.457 0 0 0 1.204-1.458c-.071-1.613-1.265-4.033-2.772-4.879a6.861 6.861 0 0 0-1.686.849z" fill="#036"/></svg>