<svg xmlns="http://www.w3.org/2000/svg" width="19" height="19" viewBox="0 0 19 19"><path d="M10.163.5c-.288 0-.571.015-.852.043a.856.856 0 0 0-.757.939.85.85 0 0 0 .928.765c.225-.024.451-.035.681-.035 3.669.007 6.637 3.008 6.644 6.718 0 .228-.011.45-.032.671a.853.853 0 0 0 .843.941.851.851 0 0 0 .843-.771c.026-.276.04-.558.04-.841C18.499 4.274 14.768.5 10.163.5zm0 3.359c-.36 0-.715.04-1.057.113a.855.855 0 0 0-.648 1.018.845.845 0 0 0 1.006.656c.226-.048.458-.075.7-.075 1.833.004 3.318 1.504 3.321 3.36 0 .212-.019.417-.056.617a.856.856 0 0 0 .834 1.013.85.85 0 0 0 .831-.698c.056-.303.085-.615.084-.932 0-2.802-2.244-5.072-5.015-5.072zM5.394 15.972a2.275 2.275 0 0 0 2.201-1.707h-.177a.504.504 0 0 1 0-1.007h.201a2.272 2.272 0 0 0-2.225-1.825 2.274 2.274 0 0 0-2.27 2.271 2.272 2.272 0 0 0 2.27 2.268zM.5 7.5v2.04h9.906V7.5H.5zm5.915 1.621a.552.552 0 1 1-.002-1.104.552.552 0 0 1 .002 1.104zm1.451 0a.552.552 0 0 1 0-1.103c.301 0 .552.248.552.551a.556.556 0 0 1-.552.552zm1.451 0a.552.552 0 1 1 .551-.552.554.554 0 0 1-.551.552zM.5 18.5h9.906v-8.406H.5V18.5zm2.046-6.062a.236.236 0 0 1 .426-.141 2.8 2.8 0 0 1 5.193 1.013.5.5 0 0 1-.019.912 2.803 2.803 0 0 1-2.753 2.281 2.797 2.797 0 0 1-2.388-1.339.24.24 0 0 1-.222.157.237.237 0 0 1-.237-.238v-2.645z" fill="#036"/></svg>