<svg xmlns="http://www.w3.org/2000/svg" width="19" height="19" viewBox="0 0 19 19"><path d="M10.163.5c-.288 0-.571.015-.852.043a.856.856 0 0 0-.757.939.85.85 0 0 0 .928.765c.225-.024.451-.035.681-.035 3.669.007 6.637 3.008 6.644 6.718 0 .228-.011.45-.032.671a.853.853 0 0 0 .843.941.851.851 0 0 0 .843-.771c.026-.276.04-.558.04-.841C18.499 4.274 14.768.5 10.163.5zm0 3.359c-.36 0-.715.04-1.057.113a.855.855 0 0 0-.648 1.018.845.845 0 0 0 1.006.656c.226-.048.458-.075.7-.075 1.833.004 3.318 1.504 3.321 3.36 0 .212-.019.417-.056.617a.856.856 0 0 0 .834 1.013.85.85 0 0 0 .831-.698c.056-.303.085-.615.084-.932 0-2.802-2.244-5.072-5.015-5.072zM2.424 11.99v.587h1.563a2.94 2.94 0 0 1 1.762-1.723V9.302h-1.21a.655.655 0 1 1 0-1.311h4.369a.656.656 0 0 1 0 1.311H7.695v1.552a2.937 2.937 0 0 1 1.762 1.723h1.726a2.32 2.32 0 0 1 2.316 2.318V18.5h-2.574v-3.298H9.174a2.917 2.917 0 0 1-2.451 1.332 2.918 2.918 0 0 1-2.452-1.332H2.424v.676H.5V11.99h1.924z" fill="#036"/></svg>