<svg version="1" xmlns="http://www.w3.org/2000/svg" width="19" height="19" viewBox="0 0 19 19"><g fill="#036"><path d="M10.2.5h-.9c-.5.1-.8.5-.7 1 0 .5.4.8.9.7h.7c3.7 0 6.6 3 6.6 6.7v.7c0 .5.3.9.8.9h.1c.4 0 .8-.3.8-.8v-.8c0-4.6-3.7-8.4-8.3-8.4zm0 3.4c-.4 0-.7 0-1.1.1-.5.1-.7.5-.6 1 .1.5.5.8 1 .7.2 0 .5-.1.7-.1 1.8 0 3.3 1.5 3.3 3.4 0 .2 0 .4-.1.6-.1.5.2.9.7 1h.2c.4 0 .8-.3.8-.7.1-.3.1-.6.1-.9 0-2.9-2.3-5.1-5-5.1z"/><path d="M10.1 10H1.3c-.4 0-.8.4-.8.8v.8c0 .4.4.8.8.8h8.8c.4 0 .8-.4.8-.8v-.8c0-.5-.3-.8-.8-.8zm-.3 2c-.3 0-.6-.3-.6-.6s.3-.6.6-.6.6.3.6.6-.2.6-.6.6zm.3.8H1.3c-.4 0-.8.4-.8.8v.8c0 .4.4.8.8.8h4v1.5c-.2.1-.4.3-.5.5h-4v.8h4.1c.1.3.5.6.9.6s.7-.2.9-.6h4.1v-.8H6.6c-.1-.2-.3-.4-.5-.5v-1.5h4c.4 0 .8-.4.8-.8v-.8c0-.4-.3-.8-.8-.8zm-.3 2c-.3 0-.6-.3-.6-.6s.3-.6.6-.6.6.3.6.6c0 .4-.2.6-.6.6zm.3-7.8H1.3c-.4 0-.8.4-.8.9v.8c0 .4.4.8.8.8h8.8c.4 0 .8-.4.8-.8v-.8c0-.5-.3-.9-.8-.9zm-.3 2c-.3 0-.6-.2-.6-.6 0-.3.3-.6.6-.6s.6.3.6.6c0 .4-.2.6-.6.6z"/></g></svg>