<svg version="1" xmlns="http://www.w3.org/2000/svg" width="19" height="19" viewBox="0 0 19 19"><path d="M10.2.5h-.9c-.5.1-.8.5-.7 1 0 .5.4.8.9.7h.7c3.7 0 6.6 3 6.6 6.7v.7c0 .5.3.9.8.9h.1c.4 0 .8-.3.8-.8v-.8c0-4.6-3.7-8.4-8.3-8.4zm0 3.4c-.4 0-.7 0-1.1.1-.5.1-.7.5-.6 1 .1.5.5.8 1 .7.2 0 .5-.1.7-.1 1.8 0 3.3 1.5 3.3 3.4 0 .2 0 .4-.1.6-.1.5.2.9.7 1h.2c.4 0 .8-.3.8-.7.1-.3.1-.6.1-.9 0-2.9-2.3-5.1-5-5.1zm2.3 5.8v3.7c0 .1 0 .2-.1.3-.1.1-.2.1-.3.2l-7.5.9c.1.3.1.5.1.5 0 .1-.1.2-.2.5h6.6c.1 0 .2 0 .3.1.1.1.1.2.1.3 0 .1 0 .2-.1.3-.1.1-.2.1-.3.1H3.7c-.1 0-.2 0-.3-.1-.1-.1-.1-.2-.1-.3 0-.1 0-.1.1-.2 0-.1.1-.2.1-.3 0-.1.1-.2.2-.3.1-.1.1-.2.1-.2L2.4 9.3H1c-.1 0-.2 0-.3-.1-.2-.2-.2-.3-.2-.4 0-.1 0-.2.1-.3.1-.1.2-.2.4-.2h2c.1 0 .1.1.1.1s.1.1.1.2 0 .1.1.2v.4H12c.1 0 .2 0 .3.1.2.2.2.3.2.4zm-7.7 7.2c.2.2.3.4.3.7 0 .2-.1.5-.3.6-.2.2-.4.3-.6.3-.3 0-.5-.1-.6-.3-.2-.2-.3-.4-.3-.6 0-.3.1-.5.3-.7.2-.2.4-.3.6-.3.2.1.5.1.6.3zm6.5 0c.2.2.3.4.3.7 0 .2-.1.5-.3.6-.2.2-.4.3-.6.3-.2 0-.5-.1-.6-.3-.2-.2-.3-.4-.3-.6 0-.3.1-.5.3-.7.2-.2.4-.3.6-.3.2.1.4.1.6.3z" fill="#036"/></svg>