<svg xmlns="http://www.w3.org/2000/svg" width="19" height="19" viewBox="0 0 19 19"><path d="M10.163.5c-.288 0-.571.015-.852.043a.856.856 0 0 0-.757.939.85.85 0 0 0 .928.765c.225-.024.451-.035.681-.035 3.669.007 6.637 3.008 6.644 6.718 0 .228-.011.45-.032.671a.853.853 0 0 0 .843.941.851.851 0 0 0 .843-.771c.026-.276.04-.558.04-.841C18.499 4.274 14.768.5 10.163.5zm0 3.359c-.36 0-.715.04-1.057.113a.855.855 0 0 0-.648 1.018.845.845 0 0 0 1.006.656c.226-.048.458-.075.7-.075 1.833.004 3.318 1.504 3.321 3.36 0 .212-.019.417-.056.617a.856.856 0 0 0 .834 1.013.85.85 0 0 0 .831-.698c.056-.303.085-.615.084-.932 0-2.802-2.244-5.072-5.015-5.072zm-3.161 9.392V6.04a1.407 1.407 0 0 0-2.814 0v7.211A2.812 2.812 0 0 0 5.595 18.5a2.814 2.814 0 0 0 1.407-5.249zm-1.407 4.124a1.685 1.685 0 1 1-.524-3.288V6.108a.523.523 0 1 1 1.047 0v7.979c.675.22 1.164.852 1.164 1.599a1.69 1.69 0 0 1-1.687 1.689z" fill="#036"/></svg>