<svg xmlns="http://www.w3.org/2000/svg" width="19" height="19" viewBox="0 0 19 19"><path d="M10.163.5c-.288 0-.571.015-.852.043a.856.856 0 0 0-.757.939.85.85 0 0 0 .928.765c.225-.024.451-.035.681-.035 3.669.007 6.637 3.008 6.644 6.718 0 .228-.011.45-.032.671a.853.853 0 0 0 .843.941.851.851 0 0 0 .843-.771c.026-.276.04-.558.04-.841C18.499 4.274 14.768.5 10.163.5zm0 3.359c-.36 0-.715.04-1.057.113a.855.855 0 0 0-.648 1.018.845.845 0 0 0 1.006.656c.226-.048.458-.075.7-.075 1.833.004 3.318 1.504 3.321 3.36 0 .212-.019.417-.056.617a.856.856 0 0 0 .834 1.013.85.85 0 0 0 .831-.698c.056-.303.085-.615.084-.932 0-2.802-2.244-5.072-5.015-5.072zM8.715 18.064l-.001-.137v-.789l-.006-.071-.062-.031-.066-.026-1.816-.79.017-.108c.11-.739.238-1.585.234-4.12v-.675l4.466 1.324.146.044.144.041v-1.484l-.058-.036-.054-.032-4.678-2.733c-.062-1.867-.22-2.764-.544-3.087a.492.492 0 0 0-.345-.154c-.56.001-.792.85-.878 3.238l-4.689 2.74-.054.028-.055.037-.002.06.001.064-.002 1.069v.292l.142-.044.145-.044 4.467-1.324.001.199v.481c-.002 2.625.138 3.392.265 4.066l.009.069.011.071-1.849.808-.07.023-.063.03-.003.073v.07l.003.723-.001.135.001.134.135-.025.131-.027 2.354-.482 2.353.484.133.025.134.026.004-.135z" fill="#036"/></svg>