<svg xmlns="http://www.w3.org/2000/svg" width="19" height="19" viewBox="0 0 19 19"><path d="M10.163.5c-.288 0-.571.015-.852.043a.856.856 0 0 0-.757.939.85.85 0 0 0 .928.765c.225-.024.451-.035.681-.035 3.669.007 6.637 3.008 6.644 6.718 0 .228-.011.45-.032.671a.853.853 0 0 0 .843.941.851.851 0 0 0 .843-.771c.026-.276.04-.558.04-.841C18.499 4.274 14.768.5 10.163.5zm0 3.359c-.36 0-.715.04-1.057.113a.855.855 0 0 0-.648 1.018.845.845 0 0 0 1.006.656c.226-.048.458-.075.7-.075 1.833.004 3.318 1.504 3.321 3.36 0 .212-.019.417-.056.617a.856.856 0 0 0 .834 1.013.85.85 0 0 0 .831-.698c.056-.303.085-.615.084-.932 0-2.802-2.244-5.072-5.015-5.072zm2.025 7.961l-1.113-.968-3.671-3.209a1.387 1.387 0 0 0-.904-.326c-.328 0-.656.11-.906.326L4.082 8.964v-.305c0-.288-.216-.522-.48-.522H2.411c-.266 0-.48.234-.48.522v2.186l-.009.008-1.109.967c-.498.435-.38 1.766.193 1.572.262-.084.645-.418.915-.661l.014-.013v5.166c0 .34.279.615.625.615l2.369.002v-3.188c0-.51.42-.927.934-.927h1.276c.513 0 .933.417.933.927v3.188l2.372-.002a.62.62 0 0 0 .621-.615v-4.889c.004.004.008-.277.012-.273.277.241.655.586.916.67.571.189.689-1.137.195-1.572z" fill="#036"/></svg>