<svg xmlns="http://www.w3.org/2000/svg" width="19" height="19" viewBox="0 0 19 19"><path d="M10.163.5c-.288 0-.571.015-.852.043a.856.856 0 0 0-.757.939.85.85 0 0 0 .928.765c.225-.024.451-.035.681-.035 3.669.007 6.637 3.008 6.644 6.718 0 .228-.011.45-.032.671a.853.853 0 0 0 .843.941.851.851 0 0 0 .843-.771c.026-.276.04-.558.04-.841C18.499 4.274 14.768.5 10.163.5zm0 3.359c-.36 0-.715.04-1.057.113a.855.855 0 0 0-.648 1.018.845.845 0 0 0 1.006.656c.226-.048.458-.075.7-.075 1.833.004 3.318 1.504 3.321 3.36 0 .212-.019.417-.056.617a.856.856 0 0 0 .834 1.013.85.85 0 0 0 .831-.698c.056-.303.085-.615.084-.932 0-2.802-2.244-5.072-5.015-5.072zM.5 13.488a2.955 2.955 0 0 0 2.952 2.951c.085 0 .169-.005.254-.014.141.928.352 1.697.672 2.074h7.13c1.325-1.325.94-8.513.94-8.513H3.492l-.02.555h-.021A2.954 2.954 0 0 0 .5 13.488zm.887 0c0-1.138.926-2.064 2.065-2.064l.003.001c-.015 1.114.002 2.704.141 4.114-.05.005-.095.019-.144.019a2.07 2.07 0 0 1-2.065-2.07z" fill="#036"/></svg>