<svg xmlns="http://www.w3.org/2000/svg" width="19" height="19" viewBox="0 0 19 19"><path d="M10.163.5c-.288 0-.571.015-.852.043a.856.856 0 0 0-.757.939.85.85 0 0 0 .928.765c.225-.024.451-.035.681-.035 3.669.007 6.637 3.008 6.644 6.718 0 .228-.011.45-.032.671a.853.853 0 0 0 .843.941.851.851 0 0 0 .843-.771c.026-.276.04-.558.04-.841C18.499 4.274 14.768.5 10.163.5zm0 3.359c-.36 0-.715.04-1.057.113a.855.855 0 0 0-.648 1.018.845.845 0 0 0 1.006.656c.226-.048.458-.075.7-.075 1.833.004 3.318 1.504 3.321 3.36 0 .212-.019.417-.056.617a.856.856 0 0 0 .834 1.013.85.85 0 0 0 .831-.698c.056-.303.085-.615.084-.932 0-2.802-2.244-5.072-5.015-5.072zM7.062 15.408H.938V7.44h6.124v7.968zM4 17.562a.657.657 0 1 1 .002-1.314A.657.657 0 0 1 4 17.562zM3.344 5.726h1.312c.12 0 .218.098.218.22a.219.219 0 0 1-.218.219H3.344a.22.22 0 1 1 0-.439zm3.062-.876H1.594C.992 4.85.5 5.343.5 5.946v10.958C.5 17.506.992 18 1.594 18h4.812c.602 0 1.094-.494 1.094-1.096V5.946c0-.603-.492-1.096-1.094-1.096z" fill="#036"/></svg>