<svg xmlns="http://www.w3.org/2000/svg" width="19" height="19" viewBox="0 0 19 19"><path d="M18.497 7.291c-.041-.338-.74-.793-1.04-1.139-.417-.479-.717-.913-1.04-1.139.205-.356.627-.496.644-1.04-.654-.543-.867.587-1.387.743-.18.054-.419-.039-.594 0-.188.041-.342.252-.545.346-.917.425-2.265.445-3.417.496a34.216 34.216 0 0 1-2.971 0c-1.637-.075-4.529-1.027-5.018.657a3.433 3.433 0 0 0-.043.974c-.029.075-.064.17-.106.285-.346.94-1.153 3.144-2.366 4.085a.297.297 0 1 0 .364.469c1.119-.868 1.895-2.611 2.333-3.744l.032.098c.042.088.074.175.101.261v.001c.242.811-.158 1.542-.249 2.262-.117.922.149 1.81.347 2.624.137.569.234 1.178.544 1.635.275-.006.602.039.743-.1.14-.751-.611-1.606-.148-2.377.545-.044.331 1.021.892.842.244-.078.244-.442.099-.742.244-.07.419-.209.595-.347.176.108.415.291.693.148.389-.524-.52-.508-.298-.99.728.049 1.44.359 2.229.347 1.218-.021 2.275-.633 3.318-.793.356 1.063.115 2.725.347 3.912.162.144.679.144.842 0 .144-1.16.194-2.413.396-3.516.786-.266 1.086-.846 1.486-1.585.257-.475.463-1.296.792-1.535.427-.309 1.279-.062 1.882-.099.193-.32.583-.701.543-1.039zM4.879 12.095c.212-.366.493-.663 1.139-.595-.037.533-.607.861-1.139.595zm6.03-1.457c-.952.473-1.647.64-2.199.64-.673 0-1.132-.248-1.582-.492-.471-.254-.915-.495-1.625-.453a.198.198 0 0 1-.022-.396c.821-.048 1.337.23 1.836.501.765.413 1.486.804 3.417-.154a.198.198 0 0 1 .266.089.2.2 0 0 1-.091.265zm5.66-3.955a.25.25 0 1 1-.001-.5.25.25 0 0 1 .001.5z" fill="#036"/></svg>