<svg xmlns="http://www.w3.org/2000/svg" width="19" height="19" viewBox="0 0 19 19"><path d="M10.89 5.762c.332 0 .617-.121.856-.362.239-.242.359-.538.359-.89s-.12-.649-.359-.891-.524-.362-.856-.362-.613.121-.848.362c-.233.241-.35.539-.35.891s.117.648.35.89c.234.241.516.362.848.362zm3.316 5.278a.9.9 0 0 0-.174-.465L12.614 6.81a1.144 1.144 0 0 0-2.177.12l-.614.27-.914-1.394a.734.734 0 0 0-.857-.29l-.163-.334.23-.325a.071.071 0 0 0 .005-.078L5.827.539c-.01-.018-.025-.031-.045-.036S5.743.5 5.725.51l-.963.569a.074.074 0 0 0-.028.097l2.177 4.312a.076.076 0 0 0 .073.04l.375-.036.253.45a.73.73 0 0 0 .068.67l1.254 1.914a.737.737 0 0 0 .91.27l.922-.405 1.295 3.44c.074.198.198.363.352.486v4.99a.897.897 0 0 0 1.796 0v-5.498a1.135 1.135 0 0 0-.003-.769zm-5.641.657a.34.34 0 0 0-.342-.34h-.84a.34.34 0 1 0 0 .682h.84a.342.342 0 0 0 .342-.342zm-1.25.478a.34.34 0 0 0-.34.341l-.006 5.643c0 .188.152.341.34.342h.001a.34.34 0 0 0 .341-.341l.005-5.644a.34.34 0 0 0-.341-.341zm1.363 0a.34.34 0 0 0-.341.341l-.006 5.643a.341.341 0 0 0 .682.001l.005-5.644a.34.34 0 0 0-.34-.341zm1.364 0a.34.34 0 0 0-.342.341l-.006 5.643c0 .188.152.341.341.342h.001a.34.34 0 0 0 .34-.341l.006-5.644a.341.341 0 0 0-.34-.341zm.295-.478a.34.34 0 0 0-.342-.34h-.84a.34.34 0 1 0 0 .682h.84a.342.342 0 0 0 .342-.342z" fill="#036"/></svg>