<svg xmlns="http://www.w3.org/2000/svg" width="19" height="19" viewBox="0 0 19 19"><path d="M6.232 11.535c2.214-.882 1.935-1.828 1.935-3.956-2.215.924-1.935 2.537-1.935 3.956zM3.867 7.579c0 2.128-.28 3.074 1.935 3.956 0-1.419.28-3.032-1.935-3.956zm2.365 7.439c2.214-.882 1.935-1.827 1.935-3.956-2.215.924-1.935 2.537-1.935 3.956zm-2.365-3.956c0 2.129-.28 3.074 1.935 3.956 0-1.419.28-3.032-1.935-3.956zM6.232 18.5c2.214-.881 1.935-1.827 1.935-3.955-2.215.924-1.935 2.536-1.935 3.955zm-2.365-3.955c0 2.128-.28 3.074 1.935 3.955 0-1.419.28-3.031-1.935-3.955zm2.15-10.233c-1.419 1.483-1.183 3.654 0 4.364 1.182-.71 1.419-2.881 0-4.364zm6.658 5.352c2.81-1.118 2.455-2.318 2.455-5.019-2.81 1.173-2.455 3.219-2.455 5.019zm-3-5.018c0 2.7-.354 3.9 2.455 5.019 0-1.801.354-3.847-2.455-5.019zm3 9.436c2.81-1.118 2.455-2.318 2.455-5.019-2.81 1.173-2.455 3.219-2.455 5.019zm-3-5.019c0 2.7-.354 3.9 2.455 5.019 0-1.8.354-3.846-2.455-5.019zm3 9.437c2.81-1.118 2.455-2.318 2.455-5.018-2.81 1.172-2.455 3.218-2.455 5.018zm-3-5.018c0 2.699-.354 3.899 2.455 5.018 0-1.8.354-3.846-2.455-5.018zM12.402.5c-1.8 1.882-1.5 4.637 0 5.536 1.5-.899 1.8-3.654 0-5.536z" fill="#036"/></svg>