<svg xmlns="http://www.w3.org/2000/svg" width="19" height="19" viewBox="0 0 19 19"><path d="M16 13.461c0 .292-.103.54-.307.743l-1.488 1.489c-.204.204-.452.307-.744.307s-.539-.103-.743-.307L9.5 12.477l-3.217 3.217a1.018 1.018 0 0 1-.744.306 1.02 1.02 0 0 1-.746-.307l-1.487-1.489c-.204-.203-.306-.451-.306-.743s.102-.539.307-.743L6.524 9.5 3.307 6.283A1.012 1.012 0 0 1 3 5.538c0-.291.102-.539.307-.744l1.487-1.488c.204-.204.453-.306.745-.306.291 0 .54.102.744.307L9.5 6.524l3.218-3.217c.204-.205.451-.307.743-.307s.54.102.744.307l1.488 1.488c.204.204.307.452.307.743 0 .292-.103.541-.307.745L12.477 9.5l3.217 3.218c.203.204.306.451.306.743z" fill="#036"/></svg>