<svg xmlns="http://www.w3.org/2000/svg" width="19" height="19" viewBox="0 0 19 19"><path d="M2.478.5c-.063.021-.103.064-.101.15v17.792c4.648.117 9.513.017 14.244.051v-17.992c-4.715-.001-9.429-.001-14.143-.001zm13.493 17.342h-2.748l-.1-1.049c-.061-.47-.248-.965-.25-1.45-.002-.342.137-.691.15-1.05.018-.465-.08-.926-.102-1.398v-.75c-.01-.248-.07-.488-.049-.699.016-.162.041-.246.1-.4l.1-.149c.072-.373-.021-.812-.1-1.2-.062-.313-.109-.659-.35-.85-.988-.107-2.066.074-2.798-.35.072-.28.109-.613.15-.95.039-.322.039-.636.199-.85-.061-.209-.051-.388.051-.549-.117-.298-.246-.601-.451-.85-.214-.26-.537-.548-.949-.6-.772-.097-1.564.327-1.999.8-.104.214-.104.455-.149.7-.049.26-.137.495-.1.75.014.095.137.345.199.45l.1.2c.225.256.688.292.85.7.037.094.122.545.1.7-.061.431-.58.682-.899.947l-.051.1c-.21.096-.455.317-.649.5-.164.155-.331.293-.45.55-.002.647-.017 1.223.101 1.749.079.359.248.672.35 1 .103.33.089.752.399.949.431.171.728-.199 1.15-.199.006.344.055.578-.051.898-.146.446-.474.873-.649 1.4l-.3.949h-3.748v-16.542c-.004-.071-.008-.141.05-.15h12.893v16.693z" fill="#036"/></svg>