<svg xmlns="http://www.w3.org/2000/svg" width="19" height="19" viewBox="0 0 19 19"><path d="M9.521 9.498a4.142 4.142 0 0 0-4.143 4.146 4.144 4.144 0 1 0 8.287 0 4.143 4.143 0 0 0-4.144-4.146zm2.015 6.183a1.57 1.57 0 0 1-.406.528c-.171.148-.37.263-.599.345-.23.084-.475.139-.727.163v.548h-.515v-.548c-.344 0-.686-.045-1.026-.139a2.278 2.278 0 0 1-.901-.49l.828-.933c.136.169.299.286.492.355.193.073.396.115.608.133v-1.321l-.573-.172c-.396-.124-.695-.298-.901-.526-.205-.225-.309-.54-.309-.933 0-.244.05-.468.149-.663.098-.196.23-.365.394-.507a2.05 2.05 0 0 1 .569-.345c.217-.088.44-.147.667-.172v-.548H9.8v.548c.282 0 .575.035.875.109.301.071.568.201.798.38l-.75.917a1.107 1.107 0 0 0-.432-.24 2.109 2.109 0 0 0-.491-.091v1.243l.75.218c.344.105.617.275.824.511.206.238.307.538.307.9.002.279-.044.523-.145.73zm-2.811-3.043a.476.476 0 0 0 .235.439.634.634 0 0 0 .186.08c.064.017.111.032.141.04v-1.093a1.049 1.049 0 0 0-.391.164c-.112.081-.171.204-.171.37zm1.584 2.056a.623.623 0 0 0-.163-.104l-.194-.081-.15-.056v1.173c.08-.018.159-.037.239-.068a.657.657 0 0 0 .216-.114.51.51 0 0 0 .15-.164.447.447 0 0 0 .059-.23.471.471 0 0 0-.043-.212.408.408 0 0 0-.114-.144zm-1.52-9.339a4.144 4.144 0 1 0-8.289 0 4.144 4.144 0 0 0 4.145 4.143 4.143 4.143 0 0 0 4.144-4.143zm-2.786-.767l-.127.615H3.74a7.45 7.45 0 0 0 .005.524h2.021l-.127.615H3.828c.066.284.168.506.306.667a1.29 1.29 0 0 0 1.032.469c.508 0 .913-.157 1.215-.469v1.215c-.345.173-.746.258-1.203.258-.773 0-1.409-.264-1.906-.794-.338-.359-.562-.808-.67-1.346h-.588l.127-.615h.389a6.416 6.416 0 0 1 .003-.524h-.52l.127-.615h.472c.111-.527.333-.967.664-1.322.5-.535 1.157-.801 1.973-.801.444 0 .831.081 1.159.242l-.234 1.1c-.225-.225-.553-.338-.984-.338-.433 0-.781.156-1.049.464a1.544 1.544 0 0 0-.322.655h2.184zm8.352-3.378a4.144 4.144 0 0 0 0 8.288 4.144 4.144 0 1 0 0-8.288zm1.611 6.879a2.232 2.232 0 0 1-.572.077c-.239 0-.557-.056-.954-.168-.396-.112-.69-.167-.879-.167-.324 0-.654.114-.989.345l-.427-.961c.3-.215.515-.444.645-.686.132-.242.197-.473.197-.693 0-.07-.006-.147-.017-.227h-.826v-.876h.625a2.884 2.884 0 0 1-.163-.95c0-.288.079-.563.236-.826.157-.261.38-.46.67-.597.288-.137.603-.204.943-.204.521 0 .938.132 1.247.396.309.264.499.642.567 1.134l-1.075.158c-.051-.284-.142-.487-.274-.612a.695.695 0 0 0-.497-.186.721.721 0 0 0-.737.746c0 .111.02.258.058.44.037.184.085.349.141.501h1.237v.876h-1.055c.008.06.011.118.011.175 0 .21-.038.404-.119.581-.077.178-.239.41-.488.699.146-.074.33-.112.549-.112.093 0 .176.006.251.016.036.006.146.031.325.075.319.083.537.124.653.124.207 0 .478-.073.811-.223l.43.946a2.364 2.364 0 0 1-.524.199z" fill="#036"/></svg>