<svg xmlns="http://www.w3.org/2000/svg" width="19" height="19" viewBox="0 0 19 19"><path d="M.5 13.893h6.09v-1.328H.5v1.328zm0-4.304h6.09V8.261H.5v1.328zm0 2.151h6.09v-1.328H.5v1.328zm0 4.305h6.09v-1.328H.5v1.328zm16.582-1.259c-.257 0-.502.058-.719.159-.215.095-.451.15-.699.15-.247 0-.487-.057-.698-.15a1.707 1.707 0 0 0-1.437 0 1.717 1.717 0 0 1-.981.125l.24 1.07h.04c.254 0 .488-.052.701-.146.217-.104.459-.161.718-.161.258 0 .497.06.719.161a1.74 1.74 0 0 0 1.397 0c.217-.104.464-.161.719-.161.254 0 .5.06.719.161.211.096.45.146.699.146v-1.045a1.73 1.73 0 0 1-.699-.15 1.701 1.701 0 0 0-.719-.159zM8.559 2.858H7.505v13.187h4.625S9.507 4.277 9.331 3.728c-.177-.55-.407-.87-.772-.87zm9.242 10.165a1.658 1.658 0 0 0-.719-.16c-.257 0-.502.057-.719.16-.215.095-.451.15-.699.15-.247 0-.487-.057-.698-.15a1.678 1.678 0 0 0-.719-.16c-.259 0-.499.057-.718.16-.213.095-.45.15-.701.15-.247 0-.482-.057-.698-.15l.257 1.139a1.76 1.76 0 0 0 1.142-.089 1.69 1.69 0 0 1 1.437 0 1.74 1.74 0 0 0 1.397 0 1.693 1.693 0 0 1 1.438 0c.211.093.45.146.699.146v-1.044c-.252 0-.488-.057-.699-.152zM.5 7.437h6.09V6.109H.5v1.328zm0-2.152h6.09V3.957H.5v1.328z" fill="#036"/></svg>