<svg xmlns="http://www.w3.org/2000/svg" width="19" height="19" viewBox="0 0 19 19"><path d="M6.471 2.893c1.275 1.43.6 3.161.6 3.161-.261-2.118-1.278-2.775-1.747-2.969a10.808 10.808 0 0 0-.24-.076l-.004-.001.004.001c-8.059-2.535-3.04 7.164-3.04 7.164-.45 4.975.151 8.327.884 8.327.734 0 2.328-7.053 3.193-6.779.869.273 1.743 6.72 2.644 6.72.903 0 .96-8.424.96-8.424C13.571-.021 6.471 2.893 6.471 2.893zM8.845.866L8.808.858l.037.008zM14.512.5a.478.478 0 0 0-.184.92v8.897a.184.184 0 1 0 .369 0V1.419a.48.48 0 0 0 .294-.441.48.48 0 0 0-.479-.478zm.952.782c-.829-.197-.482 1.7-.346 1.759.387.167.965.096 1.196-.367.304.289 1.011.087 1.269-.374.376.043.84-.275.914-.563.076-.301-1.245-.029-3.033-.455zm-1.559 1.759c.139-.06.485-1.957-.345-1.759-1.789.426-3.109.154-3.032.455.074.289.536.606.911.563.26.461.968.663 1.271.374.23.463.809.534 1.195.367zm-1.009.327a.579.579 0 0 0-.317.529c0 .558.484.804 1.049.96-.223.132-.37.312-.37.582 0 .353.288.558.645.725-.281.161-.493.37-.493.684 0 .321.256.514.565.673-.229.158-.399.357-.399.645 0 .314.231.62.558.88-.485.386-.992.737-.925.737l.026-.001c.252-.028.582-.131.907-.282V8.335c-.044-.065-.075-.124-.075-.169 0-.049.031-.098.075-.145v-.968c-.134-.073-.242-.147-.242-.206 0-.091.099-.177.241-.259v-.854c-.209-.095-.393-.201-.393-.295 0-.115.166-.205.393-.278v-.684c-.617-.138-1.071-.281-1.071-.58 0-.049.015-.073.059-.096.157-.085.494-.04.692.093a.247.247 0 0 0 .34-.068.244.244 0 0 0-.068-.341c-.309-.206-.843-.306-1.197-.117zm3.231 0c-.354-.189-.888-.089-1.197.117a.248.248 0 0 0-.067.341.245.245 0 0 0 .34.068c.2-.133.535-.178.694-.093.042.022.057.047.057.096 0 .298-.453.442-1.07.58v.685c.226.073.393.163.393.278 0 .094-.183.2-.393.295v.854c.141.082.241.167.241.259 0 .059-.108.133-.241.206v.967c.043.047.076.096.076.145 0 .046-.032.104-.076.169v1.164c.326.151.653.254.906.282l.028.001c.064 0-.44-.351-.925-.737.326-.261.556-.566.556-.88 0-.288-.169-.487-.398-.645.309-.159.565-.352.565-.673 0-.313-.212-.522-.492-.684.356-.167.644-.372.644-.725 0-.27-.148-.45-.369-.582.562-.156 1.046-.402 1.046-.96a.583.583 0 0 0-.318-.528z" fill="#036"/></svg>