<svg xmlns="http://www.w3.org/2000/svg" width="19" height="19" viewBox="0 0 19 19"><path d="M3.072 18.025c.26 0 .615.079 1.07.237.453.16.81.238 1.068.238.26 0 .616-.078 1.07-.237.454-.158.811-.237 1.07-.237s.619.079 1.08.237c.462.159.815.237 1.06.237.26 0 .62-.078 1.081-.237.461-.158.822-.237 1.08-.237.246 0 .598.079 1.059.237.461.159.822.237 1.08.237.26 0 .617-.078 1.07-.237.455-.158.811-.237 1.07-.237.258 0 .615.079 1.07.237.453.159.809.237 1.068.237v-1.599c-.26 0-.615-.075-1.068-.228-.455-.15-.812-.227-1.07-.227-.26 0-.619.076-1.08.227-.463.152-.814.228-1.061.228-.258 0-.619-.075-1.08-.228-.461-.15-.812-.227-1.059-.227-.258 0-.619.076-1.08.227-.461.152-.821.228-1.081.228-.245 0-.598-.075-1.059-.228-.461-.15-.821-.227-1.08-.227-.26 0-.616.076-1.07.227-.454.152-.811.228-1.07.228s-.615-.075-1.068-.228c-.455-.15-.811-.227-1.07-.227s-.619.076-1.081.227c-.461.152-.814.228-1.059.228V18.5c.245 0 .598-.078 1.059-.237.462-.159.821-.238 1.081-.238zm2.701-7.303c.403 0 .746-.141 1.026-.422.282-.281.421-.623.421-1.027 0-.389-.14-.724-.421-1.005-.28-.281-.623-.421-1.026-.421s-.746.14-1.026.421-.421.617-.421 1.005c0 .403.141.745.421 1.026s.623.423 1.026.423zm-.497 5.424a.772.772 0 0 0 .713-.411l2.334-4.062 5.099-3.155c.217-.144.383-.316.498-.519l3.521-5.985a.937.937 0 0 0 .131-.497.992.992 0 0 0-.293-.713.932.932 0 0 0-.701-.304c-.389 0-.686.173-.887.519L12.754 6.01 8.453 8.604c-.23.144-.404.316-.52.519l-3.371 5.792a.766.766 0 0 0-.107.41c0 .216.083.406.248.572a.791.791 0 0 0 .573.249z" fill="#036"/></svg>