<svg xmlns="http://www.w3.org/2000/svg" width="19" height="19" viewBox="0 0 19 19"><path d="M17.22 3.907c-.204-.787-.743-1.24-1.568-1.405-.128-.174-.072-.354-.29-.451-.25-.111-1.223-.139-1.444.083-.141.14-.28.599-.371.976-.064.135-.125.286-.206.438-.212.398-.592.813-.96 1.28-.555.702-.852 1.277-1.56 1.68-.875.499-2.082.707-3.28.88-1.2.173-2.438.332-3.72.44-1-.43-1.203-1.653-1.721-2.561-.432.997-.093 2.208.44 2.84.153.182.39.461.4.64.022.46-.534.828-.681 1.319-.297.99.186 2.302-.2 3.04-.175.335-.647.443-.84.76.004.884-.396 1.363-.72 1.92v.08c.203.158-.06.538.12.72.229.221.95.205 1.28.08.128-.397-.202-.603-.48-.72.23-.97.783-1.616 1.44-2.16 1.336-.409 2.267-1.227 2.88-2.359 1.979-.205 3.085.807 5.16.64.161.611.154 1.392.239 2.08.032.142.247.1.28.24.052.583.304 1.18.12 1.76.243.182.168.576.44.76.318.215.83.127 1.199-.04.016-.241-.003-.45-.08-.6-.114-.085-.348-.052-.479-.12-.36-.948-.16-2.021 0-3.08.08-.528.115-1.14.28-1.52.231-.533.694-.778 1-1.24.387-.586.267-1.481.6-2.16.158-.322.469-.632.68-.96.229-.354.396-.745.681-.92.602.233 1.989.397 1.64-.56.592-.062.78-.527 1-.96v-.12c-.303-.363-.871-.462-1.279-.72z" fill="#036"/></svg>