<svg xmlns="http://www.w3.org/2000/svg" width="19" height="19" viewBox="0 0 19 19"><path d="M17.673 3.298H9.996a.828.828 0 0 0-.827.827v12.117h1.654V4.952h6.023v11.29H18.5V4.125a.828.828 0 0 0-.827-.827zM8.146 9.631l-.002-.024-.005-.033-.004-.024-.006-.032-.007-.026c-.002-.01-.004-.02-.008-.03-.002-.01-.006-.02-.01-.031l-.008-.023-.016-.038-.006-.014c-.007-.014-.013-.027-.021-.04l-.006-.013-.017-.027-.013-.023a.25.25 0 0 1-.012-.017l-.022-.03-.01-.014-.027-.031-.001-.001-2.549-2.864-1.204 1.071 1.355 1.522H.5V10.5h5.105l-1.411 1.664 1.229 1.041 2.529-2.984.004-.005.012-.016.022-.028.015-.021.018-.025.016-.027.013-.022.017-.034c.003-.006.006-.01.008-.017l.001-.001.015-.039.007-.016a.918.918 0 0 0 .026-.09l.005-.021a.246.246 0 0 0 .006-.036.155.155 0 0 0 .004-.021l.004-.032.002-.024.001-.03.001-.027-.002-.027-.001-.031z" fill="#036"/></svg>