<svg xmlns="http://www.w3.org/2000/svg" width="19" height="19" viewBox="0 0 19 19"><path d="M9.104 3.298H1.427a.829.829 0 0 0-.827.827v12.117h1.654V4.952h6.024v11.29h1.654V4.125a.828.828 0 0 0-.828-.827zm9.294 6.364c0-.011 0-.021-.002-.031 0-.008 0-.016-.002-.024l-.004-.033-.004-.024-.006-.033-.008-.025c-.002-.01-.004-.02-.008-.03-.002-.01-.006-.02-.01-.031a.21.21 0 0 1-.008-.023l-.017-.038a.078.078 0 0 1-.005-.014h-.001l-.021-.039-.006-.013-.018-.027c-.004-.008-.008-.016-.014-.023l-.012-.017-.021-.031-.01-.013-.027-.032-.002-.002-2.548-2.863-1.204 1.071 1.355 1.522h-5.047V10.5h5.104l-1.411 1.664 1.23 1.041 2.528-2.984h.001l.004-.005.012-.016a.17.17 0 0 0 .021-.028l.016-.021.018-.025.016-.027.014-.022c.006-.013.012-.022.016-.034a.091.091 0 0 0 .009-.017l.001-.001.016-.039.006-.016.014-.039a.92.92 0 0 1 .013-.05l.005-.021a.246.246 0 0 0 .006-.036l.004-.021.004-.032.002-.024v-.03a.15.15 0 0 0 .003-.029l-.002-.026z" fill="#036"/></svg>