<svg xmlns="http://www.w3.org/2000/svg" width="19" height="19" viewBox="0 0 19 19"><path d="M17.803 1.592L16.61 5.799h-6.074l1.462 11.609h4.972l1.486-11.609H17.33l1.17-4.005-.697-.202zM9.815 12.571c.12-1.05-.675-1.62-2.385-1.71H3.312c-1.709.09-2.512.66-2.407 1.71h8.91zm-8.91 3.15c-.105 1.051.698 1.612 2.407 1.688H7.43c1.71-.075 2.505-.637 2.385-1.688H.905zm8.527-2.34H1.265c-.21 0-.39.075-.54.226a.708.708 0 0 0-.225.516.755.755 0 0 0 .765.766h8.167a.754.754 0 0 0 .765-.766.712.712 0 0 0-.225-.517.733.733 0 0 0-.54-.225z" fill="#036"/></svg>