<svg xmlns="http://www.w3.org/2000/svg" width="19" height="19" viewBox="0 0 19 19"><path d="M15.843 11.115c-.327-.729-2.034-1.377-2.623-1.582-.914-2.001-.42-4.528-.42-4.528-.162.72-.368.995-.368.995-.161 1.299-1.22 2.37-1.22 2.37-.019.346.025.643.108.897-1.638 2.643-2.975 1.261-3.633.181.127-.29.2-.643.177-1.078 0 0-1.058-1.071-1.219-2.37 0 0-.206-.275-.367-.994 0 0 .491 2.52-.417 4.519-.704.302-1.413.517-1.413.517-.765.293-1.089.734-1.089.734-1.132 1.678-1.264 5.412-1.264 5.412.015.853.383.942.383.942 2.602 1.16 6.683 1.364 6.683 1.364 4.191.091 7.241-1.189 7.241-1.189.444-.278.457-.5.457-.5.308-2.676-1.016-5.69-1.016-5.69zm-4.496-7.74c.043.166.313 1.027 1.22 1.413 0 0 .032-.354.132-.386 0 0 .109.055.143.188 0 0 .237-2.258-.791-3.1l.005-.012c-2.145-1.894-4.573-.454-4.573-.454-1.779 1.145-1.282 3.619-1.282 3.619 3.346.316 5.093-1.222 5.146-1.268z" fill="#036"/></svg>