<svg xmlns="http://www.w3.org/2000/svg" width="19" height="19" viewBox="0 0 19 19"><path d="M17.685 10.32c.201-.618.408-1.372.679-1.966.155-.272.184-.548.059-.551a.94.94 0 0 0-.197.073c-.089.042-.32.148-.511.234s-.422.22-.515.301a3.017 3.017 0 0 1-1.831.512c-.755-.151-1.732-.27-2.486-.784-1.158-.623-1.258-.672-1.739-.842a4.935 4.935 0 0 1-.498-.193c-.013-.013.053-.091.144-.175.092-.084.159-.196.149-.247s-.286-.192-.613-.316a3.313 3.313 0 0 1-1.011-.606c-.214-.195-.435-.339-.512-.337a.028.028 0 0 0-.013.003c-.06.024-.38.378-.712.789l-.604.745-.436.033c-1.998.242-3.626 1.06-5.125 2.376-.311.329-1.482 1.419-1.41 1.684.025.026.303-.007.61.033.575.073 1.456.186 1.451.307-.003.062-.497.121-1.4.236-.774.099-.768.261.022.54.946.334 2.189.542 4.198.396h.068c.52.506 1.19.97 1.712 1.004 1.372.089.944-.582.886-1.434.52-.142 1.037-.295 1.565-.421.099-.005.389-.087.644-.186 1.533-.438 2.795-.868 4.049-.739 1.159.06 1.932.848 2.846 1.415.038 0 .271.151.518.335.668.499.838.429.576-.238-.217-.547-.57-1.794-.563-1.981zm-14.974.068a.303.303 0 1 1 .001-.605.303.303 0 0 1-.001.605z" fill="#036"/></svg>