<svg xmlns="http://www.w3.org/2000/svg" width="19" height="19" viewBox="0 0 19 19"><path d="M.5 13.844h18V5.156H.5v8.688zm1.404-8.13V9.22h-.845V5.714h.845zm14.633 5.429h-.996V7.784h.996v3.359zM2.462 7.784h.772v3.359h-.772V7.784zm11.054 3.359h-.91V7.784h.91v3.359zm.558-3.359h.908v3.359h-.908V7.784zm-2.027 3.359h-.91V7.784h.91v3.359zm-1.469 0h-.91V7.784h.91v3.359zm-1.468 0H8.2V7.784h.91v3.359zm-1.469 0H6.73V7.784h.911v3.359zm-1.469 0h-.91V7.784h.91v3.359zm-1.469 0h-.91V7.784h.91v3.359zm-1.469.558v1.584h-.772v-1.584h.772zm.559 0h.91v1.584h-.91v-1.584zm1.469 0h.91v1.584h-.91v-1.584zm1.468 0h.911v1.584H6.73v-1.584zm1.47 0h.91v1.584H8.2v-1.584zm1.468 0h.91v1.584h-.91v-1.584zm1.469 0h.91v1.584h-.91v-1.584zm1.468 0h.91v1.584h-.91v-1.584zm1.469 0h.908v1.584h-.908v-1.584zm1.467 0h.996v1.584h-.996v-1.584zm0-4.476V5.714h.996v1.511h-.996zm-.559 0h-.908V5.714h.908v1.511zm-1.466 0h-.91V5.714h.91v1.511zm-1.469 0h-.91V5.714h.91v1.511zm-1.469 0h-.91V5.714h.91v1.511zm-1.468 0H8.2V5.714h.91v1.511zm-1.469 0H6.73V5.714h.911v1.511zm-1.469 0h-.91V5.714h.91v1.511zm-1.469 0h-.91V5.714h.91v1.511zm-1.469 0h-.772V5.714h.772v1.511zM1.059 9.779h.845v3.506h-.845V9.779zm16.037 3.506V9.779h.846v3.506h-.846zm.845-4.065h-.846V5.714h.846V9.22z" fill="#036"/></svg>