<svg xmlns="http://www.w3.org/2000/svg" width="19" height="19" viewBox="0 0 19 19"><path d="M17.135 16.747c-.244-.054-.469-.318-.877-.3-.418.014-1.008.389-1.577.389a1.903 1.903 0 0 1-.433-.066v-1.603l-.303-.304h-1.147v-1.314l-.351-.352H10.34c.139-.7.453-1.588.868-2.416.648-1.294 1.278-1.948 1.614-2.022.572-.126 1.551 1.139 2.032 2.034a.351.351 0 0 0 .618-.332c-.015-.025-.351-.648-.831-1.249-.71-.886-1.372-1.269-1.969-1.137-.813.18-1.574 1.403-2.004 2.224a33.81 33.81 0 0 1 .643-2.308c.978-3.067 1.862-4.156 2.322-4.156.149 0 .736.139 2.018 1.916a24.326 24.326 0 0 1 1.308 2.037.351.351 0 0 0 .611-.344c-.023-.043-.6-1.062-1.346-2.099-1.073-1.487-1.92-2.21-2.59-2.21-.578 0-1.135.491-1.703 1.501-.43.764-.875 1.851-1.286 3.142-.3.938-.571 1.958-.786 2.916V1.35a.35.35 0 1 0-.702 0v9.415a34.823 34.823 0 0 0-.801-2.987C7.945 6.487 7.5 5.401 7.071 4.637c-.569-1.01-1.126-1.501-1.704-1.501-.67 0-1.517.723-2.589 2.21a24.865 24.865 0 0 0-1.346 2.099.35.35 0 0 0 .61.343c.005-.01.58-1.027 1.304-2.032 1.284-1.782 1.872-1.92 2.021-1.92.46 0 1.345 1.088 2.322 4.156.246.772.462 1.561.642 2.308-.429-.821-1.19-2.044-2.004-2.224-.596-.133-1.258.25-1.968 1.136-.481.601-.816 1.223-.831 1.249a.35.35 0 1 0 .617.332c.481-.895 1.46-2.16 2.032-2.034.337.074.966.729 1.615 2.022.415.828.729 1.716.869 2.416H6.7l-.35.352v1.314h-.986l-.303.304v1.646a1.646 1.646 0 0 1-.391.076c-.527.009-1.004-.385-1.469-.389-.47-.008-.996.287-1.313.354-.316.063-.517.062-.592.017v1.096c.075.045.276.047.592-.017.317-.065.843-.361 1.313-.354.465.004.942.397 1.469.389.523-.024 1.109-.438 1.644-.459.521-.017.986.36 1.51.37.533.004 1.073-.35 1.644-.335.562.009 1.134.392 1.708.389.564-.013 1.1-.419 1.688-.424.59 0 1.239.394 1.817.405.569 0 1.16-.375 1.577-.389.408-.015.633.246.877.303.242.051.426.059.569.016v-1.096c-.143.04-.327.034-.569-.018z" fill="#036"/></svg>