<svg xmlns="http://www.w3.org/2000/svg" width="19" height="19" viewBox="0 0 19 19"><path d="M3.331 18.5h5.208V9.102H3.331V18.5zm7.128 0h5.211V9.102h-5.211V18.5zM3.331 7.83h5.208V4.945H3.331V7.83zm7.128-2.885V7.83h5.211V4.945h-5.211zm1.537-1.618c.695-1.18.797-2.408.225-2.744A.634.634 0 0 0 11.896.5c-.582 0-1.385.639-1.962 1.619-.19.327-.337.661-.434.978a4.559 4.559 0 0 0-.432-.978C8.489 1.139 7.686.5 7.104.5a.64.64 0 0 0-.325.083c-.571.336-.47 1.564.225 2.744.573.98 1.378 1.618 1.96 1.618a.642.642 0 0 0 .329-.084.657.657 0 0 0 .207-.218.646.646 0 0 0 .209.219.645.645 0 0 0 .329.084c.581-.001 1.386-.638 1.958-1.619zm-3.064.939c-.238-.031-.83-.413-1.341-1.282-.536-.909-.55-1.618-.464-1.803.233.022.834.403 1.352 1.282.155.265.281.547.374.836l.229.728-.15.239zm1.14.008l-.157-.237.234-.738c.09-.287.217-.569.375-.836.516-.879 1.115-1.26 1.352-1.282.084.185.072.894-.467 1.803-.513.88-1.122 1.262-1.337 1.29z" fill="#036"/></svg>