<svg xmlns="http://www.w3.org/2000/svg" width="19" height="19" viewBox="0 0 19 19"><path d="M17.049 14.088a1.876 1.876 0 0 0-1.096-.356c-.492 0-.902.19-1.125.319l-.95-3.473c.064-.259 1.522-6.821 1.757-9.015.09-.84.063-.891.024-.946a.158.158 0 0 0-.113-.067l-.025-.001a.18.18 0 0 0-.158.082.136.136 0 0 0-.017.039l-2.09 7.637L11.154.62a.176.176 0 0 0-.175-.12l-.023.001a.157.157 0 0 0-.115.067c-.037.055-.048.104.025.946.209 2.406 1.701 8.791 1.77 9.066l-.963 3.52a2.3 2.3 0 0 0-1.125-.318c-.391 0-.76.119-1.095.356-.935.659-1.167 1.743-.672 3.132.267.748.906 1.23 1.63 1.23.426 0 .805-.181 1.1-.475.754-.751 1.072-2.533 1.746-5.033.672 2.479 1.109 4.411 1.733 4.983.308.282.676.476 1.101.476.724 0 1.364-.484 1.631-1.231.494-1.389.261-2.472-.673-3.132zm-6.664 3.715c-.545 0-1.18-.718-1.181-1.646 0-.913.623-1.597 1.179-1.599l.002-.146v.146c.58 0 1.205.559 1.205 1.46.002.943-.672 1.784-1.205 1.785zm5.728-.049c-.531-.002-1.205-.842-1.203-1.785.001-.901.626-1.459 1.205-1.459v-.147l.002.147c.557.002 1.18.686 1.179 1.601-.001.924-.636 1.643-1.183 1.643zM6.458 5.831a.51.51 0 0 0 0-1.018H3.17V3.769h3.288a.51.51 0 0 0 0-1.018H2.476a.51.51 0 0 0-.509.509v13.287a.51.51 0 0 0 .509.508h3.982a.51.51 0 0 0 0-1.018H3.17v-1.172h3.288a.51.51 0 0 0 0-1.018H3.17v-1.242h3.288a.509.509 0 1 0 0-1.018H3.17v-1.24h3.288a.509.509 0 1 0 0-1.017H3.17V8.09h3.288a.51.51 0 0 0 0-1.018H3.17V5.831h3.288z" fill="#036"/></svg>