<svg xmlns="http://www.w3.org/2000/svg" width="19" height="19" viewBox="0 0 19 19" enable-background="new 0 0 19 19"><path d="M5.2 5.7l3-2.3c.8-.6 1.9-.8 2.9-.4l4.8 1.8c.4.2.7.2 1 .2h.8c.2 0 .4.2.4.4v5.9c0 .2-.2.4-.4.4h-1l-.4.1-.3.3h-.2l-5.6-6.8c-.1-.2-.4-.3-.6-.2l-2.5 1.5c-.5.3-1.2.3-1.7.1-.3-.2-.4-.5-.3-.8l.1-.2zm-3.9 6h.9l.6-.7c.6-.7 1.6-.8 2.3-.2.3.2.4.5.5.8.5.1 1 .6 1.1 1.1.4.1.7.4.9.7.3.1.7.2.9.5.5.5.6 1.4.2 2v.1c.4.3 1 .2 1.3-.2.1-.2.2-.5.1-.7l.1.1c.3.3.8.4 1.2.1.3-.2.4-.6.4-.9l.1.1c.3.3.8.4 1.2.1.3-.2.5-.6.4-.9l.1.1c.3.3.8.4 1.1.1.4-.3.6-.8.3-1.3 0-.1-.1-.1-.1-.1l-.6-.7-4.4-5.7c0-.1-.1-.1-.2 0l-2.2 1.2c-.7.4-1.6.5-2.3.2-.4-.2-.8-.5-.9-.9-.1-.4-.1-.9.1-1.3.1-.1 0-.2-.1-.3h-3.1c-.1 0-.3.2-.3.4v5.9c0 .2.2.4.4.4zm3.2-.4c-.3-.2-.8-.1-1 .2l-.6.8c-.3.3-.2.8.1 1.1l.1.1c.2.2.6.2.9.1h.1c-.1.3.1.6.3.8l.1.1c.2.2.6.2.8.1h.1c0 .3.1.5.3.7h.1c.2.2.6.2.8.1h.1c0 .2.1.4.3.5.3.3.8.2 1.1-.1 0 0 0-.1.1-.1l.1-.2c.2-.3.1-.7-.1-1-.2-.2-.6-.3-.9-.1 0-.4-.3-.8-.7-.8-.1 0-.2 0-.3.1-.1 0-.1-.1-.1-.1.2-.4 0-.9-.4-1-.2-.1-.5-.1-.7 0-.1 0-.1-.1-.1-.1 0-.5-.2-1-.5-1.2z" fill="#036"/></svg>