<svg xmlns="http://www.w3.org/2000/svg" width="19" height="19" viewBox="0 0 19 19"><path d="M2.557 12.154L.5 13.426v1.664h2.85a3.377 3.377 0 0 1-.793-2.936zm14.561-5.992l.928.366.454-1.151-1.036-.409-8.419-.042-.639 1.21-.325-1.22h.049V3.252H2.006v1.664h.646l1.294 4.983h.271a3.349 3.349 0 0 1 1.669-.454 3.4 3.4 0 0 1 3.4 3.399c0 .2-.025.394-.06.581h2.055a2.782 2.782 0 0 1 5.564 0h.39V8.779l-1.636-1.476H9.187l.602-1.141h7.329zM6.591 7.303v1.36H4.903l-.972-3.747h2.871l.635 2.387h-.846zm7.475 3.956c-1.196 0-2.17.971-2.17 2.167s.974 2.169 2.17 2.169a2.169 2.169 0 0 0 0-4.336zm0 2.984zM5.887 9.94zm0 4.303a1.398 1.398 0 1 1 0-2.796 1.398 1.398 0 0 1 0 2.796z" fill="#036"/></svg>