<svg xmlns="http://www.w3.org/2000/svg" width="19" height="19" viewBox="0 0 19 19"><path d="M6.539 18.386c-1.059-.276-1.975-.829-2.836-1.714-1.372-1.408-2.121-2.915-2.564-5.158-.253-1.279-.253-1.311-.021-1.48.477-.349.666-.224.826.551.834 4.033 3.448 6.655 5.991 6.01.758-.193 1.481-.921 1.699-1.711.281-1.018-.214-2.777-1.073-3.818l-.305-.37-.516.531c-.546.562-1.219 1.025-1.49 1.026-.164.001-.909-1.507-.909-1.837 0-.098.354-.339.788-.537 1.216-.556 1.733-1.182 1.733-2.098 0-.596-.105-.804-.513-1.015-.526-.271-1.4-.225-2.461.131-.516.173-.968.315-1.004.315-.093 0-.811-1.626-.811-1.836 0-.361.779-.607 2.08-.658 1.193-.046 1.297-.03 1.951.314a3.452 3.452 0 0 1 1.701 2.083c.219.736.25 1.694.071 2.165-.191.5.051.504.698.01.707-.54 1.186-.751 1.962-.868.56-.084.588-.108.74-.655.365-1.305 1.333-2.075 2.63-2.093.968-.014 1.512.185 2.07.757.738.755 1.002 1.667 1.066 3.679.08 2.497-.256 3.848-1.232 4.96-.843.959-2.167 1.313-3.2.856-.872-.386-1.103-.984-1.203-3.129-.063-1.377-.117-1.705-.313-1.922-.305-.336-.491-.328-1.313.055l-.674.313.271.41c1.757 2.661 1.394 5.56-.822 6.539-.698.311-2.203.407-3.017.194zm9.108-4.494c.909-.554 1.511-2.111 1.379-3.566-.087-.952-.641-2.074-1.211-2.452-.771-.511-1.832-.343-2.527.401l-.309.33.242.406c.202.338.249.703.282 2.171.047 2.062.066 2.183.415 2.626.333.423 1.112.461 1.729.084zM9.375 5.363a5.558 5.558 0 0 1-1.092-.56c-.576-.396-1.681-1.598-1.681-1.828 0-.08.146-.24.323-.356.316-.207.333-.202.833.25.663.599 1.273.848 2.08.85.723.001 1.594-.417 2.036-.979.136-.173.29-.315.342-.315.101 0 1.441 1.104 1.605 1.321.157.209-1.149 1.301-1.891 1.578-.801.297-1.773.313-2.555.039zm.044-2.819c-.336-.354-.627-.688-.647-.74-.02-.053.255-.368.61-.7L10.028.5l.671.663c.369.365.641.726.604.804-.037.077-.338.384-.669.681l-.602.541-.613-.645z" fill="#036"/></svg>