<svg xmlns="http://www.w3.org/2000/svg" width="19" height="19" viewBox="0 0 19 19"><path d="M17.353 4.116a.575.575 0 0 0-.575.573l-.003 2.914-14.55.003-.003-6.032A.574.574 0 0 0 1.647 1a.573.573 0 0 0-.573.575l.008 15.851a.575.575 0 0 0 1.148 0v-1.118l14.532-.005v.705c0 .316.256.574.572.575h.002a.574.574 0 0 0 .573-.573l.017-12.32a.573.573 0 0 0-.573-.574zm-.589 11.038l-14.535.006-.004-6.405 14.547-.005-.008 6.404zM8.396 13.98h5.426a.618.618 0 1 0 0-1.236H8.396a.619.619 0 1 0 0 1.236zm-2.541-1.816c.508-.004.917-.389.914-.859v-.002c-.004-.471-.418-.85-.927-.846-.508.003-.917.389-.914.859v.002c.005.47.419.85.927.846zm-1.69 2.291l2.356-.016a.596.596 0 0 0-.005-1.189l-2.356.018a.595.595 0 0 0 .005 1.187zm4.377-7.986h5.426a.618.618 0 1 0 0-1.237H8.542a.62.62 0 0 0 0 1.237zM5.949 4.651c.508-.003.917-.389.914-.86V3.79c-.004-.47-.419-.851-.927-.847-.508.004-.917.389-.914.86v.001c.004.472.418.851.927.847zM4.276 6.908h2.356a.593.593 0 0 0 .004-1.187H4.281a.594.594 0 0 0-.005 1.187z" fill="#036"/></svg>