<svg xmlns="http://www.w3.org/2000/svg" width="19" height="19" viewBox="0 0 19 19"><path d="M9.087 10.199c-1.861 0-3.376 1.515-3.376 3.376s1.515 3.376 3.376 3.376 3.376-1.515 3.376-3.376-1.515-3.376-3.376-3.376zm5.962-4.007c-.035-.049-.07-.091-.104-.132l-.042-.05c-.281-.339-.74-.526-1.295-.526l-.119.003c-.293.015-.594.139-.867.358l-.203.164V3.492a1.364 1.364 0 0 0-1.781-1.297l-.164.054v-.51a1.361 1.361 0 1 0-2.703-.243l-.028.142-.138-.047a1.365 1.365 0 0 0-1.803 1.29v1.566l-.164-.054a1.364 1.364 0 0 0-1.78 1.297l.006 8.113.023.097a5.2 5.2 0 0 0 5.2 4.725c2.804 0 5.098-2.209 5.222-5.029l.017-5.239c0-.849.633-1.541.76-1.67l.043-.066c.047-.124-.001-.325-.08-.429zm-.91.404c-.292.37-.641.967-.641 1.71l-.001 5.045.002.146c-.057 2.38-2.036 4.312-4.412 4.312a4.422 4.422 0 0 1-4.413-4.41L4.64 5.69c0-.321.261-.582.581-.582s.581.262.581.582v4.207h.782V2.881a.583.583 0 0 1 1.163 0v6.017l.815-.009-.024-.148c-.003-.02-.009-.058-.009-.2V1.688c0-.349.293-.531.582-.531.32 0 .581.261.581.582l.003 6.938-.025.222h.803V3.492a.583.583 0 0 1 1.163 0v6.484h.782l.012-2.168c.131-.432.247-.735.346-.901a1.27 1.27 0 0 1 .783-.598.764.764 0 0 1 .549.104l.118.074-.087.109z" fill="#036"/></svg>