<svg xmlns="http://www.w3.org/2000/svg" width="19" height="19" viewBox="0 0 19 19"><path d="M6.311 4.687c.407-.058.732-.243.979-.555.247-.312.341-.671.283-1.078a1.41 1.41 0 0 0-.532-.968 1.343 1.343 0 0 0-1.079-.293 1.37 1.37 0 0 0-.978.543c-.248.32-.341.675-.284 1.068.044.405.222.731.533.979a1.43 1.43 0 0 0 1.078.304zm11.97 6.856c-.015-.014-2.017-1.03-6.007-3.047l-1.523-1.98c-.247-.218-.486-.204-.718.044a.48.48 0 0 0-.065.565L11.1 8.583l-.937 2.133-2.459-.609-.109-.893 2.023-.24c.436-.058.653-.29.653-.696a.662.662 0 0 0-.238-.501.616.616 0 0 0-.523-.173l-2.068.24-.195-1.524a1.39 1.39 0 0 0-.545-.969 1.335 1.335 0 0 0-1.065-.294 1.372 1.372 0 0 0-.98.545 1.426 1.426 0 0 0-.305 1.066l.436 3.548c.058.464.283.82.674 1.067l-3.243.391-1 2.504c.508-.232.994-.349 1.458-.349.449 0 .892.101 1.328.304.262.116.536.175.827.175.29 0 .566-.059.827-.175a3.018 3.018 0 0 1 1.328-.304c.276 0 .642.079 1.099.239.458.159.809.239 1.056.239.29 0 .566-.059.827-.175a3.164 3.164 0 0 1 1.35-.304c.29 0 .569.043.838.13s.533.182.795.282c3.699-.986 5.55-1.777 5.55-2.372-.002-.144-.075-.252-.221-.325zm-2.655 3.613c-.262 0-.624.08-1.089.24-.464.159-.819.238-1.065.238-.262 0-.624-.079-1.089-.238-.465-.16-.819-.24-1.065-.24-.262 0-.625.08-1.089.24-.464.159-.828.238-1.088.238-.261 0-.621-.079-1.077-.238-.458-.16-.817-.24-1.078-.24-.261 0-.62.08-1.077.24-.458.159-.817.238-1.078.238s-.62-.079-1.077-.238c-.458-.16-.816-.24-1.078-.24-.261 0-.625.08-1.088.24-.464.16-.828.239-1.088.239v1.589c.26 0 .624-.08 1.088-.24.464-.159.827-.238 1.088-.238.247 0 .602.079 1.066.238.464.16.828.24 1.088.24s.621-.08 1.078-.24c.457-.159.815-.238 1.077-.238.26 0 .62.079 1.078.238.457.16.816.24 1.077.24.26 0 .624-.08 1.088-.24.464-.159.827-.238 1.089-.238.246 0 .601.079 1.065.238.465.16.827.24 1.089.24.246 0 .602-.08 1.065-.24.465-.159.827-.238 1.089-.238s.62.079 1.078.238c.456.16.815.24 1.077.24v-1.589c-.262 0-.621-.079-1.077-.238-.457-.161-.815-.241-1.077-.241z" fill="#036"/></svg>