<svg xmlns="http://www.w3.org/2000/svg" width="19" height="19" viewBox="0 0 19 19"><path d="M14.478.5H4.522a.167.167 0 0 0-.167.167v16.86c0 .071.045.135.112.158 1.562.542 3.237.815 4.977.815a16.32 16.32 0 0 0 5.086-.814.165.165 0 0 0 .114-.158V.667A.166.166 0 0 0 14.478.5zm-.685 4.714c.004 1.394.009 2.835-.019 4.252a.15.15 0 0 0 .005.042c.002.008.008.032-.021.078-.086.132-.353.27-.533.304a1.042 1.042 0 0 1-.332.027.167.167 0 0 0-.176.184c.036.381.049 1.312-.619 1.708a1.212 1.212 0 0 1-.62.163c-.513 0-1.102-.299-1.237-.871a6.046 6.046 0 0 1-.086-1.031.168.168 0 0 0-.168-.167h-.923a.169.169 0 0 0-.167.18c.045.567-.017 1.32-.559 1.688-.19.131-.425.2-.68.2-.512 0-1.101-.299-1.238-.869-.059-.305-.071-.625-.083-.936l-.005-.1c-.001-.047-.023-.091-.06-.121s-.082-.042-.128-.035a1.42 1.42 0 0 1-.168.01c-.333 0-.691-.101-.732-.293-.041-.219-.03-.443-.02-.68.009-.192.019-.391-.001-.591.005-.784.001-1.581-.002-2.351-.007-1.456-.014-2.96.037-4.438.06-.114.204-.166.327-.168.541.006 1.143.009 1.893.009l1.548-.002 1.574-.002c1.229 0 2.137.007 2.943.023.208.042.257.309.254.448a232.6 232.6 0 0 0-.004 3.339zm-4.229-.151h.084v-.027.027c.385 0 .724-.14 1.008-.417s.428-.62.428-1.02c0-.398-.144-.74-.428-1.017a1.406 1.406 0 0 0-1.008-.418h-.084c-.384 0-.723.141-1.007.418-.285.277-.429.62-.429 1.017 0 .399.144.742.429 1.02.285.277.624.417 1.007.417zm2.203.672a1.24 1.24 0 0 0-.819-.385.904.904 0 0 0-.226-.026H8.493a.9.9 0 0 0-.234.028 1.231 1.231 0 0 0-1.334 1.25l.024 2.686a.03.03 0 0 0 .005.016v1.392a.66.66 0 0 0 .655.674h.01a.667.667 0 0 0 .664-.654V9.315h2.49v1.38a.66.66 0 0 0 .655.674h.01a.666.666 0 0 0 .664-.654V9.314a.022.022 0 0 0 .015-.008.028.028 0 0 0 .008-.02L12.1 6.58a1.244 1.244 0 0 0-.333-.845z" fill="#036"/></svg>