<svg xmlns="http://www.w3.org/2000/svg" width="19" height="19" viewBox="0 0 19 19"><path d="M9.997.5c.393 0 .739.143 1.04.428l.865.865c.295.295.439.645.439 1.053 0 .416-.145.762-.439 1.039L8.518 7.281h8.135c.398 0 .725.145.977.434.248.289.375.639.375 1.045v1.48c0 .408-.127.756-.375 1.045a1.237 1.237 0 0 1-.977.434H8.518l3.385 3.396c.295.277.439.625.439 1.039 0 .418-.145.764-.439 1.041l-.865.865a1.42 1.42 0 0 1-1.04.439c-.408 0-.758-.146-1.052-.439l-7.521-7.52C1.14 10.27.996 9.923.996 9.5c0-.416.144-.766.428-1.051L8.945.928A1.483 1.483 0 0 1 9.997.5z" fill="#036"/></svg>