<svg xmlns="http://www.w3.org/2000/svg" width="19" height="19" viewBox="0 0 19 19" enable-background="new 0 0 19 19"><path d="M6.086 15.271v1.241h2.379l-.276-1.775-2.103.534zm4.449 1.242h2.379v-1.241l-2.104-.534-.275 1.775zm7.19-10.57h-6.707V4.202a.775.775 0 0 0-.776-.775h-.439v-.576h1.863v-.606H9.803v-.318a.303.303 0 1 0-.606 0v.318H7.333v.605h1.864v.576h-.438a.775.775 0 0 0-.776.775v1.741H1.276A.778.778 0 0 0 .5 6.72v1.56c0 .428.347.775.776.775h6.767l1.146 8.026h.016a.294.294 0 1 0 .58-.07l1.155-7.956h6.783a.776.776 0 0 0 .775-.775V6.72a.774.774 0 0 0-.773-.777z" fill="#036"/></svg>