<svg xmlns="http://www.w3.org/2000/svg" width="19" height="19" viewBox="0 0 19 19" enable-background="new 0 0 19 19"><path d="M4 8.1h-1.5c-.2 0-.4.2-.4.5v.3c0 .3.2.5.4.5h1.5c.2 0 .4-.2.4-.5v-.3c0-.3-.1-.5-.4-.5zm10.9-4.7l-.2-.2c-.2-.2-.5-.2-.7-.1l-1.1 1c-.2.2-.1.5.1.7l.3.2c.2.2.5.2.7.1l1.1-1c.1-.2 0-.5-.2-.7zm-5.5 0h.3c.3 0 .5-.2.5-.4v-1.5c0-.2-.2-.4-.5-.4h-.3c-.3 0-.5.2-.5.4v1.5c-.1.2.2.4.5.4zm-3.7 1.6l.2-.2c.2-.2.3-.5.1-.7l-1.1-1c-.1-.2-.4-.1-.6.1l-.2.2c-.2.2-.3.5-.1.7l1.1 1c.1.2.4.1.6-.1zm5.5 9.8h-3.4c-.2 0-.4.2-.4.4v1c0 .2.2.4.4.4h.3c0 .6.5 1.2 1.2 1.2h.5c.6 0 1.2-.5 1.2-1.2h.3c.2 0 .4-.2.4-.4v-1c-.1-.2-.3-.4-.5-.4zm-1.7-10.4c-2.3 0-4.2 1.8-4.2 4 0 1.4 2 3.5 2 5.8h4.4c0-2 2-4.4 2-5.8 0-2.2-1.9-4-4.2-4zm1.8 5.7c-.3.6-.7 1.4-.8 2.1h-1.9c-.2-.9-.6-1.6-.9-2.3-.3-.5-.6-1-.6-1.3 0-1.2 1.1-2.2 2.4-2.2 1.3 0 2.4 1 2.4 2.2 0 .3-.3.9-.6 1.5zm5.2-2h-1.5c-.2 0-.4.2-.4.5v.3c0 .3.2.5.4.5h1.5c.2 0 .4-.2.4-.5v-.3c0-.3-.2-.5-.4-.5z" fill="#036"/></svg>