<svg xmlns="http://www.w3.org/2000/svg" width="19" height="19" viewBox="0 0 19 19"><path d="M7.653 4.788a6.347 6.347 0 0 0-.644-.313V.941A.261.261 0 0 0 6.748.68H5.456a.261.261 0 0 0-.261.261v3.521c-.594.225-1.222.594-1.509.934-.234.277-.28.542-.268.739v11.361c0 .245.114.476.308.625.619.476 1.886.527 2.402.527.568 0 1.63-.06 2.363-.46a.79.79 0 0 0 .411-.692V6.099a.775.775 0 0 0-.059-.297c-.055-.138-.187-.461-1.19-1.014zm5.822 12.251v-3.084c.421-.117.805-.43 1.118-.881.524-.739.86-1.866.86-3.128 0-.057-.001-.112-.003-.168-1.721-.442-3.599-.291-4.667 0v.03l-.017-.005a4.65 4.65 0 0 0-.003.167c0 1.968.814 3.605 1.892 3.964v3.104c-1.04.066-1.829.393-1.828.785v.001c.001.44.997.797 2.225.797s2.222-.357 2.221-.798v-.001c-.001-.389-.775-.713-1.798-.783z" fill="#036"/></svg>