<svg xmlns="http://www.w3.org/2000/svg" width="19" height="19" viewBox="0 0 19 19"><path d="M4.824 10.878c.744.952 2.552.958 3.363.128.326-.334.544-.938.544-1.538 0-1.371-.933-2.294-2.499-2.113-.768.088-1.344.497-1.6.993-.35.676-.271 1.936.192 2.53zm1.665-2.627c.247-.02.477.016.641.128.513.354.537 1.767.032 2.146-.378.284-.913.204-1.185 0-.751-.564-.432-2.196.512-2.274zm-2.498 2.114c-.652-.074-1.441-.012-2.146-.032V6.041H.5v5.445h3.459c.075-.309.011-.757.032-1.121zm9.801-3.811c-.794-.844-2.694-.392-4.228-.513-.075 1.751-.01 3.641-.032 5.445h1.345V9.532h.865c.341.663.715 1.292 1.057 1.954h1.506c-.376-.757-.822-1.441-1.217-2.179 1.17-.18 1.445-1.964.704-2.753zm-1.218 1.889c-.449.272-1.154-.009-1.697.096.021-.48-.043-1.046.032-1.473.635.072 1.425-.157 1.762.16.3.283.212 1.03-.097 1.217zm5.83-.224c-.215-1.267-3.609-1.337-3.459.385h1.121c.053-.895 1.57-.591 1.185.225-.87.161-1.745.192-2.21.704-.32.354-.375 1.025-.192 1.409.417.878 1.965.801 2.499.16-.006.155.041.257.063.385H18.5c-.281-.942.069-2.293-.096-3.268zm-2.177 2.499c-.197-.047-.384-.237-.32-.609.246-.383.846-.413 1.312-.576.265.535-.265 1.357-.992 1.185zm-9.714-4.23c.908 0 1.626.479 1.626.479l.208-.309s-.747-.546-1.789-.546c-1.059 0-1.751.514-1.751.514l.202.3c.001.001.684-.438 1.504-.438zm-.059-2.227c1.406 0 2.573.6 2.969.829l.405-.594c-.404-.255-1.656-.953-3.286-.953-1.702 0-2.91.693-3.252.916l.394.577c.341-.195 1.465-.775 2.77-.775zm.097.577c-1.513 0-2.502.733-2.502.733l.008.012.283.415c.044-.027 1.001-.624 2.145-.624 1.163 0 2.107.549 2.291.663l.301-.44a4.743 4.743 0 0 0-2.526-.759zm-.038 7.674c-.82 0-1.503-.438-1.503-.438l-.202.3s.693.514 1.751.514c1.042 0 1.789-.546 1.789-.546l-.208-.31s-.719.48-1.627.48zm-.059 2.227c-1.304 0-2.429-.58-2.77-.775l-.394.578c.343.222 1.55.915 3.252.915 1.63 0 2.882-.698 3.286-.953l-.406-.594c-.395.23-1.563.829-2.968.829zm-2.397-1.322l-.008.012s.99.734 2.502.734a4.738 4.738 0 0 0 2.525-.759l-.301-.441c-.183.114-1.127.664-2.291.664-1.144 0-2.101-.597-2.145-.625l-.282.415z" fill="#036"/></svg>