<svg xmlns="http://www.w3.org/2000/svg" width="19" height="19" viewBox="0 0 19 19"><path d="M9.513 3.428c.399 0 .741-.145 1.031-.434s.433-.633.433-1.031c0-.415-.143-.762-.433-1.042S9.912.5 9.513.5c-.398 0-.741.141-1.029.421-.29.28-.434.627-.434 1.042 0 .398.144.742.433 1.031.289.289.632.434 1.03.434zm3.294.881c-.352-.389-.809-.583-1.367-.583H7.561a1.83 1.83 0 0 0-1.341.556 1.86 1.86 0 0 0-.555 1.369v4.499c0 .434.198.651.596.651.379 0 .569-.218.569-.651V5.759h.704v11.929c0 .541.271.812.814.812s.813-.271.813-.812v-6.913h.705v6.913c0 .541.271.812.813.812.561 0 .841-.271.841-.812V5.759h.678v4.392c0 .451.189.678.569.678s.569-.227.569-.678V5.678c0-.524-.176-.981-.529-1.369z" fill="#036"/></svg>