<svg xmlns="http://www.w3.org/2000/svg" width="19" height="19" viewBox="0 0 19 19"><path d="M9.534 4.015a.973.973 0 0 1-.71-.305.996.996 0 0 1-.304-.732c0-.271.101-.507.304-.71a.975.975 0 0 1 .71-.304c.285 0 .529.102.732.304a.973.973 0 0 1 .305.71c0 .285-.102.53-.305.732a1 1 0 0 1-.732.305zm7.704 5.519c-.061-.361-.285-.541-.676-.541a.69.69 0 0 0-.496.225l-2.5 2.344a.68.68 0 0 0-.271.54c0 .36.166.594.496.698l.631.203a5.337 5.337 0 0 1-1.508 2.196 5.058 5.058 0 0 1-2.389 1.183V5.276c1.006-.437 1.51-1.202 1.51-2.299a2.38 2.38 0 0 0-.732-1.745A2.412 2.412 0 0 0 9.534.5c-.676 0-1.258.244-1.746.732a2.38 2.38 0 0 0-.732 1.746c0 1.097.511 1.862 1.531 2.299v11.128a5.351 5.351 0 0 1-2.456-1.183 5.16 5.16 0 0 1-1.554-2.219l.631-.203c.33-.104.495-.338.495-.698 0-.195-.083-.376-.248-.54L2.933 9.218a.692.692 0 0 0-.496-.225c-.391 0-.615.18-.676.541l-.54 3.401a.848.848 0 0 0-.023.157c0 .48.248.722.743.722a.834.834 0 0 0 .203-.023l.586-.202c.48 1.441 1.341 2.62 2.579 3.536 1.239.916 2.64 1.374 4.202 1.375 1.547-.001 2.952-.466 4.213-1.396a7.044 7.044 0 0 0 2.545-3.515l.586.202a.803.803 0 0 0 .203.023c.496 0 .744-.241.744-.722a.947.947 0 0 0-.023-.157l-.541-3.401z" fill="#036"/></svg>