<svg xmlns="http://www.w3.org/2000/svg" width="19" height="19" viewBox="0 0 19 19"><path d="M16.792 12.454H2.208a.527.527 0 1 0 0 1.057h.932v4.532a.456.456 0 1 0 .912 0v-4.532h10.749v4.532a.456.456 0 1 0 .912 0v-4.532h1.079a.528.528 0 0 0 0-1.057zm1.48-7.771L16.507.948a.2.2 0 0 0-.181-.115h-13.6a.202.202 0 0 0-.18.113L.729 4.681a.197.197 0 0 0-.009.154.21.21 0 0 0 .104.115 4.194 4.194 0 0 0 1.798.424c.572 0 1.155-.131 1.734-.388a4.16 4.16 0 0 0 1.719.388 4.25 4.25 0 0 0 1.716-.38c.563.252 1.136.38 1.701.38h.001c.571 0 1.154-.131 1.733-.388a4.163 4.163 0 0 0 1.719.388c.566 0 1.144-.128 1.717-.38.562.252 1.135.38 1.701.38.598 0 1.208-.143 1.812-.424a.195.195 0 0 0 .104-.114.194.194 0 0 0-.007-.153zM7.136 6.698c-1.578-.254-1.734 1.049-1.734 1.048 1.295.444 1.734-1.048 1.734-1.048zm-.309 1.683c-.712-.713-1.459-.206-1.703-.026l.243-1.301s-.487-.389-.466 0c.089.228.126.87.141 1.294-.255-.187-.99-.672-1.693.032-.92.921.244 3.195 1.208 3.195.43 0 .518-.122.531-.142.011.02.099.142.53.142.966.001 2.129-2.273 1.209-3.194zm9.669 1.529c.101-.31.203-.686.339-.983.078-.137.092-.274.029-.275a.5.5 0 0 0-.099.036l-.256.117a1.274 1.274 0 0 0-.257.15c-.277.182-.578.27-.916.256-.377-.075-.865-.135-1.242-.392-.579-.312-.629-.336-.87-.421a2.686 2.686 0 0 1-.249-.096c-.006-.007.026-.046.072-.088s.079-.098.075-.124c-.005-.025-.144-.096-.308-.158a1.682 1.682 0 0 1-.505-.302c-.106-.098-.217-.169-.255-.168l-.007.001c-.03.012-.19.189-.355.394l-.301.373-.218.016c-.999.121-1.813.53-2.563 1.189-.156.164-.741.709-.704.842.012.013.151-.003.305.016.287.037.728.094.725.154-.001.03-.248.061-.7.117-.387.049-.384.132.012.271.473.166 1.095.271 2.099.196.011.002.023 0 .034 0 .259.254.596.485.856.503.685.044.471-.292.441-.717.261-.071.519-.147.783-.211.05-.002.194-.043.322-.092.767-.221 1.397-.435 2.024-.37.58.029.966.424 1.423.708.019 0 .136.074.258.166.334.251.42.214.289-.119-.108-.272-.285-.895-.281-.989zm-7.486.033a.151.151 0 0 1 0-.302.151.151 0 0 1 0 .302z" fill="#036"/></svg>