<svg xmlns="http://www.w3.org/2000/svg" width="19" height="19" viewBox="0 0 19 19"><path d="M.5 17.156v.643h18v-.643H.5zm17.359-1.286l-16.728-.001v.642l16.728.001v-.642zm-16.083-.641l15.44-.002v-.643h-.635l-.001-7.067h.641V6.232L1.78 6.234v1.285h.665l.001 7.068h-.671l.001.642zm13.519-7.712l.001 7.068h-1.284l-.001-7.068h1.284zm-2.569.001l.001 7.068h-1.285l-.002-7.068h1.286zm-2.571 0l.001 7.068H8.872L8.87 7.518h1.285zm-2.57 0l.001 7.068-1.286.001V7.519l1.285-.001zm-2.57.001l.001 7.068H3.731L3.73 7.519h1.285zm12.124-1.976V4.368L9.423 1.202 1.789 4.439v1.175l7.564-3.077 7.786 3.006zM6.21 5.538l3.254-1.083 3.263 1.155 2.208.01-5.452-2.303-5.607 2.244 2.334-.023z" fill="#036"/></svg>