<svg xmlns="http://www.w3.org/2000/svg" width="19" height="19" viewBox="0 0 19 19"><path d="M16.32.827a.19.19 0 0 0-.186-.008c-.014.007-1.433.708-2.621.708-.617 0-1.249-.248-1.86-.487-.59-.231-1.146-.45-1.68-.45-.538 0-1.223.224-1.947.461-.714.234-1.453.476-2.008.476-.904 0-2.117-.643-2.492-.855A.19.19 0 0 0 3.337.5H2.78a.19.19 0 0 0-.19.19v17.62c0 .105.085.19.19.19h.557a.19.19 0 0 0 .19-.19v-7.591c.234.21.544.382.77.491.603.294 1.278.483 1.721.483.616 0 1.385-.252 2.128-.495.694-.228 1.351-.442 1.828-.442.461 0 .985.206 1.541.424.644.252 1.31.514 1.999.514 1.279 0 2.73-.719 2.791-.749a.19.19 0 0 0 .105-.17V.988a.188.188 0 0 0-.09-.161zm-.29 3.477c-.353.163-1.487.649-2.517.649-.138 0-.281-.012-.428-.034a.097.097 0 0 0-.077.021.097.097 0 0 0-.033.072v3.123c0 .047.034.087.08.094.157.024.311.037.458.037.998 0 2.083-.437 2.517-.631v3.019c-.352.161-1.516.658-2.517.658-.185 0-.37-.022-.556-.06v-2.95a.095.095 0 0 0-.075-.093c-.426-.093-.852-.259-1.264-.419-.581-.228-1.13-.442-1.646-.442-.066 0-.137.006-.19.011a.093.093 0 0 0-.086.094v2.94c-.487.057-1.064.245-1.67.443-.541.178-1.096.359-1.575.437v-2.92a.096.096 0 0 0-.032-.071.097.097 0 0 0-.075-.022 2.666 2.666 0 0 1-.326.025c-.876 0-2.023-.583-2.469-.829l-.022-3.021v-.508c.23.227.573.418.814.536.591.287 1.248.473 1.677.473.124 0 .252-.015.351-.027a.095.095 0 0 0 .083-.094V1.872c.524-.077 1.117-.271 1.694-.459.568-.186 1.11-.364 1.551-.422v2.922c0 .026.012.052.031.07a.094.094 0 0 0 .072.025c.05-.004.114-.01.174-.01.479 0 1.013.209 1.576.429.419.164.852.333 1.293.429a.102.102 0 0 0 .08-.019.096.096 0 0 0 .036-.073v-2.91c.184.033.368.053.556.053.964 0 2.025-.408 2.517-.622v3.019zM9.595 4.05c-.457.07-.983.242-1.539.424-.521.17-1.061.346-1.534.43a.093.093 0 0 0-.079.092V8.12c0 .027.012.055.033.072a.094.094 0 0 0 .062.022l.017-.002c.486-.085 1.032-.264 1.56-.436.549-.18 1.067-.349 1.51-.416a.095.095 0 0 0 .08-.094V4.145a.093.093 0 0 0-.033-.072.096.096 0 0 0-.077-.023z" fill="#036"/></svg>