<svg xmlns="http://www.w3.org/2000/svg" width="19" height="19" viewBox="0 0 19 19"><path d="M14.984 17.152c-.627 0-1.285.35-1.866.66-.369.195-.788.418-.987.418-.203 0-.623-.229-.994-.432-.584-.316-1.188-.646-1.772-.646-.573 0-1.194.32-1.796.631-.406.209-.867.447-1.102.447-.258 0-.807-.275-1.248-.498-.594-.299-1.154-.58-1.604-.58-.597 0-1.539.506-2.083.83v1.02a.457.457 0 0 0 .104-.047c.588-.383 1.59-.922 1.979-.922.241 0 .778.27 1.209.486.606.305 1.178.592 1.646.592.446 0 .961-.268 1.504-.547.484-.248 1.033-.531 1.393-.531.361 0 .887.287 1.352.539.508.277.988.539 1.416.539.42 0 .874-.242 1.4-.523.49-.26 1.047-.555 1.453-.555.598 0 1.807.619 2.428 1.01.018.01.035.016.055.023v-1.018c-.609-.337-1.714-.896-2.487-.896zm-11.745-3.75h1.438v3.285c.177.082.356.168.542.262.441.223.99.498 1.248.498.044 0 .102-.016.159-.029v-4.016h1.438v-.584h2.873v.584h1.438v3.945h.097c.197-.082.429-.203.647-.318.379-.203.791-.412 1.205-.539v-3.088h1.438v-.584h1.682V10.24h-4.211L10.64 1.919h.213V.578H9.829V-.11h-.738v.688H8.065V1.92h.215l-2.822 8.32h-3.9v2.578H3.24v.584zm5.082-3.162l1.246-1.245 1.289 1.245H8.321zm4.137 0h-.549l.418-.424.131.424zm-.381-1.224l-.693.704-1.293-1.247 1.387-1.385.599 1.928zm-1.195-3.839l-.834-.776.467-.401.367 1.177zM9.06 1.919h.807l.408 1.312-.77.664-.848-.789.403-1.187zm-.663 1.954l.543.505-1.01.869.467-1.374zm1.088 1.012l1.631 1.52L9.558 7.96 7.837 6.302l1.648-1.417zM7.376 6.883l1.66 1.6-1.244 1.24-1.043-.99.627-1.85zm-.889 2.619l.775.738H6.237l.25-.738z" fill="#036"/></svg>