<svg xmlns="http://www.w3.org/2000/svg" width="19" height="19" viewBox="0 0 19 19"><path d="M9.628 6.195v1.596h4.587V6.195l.606-1.394c.091-.215 0-.412-.221-.506l-.367-.149V2.938h-.707v-.635h-.99V1.45h-1.229v.853h-.99v.636h-.708v1.208l-.367.148c-.22.094-.312.291-.22.506l.606 1.394zm.505-2.76h.707v-.627h2.164v.626h.707v.487l-1.79-.739-1.788.738v-.485zm8.365 12.956c-.063-.351-1.401-.382-2.07-.382s-7.121.361-6.928-1.211c.145-1.178 3.544-.29 4.794-1.889.479-.612-2.045-.597-2.236-1.043-.234-.547 3.473-1.782 3.606-2.609.159-.987-3.981-.987-6.02-.987-.144.414 2.548.923 2.421 1.624-.172.945-3.822 1.624-5.063 1.943-1.242.318-6.688 1.751-6.497 3.599.191 1.847 3.055 2.255 4.774 2.318 3.93.145 6.745.123 10.894-.504.763-.115 2.389-.509 2.325-.859z" fill="#036"/></svg>