<svg xmlns="http://www.w3.org/2000/svg" width="19" height="19" viewBox="0 0 19 19"><g fill="#036"><path d="M5.426 2.566c-.079-.021-.261-.045-.674-.045H3.428v1.756h1.34c.453 0 .773-.08.95-.237.174-.154.259-.371.259-.661 0-.21-.05-.384-.154-.531a.695.695 0 0 0-.397-.282zM8.276.737C8.125.581 7.897.5 7.601.5H1.414C.816.5.5.819.5 1.422v6.21c0 .288.075.508.222.657.148.149.37.226.66.226h6.236c.585 0 .882-.297.882-.882v-6.21c0-.302-.075-.532-.224-.686zM6.57 4.71c-.348.379-.941.563-1.814.563H3.428v2.196c0 .087-.07.157-.156.157h-.767a.157.157 0 0 1-.157-.157V1.681c0-.086.07-.157.157-.157h2.184c.397 0 .694.019.908.058.305.051.567.151.777.296.213.147.387.355.516.618.126.261.191.549.191.859 0 .531-.172.987-.511 1.355z"/><path d="M15.208 11.992c-.057 0-.109.014-.165.018l-.241-1.651-.028-.024c.076-.248.099-.578.046-.935-.101-.702-.444-1.234-.769-1.187-.283.04-.447.517-.421 1.103l-2.829-2.52-1.732.516.177.59 1.401-.418 1.593 1.419-1.986 1.146h-7.86L1.05 11.762h5.439l-.535.535 2.485 2.484H7.031a3.282 3.282 0 0 0-3.241-2.789 3.292 3.292 0 1 0 0 6.584 3.283 3.283 0 0 0 3.241-2.789h3.496l3.725-4.927.18 1.234a3.287 3.287 0 0 0-2.515 3.189 3.293 3.293 0 0 0 6.583 0 3.291 3.291 0 0 0-3.292-3.291zm-9.106 3.795a2.37 2.37 0 0 1-2.312 1.865 2.369 2.369 0 0 1 0-4.736c1.133 0 2.08.801 2.312 1.865H3.79v1.006h2.312zm9.106 1.865a2.369 2.369 0 0 1-2.366-2.368c0-1.082.732-1.986 1.725-2.269l.338 2.312.609-.089-.338-2.319c.011 0 .021-.004.032-.004 1.306 0 2.368 1.062 2.368 2.368s-1.062 2.369-2.368 2.369z"/></g></svg>