<svg xmlns="http://www.w3.org/2000/svg" width="19" height="19" viewBox="0 0 19 19"><path d="M18.484 16.417c-2.192-4.583-4.398-9.158-6.6-13.735l-.351-.729-.34.734-.273.591c-.948 2.05-1.902 4.1-2.855 6.147-.472-.635-.94-1.27-1.413-1.902l-.338-.45-.294.48C4.212 10.49 2.425 13.436.61 16.361l-.36.582h.686c5.734.007 11.468.013 17.203.022l.611.001-.266-.549zm-1.802-.371l-14.101-.021a.383.383 0 0 1-.326-.582l2.747-4.477c.117-.193.428-.233.592-.076.249.245.462.373.72.39.257.014.614-.083 1.143-.477a.394.394 0 0 1 .541.078l.245.332.991-2.132a.389.389 0 0 1 .334-.227.388.388 0 0 1 .35.199c.102.18.2.279.275.323a.254.254 0 0 0 .212.032c.175-.039.515-.285.865-.8a.38.38 0 0 1 .31-.171c.115 0 .23.057.304.147.344.429.681.777.812.83.068.028.051.034.123-.014.066-.045.205-.192.357-.497a.384.384 0 0 1 .343-.207.396.396 0 0 1 .344.213l3.165 6.583c.115.234-.086.556-.346.554z" fill="#036"/></svg>