<svg xmlns="http://www.w3.org/2000/svg" width="19" height="19" viewBox="0 0 19 19"><path d="M6.469 4.37h6.027c.032 0 .062-.018.078-.046s.015-.062-.003-.09l-.813-1.303a.09.09 0 0 0-.075-.042h-4.32a.086.086 0 0 0-.073.039l-.894 1.303c-.019.027-.021.062-.005.092s.046.047.078.047zm2.23-1.147h1.633v.843H8.699v-.843zM2.852 4.356h1.602a.087.087 0 0 0 .07-.034.085.085 0 0 0 .016-.074l-.111-.483a.09.09 0 0 0-.087-.069H3.006a.09.09 0 0 0-.085.062l-.154.482c-.009.027-.004.057.012.08s.044.036.073.036zm11.437.006h2.382a.09.09 0 0 0 .083-.122l-.288-.743a.091.091 0 0 0-.084-.057h-1.776a.09.09 0 0 0-.083.054l-.315.744c-.012.027-.009.059.008.084s.043.04.073.04zm2.657.339H2.054A1.55 1.55 0 0 0 .5 6.254v8.302a1.55 1.55 0 0 0 1.554 1.555h14.893c.86 0 1.554-.693 1.554-1.555V6.254a1.552 1.552 0 0 0-1.555-1.553zM11.14 14.45a4.125 4.125 0 1 1 0-8.25 4.125 4.125 0 0 1 0 8.25zm-.001-6.59a2.464 2.464 0 0 0-2.463 2.466v.001a2.464 2.464 0 0 0 4.928-.001v-.002a2.465 2.465 0 0 0-2.465-2.464z" fill="#036"/></svg>