<svg xmlns="http://www.w3.org/2000/svg" width="19" height="19" viewBox="0 0 19 19"><path d="M14.778 6.062c.197-1.062.384-2.132.628-3.146-.241.057-.927.446-1.468.787-.402.253-.978.816-1.363.839-.385.022-1.382-.482-1.887-.577-3.193-.602-6.025.382-7.707 2.044a6.533 6.533 0 0 0-.629.682c-.04.045-.08.091-.117.139a1.752 1.752 0 0 1-.661-.499 1.291 1.291 0 0 1-.26-1.077.908.908 0 0 0 .585.582.806.806 0 0 0 .837-.214.967.967 0 0 0 .218-.999 1.254 1.254 0 0 0-.226-.397c.143-.014.315.01.517.102a.393.393 0 1 0 .327-.717c-.604-.276-1.223-.226-1.698.138a1.467 1.467 0 0 0-.12.102c-.469.048-.906.358-1.073.777-.314.791-.217 1.569.276 2.191.231.292.535.527.886.699-.679 1.67-.095 4.143 1.138 4.993.375 1.897.995 3.549 3.25 3.564v-2.674c1.276.158 2.514.353 3.985.314.75 1.067 1.145 2.49 3.093 2.359v-2.937c1.748-.838 4.069-1.103 5.19-2.568V8.054c-2.027.123-2.883-.927-3.721-1.992zM2.098 4.705a.417.417 0 0 1 .115.182.176.176 0 0 1-.012.148.125.125 0 0 1-.053.054c-.05-.018-.083-.044-.094-.117a.51.51 0 0 1 .044-.267z" fill="#036"/></svg>