<svg xmlns="http://www.w3.org/2000/svg" width="19" height="19" viewBox="0 0 19 19"><path d="M1.892 14.158l-.505.916c1.116 1.027 2.327 1.85 3.618 2.426a11.331 11.331 0 0 0 4.625 1c1.414 0 2.813-.271 4.166-.809 1.357-.539 2.638-1.348 3.817-2.384l-.502-.909c-4.611 4.184-10.688 4.08-15.219-.24zm14.984-.185l-2.382-4.314c-.387.12-.828-.062-1.035-.468a.884.884 0 0 1 .186-1.07L9.436.5l-1.3 2.353c.36.239.472.745.24 1.166-.232.421-.719.595-1.114.418l-3.458 6.261c.318.237.432.692.239 1.097-.21.44-.698.643-1.106.474l-.779 1.411c4.358 4.25 10.264 4.371 14.718.293zm-3.757-.251c.504 0 .912.374.912.833v.002c0 .46-.408.833-.912.833-.504.001-.912-.373-.913-.833 0-.461.409-.835.913-.835zm-1.224-2.138c0 .461-.408.834-.912.835-.504 0-.912-.374-.912-.835s.408-.834.911-.834c.504 0 .913.373.913.834zM9.809 5.851c0-.46.408-.834.912-.834s.912.374.912.834c0 .46-.408.834-.911.834-.505 0-.913-.373-.913-.834zm-1.876 7.506c0 .46-.409.834-.912.834-.504 0-.913-.374-.913-.834 0-.461.409-.834.912-.834.504 0 .913.373.913.832v.002zm-.157-3.493c-.504 0-.913-.373-.913-.834 0-.46.408-.834.912-.834.503 0 .912.374.913.834 0 .46-.408.834-.912.834z" fill="#036"/></svg>