<svg xmlns="http://www.w3.org/2000/svg" width="19" height="19" viewBox="0 0 19 19"><path d="M17.515 2.795l-1.207-1.15a.326.326 0 0 0-.23-.09l-5.385.089V.825A.324.324 0 0 0 10.369.5H8.784a.325.325 0 0 0-.325.326L8.46 3.15l-5.536-.091a.332.332 0 0 0-.231.09l-1.207 1.15a.33.33 0 0 0 .017.489l1.179.971a.325.325 0 0 0 .208.074h.013l5.561-.227.012 12.569c0 .179.146.324.324.324h1.569c.18 0 .324-.146.324-.325V4.109l5.404.221h.014a.324.324 0 0 0 .208-.075l1.179-.971a.324.324 0 0 0 .118-.24.332.332 0 0 0-.101-.249z" fill="#036"/></svg>