<svg xmlns="http://www.w3.org/2000/svg" width="19" height="19" viewBox="0 0 19 19"><path d="M15.83 2.192c.188.071.295.166.319.277.042.207-.177.474-.265.56l.233.237c.046-.043.44-.445.354-.863-.046-.231-.224-.405-.522-.521-.175-.068-.276-.164-.314-.293-.078-.275.155-.666.253-.793l-.266-.201c-.019.023-.444.591-.308 1.084.068.233.241.405.516.513zm-.894.166c.189.072.295.166.318.278.043.206-.175.474-.263.56l.231.237c.047-.044.442-.444.357-.864-.049-.23-.225-.405-.524-.521-.175-.068-.276-.163-.312-.292-.08-.276.153-.666.25-.793l-.265-.201c-.019.023-.444.59-.307 1.083.065.233.239.405.515.513zm2.966 7.187c-.03-.111-.061-.225-.09-.348-.008-.021-.011-.041-.018-.062v-.006c-.482-2.067-.659-5.411-.659-5.411h-3.17s-.104 6.669-1.033 6.876h5.34c-.149-.191-.247-.574-.37-1.049zM6.364 6.29a6.364 6.364 0 1 0 0 12.729 6.364 6.364 0 0 0 0-12.729zm2.115 10.465h-.875s1.078-1.582 0-2.334c0 0-1.28-.979-.473-1.768 0 0-2.663.382-1.08 4.102h-.448s-3.826-1.818-1.758-4.452c2.067-2.633 1.22-3.75 1.22-3.75s6.982.527 3.414 8.202z" fill="#036"/></svg>