<svg xmlns="http://www.w3.org/2000/svg" width="19" height="19" viewBox="0 0 19 19"><path d="M12.227 7.558a.587.587 0 0 0-.154.012c-.055.019-.186.125-.365.287L11.11 18.53h2.501L12.77 7.589a7.816 7.816 0 0 0-.543-.031zm2.146-1.389c-.966-.273-1.879-.531-1.99-.628-.113-.098-.5-.964-.908-1.881C10.61 1.724 9.991.372 9.756.476c-.24.083.09 1.465.623 3.563.246.974.479 1.894.451 2.04-.029.146-.586.914-1.176 1.727-1.272 1.752-2.091 2.913-1.899 3.079a.087.087 0 0 0 .062.021c.283 0 1.348-1.014 2.709-2.339.721-.702 1.402-1.365 1.545-1.414a.6.6 0 0 1 .154-.012c.336 0 1.075.077 1.931.167 1.08.113 2.305.241 3.007.241.512 0 .594-.069.607-.136.049-.249-1.313-.654-3.397-1.244zM6.637.5H.5l.304 1.2h6.137L6.637.5zm1.144 4.513H1.644l.304 1.2h6.137l-.304-1.2zm-.573-2.257H1.072l.304 1.2h6.136l-.304-1.2z" fill="#036"/></svg>