<svg xmlns="http://www.w3.org/2000/svg" width="19" height="19" viewBox="0 0 19 19"><path d="M6.364 6.29a6.364 6.364 0 1 0 0 12.729 6.364 6.364 0 0 0 0-12.729zm-3.916 3.85c.146-.079.293-.038.381 0s.41-.313.41-.313.176.205.264.176c.088-.029.323-.499.411-.499.088 0 .292.147.38.118.088-.03.938-.85 1.144-.821.206.029.176.204.322.204.147 0 .179-.324.442-.206.261.118.349.294.438.294s.294-.263.44-.176c.146.088.352.557.586.586.234.03.498.149.498.149s.088.262.176.262.234-.407.353-.262c.117.145 1.523.877 1.523.877h-8.12s.206-.31.352-.389zm7.065 5.959a1.144 1.144 0 1 1-1.795-.938H4.8a1.144 1.144 0 1 1-1.795.938c0-.511.339-.941.804-1.085l-2.094-4.103h9L8.968 15.13c.325.201.545.558.545.969zM15.83 2.192c.188.071.295.166.319.277.042.207-.177.474-.265.56l.233.237c.046-.043.44-.445.354-.863-.046-.231-.224-.405-.522-.521-.175-.068-.276-.164-.314-.293-.078-.275.155-.666.253-.793l-.266-.201c-.019.023-.444.591-.308 1.084.068.233.241.405.516.513zm-.894.166c.189.072.295.166.318.278.043.206-.175.474-.263.56l.231.237c.047-.044.442-.444.357-.864-.049-.23-.225-.405-.524-.521-.175-.068-.276-.163-.312-.292-.08-.276.153-.666.25-.793l-.265-.201c-.019.023-.444.59-.307 1.083.065.233.239.405.515.513zm2.966 7.187c-.03-.111-.061-.225-.09-.348-.008-.021-.011-.041-.018-.062v-.006c-.482-2.067-.659-5.411-.659-5.411h-3.17s-.104 6.669-1.033 6.876h5.34c-.149-.191-.247-.574-.37-1.049z" fill="#036"/></svg>