<svg xmlns="http://www.w3.org/2000/svg" width="19" height="19" viewBox="0 0 19 19"><path d="M2.428 14.357l-.769 1.604h3.232l.475-1.604H2.428zM.5 18.381h3.676l.475-1.605H1.27L.5 18.381zm4.774 0h3.678l.091-1.605H5.661l-.387 1.605zm.583-2.42H9.09l.093-1.604H6.244l-.387 1.604zm4.199 0h3.231l-.288-1.604H10.06l-.004 1.604zm-3.975-4.024H3.586l-.769 1.605h2.789l.475-1.605zm3.981 1.605h2.79l-.292-1.605h-2.495l-.003 1.605zm-3.622 0h2.788l.093-1.605H6.826l-.386 1.605zm11.388 3.233h-3.382l.379 1.605H18.5l-.672-1.605zm-1.014-2.418h-2.938l.381 1.604h3.23l-.673-1.604zm-6.76 2.418l-.005 1.605h3.677l-.289-1.605h-3.383zm3.631-3.233h2.79l-.675-1.605h-2.492l.377 1.605zm-1.05-8.632c.075.192.132.389.174.587l1.418-1.211-1.863.074c.103.172.193.355.271.55zm-.165 2.818c-.097.176-.21.346-.34.51-.132.162-.271.31-.422.443l1.758.623-.996-1.576zM10.727 9.27a3.502 3.502 0 0 1-.588.176l1.211 1.419-.073-1.863a3.783 3.783 0 0 1-.55.268zm1.318-5.343l.623-1.758-1.575.996c.176.098.347.211.509.34.162.131.309.271.443.422zm.783 2.715c-.032.204-.08.403-.144.594l1.834-.338-1.651-.868c.004.2-.008.405-.039.612zm-2.227-3.691l-.34-1.833-.867 1.65c.201-.004.405.009.61.042.206.028.405.078.597.141zM8.399 9.322l.341 1.833.865-1.651a3.6 3.6 0 0 1-1.206-.182zm-2.227-3.69c.031-.205.078-.404.142-.595l-1.833.338 1.649.867c-.002-.2.011-.404.042-.61zm5.992.908a2.694 2.694 0 1 0-5.327-.81 2.694 2.694 0 0 0 5.327.81zM7.399 8.768a3.65 3.65 0 0 1-.445-.423l-.623 1.758 1.575-.998a3.717 3.717 0 0 1-.507-.337zM6.191 6.775L4.773 7.987l1.862-.075a3.65 3.65 0 0 1-.444-1.137zm2.082-3.773c.192-.076.389-.135.586-.175l-1.21-1.418.074 1.864c.173-.106.355-.196.55-.271zM6.869 4.034c.132-.161.271-.31.42-.442l-1.755-.624.996 1.576a3.76 3.76 0 0 1 .339-.51z" fill="#036"/></svg>