<svg xmlns="http://www.w3.org/2000/svg" width="19" height="19" viewBox="0 0 19 19"><path d="M18.027 12.083l-.236-.046c-.152-1.186-.473-3.106-.955-3.253a.276.276 0 0 0-.077-.011c-.573 0-1.715 1.681-2.301 2.606L4.716 9.457c-.074-1.15-.286-3.279-.84-3.395a.276.276 0 0 0-.051-.005c-.583 0-1.957 1.844-2.573 2.716l-.053-.01a.584.584 0 1 0-.226 1.149l2.29.452c-.276.384-.683.94-1.036 1.392-.134.172-.171.352-.102.492a.335.335 0 0 0 .312.181c.154 0 .324-.081.478-.228a22 22 0 0 0 1.499-1.609l4.872.961-1.561 3.278h3.549l-1.517-3.186 4.438.876c.107.519.293 1.338.539 2.109.111.352.326.478.49.478a.31.31 0 0 0 .24-.112c.085-.1.115-.25.087-.426a48.061 48.061 0 0 1-.256-1.832l2.504.494a.584.584 0 0 0 .687-.461.581.581 0 0 0-.459-.688zM4.46 5.998c.188.104.402.159.618.159.423 0 .816-.211 1.026-.55.157-.252.202-.548.126-.834a1.159 1.159 0 0 0-.575-.723 1.286 1.286 0 0 0-.619-.158c-.423 0-.815.211-1.025.55a1.052 1.052 0 0 0-.126.833c.08.306.284.563.575.723zm11.892 2.449h.003c.333 0 .635-.128.853-.358.202-.215.305-.496.289-.792-.034-.625-.596-1.133-1.255-1.133-.332 0-.635.128-.852.358a1.055 1.055 0 0 0-.289.792c.033.624.594 1.133 1.251 1.133z" fill="#036"/></svg>