<svg xmlns="http://www.w3.org/2000/svg" width="19" height="19" viewBox="0 0 19 19"><path d="M9.447 2.951a4.963 4.963 0 0 0-3.04 8.885v2.594s.562.236 1.328.428v-1.449h.523v1.564c.299.057.612.098.927.113v-1.678h.525v1.678c.312-.016.625-.057.926-.111v-1.566h.524v1.455c.798-.191 1.398-.434 1.398-.434v-2.648a4.962 4.962 0 0 0-3.111-8.831zM7.735 9.437a1.154 1.154 0 1 1 0-2.307 1.154 1.154 0 0 1 0 2.307zm1.013 1.637l.742-.852.744.844-1.486.008zm2.377-1.637a1.153 1.153 0 1 1 0-2.307 1.153 1.153 0 0 1 0 2.307zm-5.977 1.739L3.01 12.4a1.362 1.362 0 1 0-1.325 2.086 1.085 1.085 0 0 0 .972 1.563 1.083 1.083 0 0 0 .847-1.758l2.435-1.414v-.85c-.002 0-.528-.373-.791-.851zm11.989.597c-.481 0-.904.25-1.146.627l-2.139-1.225c-.263.479-.788.852-.788.852v.85l2.435 1.414a1.084 1.084 0 1 0 1.819.195 1.36 1.36 0 0 0 1.184-1.35 1.366 1.366 0 0 0-1.365-1.363zm-2.289-3.994l1.143-.654a1.362 1.362 0 1 0 1.325-2.087 1.083 1.083 0 1 0-1.819.196l-1.053.611c.247.599.389 1.251.404 1.934zM1.863 7.751c.481 0 .904-.25 1.146-.627l1.04.596c.022-.68.17-1.33.421-1.925l-.968-.561a1.083 1.083 0 1 0-1.819-.196 1.363 1.363 0 0 0 .18 2.713z" fill="#036"/></svg>