<svg xmlns="http://www.w3.org/2000/svg" width="19" height="19" viewBox="0 0 19 19"><path d="M14.679 12.34c1.224.01 2.612-.008 3.443-.545.819-.529-1.402-3.373-1.767-3.939-1.417.29-2.355.632-3.783.961.951 1.565 1.15 1.96 2.107 3.523zM9.694 4.602c-.482-.937-1.263-2.529-2.189-2.724-.955-.202-2.408 3.296-2.717 3.894.771 1.168 1.54 2.339 2.284 3.535.879-1.605 1.749-3.096 2.622-4.705zm1.265 1.196c-.417.255-.844.516-1.221.79 1.424.207 2.859.405 4.242.653.478-1.336 1.052-2.747 1.522-4.025-.419.233-.84.503-1.25.707-.325-.601-.651-1.416-1.196-2.066-1.098-1.306-3.708-.828-5.276-.6 1.326.159 2.922 3.801 3.179 4.541zM6.202 9.851c-.61-1.09-1.326-2.073-2.012-3.1-.002-.034-.008-.064-.054-.055C3.062 8.582 1.144 10.919.6 13.223c-.617 2.623 1.746 4.606 4.025 4.352 1.712-.191 3.585-1.976 3.155-4.188-.249-1.274-.968-2.449-1.578-3.536zm-3.807 5.982c-1.698-1.451-.284-3.981.725-5.795.052-.06.102-.096.146-.063.032.024.037.073.031.129-.582 1.641-1.192 3.701-.328 5.239.236.418.504.762.894 1.034-.689.007-1.1-.23-1.468-.544zm9.205-3.04c-.014-.488-.026-.987-.074-1.452-.892 1.13-1.78 2.273-2.687 3.347.919 1.083 1.853 2.284 2.725 3.332.008-.479-.015-.979.013-1.438.684.021 2.933.146 3.768-.002 1.679-.298 2.57-2.798 3.156-4.27-.801 1.071-6.134.63-6.901.483z" fill="#036"/></svg>