<svg xmlns="http://www.w3.org/2000/svg" width="19" height="19" viewBox="0 0 19 19"><path d="M18.425 5.528c.25-1.542-.138-2.913-1.087-3.868C16.386.71 15.014.324 13.471.573c-1.428.234-2.849.992-4.004 2.148C8.314 3.875 7.552 5.299 7.32 6.723c-.051.318-.072.63-.071.929a.403.403 0 0 0-.01.072c-.181 1.507-.454 3.757-1.169 4.537a1.529 1.529 0 0 1-.079.082C4.888 13.35.682 17.651.501 17.832l.334.33.332.338c.184-.18 4.484-4.393 5.489-5.491a.665.665 0 0 0 .079-.081c.786-.715 3.033-.986 4.542-1.167l.07-.011c.299.001.61-.02.929-.072 1.425-.231 2.849-.995 4.003-2.146 1.152-1.154 1.91-2.577 2.146-4.004zm-2.82 3.339c-.11.113-.231.226-.354.33L13.98 7.925l.722-.725 1.271 1.272a5.387 5.387 0 0 1-.368.395zm-3.839 1.271l.724-.724.948.946a6.164 6.164 0 0 1-1.105.35l-.567-.572zM8.293 6.665c.075-.364.189-.733.349-1.101l1.161 1.157-.727.729-.783-.785zM10.13 3.39c.128-.13.268-.25.403-.367l1.482 1.485-.728.728L9.8 3.746c.107-.122.214-.241.33-.356zm5.256.056l-.729.728-.769-.774.724-.727.774.773zm-1.11 1.113l-.727.721-.774-.772.729-.729.772.78zM13.17 5.661l-.73.729-.774-.775.731-.728.773.774zm-1.108 1.107l-.729.728-.774-.774.731-.728.772.774zm.384.382l.767.77-.724.73-.772-.773.729-.727zm.377-.38l.726-.726.771.77-.724.729-.773-.773zm1.108-1.107l.726-.726.771.77-.724.729-.773-.773zm1.106-1.11l.726-.723.779.772-.731.73-.774-.779zm1.882.431l.547.544a6.17 6.17 0 0 1-.341 1.116l-.93-.934.724-.726zm-.763-1.543l.79-.793c.23.316.394.667.494 1.053l-.51.507-.774-.767zm-.38-.386L15 2.285l.619-.624c.36.138.685.328.964.587l-.807.807zm-2.305-1.524l.759.762-.728.729-1.148-1.147c.374-.152.749-.27 1.117-.344zm-.349 1.87l-.727.728-1.443-1.447c.287-.213.586-.406.889-.563l1.281 1.282zm-2.213 2.214l-.728.728-1.29-1.296c.161-.3.352-.595.568-.883l1.45 1.451zm-.727 1.488l.774.772-.724.729-.777-.776.727-.725zm-.333 1.88L9 9.832l.281.281a2.83 2.83 0 0 1-.872-1.239l.667-.664.773.773zm.378.382l.778.773-.557.555c-.385-.1-.74-.263-1.052-.494l.831-.834zm.383-.381l.729-.729.768.78-.724.723-.773-.774zm2.263.048l.724-.726 1.24 1.234c-.291.217-.59.405-.889.57l-1.075-1.078zm2.216-2.215l.724-.727 1.069 1.07a7.652 7.652 0 0 1-.564.887l-1.229-1.23zm2.459-1.99l-.232-.237.229-.23c.009.154.007.309.003.467zm-2.53-3.323l-.398.397-.446-.453c.288-.013.57.003.844.056zM8.232 7.366l.46.461-.443.449a3.712 3.712 0 0 1-.056-.58c.015-.111.025-.224.039-.33zm-.737 4.137c.161-.487.285-1.025.387-1.579.149.241.326.466.527.666.204.204.425.382.664.529-.551.098-1.093.223-1.578.384zm3.61-.705l.277-.278.245.246c-.104.013-.214.029-.322.036-.068.003-.135-.001-.2-.004z" fill="#036"/></svg>