<svg xmlns="http://www.w3.org/2000/svg" width="19" height="19" viewBox="0 0 19 19"><g fill="#036"><path d="M9.5 12.588a.799.799 0 1 0 0-1.598.8.8 0 1 0 0 1.598zm-.59-1.836L7.522 8.313A4 4 0 0 0 5.5 11.787h2.806c0-.442.243-.829.604-1.035zm-.014 2.065l-1.419 2.421c1.2.702 2.734.758 4.023.013l-1.403-2.429a1.196 1.196 0 0 1-1.201-.005zm1.798-1.021l2.806.019a3.997 3.997 0 0 0-2-3.487l-1.403 2.428c.385.223.598.626.597 1.04z"/><path d="M18.368 15.956L10.543 1.977a1.152 1.152 0 0 0-.985-.615h-.031c-.403 0-.779.211-.986.56L.664 15.901a1.147 1.147 0 0 0 .986 1.736h15.703c.402 0 .775-.21.983-.553a1.15 1.15 0 0 0 .032-1.128zm-16.719.534L9.526 2.511l7.825 13.979H1.649z"/></g></svg>