<svg xmlns="http://www.w3.org/2000/svg" width="19" height="19" viewBox="0 0 19 19"><path d="M7.434.886c-.495 0-.867.217-1.114.649l-2.156 3.71c.819.479 1.816 1.052 2.991 1.716a450.4 450.4 0 0 0 2.249-3.896l-.857-1.53c-.248-.432-.619-.649-1.113-.649zM6.993 11.39L4.836 7.634H.5l1.764 1.021-1.09 1.878a1.085 1.085 0 0 0 0 1.066l1.715 2.991c.078-.217.154-.401.232-.557l2.134-3.664 1.738 1.021zm-2.689 2.087l-.534.927a1.216 1.216 0 0 0-.186.649c0 .355.126.657.382.904.255.247.561.37.917.37h4.266v-3.454H4.651c-.03.063-.146.264-.347.604zm14.005-3.292l-2.132-3.71c-.077.046-1.076.617-2.993 1.715l2.273 3.92h1.739c.511 0 .89-.218 1.136-.65.231-.418.224-.844-.023-1.275zM9.544 5.849h4.313l2.18-3.758-1.764 1.021-1.09-1.878C12.982.878 12.674.7 12.258.7H8.825c.139.154.255.309.348.464l2.11 3.663-.349.209-1.39.813zm3.431 6.979V10.81l-2.156 3.756 2.156 3.733v-2.017h2.158c.416 0 .732-.179.949-.534l1.717-2.991a2.313 2.313 0 0 1-.58.092l-4.244-.021z" fill="#036"/></svg>