<svg xmlns="http://www.w3.org/2000/svg" width="19" height="19" viewBox="0 0 19 19"><path d="M3.809 16.438c0 1.139.923 2.062 2.062 2.062h7.537c1.14 0 2.062-.923 2.062-2.062V5.683H3.809v10.755zm4.746-1.185c.006.19-.183.155-.183.155l-1.487-.062a.138.138 0 0 1-.065-.183l.557-1.18a.462.462 0 0 1 .245-.194l.809-.013c.131-.013.141.075.136.181l-.012 1.296zM14 13.814c0 .167-.467 1.52-.467 1.638 0 .121-.092.115-.092.115h-2.533v.667c0 .259-.192.063-.192.063s-1.449-1.399-1.601-1.552c-.11-.111.012-.217.012-.217l1.549-1.591s.183-.193.183.018v.721h3.031c.001.001.11-.028.11.138zm-.646-1.923l.58 1.37a.136.136 0 0 1-.135.135h-1.307a.48.48 0 0 1-.281-.135l-.355-.727c-.066-.114.006-.158.108-.202l1.172-.542c.171-.087.218.101.218.101zM9.082 7.597c.145-.083 1.551-.352 1.653-.409.104-.061.149.022.149.022L12 9.163c.088.147.141.245.141.245l.58-.331c.223-.128.15.136.15.136s-.495 1.949-.554 2.156c-.039.15-.194.096-.194.096l-2.152-.552s-.258-.062-.076-.168.628-.358.628-.358l-.158-.272c-.272-.473-1.147-2.004-1.347-2.356.001 0-.08-.079.064-.162zM7.733 9.113l.902-1.185a.136.136 0 0 1 .186.051l.65 1.134a.48.48 0 0 1 .019.311l-.454.668c-.066.114-.14.074-.228.009L7.753 9.35c-.158-.102-.02-.237-.02-.237zm-2.725 4.801a1196.448 1196.448 0 0 0 1.082-2.29l-.604-.283c-.232-.11.026-.201.026-.201s1.885-.709 2.087-.782c.146-.054.189.104.189.104l.78 2.08s.097.248-.094.157c-.189-.091-.652-.309-.652-.309s-.055.112-.134.285c-.233.492-.986 2.09-1.16 2.452 0 0-.019.114-.169.044-.151-.071-1.175-1.072-1.284-1.125-.109-.048-.067-.132-.067-.132zM11.051.5H7.996c-.504 0-.924.358-1.021.833h5.096A1.04 1.04 0 0 0 11.051.5zm3.328 1.805H4.621a2.062 2.062 0 0 0-2.062 2.062v.344H16.44v-.344a2.06 2.06 0 0 0-2.061-2.062z" fill="#036"/></svg>