<svg xmlns="http://www.w3.org/2000/svg" width="19" height="19" viewBox="0 0 19 19"><path d="M14.187 12.369l-.917-2.364c-.172-.45-.546-.835-1.251-.835H7.21c-.704 0-1.078.385-1.25.835l-.917 2.364c-.362.047-1.006.473-1.006 1.279v3.008h.892v.962c0 1.183 1.674 1.168 1.674 0v-.962h6.024v.962c0 1.168 1.675 1.183 1.675 0v-.962h.892v-3.008c-.001-.806-.645-1.232-1.007-1.279zm-8.395 2.475c-.427 0-.772-.356-.772-.797s.346-.797.772-.797.773.356.773.797-.346.797-.773.797zm.2-2.499l.691-1.86c.086-.262.215-.45.517-.453h4.831c.302.003.431.191.517.453l.691 1.86H5.992zm7.446 2.499c-.427 0-.774-.356-.774-.797s.348-.797.774-.797.773.356.773.797-.347.797-.773.797zM13.269.682H5.731A.731.731 0 0 0 5 1.414V5.8c0 .403.327.73.731.73h7.537A.731.731 0 0 0 14 5.799V1.414a.732.732 0 0 0-.731-.732zM11.75 5.633h-.886a1.364 1.364 0 1 1 0-2.728h.886a1.364 1.364 0 0 1 0 2.728z" fill="#036"/></svg>