<svg xmlns="http://www.w3.org/2000/svg" width="19" height="19" viewBox="0 0 19 19"><path d="M15.324 12.594c-.43 0-.84.086-1.213.242l-.105-.363c-.146-.508-.296-1.023-.422-1.444-.124-.415-.238-.67-.277-.854-.029-.144.152-.131.344-.291a.937.937 0 0 0 .306-.531.792.792 0 0 0-.092-.514c-.296-.45-.581-.441-.962-.441h-1.322l.003.811 1.271.002c.15 0 .229.213-.066.296-.129.036-.273.191-.322.382a.902.902 0 0 0 .059.559c.018.041.049.166.096.341l-5.765.028-.34-.833c.384-.087 1.265-.299 1.387-.415.145-.132 0-.331-.112-.331h-3.01c.037.664.556.808.838.853l.333.812a.354.354 0 0 0-.089.107l-1.005 1.867A3.18 3.18 0 0 0 .5 15.824 3.18 3.18 0 0 0 3.676 19a3.181 3.181 0 0 0 3.161-2.866h.315c.105.323.35.592.669.744l-.154.357-.57.006a.222.222 0 0 0 .003.444h.002l1.279-.014c.122 0 .22-.101.218-.223a.22.22 0 0 0-.223-.219l-.363.003.11-.255c.094.02.191.029.292.029.727 0 1.318-.551 1.318-1.229 0-.141-.026-.273-.072-.398l3.581-2.431.099.342a3.17 3.17 0 0 0-1.192 2.479 3.181 3.181 0 0 0 3.177 3.177 3.18 3.18 0 0 0 3.176-3.177 3.183 3.183 0 0 0-3.178-3.175zM5.056 14.036c.431.333.737.816.84 1.373H4.318l.738-1.373zm-1.38 4.047a2.263 2.263 0 0 1-2.26-2.26A2.262 2.262 0 0 1 4.42 13.69l-1.027 1.908a.363.363 0 0 0 .319.533h2.202a2.263 2.263 0 0 1-2.238 1.952zm3.482-2.674h-.332a3.186 3.186 0 0 0-1.331-2.188l.799-1.482 1.268 3.104a1.234 1.234 0 0 0-.404.566zm2.06-.603a1.528 1.528 0 0 0-.127-.082l.158-.366.572-.007a.221.221 0 0 0-.002-.442h-.002l-1.279.013a.221.221 0 0 0 .002.442h.002l.36-.003-.104.242a1.458 1.458 0 0 0-.418-.051l-1.232-3.013 5.675-.029.208.709-3.813 2.587zm6.106 3.224a2.263 2.263 0 0 1-2.26-2.26c0-.571.213-1.094.562-1.491l.1.332c.041.131.062.205.096.288l.014.033.021.033c.016.022.158.431.551.766l.003.003.003.003c.279.232.521.316.676.363.161.051.383.024.489-.142.085-.12.01-.366-.149-.483a7.533 7.533 0 0 1-.471-.385c-.199-.179-.215-.313-.334-.522.003.007-.029-.088-.066-.211-.039-.125-.088-.292-.146-.487-.014-.047-.027-.096-.043-.146.291-.137.613-.213.956-.213a2.263 2.263 0 0 1 2.26 2.26 2.264 2.264 0 0 1-2.262 2.259zM13.269.682H5.731A.731.731 0 0 0 5 1.414V5.8c0 .403.327.73.731.73h7.537A.731.731 0 0 0 14 5.799V1.414a.732.732 0 0 0-.731-.732zM11.75 5.633h-.886a1.364 1.364 0 1 1 0-2.728h.886a1.364 1.364 0 0 1 0 2.728z" fill="#036"/></svg>