<svg xmlns="http://www.w3.org/2000/svg" width="19" height="19" viewBox="0 0 19 19" enable-background="new 0 0 19 19"><path d="M8.9.9c-.3 0-.5.2-.5.5v4c0 .9-.6 1.5-1.3 1.7V1.4c0-.3-.2-.5-.5-.5s-.6.2-.6.5v5.7c-.6-.1-1.2-.7-1.2-1.6v-4c0-.3-.2-.5-.5-.5s-.6.1-.6.4v4c0 1.4.9 2.3 1.9 2.7v9.4c0 .5.4.9.9.9s.9-.4.9-.9V8.2c.3-.1.7-.3 1-.5.6-.5 1-1.3 1-2.1v-4c0-.5-.2-.7-.5-.7zm5.5-.4c-.3 0-.6.1-.7.4l-.1.1c-1.7 1.4-2.2 3.6-2.2 5 0 1.6.8 3.1 2.2 4.3v7.3c0 .5.4.9.9.9s.9-.4.9-.9V1.4c-.1-.5-.5-.9-1-.9z" fill="#036"/></svg>