<svg xmlns="http://www.w3.org/2000/svg" width="19" height="19" viewBox="0 0 19 19"><path d="M9.003 18.5c-.393 0-.739-.143-1.04-.428l-.865-.865a1.433 1.433 0 0 1-.439-1.053c0-.416.145-.762.439-1.039l3.385-3.396H2.348c-.398 0-.725-.145-.977-.434a1.556 1.556 0 0 1-.375-1.045V8.76c0-.408.127-.757.375-1.045.252-.29.578-.435.977-.435h8.135L7.098 3.884a1.365 1.365 0 0 1-.44-1.039c0-.417.145-.763.439-1.04l.865-.866C8.256.646 8.602.5 9.003.5c.408 0 .758.146 1.052.439l7.521 7.521c.284.271.428.617.428 1.04 0 .416-.144.766-.428 1.051l-7.521 7.521a1.483 1.483 0 0 1-1.052.428z" fill="#036"/></svg>