<svg xmlns="http://www.w3.org/2000/svg" width="19" height="19" viewBox="0 0 19 19" enable-background="new 0 0 19 19"><path d="M16.3 6.1l.2-1.1v-2.5l-2.6.1c-.3 0-.6.1-1 .1l3.4 3.4zM12.7 2.8c-4 1.3-7.3 7.7-7.3 7.7l1.6 1.6 1.6 1.6s6.4-3.3 7.8-7.2l-3.7-3.7zm-1.7 5.2c-.6-.6-.6-1.6.1-2.2.6-.6 1.6-.6 2.1 0 .6.6.6 1.6 0 2.1-.5.6-1.5.7-2.2.1zM5.7 9.4c.7-1.4 1.6-2.5 1.6-2.5.1-.1.1-.1 0-.1l-.2-.2c-1.2-.1-2.6.4-4 1.8-1 1-1.6 1.9-1.6 1.9-.1.1 0 .1 0 .1.1.1.1.1.1 0l3.8-1c.2.1.3 0 .3 0zM9.6 13.3c1.3-.8 2.5-1.6 2.5-1.6.1-.1.1-.1.1 0l.1.1c.1 1.3-.4 2.7-1.8 4-1 1-1.9 1.6-1.9 1.6-.1.1-.1 0-.1 0-.1-.1-.1-.1 0-.1l1-3.8c0-.1.1-.2.1-.2zM5.1 12.4c.6-.3 1.1-.2 1.5.2.4.4.5.9.2 1.4l-.4.4c-.7.6-1.7.8-1.7.8s.3-.2.3-.4c-.5.1-1 .3-1 .3s.3-.6.4-.9c-.3 0-.6.3-.6.3s.4-1.1.8-1.7c.1-.2.4-.4.5-.4z" fill="#036"/></svg>