<svg xmlns="http://www.w3.org/2000/svg" width="19" height="19" viewBox="0 0 19 19"><path d="M5.972 14.515l-3.904 2.302a.904.904 0 0 0 .919 1.557l4.274-2.521a.905.905 0 0 0 .435-.643l.348-2.294-1.663-1.096-.409 2.695zM17.197 6.48a.904.904 0 0 0-1.265-.185l-2.049 1.526-.985-1.916a.91.91 0 0 0-.36-.375L9.616 3.888a.902.902 0 0 0-.619-.098l-3.66.728a.898.898 0 0 0-.386.178l-2.41 1.918a.903.903 0 1 0 1.125 1.415l2.239-1.781 2.184-.435-1.74 3.118a2.04 2.04 0 0 0-.2.876c0 .653.309 1.23.785 1.605l3.231 2.128-1.415 3.735a.905.905 0 0 0 1.69.641l1.671-4.411a.902.902 0 0 0-.348-1.075L9.51 10.947l2.198-3.397 1.055 2.05a.904.904 0 0 0 1.344.311l2.904-2.164a.905.905 0 0 0 .186-1.267zm-4.875-2.199a1.89 1.89 0 1 0 0-3.78 1.89 1.89 0 0 0 0 3.78z" fill="#036"/></svg>