<svg xmlns="http://www.w3.org/2000/svg" width="19" height="19" viewBox="0 0 19 19"><path d="M13.385 4.385H5.614C2.794 4.385.5 6.68.5 9.5s2.294 5.115 5.114 5.115h7.771c2.821 0 5.115-2.295 5.115-5.115s-2.294-5.115-5.115-5.115zm0 .793c2.384 0 4.322 1.939 4.322 4.322s-1.938 4.322-4.322 4.322H7.823v-.754H13.2c1.968 0 3.568-1.601 3.568-3.568s-1.6-3.568-3.568-3.568H5.8c-1.968 0-3.568 1.601-3.568 3.568s1.601 3.568 3.568 3.568h1.23v.754H5.614c-2.383 0-4.321-1.939-4.321-4.322s1.938-4.322 4.321-4.322h7.771zM5.8 12.275c-1.531 0-2.775-1.245-2.775-2.775S4.269 6.725 5.8 6.725h7.4c1.53 0 2.775 1.245 2.775 2.775s-1.245 2.775-2.775 2.775H8.511v-1.031h4.795c.962 0 1.745-.782 1.745-1.744s-.783-1.744-1.745-1.744H5.693c-.962 0-1.744.782-1.744 1.744s.782 1.744 1.744 1.744h2.024v1.031H5.8zM4.742 9.5c0-.525.427-.951.951-.951h7.612a.952.952 0 0 1 0 1.902H5.693a.952.952 0 0 1-.951-.951z" fill="#036"/></svg>