<svg xmlns="http://www.w3.org/2000/svg" width="19" height="19" viewBox="0 0 19 19"><path d="M16.11 11.68h-1.728v-1.035H4.957v1.122H3.231v-1.122H1.014v6.488h16.984v-6.488H16.11v1.035zm.792-7.382h-4.42V2.663s.077-.795-.916-.795H7.435c-1.021 0-.907 1.083-.907 1.083v1.348H2.149c-1.361 0-1.135 1.634-1.135 1.634v4.084h2.217V8.962c-.001-.016-.005-.033-.005-.05a.863.863 0 0 1 1.726-.023h.004v1.127h9.426V8.8h.012a.86.86 0 0 1 1.706 0h.011v.093l.001.019-.001.019v1.086h1.888V5.828c-.001 0 .105-1.53-1.097-1.53zm-5.843 0H7.951V2.893h3.108v1.405z" fill="#036"/></svg>