<svg xmlns="http://www.w3.org/2000/svg" width="19" height="19" viewBox="0 0 19 19"><path d="M16.034 13.867c.477-3.177.514-7.167-.25-10.059.04-.662 1.179-1.802.851-2.752-.403-1.166-2.008-.054-2.803.15-.974.25-2.243.2-3.553.2-1.888 0-3.867.163-5.204-.2-.708-.191-1.439-.771-2.052-.7-1.615.191-.021 2.657.15 3.354-.753 2.723-.709 6.995-.25 10.008.072.472.272.987.25 1.352-.053.879-1.024 1.858-.701 2.752.302.836 1.578.431 2.352.3 2.161-.362 4.282-.542 7.105-.35.604.041 1.418.222 2.202.35.707.115 1.634.424 2.102.051.874-.697-.418-2.261-.45-3.153-.012-.369.184-.858.251-1.303zM10.83 4.81c.181.177.962 1.059.851 1.501-.106.42-1.251.489-1.752.451-1.599-.123-2.7-1.21-3.103-2.502 1.08-.973 3.223-.21 4.004.55zm-4.704 6.805c-1.262-1.753-.109-4.511 1.501-5.053.373-.126.667 1.089.701 1.5.14 1.691-.884 3.183-2.202 3.553zm2.853-.7c-.077-2.316 1.524-3.909 3.803-3.703.081 2.32-1.517 3.917-3.803 3.703z" fill="#036"/></svg>