<svg xmlns="http://www.w3.org/2000/svg" width="19" height="19" viewBox="0 0 19 19"><path d="M.945 5.355a.33.33 0 0 0 .236-.098L3.939 2.5a.336.336 0 0 0-.475-.475L.707 4.783a.34.34 0 0 0 0 .475.338.338 0 0 0 .238.097zm3.731-1.048a.335.335 0 0 0 .238-.098L7.67 1.452a.336.336 0 0 0-.475-.475L4.439 3.734a.336.336 0 0 0 .237.573zM3.238 5.875a.336.336 0 0 0-.475 0L.6 8.039a.336.336 0 0 0 .474.475L3.238 6.35a.336.336 0 0 0 0-.475zm2.405.467a.336.336 0 0 0 .474 0l2.758-2.756a.336.336 0 0 0-.475-.475L5.643 5.868a.335.335 0 0 0 0 .474zm6.324-.597a.336.336 0 0 0 .474 0l2.758-2.756a.336.336 0 0 0-.475-.475L11.967 5.27a.336.336 0 0 0 0 .475zm4.082-.949a.33.33 0 0 0 .232-.094l2.039-1.966a.336.336 0 0 0-.465-.484l-2.039 1.966a.334.334 0 0 0 .233.578zm2.353.162a.336.336 0 0 0-.475-.006l-2.113 2.064a.336.336 0 1 0 .468.481l2.113-2.064a.335.335 0 0 0 .007-.475zm-4.017.957l-.953.877a.336.336 0 1 0 .455.494l.951-.878a.334.334 0 1 0-.453-.493zm-4.389-.403a.337.337 0 0 0 .232-.094L11.6 4.095a.336.336 0 0 0-.465-.484L9.762 4.934a.336.336 0 0 0 .234.578zm.332-2.672a.326.326 0 0 0 .24-.103l1.621-1.669a.336.336 0 0 0-.483-.467L10.087 2.27a.336.336 0 0 0 .241.57zm6.469 7.572l-7.32-3.905a.376.376 0 0 0-.354 0l-7.32 3.905a.376.376 0 0 0-.09.595l.488.488a.372.372 0 0 0 .406.082l1.438-.58v7.105c0 .219.178.396.396.396h.939a.396.396 0 0 0 .396-.396V10.52l3.52-.416 3.471.418v7.58c0 .219.178.396.396.396h.939a.395.395 0 0 0 .396-.396v-7.114l1.49.601a.383.383 0 0 0 .409-.084l.49-.5a.374.374 0 0 0-.09-.593z" fill="#036"/></svg>