<svg xmlns="http://www.w3.org/2000/svg" width="19" height="19" viewBox="0 0 19 19"><path d="M11.025 12.917a.637.637 0 1 0 1.274.002.637.637 0 0 0-1.274-.002zm-7.811.916a.422.422 0 0 0 0 .844h1.557a.43.43 0 0 0 .151-.028l7.43-2.859a.403.403 0 0 0 .175-.127l1.055-1.292a.42.42 0 1 0-.653-.533l-.984 1.205-7.252 2.791H3.214zm2.208 1.289a.637.637 0 1 0 1.274 0 .637.637 0 0 0-1.274 0zM4.507 3.07a1.292 1.292 0 1 0 0-2.585 1.292 1.292 0 0 0 0 2.585zM1.116 6.673a.587.587 0 0 0 .28-.07l3.088-1.644 1.841 2.278-1.613 1.858a.668.668 0 0 0-.131.643l.961 2.988a.668.668 0 0 0 1.272-.409l-.846-2.63 1.653-1.903.1.149-.224.941a.669.669 0 0 0 .192.642l1.934 1.813a.666.666 0 0 0 .944-.03.667.667 0 0 0-.03-.944L8.886 8.807l.379-1.592a.67.67 0 0 0-.121-.562l-1.827-2.37h3.384a.598.598 0 0 0 0-1.196H6.893c-.71 0-1.599.082-2.073.34L.834 5.548a.597.597 0 0 0 .282 1.125zm16.435 1.576C16.279 12.591 10.139 16.81.5 17.53v.984h18V8.249h-.949z" fill="#036"/></svg>