<svg xmlns="http://www.w3.org/2000/svg" width="19" height="19" viewBox="0 0 19 19"><path d="M17 7.026c.418 0 .773-.146 1.063-.437.292-.291.437-.645.437-1.063 0-.417-.145-.772-.437-1.064A1.444 1.444 0 0 0 17 4.026c-.402 0-.754.145-1.052.436a1.431 1.431 0 0 0-.449 1.064c0 .418.15.772.449 1.063.298.291.65.437 1.052.437zm1.366 10.254l-.537-.313a.86.86 0 0 1-.784.447.895.895 0 0 1-.47-.134L.813 8.012.5 8.549l15.763 9.269c.238.135.499.202.782.202.582 0 1.022-.247 1.321-.74zM5.761 10.094c.09.015.216-.008.38-.067l4.322-1.41c.418-.15.649-.381.693-.694.045-.313.06-.485.045-.516l-.649-2.351L13.149 6.6l.314 2.262c.059.403.231.687.514.85l3.382 1.971a.668.668 0 0 0 .356.111.74.74 0 0 0 .561-.235.77.77 0 0 0 .224-.548c0-.299-.134-.522-.401-.672L15.41 8.772l-.29-4.03c-.046-.537-.277-.925-.695-1.164l-3.873-2.284A2.186 2.186 0 0 0 9.433.981c-.701 0-1.246.284-1.634.851a2.009 2.009 0 0 0-.336 1.119c0 .179.022.359.067.538l1.052 3.425-3.157 1.008c-.447.134-.701.462-.761.986-.09.701.276 1.096 1.097 1.186z" fill="#036"/></svg>