<svg xmlns="http://www.w3.org/2000/svg" width="19" height="19" viewBox="0 0 19 19"><path d="M6.756 7.122l10.946 2.984.798-2.927L7.595 4.188l1.979-1.391-.694-.166-1.999 1.386-3.595-.979c-.032.128-.671 2.854 3.47 4.084zM3.283 3.037l.003.001.001-.005-.004.004zm14.097 8.772l.158-.606-4.935-1.375c.079.221.125.454.138.698l4.639 1.283zM8.732 8.768L.5 6.495v.653l7.761 2.139a2.56 2.56 0 0 1 .471-.519zm1.386 3.712c.059.007.121.02.182.02 1.019 0 1.85-.828 1.85-1.849a1.85 1.85 0 0 0-3.699.001 1.85 1.85 0 0 0 1.051 1.663L.5 9.834l.026 6.535c.387 0 .763-.089 1.096-.238.342-.158.729-.251 1.129-.251s.787.093 1.127.251c.335.149.709.238 1.099.238.389 0 .765-.089 1.099-.238a2.683 2.683 0 0 1 1.126-.251c.4 0 .787.093 1.131.251.333.149.707.238 1.097.238.389 0 .766-.089 1.097-.238a2.706 2.706 0 0 1 1.131-.251c.399 0 .784.093 1.126.251.336.149.707.238 1.099.238s.764-.089 1.099-.238c.34-.158.725-.251 1.127-.251s.787.093 1.131.251c.331.149.702.238 1.094.238l-.009-1.627-8.207-2.262zm-.625-1.829a.803.803 0 1 1 1.605 0c0 .444-.358.8-.802.8s-.803-.356-.803-.8z" fill="#036"/></svg>