<svg xmlns="http://www.w3.org/2000/svg" width="19" height="19" viewBox="0 0 19 19"><g fill="#036"><path d="M9.296 13.581l-1.365-2.663-2.039 2.214a.964.964 0 0 1-1.131.216l-3.155-1.25a.961.961 0 0 1-.538-1.252.96.96 0 0 1 1.247-.539l2.604 1.034 1.897-2.059c.021-.161.068-.325.15-.476l1.57-2.952-1.325.35-1.497 2.037a.967.967 0 0 1-1.351.207.971.971 0 0 1-.205-1.346l1.701-2.314a.972.972 0 0 1 .533-.359l3.421-.906c1.141-.353 2.602.675 1.985 1.938l.959 1.679L14.83 9.1a.965.965 0 0 1 .04 1.363.965.965 0 0 1-1.359.035L11.324 8.43a1.035 1.035 0 0 1-.176-.223l-.003.004-.42-.733-1.217 2.293 1.593 3.105a.972.972 0 0 1 .146.597l-.367 4.139a.97.97 0 0 1-1.042.885.97.97 0 0 1-.879-1.048l.337-3.868z"/><path d="M11.018 2.321c0 1.021.801 1.821 1.82 1.821s1.82-.8 1.82-1.821c0-1.02-.801-1.821-1.82-1.821s-1.82.802-1.82 1.821zm3.341 12.537c0 1.021.801 1.823 1.821 1.823a1.805 1.805 0 0 0 1.821-1.823 1.805 1.805 0 0 0-1.821-1.823 1.807 1.807 0 0 0-1.821 1.823z"/></g></svg>