<svg xmlns="http://www.w3.org/2000/svg" width="19" height="19" viewBox="0 0 19 19"><path d="M15.443 4.189c.447 0 .811-.364.811-.812 0-.448-.363-.812-.811-.812s-.811.363-.811.812c.001.448.364.812.811.812zm-4.367-1.623c.674 0 1.221-.546 1.221-1.22 0-.672-.547-1.221-1.221-1.221s-1.222.549-1.222 1.221c0 .674.548 1.22 1.222 1.22zm-2.974 4.74c0 .284.231.515.515.515.286 0 .514-.231.514-.515l-.001-.023h.001v-2.778h.323l-.001 5.232h1.389v-2.129h.311v2.129h1.389l-.002-5.246h.334v2.79h.002v.004c0 .284.23.517.516.517.283 0 .514-.232.514-.517v-3.006c-.111-1.338-1.664-1.317-1.664-1.317h-.67l-.57.928-.566-.928h-.644c-1.753.032-1.69 1.317-1.69 1.317l-.001 3.003h.002l-.001.024zm6.263 3.985c0 .256.205.463.461.463s.461-.207.461-.463v-3.75h.209v3.754l.004.002c0 .254.207.455.457.455.256 0 .461-.205.461-.459v-5.824h.221v1.855h.002v.002c0 .189.152.343.342.343s.342-.154.342-.343v-1.997c-.075-.891-1.106-.879-1.106-.879h-.447l-.377.62-.375-.62h-.43c-.158.003-.291.023-.406.053v.975h.182v5.813zm-9.29-3.66c.188 0 .342-.153.342-.341v-1.86h.224l-.002 4.307h.922v-2.236h.209l-.001 2.236h.924l-.001-4.299h.181v-.974c-.116-.028-.248-.047-.406-.05h-.429l-.376.617-.376-.617h-.446s-1.032-.013-1.107.878v1.998c0 .188.154.341.342.341zm1.539-3.48c.447 0 .811-.363.811-.81 0-.45-.364-.812-.811-.812-.449 0-.812.363-.812.812 0 .447.363.81.812.81zm11.482 10.01c-.221-.466-.506-.995-.832-1.34 0 0-.334-.298-.5-.333-.17-.039-.17-.039-.254-.022-.443.081-1.008 1.003-1.939 1.695h-4.72c-.294-.266-.561-.562-.772-.9h2.609s.746.05.746-.546v-1.492s.045-.746-.746-.746h-7.509v6.366s5.073 1.589 6.86 1.589c0 0 4.193.179 7.17-2.969l.291-.311s-.156-.454-.404-.991zm-17.596 4.271h2.586v-8.75h-2.586v8.75z" fill="#036"/></svg>