<svg xmlns="http://www.w3.org/2000/svg" width="19" height="19" viewBox="0 0 19 19"><path d="M18.5 6.623c0-.608-.417-1.077-.927-1.417-.51-.341-1.175-.606-1.974-.832-1.597-.451-3.736-.718-6.101-.718s-4.502.266-6.1.718c-.798.225-1.461.491-1.971.832C.917 5.545.5 6.014.5 6.623c0 .301.102.567.267.802l.847 4.949a.474.474 0 0 0 .299.367c.145.203.341.379.557.527.444.307 1.021.545 1.716.746.742.217 1.619.385 2.587.496v.314c0 .291.356.52.812.52h4.166c.455 0 .812-.229.812-.52v-.357a15.044 15.044 0 0 0 2.246-.453c.696-.201 1.274-.439 1.719-.746.222-.152.423-.334.569-.545a.477.477 0 0 0 .261-.344l.921-5.026c.138-.217.221-.46.221-.73zm-1.611-.427c.339.227.394.381.394.427s-.055.201-.394.428c-.247.165-.614.339-1.072.5a19.004 19.004 0 0 0-1.952-.403l1.173-1.686.228.062c.718.202 1.283.445 1.623.672zM7.475 4.923l.412 2.001c-.712.047-1.374.118-2.016.216l-.877-1.906a22.667 22.667 0 0 1 2.481-.311zm4.285.019a21.83 21.83 0 0 1 2.465.334l-.83 1.804a25.663 25.663 0 0 0-2.037-.182l.402-1.956zm-.722-.049l-.124 1.985c-.379-.013-.772-.02-1.173-.02h-.135c-.441.006-.871.02-1.281.04l-.126-2.017a29.55 29.55 0 0 1 2.839.012zM2.11 6.196c.339-.227.905-.47 1.625-.673.138-.039.282-.076.431-.112L5.42 7.213c-.657.115-1.291.26-1.887.433l-.026.01c-.611-.189-1.095-.404-1.397-.606-.339-.226-.392-.382-.392-.427s.053-.201.392-.427zm10.454 7.349v-1.146c.004-.398-.146-.752-.446-1.055-.51-.516-1.405-.822-2.396-.822-1.188 0-2.672.49-2.947 1.871l-.001.002v1.197c-1.802-.232-3.296-.689-4.208-1.273a.463.463 0 0 0-.006-.105l-.668-3.905c.428.218.932.402 1.506.565 1.597.451 3.736.718 6.101.718s4.504-.267 6.101-.718a8.323 8.323 0 0 0 1.532-.576l-.717 3.91a.481.481 0 0 0-.006.125c-.855.54-2.21.97-3.845 1.212z" fill="#036"/></svg>