<svg xmlns="http://www.w3.org/2000/svg" width="19" height="19" viewBox="0 0 19 19"><path d="M13.038.5H5.964a3.328 3.328 0 0 0-3.329 3.325v8.641c0 1.767 1.387 3.201 3.129 3.307v1.235H3.549V18.5h11.903v-1.492h-2.215v-1.235a3.32 3.32 0 0 0 3.129-3.307V3.825A3.327 3.327 0 0 0 13.038.5zM5.876 13.188a1.218 1.218 0 1 1-.005-2.435 1.218 1.218 0 0 1 .005 2.435zm2.691-5.129h-3.91V4.148h3.91v3.911zm4.56 5.129a1.216 1.216 0 0 1-1.217-1.216 1.217 1.217 0 1 1 1.217 1.216zm1.219-5.129h-3.911V4.148h3.911v3.911z" fill="#036"/></svg>