<svg xmlns="http://www.w3.org/2000/svg" width="19" height="19" viewBox="0 0 19 19"><path d="M16.163 14.281L11.352 4.14l-.02-.037a2.024 2.024 0 0 0-.369-1.795h1.562a.904.904 0 1 0 0-1.809H6.669a.905.905 0 0 0 0 1.809h1.396c-.275.343-.44.783-.44 1.264 0 .234.04.459.111.667a.81.81 0 0 0-.087.141L2.837 14.522a.718.718 0 0 0 1.298.616l4.628-9.756.034.016-.036 12.379a.721.721 0 0 0 .718.723h.002a.72.72 0 0 0 .721-.719l.037-12.387a2.07 2.07 0 0 0 .096-.045l4.53 9.549a.718.718 0 1 0 1.298-.617z" fill="#036"/></svg>