<svg version="1" xmlns="http://www.w3.org/2000/svg" width="19" height="19" viewBox="0 0 19 19"><g transform="translate(-1166.554 -218.126) scale(2.10799)" fill="#036"><circle cx="554.6" cy="108.1" r="1"/><path d="M559.181 109.699c0 3.437 0 3.437 0 0 0 3.437 0 3.437 0 0zm-.881.001l.2-.2-.5-.9-.3.2zm-1.2-2.1l.2-.2-2-3.6h-.4z"/><path d="M559.2 109.3c.1-.1.2-.1.4-.1h1.9c.4 0 .7.3.7.7 0 .4-.3.7-.7.7h-1.6l-2 1.4c-.7.5-1.1 0-1.1 0l-1.6-1.6c-.3-.3-.2-.9.1-1.2l2.2-1.6c.2-.2.5-.2.7.1.2.2.2.5-.1.7l-1.4 1 1 1 1.5-1.1z"/></g></svg>