<svg xmlns="http://www.w3.org/2000/svg" width="19" height="19" viewBox="0 0 19 19"><path d="M6.496 11.843c0 .074.042.138.099.175l3.115 1.486c.135.067.193.154.193.28a.31.31 0 0 1-.306.306l-3.447-.004a.118.118 0 0 0-.118.116c0 .032.01.06.033.08 3.496 2.812 8.064 3.645 12.435 3.58V8.417c-8.15-.073-11.946 3.282-11.946 3.282a.221.221 0 0 0-.058.144zm4.696-.77c.406 0 .734.331.734.738a.734.734 0 0 1-.734.736.74.74 0 0 1-.739-.736.74.74 0 0 1 .739-.738zm7.216-9.745c-.702-.147-1.161-.2-1.692-.193-2.7.03-5.342 1.182-8.305 3.612l-.354-.096a.854.854 0 0 0-.854.852s.034.158.053.257c-.091.084-2.393 2.246-2.393 2.246L2.827 9.925a.959.959 0 0 1-.697.25.953.953 0 0 1-.666-.314.965.965 0 0 1-.248-.65c0-.262.105-.523.312-.714l.271-.151c.025.174.097.706.097.706l1.662-2.115-1.832.624c-.482.165-.681.408-.688.42a1.677 1.677 0 0 0-.103 2.358 1.684 1.684 0 0 0 2.376.116l.019-.023 1.93-1.838s2.385-2.253 2.46-2.329l.34.087a.853.853 0 0 0 .849-.854l-.039-.213c2.867-2.357 5.373-3.477 7.882-3.505.518-.004.93.062 1.607.207l.14.03v-.67l-.091-.019z" fill="#036"/></svg>