<svg xmlns="http://www.w3.org/2000/svg" width="19" height="19" viewBox="0 0 19 19"><path d="M15.186 5.657l-1.14-2.911c-.215-.555-.68-1.028-1.556-1.028h-1.609v-.76c0-.304-.166-.458-.434-.458H8.57c-.268 0-.434.154-.434.458v.76H6.509c-.876 0-1.341.474-1.556 1.028l-1.14 2.911c-.451.058-1.25.582-1.25 1.575v3.704h1.108v1.183c0 1.457 2.082 1.439 2.082 0v-1.183h7.492v1.183c0 1.439 2.083 1.457 2.083 0v-1.183h1.107V7.232c.002-.993-.798-1.517-1.249-1.575zM4.745 8.673a.972.972 0 0 1-.962-.981c0-.543.431-.981.962-.981s.963.438.963.981a.973.973 0 0 1-.963.981zm.248-3.085l.858-2.252c.108-.322.269-.554.644-.558h6.008c.376.004.537.235.645.558l.857 2.252H4.993zm9.26 3.085a.97.97 0 0 1-.961-.981c0-.543.43-.981.961-.981s.963.438.963.981a.973.973 0 0 1-.963.981zM2.755 15.724h1.162V18.5h1.139v-2.776h1.162v-.91H2.755v.91zM14.787 18.5h1.141v-3.687h-1.141V18.5zm-.518-3.687h-1.242l-.634 1.134-.653-1.134h-1.255l1.157 1.765-1.268 1.914-1.383-3.679H7.749L6.363 18.5h1.164l.179-.609h1.298l.181.609h2.457l.729-1.185.727 1.185h1.28l-1.255-1.901 1.146-1.786zm-6.317 2.281l.405-1.325.407 1.325h-.812z" fill="#036"/></svg>