<svg xmlns="http://www.w3.org/2000/svg" width="19" height="19" viewBox="0 0 19 19"><path d="M13.467 3.217c.312 0 .569-.253.569-.569s-.257-.57-.569-.573a.573.573 0 0 0-.569.573.568.568 0 0 0 .569.569zM8.138 5.045a1.511 1.511 0 1 0 3.002.352 1.511 1.511 0 0 0-3.002-.352zm6.519-1.459a.636.636 0 0 0-.843.32l-.632 1.98s-1.938.747-2.232.846c-.577.186-1.266.13-2.32.407l-2.004.497-1.33-1.198c.265-.461.634-1.087.747-1.284.12-.211.394-.499.531-.64.288.042.59.003.889-.112.468-.183.875-.549 1.146-1.023a2.313 2.313 0 0 0 .295-1.508c-.084-.52-.358-.939-.777-1.174A1.534 1.534 0 0 0 7.368.5c-.218 0-.436.042-.654.13-.467.182-.875.548-1.146 1.023s-.376 1.009-.295 1.508c.05.313.176.598.358.823-.049.186-.15.559-.277.78l-.771 1.337a.594.594 0 0 0-.489.579.59.59 0 0 0 .096.307.5.5 0 0 0 .124.203l1.747 1.673c.126.12.302.183.485.155l.081-.014 1.733-.267.488 3.589-1.265 5.294a.744.744 0 0 0 1.431.394l1.63-5.135.862 2.228-.504 2.538c-.076.411.25.749.645.812.418.066.78-.217.875-.636l.721-2.777a.757.757 0 0 0-.035-.364l-.025-.067-.71-1.898-.64-4.665 1.901-.85.052-.025c.156-.07.285-.2.345-.376l.86-2.408a.642.642 0 0 0-.334-.805zM6.106 1.958c.292-.51.784-.84 1.262-.84.162 0 .313.039.45.116.541.31.653 1.132.249 1.838-.288.51-.784.84-1.262.84a.906.906 0 0 1-.45-.116c-.256-.147-.425-.418-.478-.758a1.735 1.735 0 0 1 .229-1.08z" fill="#036"/></svg>