<svg xmlns="http://www.w3.org/2000/svg" width="19" height="19" viewBox="0 0 19 19"><path d="M14.025 13.142c.446-.197.933-.513 1.148-1.46a.386.386 0 0 0-.116-.369l-.304-.276a.545.545 0 1 0-.789-.716l-.317-.288.052-.06a.778.778 0 0 0-1.166-1.027l-.037.042a.383.383 0 0 0-.274-.081c-.972.094-1.281.734-1.483 1.256-.269-.305-.544-.63-.827-.979a64.45 64.45 0 0 0-.469-.566c.371-.188.737-.52.957-1.263a.384.384 0 0 0-.093-.376l-.279-.288.048-.048a.546.546 0 1 0-.772-.773l-.036.037-.288-.297.183-.184a.775.775 0 0 0 0-1.098.775.775 0 0 0-1.098 0l-.168.168a.382.382 0 0 0-.267-.097c-.815.026-1.192.463-1.432.901a13.088 13.088 0 0 0-1.535-1.11C3.158 3.274 1.757 2.976.5 3.305l.331 1.262c1.998-.523 4.712 1.307 8.067 5.44 1.863 2.295 3.586 3.845 5.266 4.738 1.647.877 3.094 1.038 4.291 1.079l.045-1.303c-1.316-.045-2.729-.232-4.475-1.379zM9.571 4.449a.541.541 0 1 0 0-1.083.541.541 0 0 0 0 1.083zm.957 1.588a.54.54 0 1 0 0-1.081.54.54 0 0 0 0 1.081zm3.511 2.928zm.482 1.023a.542.542 0 1 0 1.082-.07.542.542 0 0 0-1.082.07z" fill="#036"/></svg>