<svg xmlns="http://www.w3.org/2000/svg" width="19" height="19" viewBox="0 0 19 19"><path d="M17.252 8.016c-.076.734-1.506 1.215-1.506 1.215.646.066.719.715.643 1.452-.075.736-.659 1.279-1.307 1.215l-5.319-.54-.755-.012.254 4.428c-.838 3.932-3.05 2.455-3.05 2.455l-.147-3.835c-.121-.477-2.714-5.504-2.714-5.504 0-.267-1.609-.533-1.606-.802.018-2.312 0-4.291 0-6.687C3.467 1.848 4.389.5 8.073.5c1.203 0 2.707.198 3.974.406l3.315.336c.575.059.979.701.906 1.439-.061.568.001 1.017-.412 1.169 0 0 1.154.76 1.081 1.497-.067.631-.127 1.095-.666 1.181 0 0 1.055.751.981 1.488z" fill="#036"/></svg>