<svg xmlns="http://www.w3.org/2000/svg" width="19" height="19" viewBox="0 0 19 19"><path d="M17.237 10.983c-.075-.733-1.504-1.215-1.504-1.215.646-.066.719-.715.643-1.452-.075-.736-.659-1.28-1.306-1.215l-5.314.54-.753.013.253-4.427C8.419-.704 6.209.771 6.209.771l-.147 3.837c-.12.476-2.712 5.503-2.712 5.503 0 .267-1.607.532-1.605.801.018 2.312 0 4.291 0 6.687 1.722-.448 2.643.901 6.322.901 1.202 0 2.705-.198 3.97-.406l3.313-.338c.574-.058.978-.701.904-1.438-.06-.569.001-1.018-.411-1.169 0 0 1.153-.76 1.08-1.499-.067-.63-.496-1.196-.496-1.196.739-.075.885-.734.81-1.471z" fill="#036"/></svg>