<svg xmlns="http://www.w3.org/2000/svg" width="19" height="19" viewBox="0 0 19 19"><path d="M.5 16.562h15.098V13.89H.5v2.672zm15.81 0h.763V13.9h-.763v2.662zm1.425 0h.762V13.9h-.762v2.662zm-2.541-6.931h-2.735a1.325 1.325 0 0 1-1.324-1.323c0-.276.088-.529.229-.742a.443.443 0 0 0-.365-.691.345.345 0 0 0-.106.016 1.87 1.87 0 0 1-.373.04 1.872 1.872 0 0 1-1.867-1.867c0-1.023.819-1.853 1.837-1.868v-.758a2.623 2.623 0 0 0-.021 5.245 2.085 2.085 0 0 0 1.989 2.706v.003h2.735c.616 0 1.115.499 1.115 1.114v1.492h.763l-.005-1.494a1.87 1.87 0 0 0-1.872-1.873zm-.652-2.239l-.533.005c.168-.368.266-.78.266-1.212a2.924 2.924 0 0 0-2.921-2.92h-.169v.763h.169c1.192 0 2.158.966 2.158 2.158 0 .494-.166.946-.447 1.309a.431.431 0 0 0 .361.661h1.117a3.195 3.195 0 0 1 3.196 3.195v1.648h.761V11.35a3.96 3.96 0 0 0-3.958-3.958z" fill="#036"/></svg>