<svg xmlns="http://www.w3.org/2000/svg" width="19" height="19" viewBox="0 0 19 19"><path d="M9.28 17.229h1.227V1.771H9.28v15.458zm-2.046-11.5c-.077-.248-.255-.487-.532-.718-.34-.278-.71-.417-1.11-.417H3.115c-.386 0-.733.139-1.042.417a1.595 1.595 0 0 0-.462.718L.546 9.269a.587.587 0 0 0-.046.208c0 .355.178.533.532.533.247 0 .409-.139.486-.417l.972-3.24h.532l-1.598 5.763h1.552v4.489c0 .401.192.602.578.602s.578-.2.578-.602v-4.513h.579v4.536c0 .386.193.578.578.578.386 0 .579-.192.579-.578v-4.513h1.55L5.8 6.353h.555l.972 3.24c.077.278.239.417.486.417.354 0 .532-.178.532-.533a.457.457 0 0 0-.046-.208l-1.065-3.54zm-2.823-1.39c.354 0 .655-.123.902-.37a1.2 1.2 0 0 0 .37-.879c0-.355-.123-.656-.37-.903a1.228 1.228 0 0 0-.902-.37c-.34 0-.633.124-.88.37-.247.247-.37.548-.37.903 0 .339.123.632.37.879s.54.37.88.37zm10.825-.023c.34 0 .633-.124.88-.37.247-.247.37-.541.37-.88 0-.354-.123-.651-.37-.891s-.54-.359-.88-.359-.633.12-.879.359a1.19 1.19 0 0 0-.37.891c0 .339.123.633.37.88s.539.37.879.37zm2.813.752c-.301-.332-.69-.498-1.169-.498h-3.31c-.447 0-.829.158-1.146.475s-.474.706-.474 1.169v3.841c0 .37.17.556.51.556.323 0 .485-.186.485-.556V6.307h.602V16.49c0 .463.231.694.694.694s.694-.231.694-.694v-5.901h.602v5.901c0 .463.231.694.694.694.479 0 .718-.231.718-.694V6.307h.578v3.749c0 .386.162.578.486.578s.486-.192.486-.578V6.237a1.68 1.68 0 0 0-.45-1.169z" fill="#036"/></svg>