<svg xmlns="http://www.w3.org/2000/svg" width="19" height="19" viewBox="0 0 19 19"><path d="M10.268 4.853l.747-2.694.75 2.694h1.295l.943-4.279h-1.25l-.452 2.391-.662-2.391h-1.253l-.659 2.39L9.275.573H8.02l.951 4.279h1.297zm7.018-1.749c-.059.271-.152.477-.281.618-.13.143-.32.214-.574.214-.26 0-.463-.088-.606-.265-.145-.176-.216-.501-.216-.977 0-.383.06-.664.181-.843a.776.776 0 0 1 .689-.362.763.763 0 0 1 .628.315c.045.061.088.156.129.286l1.168-.26c-.15-.451-.379-.786-.688-1.004S16.984.5 16.446.5c-.689 0-1.223.19-1.598.571-.378.38-.565.924-.565 1.632 0 .532.106.968.32 1.308.215.342.469.579.764.714.295.136.675.203 1.14.203.384 0 .699-.056.947-.167.248-.11.456-.275.623-.493s.29-.488.368-.813l-1.159-.351zM6.454 17.254a4.711 4.711 0 0 1-4.707-4.706c0-1.701.907-3.195 2.264-4.021V7.12A5.959 5.959 0 0 0 .5 12.548 5.96 5.96 0 0 0 6.454 18.5a5.953 5.953 0 0 0 5.217-3.092l-.727-1.456a4.713 4.713 0 0 1-4.49 3.302zm5.258-6.971a.69.69 0 0 0-.613-.371h-4.7V7.761h3.359a.691.691 0 0 0 0-1.384h-3.36v-1.8a1.47 1.47 0 0 0 .785-1.296 1.476 1.476 0 0 0-2.952 0c0 .563.32 1.047.783 1.296v6.026c0 .383.311.691.693.691h4.973l2.516 4.814a.692.692 0 1 0 1.225-.64l-2.709-5.185z" fill="#036"/></svg>