<svg xmlns="http://www.w3.org/2000/svg" width="19" height="19" viewBox="0 0 19 19"><path d="M8.106 5.332c-.085-.273-.281-.537-.588-.792-.375-.307-.784-.46-1.226-.46H3.556c-.426 0-.811.153-1.151.46a1.76 1.76 0 0 0-.51.792L.718 9.243a.629.629 0 0 0-.051.23c0 .393.197.589.588.589.273 0 .452-.154.538-.461l1.073-3.58h.588l-1.765 6.365h1.714v4.961c0 .442.212.664.639.664s.638-.221.638-.663v-4.985h.64v5.011c0 .426.213.639.638.639.426 0 .64-.213.64-.639v-4.986H8.31L6.521 6.022h.613l1.073 3.58c.085.307.265.461.538.461.391 0 .588-.197.588-.589a.495.495 0 0 0-.051-.23L8.106 5.332zM4.988 3.798c.392 0 .724-.136.997-.409.273-.272.409-.596.409-.971 0-.392-.136-.724-.409-.997a1.36 1.36 0 0 0-.997-.409c-.376 0-.699.136-.972.409-.273.272-.41.604-.41.996 0 .375.136.699.409.971.274.274.597.41.973.41zm7.313-.834L11.639.573h-1.253l-.659 2.391L9.275.573H8.02l.951 4.279h1.297l.747-2.694.75 2.694h1.295l.943-4.279h-1.25l-.452 2.391zm4.985.14c-.059.271-.152.477-.281.618-.13.143-.32.214-.574.214-.26 0-.463-.088-.606-.265-.145-.176-.216-.501-.216-.977 0-.383.06-.664.181-.843a.776.776 0 0 1 .689-.362.763.763 0 0 1 .628.315c.045.061.088.156.129.286l1.168-.26c-.15-.451-.379-.786-.688-1.004S16.984.5 16.446.5c-.689 0-1.223.19-1.598.571-.378.38-.565.924-.565 1.632 0 .532.106.968.32 1.308.215.342.469.579.764.714.295.136.675.203 1.14.203.384 0 .699-.056.947-.167.248-.11.456-.275.623-.493s.29-.488.368-.813l-1.159-.351z" fill="#036"/></svg>