<svg xmlns="http://www.w3.org/2000/svg" width="19" height="19" viewBox="0 0 19 19"><path d="M6.333 4.367H2.887c-.465 0-.863.165-1.192.494-.33.33-.495.736-.495 1.218v3.999c0 .386.177.579.531.579.336 0 .505-.193.505-.579V6.175h.626v10.603c0 .481.241.723.723.723s.723-.241.723-.723v-6.145h.626v6.145c0 .481.241.723.723.723.498 0 .748-.241.748-.723V6.175h.602v3.903c0 .401.169.603.506.603.338 0 .506-.201.506-.603V6.103c0-.466-.156-.872-.47-1.217-.312-.346-.718-.519-1.216-.519zm-1.711-.264c.354 0 .659-.129.916-.386s.385-.562.385-.916c0-.369-.128-.678-.385-.927S4.976 1.5 4.622 1.5s-.659.125-.915.374a1.235 1.235 0 0 0-.386.927c0 .354.128.659.385.916s.562.386.916.386zm7.679-1.139L11.639.573h-1.253l-.659 2.391L9.275.573H8.02l.951 4.279h1.297l.747-2.694.75 2.694h1.295l.943-4.279h-1.25l-.452 2.391zm4.985.14c-.059.271-.152.477-.281.618-.13.143-.32.214-.574.214-.26 0-.463-.088-.606-.265-.145-.176-.216-.501-.216-.977 0-.383.06-.664.181-.843a.776.776 0 0 1 .689-.362.763.763 0 0 1 .628.315c.045.061.088.156.129.286l1.168-.26c-.15-.451-.379-.786-.688-1.004S16.984.5 16.446.5c-.689 0-1.223.19-1.598.571-.378.38-.565.924-.565 1.632 0 .532.106.968.32 1.308.215.342.469.579.764.714.295.136.675.203 1.14.203.384 0 .699-.056.947-.167.248-.11.456-.275.623-.493s.29-.488.368-.813l-1.159-.351z" fill="#036"/></svg>