<svg xmlns="http://www.w3.org/2000/svg" width="19" height="19" viewBox="0 0 19 19"><g fill="#036"><path d="M2.256 7.732a1.011 1.011 0 0 0 1.205.767l13.648-3.043a1.01 1.01 0 1 0-.439-1.971L3.022 6.526a1.01 1.01 0 0 0-.766 1.206zm15.59.888a.528.528 0 0 0-.371-.153h-1.914a.528.528 0 0 0-.525.524v6.299a.523.523 0 0 0 .525.524h1.914a.527.527 0 0 0 .371-.152.535.535 0 0 0 .154-.372V8.991a.532.532 0 0 0-.154-.371z"/><path d="M1.609 8.781c-.812-.97-.398-2.685.798-3.137l1.557-.359V3.839a.663.663 0 0 0-.191-.463.66.66 0 0 0-.462-.191H1.654c-.171 0-.342.07-.463.191S1 3.668 1 3.839V15.16c0 .172.07.343.191.463a.663.663 0 0 0 .463.191H3.31c.171 0 .341-.07.463-.191a.66.66 0 0 0 .191-.463V9.455c-.827.255-1.82.03-2.355-.674zm10.382 4.928c-.29-.334-.677-.574-1.161-.721l-1.056-.308v-1.749c.235.015.466.057.692.127.229.069.43.181.605.335l1.057-1.287a2.868 2.868 0 0 0-1.123-.539 5.225 5.225 0 0 0-1.231-.154v-.77h-.726v.77a3.556 3.556 0 0 0-.94.242c-.304.125-.572.286-.803.485s-.417.437-.556.715-.209.591-.209.935c0 .558.145.996.435 1.314.29.319.713.566 1.271.743l.803.241v1.859a3.094 3.094 0 0 1-.858-.182 1.587 1.587 0 0 1-.693-.5l-1.166 1.309c.367.33.79.561 1.271.693.48.132.962.197 1.446.197v.771h.726v-.771c.359-.036.7-.113 1.022-.23.323-.117.605-.278.848-.484a2.2 2.2 0 0 0 .572-.748c.139-.293.209-.634.209-1.022 0-.513-.145-.937-.435-1.271zm-2.943-1.205a4.413 4.413 0 0 0-.198-.055c-.088-.021-.176-.061-.264-.115s-.165-.13-.231-.226a.688.688 0 0 1-.099-.396c0-.234.081-.407.242-.518.161-.109.345-.188.55-.23v1.54zm1.579 2.932a.806.806 0 0 1-.215.236c-.088.066-.188.12-.303.16a2.445 2.445 0 0 1-.335.094v-1.65l.209.077c.095.036.187.075.274.115.089.04.166.089.232.144a.635.635 0 0 1 .158.203c.041.081.061.18.061.297a.61.61 0 0 1-.081.324z"/></g></svg>