<svg xmlns="http://www.w3.org/2000/svg" width="19" height="19" viewBox="0 0 19 19"><path d="M2.703 14.818V4.182c0-.402.146-.751.441-1.046a1.383 1.383 0 0 1 1.037-.434l10.637.002c.414 0 .766.145 1.055.434.283.283.424.631.424 1.045v1.225c.012.404-.129.75-.426 1.047a1.371 1.371 0 0 1-1.045.424l-4.795.008 5.752 5.753c.281.281.41.613.385.996a1.547 1.547 0 0 1-.475 1.004l-1.047 1.047a1.564 1.564 0 0 1-1.004.475 1.237 1.237 0 0 1-.996-.385l-5.754-5.752-.008 4.795c.014.404-.129.752-.424 1.046a1.438 1.438 0 0 1-1.055.434H4.181a1.463 1.463 0 0 1-1.037-.433 1.492 1.492 0 0 1-.441-1.049z" fill="#036"/></svg>