<svg xmlns="http://www.w3.org/2000/svg" width="19" height="19" viewBox="0 0 19 19"><path d="M17.698 2.188v-.43h-4.425v.05a.5.5 0 0 0-1 0v-.05h-2.107a22.054 22.054 0 0 1-.021-.36v-.342a.531.531 0 0 0-.094-.304A.535.535 0 0 0 9.6.5h-.003a.535.535 0 0 0-.536.535v.383l-.02.34H6.727v-.017a.5.5 0 0 0-1 0v.017H1.302v.43h4.425v1.195H1.302v.429h4.425v1.196H1.302v.428h4.425v.932a.5.5 0 0 0 .5.5h2.166c-.067.37-.137.746-.217 1.136-.639 3.115-1.873 7.459-4.135 10.496h1.311a19.08 19.08 0 0 0 1.219-2.123l3.034-2.809 3.045 2.818c.382.767.788 1.472 1.217 2.113h1.312c-2.271-3.038-3.51-7.395-4.149-10.516a45.855 45.855 0 0 1-.213-1.117h1.957a.5.5 0 0 0 .5-.5v-.93h4.425v-.428h-4.425V3.812h4.425v-.429h-4.425V2.188h4.424zm-10.971 0H9.01c-.027.338-.063.74-.113 1.195h-2.17V2.188zm0 1.624h2.122c-.043.371-.095.771-.156 1.196H6.727V3.812zm0 2.055v-.431h1.904c-.021.138-.048.29-.07.432H6.727zm2.134 3.979l.436.402-.707.654c.094-.345.184-.698.271-1.056zm-1.607 5.022a29.632 29.632 0 0 0 .94-2.606l.938.868-1.878 1.738zm1.302-3.146a.318.318 0 0 0-.138-.075l1.193-1.106 1.192 1.104a.307.307 0 0 0-.149.078l-1.05.971-1.048-.972zm1.372-1.474l.424-.392c.085.349.173.692.265 1.03l-.689-.638zm1.639 3.624c.127.344.259.677.395 1.003l-1.884-1.744.939-.87c.174.556.358 1.093.55 1.611zM9.979 8.199c.082.398.168.792.258 1.179l-.626.578-.635-.589c.087-.377.171-.76.251-1.148.095-.464.177-.913.254-1.352h.247c.076.433.158.875.251 1.332zm2.294-2.332h-1.626c-.022-.142-.05-.293-.07-.432h1.696v.432zm0-.859h-1.76c-.06-.425-.111-.824-.155-1.196h1.915v1.196zm0-1.625H10.31c-.05-.455-.086-.857-.113-1.195h2.076v1.195z" fill="#036"/></svg>