<svg xmlns="http://www.w3.org/2000/svg" width="19" height="19" viewBox="0 0 19 19"><path d="M17.698 2.188v-.43h-7.532a22.054 22.054 0 0 1-.021-.36v-.342a.531.531 0 0 0-.094-.304A.535.535 0 0 0 9.6.5h-.003a.535.535 0 0 0-.536.535v.383l-.02.34H1.302v.43H9.01c-.027.338-.063.74-.113 1.195H1.302v.429h7.547c-.043.371-.095.771-.156 1.196H1.302v.428h7.329a48.654 48.654 0 0 1-.455 2.568c-.639 3.115-1.873 7.459-4.135 10.496h1.311a19.08 19.08 0 0 0 1.219-2.123l3.034-2.809 3.045 2.818c.382.767.788 1.472 1.217 2.113h1.312c-2.271-3.038-3.51-7.395-4.149-10.516a47.601 47.601 0 0 1-.452-2.549h7.121v-.426h-7.185c-.06-.425-.111-.824-.155-1.196h7.34v-.429h-7.388c-.05-.455-.086-.857-.113-1.195h7.5zm-7.461 7.19l-.626.578-.635-.589c.087-.377.171-.76.251-1.148.147-.721.271-1.415.378-2.07a48.594 48.594 0 0 0 .632 3.229zm-1.376.468l.436.402-.707.654c.094-.345.184-.698.271-1.056zm-1.607 5.022a29.632 29.632 0 0 0 .94-2.606l.938.868-1.878 1.738zm4.313-.996c.127.344.259.677.395 1.003l-1.884-1.744.939-.87c.174.556.358 1.093.55 1.611zm-.913-2.15l-1.05.971-1.049-.971a.318.318 0 0 0-.138-.075l1.193-1.106 1.192 1.104a.295.295 0 0 0-.148.077zm-.726-1.474l.424-.392c.085.349.173.692.265 1.03l-.689-.638z" fill="#036"/></svg>