<svg xmlns="http://www.w3.org/2000/svg" width="19" height="19" viewBox="0 0 19 19"><path d="M17.709 12.452c.096-.212.152-.447.152-.695 0-.733-.467-1.354-1.113-1.596.135-.244.219-.521.219-.821 0-.941-.764-1.707-1.707-1.707-.338 0-.65.101-.914.269-.297-.504-.84-.847-1.469-.847-.807 0-1.479.561-1.656 1.314-.734.113-1.338.695-1.434 1.471-.051.404.053.792.256 1.113-.352.312-.58.763-.58 1.271 0 .604.315 1.133.791 1.436-.072.189-.117.392-.117.605 0 .738.469 1.359 1.123 1.598.312.341.756.561 1.256.561.299 0 .578-.083.822-.221v2.366h.549v-2.481c.283.208.629.336 1.008.336.818 0 1.5-.576 1.666-1.342.814-.13 1.439-.83 1.439-1.68 0-.351-.107-.679-.291-.95zm-15.139 3.531h6.617v-2.323c-.3-.411-.474-.907-.474-1.435 0-.501.157-.988.443-1.396-.119-.348-.159-.718-.114-1.081.023-.187.082-.362.145-.534v-4.22h-6.617v10.989zm3.966-9.939h1.208v1.905h-1.208v-1.905zm-.015 3.095h1.208v1.906h-1.208v-1.906zm0 3.376h1.208v1.906h-1.208v-1.906zm-2.456-6.471h1.207v1.905h-1.207v-1.905zm0 3.095h1.207v1.906h-1.207v-1.906zm0 3.376h1.207v1.906h-1.207v-1.906zm5.774-4.255c.235-.215.497-.401.803-.512.113-.252.275-.47.461-.666v-.086h.098c.443-.422 1.027-.69 1.676-.69.645 0 1.242.246 1.691.679.225-.067.457-.101.691-.101l.107.011v-5.895h-7.587v3.283h2.06v3.977zm3.419-6.185h.941v1.077h-.941v-1.077zm0 2.52h.941v1.077h-.941v-1.077zm-2.154-2.52h.941v1.077h-.941v-1.077zm0 2.52h.941v1.077h-.941v-1.077zm-2.154-1.444v-1.076h.941v1.077h-.941z" fill="#036"/></svg>