<svg xmlns="http://www.w3.org/2000/svg" width="19" height="19" viewBox="0 0 19 19"><path d="M12.808 14.356c-.009-3.631.021-7.262-.018-10.892C12.654 1.966 11.381.665 9.88.521A3.234 3.234 0 0 0 9.539.5l-.114.001C7.789.498 6.287 1.898 6.205 3.538c-.053.843.005 1.688-.017 2.531.007 3.154-.021 6.309.017 9.463.136 1.507 1.428 2.814 2.938 2.949 1.429.16 2.906-.7 3.42-2.05.272-.655.268-1.377.245-2.075zm-3.27 3.288a2.54 2.54 0 1 1 0-5.079 2.54 2.54 0 0 1 0 5.079zm0-5.622a2.54 2.54 0 1 1 .001-5.08 2.54 2.54 0 0 1-.001 5.08zm0-5.621a2.54 2.54 0 1 1 0-5.079 2.54 2.54 0 0 1 0 5.079zm.001 6.949a1.75 1.75 0 1 0 .001 3.501 1.75 1.75 0 0 0-.001-3.501zm0-5.6a1.75 1.75 0 1 0 .001 3.501 1.75 1.75 0 0 0 0-3.501zm0-5.6a1.75 1.75 0 1 0 .001 3.501 1.75 1.75 0 0 0 0-3.501z" fill="#036"/></svg>