<svg xmlns="http://www.w3.org/2000/svg" width="19" height="19" viewBox="0 0 19 19"><path d="M14.555 7.602c0 .413-.199.619-.597.619h-2.112c-.398 0-.597-.206-.597-.619V6.6c0-.398.198-.598.597-.598h2.112c.397 0 .597.199.597.598v1.002zm-6.014.022c0 .397-.206.597-.619.597H3.358c-.398 0-.598-.199-.598-.597V6.6c0-.398.199-.598.598-.598h4.564c.413 0 .619.199.619.598v1.024zm9.362 4.798h-1.536V7.09c0-.825-.288-1.522-.863-2.09a2.858 2.858 0 0 0-2.08-.853H3.443c-.825 0-1.521.285-2.09.853S.5 6.265.5 7.09v3.775c0 .598.213 1.109.64 1.535.427.426.938.64 1.536.64H6.11c.042-.61.284-1.13.725-1.557s.974-.64 1.6-.64c.612 0 1.141.213 1.59.64.447.427.686.938.714 1.536H18.5c0-.398-.199-.597-.597-.597zm-9.469 1.492a.691.691 0 0 1-.511-.213.699.699 0 0 1-.213-.512c0-.213.071-.387.213-.521a.707.707 0 0 1 .511-.203.71.71 0 0 1 .512.203.685.685 0 0 1 .214.521.697.697 0 0 1-.214.512.696.696 0 0 1-.512.213zm0-2.409c-.469 0-.867.163-1.194.49s-.49.726-.49 1.194c0 .455.163.846.49 1.174.327.326.725.49 1.194.49.455 0 .846-.164 1.173-.49.327-.328.491-.719.491-1.174 0-.469-.164-.867-.491-1.194a1.602 1.602 0 0 0-1.173-.49z" fill="#036"/></svg>