<svg xmlns="http://www.w3.org/2000/svg" width="19" height="19" viewBox="0 0 19 19"><path d="M14.065 8.326a2.592 2.592 0 0 0-.998-4.987c-.21 0-.41.032-.607.079A2.961 2.961 0 0 0 9.501.5a2.961 2.961 0 0 0-2.96 2.917 2.633 2.633 0 0 0-.606-.078 2.594 2.594 0 0 0-.998 4.987 2.955 2.955 0 0 0-2.107 2.823 2.965 2.965 0 0 0 2.965 2.964c.805 0 1.531-.323 2.065-.844.173 1.499.155 4.415-.306 5.23h3.893c-.46-.815-.479-3.731-.307-5.23a2.951 2.951 0 0 0 2.066.844 2.964 2.964 0 0 0 2.963-2.964 2.953 2.953 0 0 0-2.104-2.823z" fill="#036"/></svg>