<svg xmlns="http://www.w3.org/2000/svg" width="19" height="19" viewBox="0 0 19 19"><path d="M8.944 9.035a.763.763 0 0 0 .556.226.731.731 0 0 0 .551-.227l3.979-3.98a.758.758 0 0 0 .232-.556.751.751 0 0 0-.232-.551l-.459-.457a.72.72 0 0 0-.55-.232.724.724 0 0 0-.55.232l-1.797 1.792V.977a.654.654 0 0 0-.23-.516.821.821 0 0 0-.553-.199h-.783a.82.82 0 0 0-.552.199.652.652 0 0 0-.23.516v4.305L6.529 3.49a.729.729 0 0 0-.55-.231.763.763 0 0 0-.558.231l-.456.458a.772.772 0 0 0-.227.551.78.78 0 0 0 .227.556l3.979 3.98zm7.923-.847L15.26 7.75h-1.476l-2.966 2.966a1.789 1.789 0 0 1-1.318.544 1.84 1.84 0 0 1-1.322-.542L5.21 7.75H3.784l-1.538.421C.871 8.287.5 11.391.5 13.238s.37 4.949 1.744 5.068l1.529.4.011.02h.063l.049.012.002-.012h11.285l1.6-.424c1.352-.156 1.717-3.229 1.717-5.064 0-1.795-.35-4.777-1.633-5.05zM2.395 17.252h-.034c-.25-.18-.805-1.521-.805-4.014s.555-3.833.805-4.013h.031l.868-.223c-.303.926-.625 2.353-.625 4.236 0 1.887.322 3.316.627 4.242l-.867-.228zm12.547.482l.003.012a12.914 12.914 0 0 1-.83-4.508c0-2.15.858-4.498.858-4.498l.657.19c-.598 1.061-.783 2.999-.783 4.307 0 1.316.188 3.27.793 4.326l-.698.171zm1.732-.513c-.098-.1-.228-.346-.354-.732h.006c.399 0 .723-.68.723-1.516 0-.838-.323-1.516-.723-1.516-.154 0-.297.102-.414.273a15.534 15.534 0 0 1-.008-.492c0-2.379.506-3.709.77-3.982.264.272.77 1.603.77 3.982-.001 2.381-.506 3.711-.77 3.983z" fill="#036"/></svg>