<svg xmlns="http://www.w3.org/2000/svg" width="19" height="19" viewBox="0 0 19 19"><path d="M9.756 2.911c.224.174.493.267.78.267.408 0 .808-.193 1.067-.516.244-.3.341-.684.268-1.056A1.342 1.342 0 0 0 10.442.505a1.313 1.313 0 0 0-1.17.977 1.315 1.315 0 0 0 .484 1.429zm3.86 5.349L12.1 6.953l-.389-2.479a.592.592 0 0 0-.49-.491L8.789 3.59a.586.586 0 0 0-.505.16L6.155 5.813a.593.593 0 0 0-.156.258l-.795 2.705a.59.59 0 1 0 1.132.332l.75-2.555.795-.77-.586 3.087a1.643 1.643 0 0 0-.011.532l.143 3.863-1.705 4.106a.812.812 0 0 0 .441 1.064.76.76 0 0 0 .312.065c.32 0 .623-.189.754-.504l1.772-4.271a.83.83 0 0 0 .062-.342L8.968 10.8c.03 0 .06-.002.09-.007l1.878 2.3.657 4.592c.06.406.407.697.807.697.039 0 .077-.002.118-.006a.817.817 0 0 0 .69-.926l-.688-4.814a.789.789 0 0 0-.176-.399l-1.962-2.401c.051-.114.088-.232.112-.36l.441-2.326.033.199c.02.138.09.264.195.356l1.678 1.447a.59.59 0 0 0 .775-.892z" fill="#036"/></svg>