<svg xmlns="http://www.w3.org/2000/svg" width="19" height="19" viewBox="0 0 19 19"><path d="M12.701 3.489a1.495 1.495 0 1 0 0-2.99 1.495 1.495 0 0 0 0 2.99zm1.578.421h-2.657c-.63 0-1.088.25-1.472.798l-1.346 1.96H6.471c-.938 0-.885 1.33-.018 1.33h2.69c.21 0 .466-.078.614-.298l1.024-1.464.01 11.411c0 1.142 1.678 1.131 1.678-.025l.001-6.639.327-.004-.002 6.639c0 1.157 1.699 1.187 1.699.029V6.188h.295v4.092c0 .981 1.334.981 1.334.018V5.821c0-1.203-.896-1.911-1.844-1.911zM6.247 9.305l-.797-.796-.796.796.796.796.797-.796zm.759 8.135H5.163l-1.217-6.492H2.877l1.393 7.544h3.629l1.419-7.547H8.25L7.006 17.44zm-1.703-4.206h1.093V12.14H5.303v1.094zm.89-3.221l-.796.796.796.796.796-.796-.796-.796z" fill="#036"/></svg>