<svg xmlns="http://www.w3.org/2000/svg" width="19" height="19" viewBox="0 0 19 19"><path d="M7.853 1.8A1.627 1.627 0 0 0 6.256.621c-.798 0-1.494.568-1.632 1.327-.089.449.032.913.334 1.276.323.384.815.614 1.322.614.351 0 .692-.113.969-.318a1.558 1.558 0 0 0 .604-1.72zM.834 13.244c-.007.551.451 1.003 1.021 1.011l5.499.051h.012c.563 0 1.025-.441 1.03-.986v-.039a1.073 1.073 0 0 0-.388-1.253l-2.495-1.79.11-.409c.003-.008.009-.018.012-.03l.202-.765.008-.031.706-2.681 2.03.123.051.002a.83.83 0 0 0 .624-.282l2.11-2.433a.77.77 0 0 0-.101-1.11.832.832 0 0 0-1.147.096L8.273 4.845 5.234 4.06c-.991-.245-2 .335-2.253 1.295l-.116.443-.9 3.732-.033.26h.002c-.014.346.143.693.452.914l2.189 1.573-2.696-.021-.012-.002c-.565.001-1.025.441-1.033.99zM0 18.344V19h6.844l-.084-.24 2.426-.978L9.673 19H19v-8.24L0 18.344zm11.579.155l-.577-1.442 2.725-1.088.577 1.443-2.725 1.087zm4.54-1.812l-.576-1.443 2.576-1.006.576 1.442-2.576 1.007z" fill="#036"/></svg>