<svg version="1" xmlns="http://www.w3.org/2000/svg" width="19" height="19" viewBox="0 0 19 19"><path d="M9.7 11.6c2.2-.9 1.9-1.8 1.9-3.9-2.2.8-1.9 2.4-1.9 3.9zm-2.4-4c0 2.1-.3 3.1 1.9 3.9.1-1.4.3-3-1.9-3.9zM9.7 15c2.2-.9 1.9-1.8 1.9-3.9-2.2.9-1.9 2.5-1.9 3.9zm-2.4-3.9c0 2.1-.3 3.1 1.9 3.9.1-1.4.3-3-1.9-3.9zm2.4 7.4c2.2-.9 1.9-1.8 1.9-3.9-2.2.9-1.9 2.5-1.9 3.9zm-2.4-3.9c0 2.1-.3 3.1 1.9 3.9.1-1.4.3-3-1.9-3.9zM9.5 4.4C8.1 5.8 8.3 8 9.5 8.7c1.2-.7 1.4-2.9 0-4.3zm1-3.8h.4V5h-.4zm.8 0h.4v6.3h-.4zM9.7.6h.4v3.3h-.4zM7.4.6h.4v6.3h-.4zm.8 0h.4V5h-.4zm.7 0h.4v3.3h-.4z" fill="#036"/></svg>