<svg xmlns="http://www.w3.org/2000/svg" width="19" height="19" viewBox="0 0 19 19"><g transform="translate(-1168.136 59.83) scale(1.83108)" fill="#036"><path d="M647.769-22.571a1.4 1.4 0 0 1-.571-.124 1.387 1.387 0 0 0-1.175 0 1.4 1.4 0 0 1-.571.124c-.203 0-.398-.046-.571-.124a1.392 1.392 0 0 0-1.176 0 1.397 1.397 0 0 1-.571.124c-.202 0-.397-.046-.57-.124a1.391 1.391 0 0 0-1.175 0 1.4 1.4 0 0 1-.571.124 1.4 1.4 0 0 1-.571-.124 1.391 1.391 0 0 0-1.175 0 1.4 1.4 0 0 1-.571.124v-.857c.203 0 .397-.046.571-.124.178-.081.377-.129.587-.129.21 0 .41.048.588.129.173.078.369.124.571.124a1.4 1.4 0 0 0 .571-.124 1.42 1.42 0 0 1 .587-.129c.21 0 .41.048.588.129.173.078.369.124.57.124.203 0 .399-.046.571-.124.178-.081.379-.129.587-.129.21 0 .412.048.589.129.173.078.368.124.571.124a1.4 1.4 0 0 0 .571-.124c.177-.081.378-.129.588-.129.209 0 .41.048.587.129.174.078.37.124.571.124v.857zm-5.806-2.407h-1.606a.587.587 0 0 1-.534-.344l-.595-1.354a.587.587 0 0 1 .569-.729l1.305-.002.896-.407a.198.198 0 0 1 .09-.019.28.28 0 0 1 .279.279c0 .095-.049.18-.121.23l-.974.439c-.065.051-.187.058-.187.058h-.585l.492 1.092h1.086c.108 0 .182.037.248.095l1.064 1.01a.37.37 0 0 1 .019.521.37.37 0 0 1-.521.019l-.925-.888zm5.005-1.835c.021.034.071.049.117.049.09 0 .164-.075.164-.167 0-.044-.021-.083-.041-.121-1.005-1.915-3.715-1.346-4.047-1.221-.055.021-.087.083-.087.145 0 .09.075.164.164.164a.18.18 0 0 0 .066-.01c2.657-.595 3.522.919 3.664 1.161zm.462.172l-3.399 2.143-3.095-7.904c2.769.368 6.291 2.519 6.494 5.761z"/><circle cx="639.494" cy="-28.085" r=".561"/></g></svg>