<svg xmlns="http://www.w3.org/2000/svg" width="19" height="19" viewBox="0 0 19 19"><path d="M13.782 9.243l-1.176-3.911c-.085-.273-.282-.537-.589-.792-.375-.307-.783-.46-1.226-.46H8.056c-.426 0-.811.153-1.151.46a1.76 1.76 0 0 0-.51.792L5.218 9.243a.629.629 0 0 0-.051.23c0 .393.197.589.588.589.273 0 .452-.154.538-.461l1.073-3.58h.588l-1.765 6.365h1.714v4.961c0 .442.212.664.639.664s.638-.221.638-.663v-4.985h.64v5.011c0 .426.213.639.639.639s.64-.213.64-.639v-4.986h1.712l-1.789-6.365h.613l1.072 3.58c.086.307.266.461.538.461.392 0 .588-.197.588-.589a.514.514 0 0 0-.051-.232zM9.488 3.798c.392 0 .723-.136.997-.409.273-.272.409-.596.409-.971 0-.392-.136-.724-.409-.997a1.36 1.36 0 0 0-.997-.409c-.376 0-.699.136-.972.409-.273.272-.41.604-.41.996 0 .375.136.699.409.971.274.274.597.41.973.41z" fill="#036"/></svg>