<svg xmlns="http://www.w3.org/2000/svg" width="19" height="19" viewBox="0 0 19 19"><path d="M15.749 1.76c-.047-.103-.32.021-.359-.09-.016-.449-.014-.916-.226-1.17-.217.202-.189.65-.27.99-.107-.163.047-.587-.225-.586-.08.055.099.467 0 .54-.22-.035.074-.583-.226-.54-.168.157.11.487-.045.631-.172-.232-.142-.668-.404-.811-.271.364.037.88.225 1.08-.547.484-.786 1.023-1.215 1.709-.612.981-1.43 2.67-2.52 3.015-.478.15-.705.156-.989.359-.254.184-.509.356-.72.631-.246.321-.326.792-.763.9-1.89.466-2.932.964-3.06 2.924-.018.277.037.361 0 .63-.134.987-1.062.864-1.574 1.439-.438.493-.394 1.346-1.035 1.71.175.007.365-.202.45-.135.004.394-.405.613-.36.899.238-.257.432-.559.72-.765.014.136-.05.35.091.359.187-.203.35-.43.495-.675-.183 1.272-1.065 1.845-1.35 3.015.134.211.103.586.359.675.311-.225.228-.574.315-.9.155-.577.558-1.081.944-1.619.778-1.087 1.079-2.126 2.069-2.699.088.418-.516.66-.45 1.17.032.252.491.673.765 1.079.229.341.66.829.63 1.215-.023.307-.433.745-.404 1.125.025.352.233.501.314.494.292-.024.266-.926.495-.989.035.505.41.669.495 1.125.233-.021.558.048.72-.045-.185-.638-.881-1.024-.855-1.845.011-.334.306-.861.495-1.305.425-.989.693-1.433 1.26-2.339.203-.325.53-1.024.854-.99.347.036.561.919.72 1.305.618 1.487 1.075 3.053 1.709 4.364.072.094.252.078.316.18.053.126.101.259.135.404.306.063.473.001.81 0 .018-.381-.404-.495-.63-.765-.518-.617-.813-1.771-1.125-2.744a8.234 8.234 0 0 1-.359-1.574c-.067-.581-.231-1.306-.181-1.755.023-.202.197-.4.226-.584a3.606 3.606 0 0 0 0-.99c-.035-.231-.234-.456-.226-.72.022-.631.716-1.046 1.034-1.529.823-1.247 1.225-3.173 1.936-4.408.168.264.524.135.854.179.381.052.721.38 1.035.226.1-.822-.84-.989-.9-1.8zM7.427 15.886c-1.123-1.124.132-2.594.72-3.464.459 1.329-.557 2.312-.72 3.464z" fill="#036"/></svg>