<?xml version="1.0" encoding="iso-8859-1"?>
<!-- Generator: Adobe Illustrator 15.0.0, SVG Export Plug-In . SVG Version: 6.00 Build 0)  -->
<!DOCTYPE svg PUBLIC "-//W3C//DTD SVG 1.1//EN" "http://www.w3.org/Graphics/SVG/1.1/DTD/svg11.dtd">
<svg version="1.1" xmlns="http://www.w3.org/2000/svg" xmlns:xlink="http://www.w3.org/1999/xlink" x="0px" y="0px" width="100px"
	 height="100px" viewBox="0 0 100 100" style="enable-background:new 0 0 100 100;" xml:space="preserve">
<g id="add_x5F_dataset_x5F_to_x5F_basemap">
	<path style="fill:#90A4AE;" d="M90.837,52.701l-10.67-5.665l10.884-7.27c0.727-0.485,1.144-1.315,1.1-2.187
		s-0.543-1.656-1.313-2.065l-39.741-21.1c-0.728-0.387-1.601-0.385-2.329,0.001L9.16,35.516c-0.77,0.41-1.267,1.194-1.311,2.065
		c-0.043,0.871,0.374,1.701,1.099,2.185l10.87,7.261L9.161,52.703c-0.77,0.41-1.268,1.194-1.311,2.065s0.374,1.7,1.099,2.185
		l39.675,26.504c0.417,0.279,0.897,0.418,1.377,0.418s0.96-0.139,1.377-0.418l1.507-1.007c-0.481-1.727-0.777-3.53-0.858-5.391
		l-2.025,1.354L15.15,55.132l9.349-4.979l24.125,16.115c0.417,0.279,0.897,0.418,1.377,0.418c0.48,0,0.96-0.139,1.377-0.418
		l4.124-2.755c3.605-5.906,9.692-10.134,16.812-11.23l3.17-2.118l3.916,2.08c4.266,0.605,8.168,2.333,11.403,4.874l0.247-0.165
		c0.727-0.484,1.144-1.315,1.1-2.187S91.607,53.11,90.837,52.701z M74.161,45.084c-0.144,0.076-0.279,0.167-0.407,0.272
		L50.001,61.224l-34.852-23.28l34.785-18.531l34.91,18.535L74.161,45.084z M52.217,31.208c2.528,0,4.578-1.194,4.578-2.67
		s-2.05-2.67-4.578-2.67c-2.526,0-4.577,1.194-4.577,2.67S49.69,31.208,52.217,31.208z M33.663,32.832
		c-3.937,0-7.12,1.896-7.12,4.233c0,2.344,3.184,4.238,7.12,4.238c3.93,0,7.112-1.895,7.112-4.238
		C40.775,34.728,37.593,32.832,33.663,32.832z M56.795,35.302c-5.808,0-10.524,2.951-10.524,6.587c0,3.642,4.717,6.592,10.524,6.592
		c5.815,0,10.525-2.95,10.525-6.592C67.32,38.253,62.61,35.302,56.795,35.302z M88.434,72.066h-8.501v-8.501
		c0-0.555-0.194-1.011-0.581-1.399c-0.375-0.373-0.845-0.567-1.385-0.567h-3.934c-0.54,0-1.01,0.194-1.385,0.567
		c-0.387,0.389-0.581,0.845-0.581,1.399v8.501h-8.501c-0.555,0-1.011,0.194-1.399,0.581c-0.373,0.373-0.567,0.845-0.567,1.385v3.934
		c0,0.539,0.194,1.01,0.567,1.383c0.389,0.389,0.845,0.583,1.399,0.583h8.501v8.501c0,0.555,0.194,1.011,0.581,1.399
		c0.375,0.373,0.845,0.567,1.385,0.567h3.934c0.54,0,1.01-0.194,1.385-0.567c0.387-0.389,0.581-0.845,0.581-1.399v-8.501h8.501
		c0.555,0,1.011-0.194,1.399-0.583c0.373-0.373,0.567-0.844,0.567-1.383v-3.934c0-0.54-0.194-1.012-0.567-1.385
		C89.444,72.261,88.988,72.066,88.434,72.066z"/>
	<rect style="fill:none;" width="100" height="100"/>
</g>
<g id="Calque_1">
</g>
</svg>
