<svg xmlns="http://www.w3.org/2000/svg" viewBox="0 0 411 155"><defs><style>.cls-1{fill:#fff;}.cls-2{fill:#52e899;}</style></defs><title>ODS</title><g id="Calque_4" data-name="Calque 4"><polygon class="cls-1" points="72.61 81.9 88.13 84.41 88.12 68.19 71.89 65.89 72.61 81.9"/><polygon class="cls-1" points="73.53 102.07 88.13 104.78 88.13 90.49 72.89 87.92 73.53 102.07"/><polygon class="cls-1" points="49.51 56.13 65.14 58.2 64.01 40.04 47.63 38.24 49.51 56.13"/><polygon class="cls-1" points="28.62 53.35 43.42 55.32 41.27 37.54 25.82 35.83 28.62 53.35"/><polygon class="cls-1" points="51.86 78.56 66.57 80.93 65.57 65 50.21 62.83 51.86 78.56"/><polygon class="cls-1" points="100.61 56.59 93.1 60.82 93.35 42.33 101.22 38.72 100.61 56.59"/><polygon class="cls-1" points="99.86 79.01 92.79 83.89 93 67.72 100.39 63.29 99.86 79.01"/><polygon class="cls-1" points="110.13 51.24 103.44 55 104.17 37.36 111.13 34.17 110.13 51.24"/><polygon class="cls-1" points="71.58 59.05 88.13 61.26 88.12 42.7 70.75 40.78 71.58 59.05"/><polygon class="cls-1" points="81.07 32.92 97.9 34.59 89.83 38.03 72.4 36.22 81.07 32.92"/><polygon class="cls-1" points="92 28.77 108.06 30.26 100.93 33.3 84.33 31.69 92 28.77"/><polygon class="cls-1" points="101.75 25.07 117.09 26.4 110.74 29.11 94.9 27.67 101.75 25.07"/><polygon class="cls-1" points="58.63 30.7 74.53 32.27 65.64 35.51 49.22 33.8 58.63 30.7"/><polygon class="cls-1" points="70.47 26.77 85.69 28.18 77.81 31.05 62.11 29.52 70.47 26.77"/><polygon class="cls-1" points="37.39 28.59 52.44 30.09 42.84 33.13 27.34 31.52 37.39 28.59"/><path class="cls-1" d="M123,64.05c0-15.31,4.72-21.18,13.35-21.18,8.17,0,13.29,6.45,13.29,20.2,0,15.31-4.72,21.29-13.29,21.29C128.32,84.37,123,77.81,123,64.05Zm17.49-.58c0-11.45-1.21-14.21-4.26-14.21-2.82,0-4.09,3.28-4.09,14.21,0,11.86,1.21,14.5,4.26,14.5S140.52,75.74,140.52,63.48Z"/><path class="cls-1" d="M152,54.16l7.08-.86a9,9,0,0,1,.46,2.48A7.27,7.27,0,0,1,165,53.23c5.87,0,8.81,4,8.81,15.25,0,11.86-3.4,15.88-9.9,15.88a5.8,5.8,0,0,1-3.74-1.21V93.69l-8.17,1Zm13.29,14.79c0-7.89-.86-9.44-2.82-9.44a2.88,2.88,0,0,0-2.3,1.21V77.81a2.71,2.71,0,0,0,2.07.92C164.46,78.73,165.33,77.46,165.33,68.95Z"/><path class="cls-1" d="M175.34,68.89c0-10.07,4-15.65,10.76-15.65,7,0,10.13,4.32,10.13,14.79v3.51H183.34c.17,5,1.5,6.68,4.49,6.68a8.12,8.12,0,0,0,5.47-2.42l2.93,5.41A13.86,13.86,0,0,1,187,84.37C179.14,84.37,175.34,79.48,175.34,68.89Zm13.29-2.42c0-6.16-.58-7.6-2.42-7.6-2,0-2.76,1.61-2.88,7.6Z"/><path class="cls-1" d="M198.59,54.16l7.08-.86a8.66,8.66,0,0,1,.4,2.94,8,8,0,0,1,6.45-3c4.32,0,7,2.36,7,7.37V83.68h-8.17V62.44c0-2.13-.52-2.82-2-2.82a3.67,3.67,0,0,0-2.59,1.21V83.68h-8.17Z"/><path class="cls-1" d="M222.82,43.57h10.53c10.13,0,14.45,6,14.45,19.51,0,13.7-4.6,20.6-14.1,20.6H222.82Zm10.3,33.61c4.37,0,5.47-2.42,5.47-14.21,0-10.53-1-12.95-5.64-12.95h-1.5V77.18Z"/><path class="cls-1" d="M261.72,81.66a5.46,5.46,0,0,1-5.12,2.76c-4.43,0-7.77-2.88-7.77-8.75,0-7,3.63-9.38,9.9-9.38a16.07,16.07,0,0,1,2.42.17V62.62c0-2.19-1.21-2.88-3-2.88a10.49,10.49,0,0,0-5.87,2L249.63,56a19.07,19.07,0,0,1,10-2.76c6.45,0,9.55,2.65,9.55,8.17V77.46a10.78,10.78,0,0,0,1,5.18l-7,1.9A4.1,4.1,0,0,1,261.72,81.66Zm-.58-3.86V70.56a7.53,7.53,0,0,0-1.32-.12c-2.42,0-3.51,1-3.51,4.72,0,3.34.86,4.32,2.53,4.32A2.46,2.46,0,0,0,261.14,77.81Z"/><path class="cls-1" d="M272.83,77.35V59.57h-2V54h2.3a61.66,61.66,0,0,1,.29-7.42l7.6-1.15V54h4l-.11,5.58H281V76c0,1.84.34,2.36,1.84,2.36a4.8,4.8,0,0,0,2.07-.46l.63,5.47a12.79,12.79,0,0,1-5.52,1C275.18,84.43,272.83,82.24,272.83,77.35Z"/><path class="cls-1" d="M299.7,81.66a5.46,5.46,0,0,1-5.12,2.76c-4.43,0-7.77-2.88-7.77-8.75,0-7,3.63-9.38,9.9-9.38a16.07,16.07,0,0,1,2.42.17V62.62c0-2.19-1.21-2.88-3-2.88a10.49,10.49,0,0,0-5.87,2L287.61,56a19.07,19.07,0,0,1,10-2.76c6.45,0,9.55,2.65,9.55,8.17V77.46a10.78,10.78,0,0,0,1,5.18l-7,1.9A4.1,4.1,0,0,1,299.7,81.66Zm-.58-3.86V70.56a7.52,7.52,0,0,0-1.32-.12c-2.42,0-3.51,1-3.51,4.72,0,3.34.86,4.32,2.53,4.32A2.46,2.46,0,0,0,299.12,77.81Z"/><path class="cls-1" d="M308.56,81.43,311.32,75a12.18,12.18,0,0,0,6.91,2.65c3.05,0,4.78-1.84,4.78-5.41,0-2.93-1.09-4.26-4.2-5.18l-1-.29c-5.06-1.5-8.11-4.14-8.11-11.8s4.09-12.14,11.63-12.14a16,16,0,0,1,9.78,2.93l-3.28,6.27a8.85,8.85,0,0,0-5.93-2.48c-2.65,0-4,1.84-4,4.55s.75,4,3.63,4.95l1,.29c6,1.73,8.92,4.89,8.92,11.57,0,8.58-4.2,13.41-12.49,13.41C314.72,84.37,310.58,83,308.56,81.43Z"/><path class="cls-1" d="M332.79,68.95c0-10.53,4.2-15.71,11.34-15.71s11.11,4.89,11.11,15c0,11.11-3.86,16.11-11.28,16.11C336.76,84.37,332.79,79.42,332.79,68.95Zm14-.58c0-7.88-.75-9.44-2.71-9.44S341.3,61,341.3,68.72c0,8.11.75,10,2.7,10S346.77,76.49,346.77,68.37Z"/><path class="cls-1" d="M372,77.35V59.57h-5.52V83.68h-8.17V59.57h-2.07V54h2V49.26c0-5.47,2.24-7.77,7.6-7.77a13.16,13.16,0,0,1,5.29,1l-1.15,5.64a3.15,3.15,0,0,0-1.67-.46c-1.32,0-2,.75-2,2.42V54h6a61.9,61.9,0,0,1,.29-7.42l7.6-1.15V54h4l-.12,5.58h-3.91V76c0,1.84.35,2.36,1.84,2.36a4.8,4.8,0,0,0,2.07-.46l.63,5.47a12.79,12.79,0,0,1-5.52,1C374.34,84.43,372,82.24,372,77.35Z"/><path class="cls-2" d="M184.72,100.79H192c7,0,10,4.18,10,13.51,0,9.48-3.19,14.26-9.76,14.26h-7.53Zm7.13,23.27c3,0,3.78-1.67,3.78-9.84,0-7.29-.72-9-3.9-9h-1v18.8Z"/><path class="cls-2" d="M203.24,118.36c0-7.29,2.91-10.88,7.85-10.88s7.69,3.39,7.69,10.4c0,7.69-2.67,11.16-7.81,11.16C206,129,203.24,125.61,203.24,118.36Zm9.68-.4c0-5.46-.52-6.53-1.87-6.53s-1.91,1.43-1.91,6.77c0,5.62.52,6.89,1.87,6.89S212.92,123.58,212.92,118Z"/><path class="cls-2" d="M220.18,118.36c0-7.29,2.63-10.88,7.85-10.88a8.26,8.26,0,0,1,4.74,1.32l-1.39,3.94a3.46,3.46,0,0,0-2.43-.84c-1.71,0-2.87,1-2.87,6.29,0,5.54,1.12,6.49,2.87,6.49a3.53,3.53,0,0,0,2.47-1l1.35,3.9a8.18,8.18,0,0,1-5,1.39C222.73,129,220.18,125.61,220.18,118.36Z"/><path class="cls-2" d="M234.08,123.94V108.16l5.66-.52V122.7c0,1.43.36,2,1.39,2a2.58,2.58,0,0,0,1.79-.88V108.16l5.66-.52V128.4l-4.9.6a6.15,6.15,0,0,1-.28-2,5.45,5.45,0,0,1-4.46,2.07C235.91,129,234.08,127.4,234.08,123.94Z"/><path class="cls-2" d="M250.93,108.12l4.74-.6a6.07,6.07,0,0,1,.28,2,5.27,5.27,0,0,1,4.22-2c2,0,3.39.76,4.06,2.39a4.81,4.81,0,0,1,4.42-2.39c2.87,0,4.7,1.55,4.7,4.86v16.21h-5.46v-15c0-1.28-.36-1.71-1.31-1.71a2.48,2.48,0,0,0-1.71.8v15.94h-5.46v-15c0-1.28-.36-1.71-1.31-1.71a2.4,2.4,0,0,0-1.71.8v15.94h-5.46Z"/><path class="cls-2" d="M275,118.32c0-7,2.75-10.84,7.45-10.84,4.86,0,7,3,7,10.24v2.43h-8.92c.12,3.47,1,4.62,3.11,4.62a5.62,5.62,0,0,0,3.78-1.67l2,3.75a9.6,9.6,0,0,1-6.37,2.19C277.67,129,275,125.65,275,118.32Zm9.2-1.67c0-4.26-.4-5.26-1.67-5.26s-1.91,1.12-2,5.26Z"/><path class="cls-2" d="M291.33,108.12l4.9-.6a6,6,0,0,1,.28,2,5.51,5.51,0,0,1,4.46-2.07c3,0,4.86,1.63,4.86,5.1v16h-5.66v-14.7c0-1.47-.36-2-1.39-2a2.54,2.54,0,0,0-1.79.84v15.82h-5.66Z"/><path class="cls-2" d="M308.59,124.17V111.86h-1.39V108h1.59a42.91,42.91,0,0,1,.2-5.14l5.26-.8V108H317l-.08,3.86h-2.71v11.39c0,1.28.24,1.63,1.27,1.63a3.31,3.31,0,0,0,1.43-.32l.44,3.79a8.85,8.85,0,0,1-3.82.72C310.22,129.07,308.59,127.56,308.59,124.17Z"/><path class="cls-2" d="M327.39,127.16a3.78,3.78,0,0,1-3.55,1.91c-3.07,0-5.38-2-5.38-6.06,0-4.86,2.51-6.49,6.85-6.49a11,11,0,0,1,1.67.12V114c0-1.51-.84-2-2.07-2a7.26,7.26,0,0,0-4.06,1.36L319,109.39a13.2,13.2,0,0,1,6.93-1.91c4.46,0,6.61,1.83,6.61,5.66v11.12a7.47,7.47,0,0,0,.72,3.59l-4.86,1.31A2.84,2.84,0,0,1,327.39,127.16Zm-.4-2.67v-5a5.28,5.28,0,0,0-.92-.08c-1.67,0-2.43.68-2.43,3.27,0,2.31.6,3,1.75,3A1.7,1.7,0,0,0,327,124.49Z"/><path class="cls-2" d="M335.28,124.17V111.86h-1.39V108h1.59a42.91,42.91,0,0,1,.2-5.14l5.26-.8V108h2.79l-.08,3.86h-2.71v11.39c0,1.28.24,1.63,1.27,1.63a3.31,3.31,0,0,0,1.43-.32l.44,3.79a8.85,8.85,0,0,1-3.82.72C336.91,129.07,335.28,127.56,335.28,124.17Z"/><path class="cls-2" d="M345.52,102.54a2.91,2.91,0,1,1,5.82,0,2.91,2.91,0,0,1-5.82,0Zm0,5.5,5.66-.52v21h-5.66Z"/><path class="cls-2" d="M353,118.36c0-7.29,2.91-10.88,7.85-10.88s7.69,3.39,7.69,10.4c0,7.69-2.67,11.16-7.81,11.16C355.8,129,353,125.61,353,118.36Zm9.68-.4c0-5.46-.52-6.53-1.87-6.53s-1.91,1.43-1.91,6.77c0,5.62.52,6.89,1.87,6.89S362.73,123.58,362.73,118Z"/><path class="cls-2" d="M370.34,108.12l4.9-.6a6,6,0,0,1,.28,2,5.51,5.51,0,0,1,4.46-2.07c3,0,4.86,1.63,4.86,5.1v16h-5.66v-14.7c0-1.47-.36-2-1.39-2a2.54,2.54,0,0,0-1.79.84v15.82h-5.66Z"/><path class="cls-2" d="M170.11,128.56H153.73a1.7,1.7,0,0,1-1.69-1.69V102.75a1.7,1.7,0,0,1,1.69-1.69h9.95a.91.91,0,1,1,0,1.81h-9.83v23.88H170V109.08a.91.91,0,0,1,1.81,0v17.78A1.7,1.7,0,0,1,170.11,128.56Z"/><path class="cls-2" d="M170.61,109.77h-6.9a.91.91,0,0,1-.91-.91V102a.91.91,0,0,1,1.55-.64l6.9,6.9a.91.91,0,0,1-.64,1.55Zm-6-1.81h3.81l-3.81-3.81Z"/><path class="cls-2" d="M167.66,113.06H156.17a.91.91,0,1,1,0-1.81h11.49a.91.91,0,1,1,0,1.81Z"/><path class="cls-2" d="M167.66,117H156.17a.91.91,0,1,1,0-1.81h11.49a.91.91,0,1,1,0,1.81Z"/><path class="cls-2" d="M167.66,120.92H156.17a.91.91,0,1,1,0-1.81h11.49a.91.91,0,1,1,0,1.81Z"/><path class="cls-2" d="M162.64,124.85h-6.47a.91.91,0,1,1,0-1.81h6.47a.91.91,0,1,1,0,1.81Z"/></g></svg>